<svg width="1200px" height="671px" viewBox="0 0 1200 671" version="1.1" xmlns="http://www.w3.org/2000/svg">
  <g stroke="none" stroke-width="1" fill="none" fill-rule="evenodd">
    <rect fill="#F9F9FB" x="0" y="0" width="1200" height="671"></rect>
    <rect fill="#FFFFFF" x="115" y="90" width="970" height="80"></rect>
    <polygon fill="#C9C9D6"
             transform="translate(151.000000, 130.000000) rotate(-270.000000) translate(-151.000000, -130.000000) "
             points="151 124 163 136 139 136"></polygon>
    <rect fill="#FFFFFF" x="115" y="200" width="970" height="262"></rect>
    <polygon fill="#C9C9D6"
             transform="translate(157.000000, 240.000000) rotate(-180.000000) translate(-157.000000, -240.000000) "
             points="157 234 169 246 145 246"></polygon>
    <line x1="115" y1="276.5" x2="1085" y2="276.5" stroke="#DEDEE6" stroke-width="2"></line>
    <rect fill="#FFFFFF" x="115" y="492" width="970" height="80"></rect>
    <polygon fill="#C9C9D6"
             transform="translate(151.000000, 532.000000) rotate(-270.000000) translate(-151.000000, -532.000000) "
             points="151 526 163 538 139 538"></polygon>
    <text font-family="Roboto-Medium, Roboto" font-size="26" font-weight="400" fill="#2E3138">
      <tspan x="187" y="139">Section 1</tspan>
    </text>
    <text font-family="Roboto-Medium, Roboto" font-size="26" font-weight="400" fill="#2E3138">
      <tspan x="187" y="246">Section 2</tspan>
    </text>
    <text font-family="Roboto-Medium, Roboto" font-size="26" font-weight="400" fill="#2E3138">
      <tspan x="187" y="541">Section 3</tspan>
    </text>
    <text font-family="Roboto-Regular, Roboto" font-size="26" font-weight="normal" line-spacing="40"
          fill="#2E3138">
      <tspan x="145" y="326">Donec mauris elit, pharetra auctor ultricies eu, luctus id sapien.</tspan>
      <tspan x="145" y="366">Phasellus a justo porttitor, fermentum tortor et, rutrum mi. Nullam</tspan>
      <tspan x="145" y="406">quam lacus, suscipit ac neque eget, ultricies commodo ligula.</tspan>
    </text>
  </g>
</svg>
