<?xml version="1.0" encoding="UTF-8"?>
<svg width="1200px" height="328px" viewBox="0 0 1200 328" version="1.1" xmlns="http://www.w3.org/2000/svg">
  <g stroke="none" stroke-width="1" fill="none" fill-rule="evenodd">
    <rect fill="#F9F9FB" x="0" y="0" width="1200" height="328"></rect>
    <line x1="0" y1="94" x2="1200.5" y2="94.5" stroke="#DEDEE6" stroke-width="2"></line>
    <line x1="0" y1="151.5" x2="1200.5" y2="152" stroke="#DEDEE6" stroke-width="2"></line>
    <line x1="0" y1="248" x2="1200.5" y2="248.5" stroke="#DEDEE6" stroke-width="2"></line>
    <path
      d="M263.2,249.72 C277.6,249.72 289.36,247.04 298.48,241.68 C307.6,236.32 312.16,228.2 312.16,217.32 C312.16,208.84 310.12,202.8 306.04,199.2 C301.96,195.6 296.4,192.68 289.36,190.44 C288.88,190.28 288.68,190 288.76,189.6 C288.84,189.2 289.04,188.92 289.36,188.76 C294.32,186.84 298.08,184.08 300.64,180.48 C303.2,176.88 304.48,171.8 304.48,165.24 C304.48,156.6 300.84,150.28 293.56,146.28 C286.28,142.28 276.24,140.28 263.44,140.28 C258.16,140.28 253.2,140.52 248.56,141 C243.44,141.32 240,141.48 238.24,141.48 C235.68,141.48 232.16,141.32 227.68,141 C224.32,140.52 220.4,140.28 215.92,140.28 C214.96,140.28 213.92,140.56 212.8,141.12 C211.68,141.68 211.12,142.36 211.12,143.16 C211.12,144.28 211.68,145.24 212.8,146.04 C213.92,146.84 215.28,147.4 216.88,147.72 C221.84,148.52 225.4,150.28 227.56,153 C229.72,155.72 230.8,159.56 230.8,164.52 L230.8,164.52 L230.8,230.04 C230.8,234.04 229.4,236.96 226.6,238.8 C223.8,240.64 219.92,242.04 214.96,243 C211.12,243.64 209.2,244.92 209.2,246.84 C209.2,247.48 209.56,248.04 210.28,248.52 C211,249 211.76,249.32 212.56,249.48 C214.8,249.32 218.2,249.12 222.76,248.88 C227.32,248.64 232.24,248.44 237.52,248.28 C241.2,248.28 246.88,248.6 254.56,249.24 L254.56,249.24 L263.2,249.72 Z M256.72,187.56 C254.16,187.56 252.2,187.12 250.84,186.24 C249.48,185.36 248.8,183.8 248.8,181.56 L248.8,181.56 L248.8,155.4 C248.8,150.44 253.68,147.96 263.44,147.96 C271.92,147.96 277.68,149.76 280.72,153.36 C283.76,156.96 285.28,161.64 285.28,167.4 C285.28,175.56 282.6,180.96 277.24,183.6 C271.88,186.24 265.04,187.56 256.72,187.56 Z M265.6,242.52 C260.96,242.52 257,241.16 253.72,238.44 C250.44,235.72 248.8,232.36 248.8,228.36 L248.8,228.36 L248.8,201.96 C248.8,199.72 249.64,197.96 251.32,196.68 C253,195.4 255.2,194.76 257.92,194.76 C268.8,194.76 276.96,196.4 282.4,199.68 C287.84,202.96 290.56,209.08 290.56,218.04 C290.56,225.08 288.36,230.92 283.96,235.56 C279.56,240.2 273.44,242.52 265.6,242.52 Z M446.8,249.72 C447.76,249.72 448.8,249.44 449.92,248.88 C451.04,248.32 451.6,247.64 451.6,246.84 C451.6,245.72 451.04,244.8 449.92,244.08 C448.8,243.36 447.52,242.84 446.08,242.52 C441.76,241.72 438.44,239.68 436.12,236.4 C433.8,233.12 431.6,228.76 429.52,223.32 L429.52,223.32 L397.12,140.04 C396.96,139.4 396.76,138.88 396.52,138.48 C396.28,138.08 395.92,137.88 395.44,137.88 C394.64,137.88 393.36,138.84 391.6,140.76 L391.6,140.76 L382.24,150.6 C382.08,150.76 381.92,151.92 381.76,154.08 C381.6,156.24 380.8,159.08 379.36,162.6 L379.36,162.6 L351.52,226.92 C349.76,231.08 347.88,234.2 345.88,236.28 C343.88,238.36 341.96,239.76 340.12,240.48 C338.28,241.2 335.6,241.96 332.08,242.76 C328.4,243.72 326.56,245.08 326.56,246.84 C326.56,247.64 327.12,248.32 328.24,248.88 C329.36,249.44 330.4,249.72 331.36,249.72 C335.36,249.72 338.56,249.48 340.96,249 C344.16,248.68 347.04,248.52 349.6,248.52 C352.32,248.52 355.28,248.68 358.48,249 C361.2,249.48 364.64,249.72 368.8,249.72 C369.76,249.72 370.8,249.44 371.92,248.88 C373.04,248.32 373.6,247.64 373.6,246.84 C373.6,245.72 373.16,244.88 372.28,244.32 C371.4,243.76 370,243.16 368.08,242.52 C364.88,241.4 362.6,240.28 361.24,239.16 C359.88,238.04 359.2,236.12 359.2,233.4 C359.2,231.48 359.52,229.6 360.16,227.76 C360.8,225.92 362.08,222.84 364,218.52 C364.48,217.4 365,216.64 365.56,216.24 C366.12,215.84 366.88,215.64 367.84,215.64 L367.84,215.64 L403.84,215.64 C405.6,215.64 406.76,215.76 407.32,216 C407.88,216.24 408.24,216.68 408.4,217.32 L408.4,217.32 L412.48,230.28 C413.12,232.04 413.44,233.64 413.44,235.08 C413.44,237 412.76,238.48 411.4,239.52 C410.04,240.56 407.6,241.56 404.08,242.52 C400.4,243.48 398.56,244.92 398.56,246.84 C398.56,247.64 399.12,248.32 400.24,248.88 C401.36,249.44 402.4,249.72 403.36,249.72 C407.84,249.72 411.76,249.48 415.12,249 C419.6,248.68 423.12,248.52 425.68,248.52 C428.4,248.52 431.68,248.68 435.52,249 C438.88,249.48 442.64,249.72 446.8,249.72 Z M401.68,207 L372.88,207 C370.64,207 369.52,206.6 369.52,205.8 C369.52,205.32 369.6,204.92 369.76,204.6 L369.76,204.6 L377.92,185.4 L385.6,166.68 C386.24,164.92 386.8,164.04 387.28,164.04 C387.76,164.04 388.32,164.92 388.96,166.68 L388.96,166.68 L392.56,175.8 C399.28,192.28 402.96,201.88 403.6,204.6 C403.92,205.72 404,206.4 403.84,206.64 C403.68,206.88 402.96,207 401.68,207 L401.68,207 Z M537.88,249.36 C547.08,249.6 554.64,249.64 560.56,249.48 C561.36,249.48 562.2,249.16 563.08,248.52 C563.96,247.88 564.48,247.24 564.64,246.6 L566.08,241.8 C566.24,241 566.84,238.84 567.88,235.32 C568.92,231.8 569.6,228.68 569.92,225.96 C569.92,224.68 569.76,223.4 569.44,222.12 C569.12,220.84 568.48,220.2 567.52,220.2 C566.24,220.2 565.2,221.08 564.4,222.84 C563.6,224.6 563.2,225.56 563.2,225.72 C561.44,229.72 558.8,233.24 555.28,236.28 C551.76,239.32 547.76,240.84 543.28,240.84 L543.28,240.84 L502.48,240.84 C501.52,240.84 500.28,240.88 498.76,240.96 C497.24,241.04 496,240.96 495.04,240.72 C494.08,240.48 493.6,239.96 493.6,239.16 C493.6,238.36 494.32,236.92 495.76,234.84 L495.76,234.84 L555.76,152.04 C556.88,150.28 558,148.84 559.12,147.72 C559.92,146.76 560.52,145.92 560.92,145.2 C561.32,144.48 561.52,143.72 561.52,142.92 C561.52,141.32 560.64,140.52 558.88,140.52 L558.88,140.52 L549.52,140.76 C534.32,141.24 524.32,141.4 519.52,141.24 L519.52,141.24 L490.96,141 C487.28,141 484,140.28 481.12,138.84 C480.64,138.68 480,138.4 479.2,138 C478.4,137.6 477.68,137.4 477.04,137.4 C475.44,137.4 474.16,138.36 473.2,140.28 C471.92,143 470.32,147.36 468.4,153.36 C466.48,159.36 465.52,163.08 465.52,164.52 C465.52,165.96 465.68,166.96 466,167.52 C466.32,168.08 467.12,168.36 468.4,168.36 C469.36,168.36 470.56,167.32 472,165.24 C473.44,163.16 474.64,161.24 475.6,159.48 C476.88,156.76 479.36,154.28 483.04,152.04 C486.72,149.8 490,148.68 492.88,148.68 C509.52,148.68 521.2,148.84 527.92,149.16 C530.8,149.32 532.24,149.72 532.24,150.36 L532.24,150.36 L532.24,150.6 C532.24,150.76 532.16,150.92 532,151.08 L532,151.08 L473.92,231.24 C468.48,238.6 465.76,243.56 465.76,246.12 C465.76,247.08 466.28,247.88 467.32,248.52 C468.36,249.16 469.52,249.48 470.8,249.48 L470.8,249.48 L478.96,249.24 C483.76,248.92 488.72,248.76 493.84,248.76 L493.84,248.76 L518.8,249 C522.32,249 528.68,249.12 537.88,249.36 Z"
      fill="#C9C9D6" fill-rule="nonzero"></path>
    <path
      d="M682.145,249.635 L682.204821,249.620599 C682.90431,249.466326 685.102703,249.259459 688.8,249 C693.36,248.68 697.96,248.44 702.6,248.28 C705.96,248.28 710.36,248.6 715.8,249.24 L715.8,249.24 L722.04,249.72 C736.12,249.72 747.2,247.52 755.28,243.12 C763.36,238.72 767.4,231.24 767.4,220.68 C767.4,214.44 765.04,209.44 760.32,205.68 C755.6,201.92 750.44,199.48 744.84,198.36 C743.88,198.2 743.48,198 743.64,197.76 C743.8,197.52 744.2,197.32 744.84,197.16 C750.28,195.72 754.68,193.08 758.04,189.24 C761.4,185.4 763.08,180.44 763.08,174.36 C763.08,166.68 759.44,160.96 752.16,157.2 C744.88,153.44 734.92,151.56 722.28,151.56 C718.28,151.56 714.2,151.72 710.04,152.04 C706.52,152.36 703.88,152.52 702.12,152.52 L702.12,152.52 L694.92,152.28 C691.72,151.96 688.36,151.8 684.84,151.8 C681.64,151.8 680.04,152.52 680.04,153.96 C680.04,155.08 680.48,155.92 681.36,156.48 C682.24,157.04 683.64,157.64 685.56,158.28 C691.48,160.04 694.44,163.88 694.44,169.8 L694.44,169.8 L694.44,234.84 C694.44,236.92 693.92,238.52 692.88,239.64 C691.84,240.76 690.32,241.6 688.32,242.16 C686.32,242.72 684.92,243.08 684.12,243.24 C682.2,243.88 680.8,244.48 679.92,245.04 C679.04,245.6 678.6,246.44 678.6,247.56 C678.6,248.694545 679.742185,249.382149 682.026556,249.62281 L682.145,249.635 Z M718.2,194.52 C713.56,194.52 711.24,192.52 711.24,188.52 L711.24,188.52 L711.24,167.64 C711.24,164.92 712,162.92 713.52,161.64 C715.04,160.36 717.96,159.72 722.28,159.72 C738.44,159.72 746.52,165.32 746.52,176.52 C746.52,181.8 744.16,186.12 739.44,189.48 C734.72,192.84 727.64,194.52 718.2,194.52 Z M724.44,241.8 C715.64,241.8 711.24,237.8 711.24,229.8 L711.24,229.8 L711.24,207.72 C711.24,203.72 714.36,201.72 720.6,201.72 C729.88,201.72 737.04,203.2 742.08,206.16 C747.12,209.12 749.64,214.44 749.64,222.12 C749.64,228.68 747.44,233.6 743.04,236.88 C738.64,240.16 732.44,241.8 724.44,241.8 Z M883.32,249.72 C886.52,249.72 888.12,249 888.12,247.56 C888.12,245.64 886.28,244.2 882.6,243.24 C878.28,242.12 875.08,240 873,236.88 C870.92,233.76 868.76,229.24 866.52,223.32 L866.52,223.32 L840.36,150.84 C839.88,149.72 839.4,149.16 838.92,149.16 C838.12,149.16 836.92,150.12 835.32,152.04 C831.32,156.68 828.6,159.16 827.16,159.48 C826.2,165.88 825.24,170.52 824.28,173.4 L824.28,173.4 L802.92,228.6 C801,233.24 799.08,236.44 797.16,238.2 C795.24,239.96 791.56,241.64 786.12,243.24 C784.2,243.88 782.8,244.48 781.92,245.04 C781.04,245.6 780.6,246.44 780.6,247.56 C780.6,249 782.2,249.72 785.4,249.72 C789.88,249.72 793.56,249.48 796.44,249 C799.64,248.68 802.44,248.52 804.84,248.52 C807.08,248.52 809.96,248.68 813.48,249 C816.2,249.48 819.8,249.72 824.28,249.72 C827.48,249.72 829.08,249 829.08,247.56 C829.08,246.44 828.64,245.6 827.76,245.04 C826.88,244.48 825.48,243.88 823.56,243.24 C819.56,241.96 816.52,240.68 814.44,239.4 C812.36,238.12 811.32,236.04 811.32,233.16 C811.32,232.52 811.64,231.08 812.28,228.84 L812.28,228.84 L815.64,219.72 L847.8,219.72 L852.12,233.16 C852.76,234.92 853.08,236.52 853.08,237.96 C853.08,239.4 852.64,240.52 851.76,241.32 C850.88,242.12 849.56,242.76 847.8,243.24 C844.12,244.2 842.28,245.64 842.28,247.56 C842.28,249 843.88,249.72 847.08,249.72 C851.4,249.72 854.6,249.48 856.68,249 C859.24,248.68 861.72,248.52 864.12,248.52 C866.52,248.52 869.48,248.68 873,249 C875.4,249.48 878.84,249.72 883.32,249.72 Z M844.92,210.36 L819,210.36 L831.24,176.76 C831.88,175 832.36,174.12 832.68,174.12 C833.16,174.12 833.64,175 834.12,176.76 L834.12,176.76 L844.92,210.36 Z M984.12,249.48 C984.92,249.48 985.72,249.2 986.52,248.64 C987.32,248.08 987.8,247.48 987.96,246.84 C988.28,245.72 989.12,242.84 990.48,238.2 C991.84,233.56 992.52,229.72 992.52,226.68 C992.52,223.32 991.88,221.64 990.6,221.64 C989.8,221.64 988.92,222.2 987.96,223.32 C987,224.44 986.36,225.48 986.04,226.44 C984.44,230.6 982.04,234.2 978.84,237.24 C975.64,240.28 971.96,241.8 967.8,241.8 L967.8,241.8 L932.04,241.8 C931.24,241.8 930.16,241.84 928.8,241.92 C927.44,242 926.32,241.96 925.44,241.8 C924.56,241.64 924.12,241.16 924.12,240.36 C924.12,239.4 924.76,238.04 926.04,236.28 L926.04,236.28 L979.8,162.12 C980.92,160.68 981.88,159.44 982.68,158.4 C983.48,157.36 984.08,156.52 984.48,155.88 C984.88,155.24 985.08,154.6 985.08,153.96 C985.08,152.52 984.28,151.8 982.68,151.8 C977.56,151.8 973.64,151.88 970.92,152.04 C961.96,152.36 954.52,152.44 948.6,152.28 L948.6,152.28 L922.92,152.28 C919.88,152.28 916.92,151.56 914.04,150.12 C913.56,149.96 912.96,149.72 912.24,149.4 C911.52,149.08 910.92,148.92 910.44,148.92 C909,148.92 907.88,149.8 907.08,151.56 C906.12,153.8 904.72,158.08 902.88,164.4 C901.04,170.72 900.12,174.52 900.12,175.8 C900.12,177.08 900.28,178 900.6,178.56 C900.92,179.12 901.64,179.4 902.76,179.4 C903.72,179.4 904.96,178.52 906.48,176.76 C908,175 909.16,173.48 909.96,172.2 C911.72,169.16 914.2,166.32 917.4,163.68 C920.6,161.04 923.8,159.72 927,159.72 L927,159.72 L955.8,159.72 C958.52,159.72 959.88,160.04 959.88,160.68 C959.88,161 959.8,161.24 959.64,161.4 L959.64,161.4 L907.56,233.16 C902.76,239.88 900.36,244.36 900.36,246.6 C900.36,247.4 900.84,248.08 901.8,248.64 C902.76,249.2 903.8,249.48 904.92,249.48 L904.92,249.48 L911.64,249.24 C915.48,248.92 919.72,248.76 924.36,248.76 L924.36,248.76 L950.76,249 C965.571429,249.308571 976.440306,249.468367 983.366633,249.48 L984.12,249.48 Z"
      fill="#2E3138" fill-rule="nonzero"></path>
  </g>
</svg>
