<svg width="1200px" height="328px" viewBox="0 0 1200 328" version="1.1" xmlns="http://www.w3.org/2000/svg">
  <g stroke="none" stroke-width="1" fill="none" fill-rule="evenodd">
    <rect fill="#F9F9FB" x="0" y="0" width="1200" height="328"></rect>
    <line x1="0" y1="77" x2="1200.5" y2="77.5" stroke="#DEDEE6" stroke-width="2"></line>
    <line x1="0" y1="139" x2="1200.5" y2="139.5" stroke="#DEDEE6" stroke-width="2"></line>
    <line x1="0" y1="241" x2="1200.5" y2="241.5" stroke="#DEDEE6" stroke-width="2"></line>
    <path
      d="M177.64,242.44 C183,242.44 189.96,242.2 198.52,241.72 C206.76,241.24 213.32,241 218.2,241 C223.08,241 230.2,241.24 239.56,241.72 C249.4,242.2 257,242.44 262.36,242.44 C278.76,242.44 291.92,237.98 301.84,229.06 C311.76,220.14 316.72,208.28 316.72,193.48 C316.72,183.16 312.52,174.24 304.12,166.72 C295.72,159.2 284.44,154.04 270.28,151.24 C280.28,149 288.68,144.34 295.48,137.26 C302.28,130.18 305.68,122.56 305.68,114.4 C305.68,102.72 301.08,93.32 291.88,86.2 C282.68,79.08 270.6,75.52 255.64,75.52 C250.28,75.52 243.4,75.76 235,76.24 C227.08,76.72 220.68,76.96 215.8,76.96 L215.25251,76.9590123 C210.461948,76.941893 204.484444,76.7022222 197.32,76.24 C189.56,75.76 183,75.52 177.64,75.52 C176.36,75.52 175.72,76.64 175.72,78.88 C175.72,81.12 176.36,82.24 177.64,82.24 C184.44,83.04 189.6,84.1 193.12,85.42 C196.64,86.74 199.1,88.54 200.5,90.82 C201.9,93.1 202.6,97.04 202.6,102.64 L202.6,102.64 L202.6,215.56 C202.6,223 200.86,227.96 197.38,230.44 C193.9,232.92 187.32,234.72 177.64,235.84 C176.36,236 175.72,237.08 175.72,239.08 C175.72,241.32 176.36,242.44 177.64,242.44 Z M244.36,148.84 L227.08,148.84 L227.08,96.64 C227.08,88 232.12,83.68 242.2,83.68 L242.2,83.68 L247,83.68 C257.96,83.68 266.04,86.16 271.24,91.12 C276.44,96.08 279.04,103.84 279.04,114.4 C279.04,126.56 276.3,135.34 270.82,140.74 C265.34,146.14 256.52,148.84 244.36,148.84 L244.36,148.84 Z M254.68,234.52 C244.6,234.52 237.48,233.18 233.32,230.5 C229.16,227.82 227.08,222.84 227.08,215.56 L227.08,215.56 L227.08,156.52 L253.24,156.52 C264.84,156.52 273.92,159.8 280.48,166.36 C287.04,172.92 290.32,181.96 290.32,193.48 C290.32,205.72 287,215.62 280.36,223.18 C273.72,230.74 265.16,234.52 254.68,234.52 Z M358.36,246.04 C372.2,246.04 383.4,241.64 391.96,232.84 C393.16,236.6 395.42,239.58 398.74,241.78 C402.06,243.98 405.96,245.08 410.44,245.08 C416.12,245.08 421.38,243.4 426.22,240.04 C431.06,236.68 433.48,233.84 433.48,231.52 C433.48,230.56 433.2,229.66 432.64,228.82 C432.08,227.98 431.48,227.56 430.84,227.56 L430.84,227.56 L430,227.8 C426.48,231 423.4,232.6 420.76,232.6 C415.32,232.6 412.6,228.4 412.6,220 L412.6,220 L412.6,219.16 L414.28,164.92 L414.28,163.48 C414.28,154.84 411.6,147.96 406.24,142.84 C400.88,137.72 393.88,135.16 385.24,135.16 C375.64,135.16 365.24,138.54 354.04,145.3 C342.84,152.06 337.24,158.52 337.24,164.68 C337.24,167.24 338.04,169.28 339.64,170.8 C341.24,172.32 343.32,173.08 345.88,173.08 C350.2,173.08 353.66,171.64 356.26,168.76 C358.86,165.88 360.2,161.88 360.28,156.76 C360.36,153.32 362.04,150.46 365.32,148.18 C368.6,145.9 372.6,144.76 377.32,144.76 C382.04,144.76 385.82,146.46 388.66,149.86 C391.5,153.26 392.92,157.84 392.92,163.6 L392.92,163.6 L392.92,164.2 L392.2,182.92 C353.32,193.08 333.88,206.36 333.88,222.76 C333.88,229.4 336.16,234.94 340.72,239.38 C345.28,243.82 351.16,246.04 358.36,246.04 Z M370.12,234.28 C361.32,234.28 356.92,228.6 356.92,217.24 C356.92,205.08 368.6,196.36 391.96,191.08 L391.96,191.08 L391,223.24 C389.56,226.36 386.78,228.98 382.66,231.1 C378.54,233.22 374.36,234.28 370.12,234.28 Z M526.36,242.44 C528.28,234.44 531.6,224.36 536.32,212.2 C536.32,210.92 535.32,210.28 533.32,210.28 C531.16,210.28 529.88,210.92 529.48,212.2 C527.8,217.8 524.64,222.48 520,226.24 C515.36,230 510.52,231.88 505.48,231.88 L505.48,231.88 L469.48,231.88 L534.52,141.64 L534.76,140.44 C534.76,138.68 534.12,137.8 532.84,137.8 C528.687423,138.740206 515.403375,139.220002 492.987858,139.239388 L490.193373,139.239239 C471.012504,139.217677 459.468046,138.737931 455.56,137.8 C454.2,144.04 450.88,154.04 445.6,167.8 C445.6,169.08 446.6,169.72 448.6,169.72 C450.68,169.72 451.92,169.08 452.32,167.8 C454.16,162.2 457.38,157.52 461.98,153.76 C466.58,150 471.4,148.12 476.44,148.12 L476.44,148.12 L505.48,148.12 L440.08,238.72 L439.72,239.8 C439.72,241.56 440.48,242.44 442,242.44 C446.72,241.48 460.92,241 484.6,241 C506.92,241 520.84,241.48 526.36,242.44 Z"
      fill="#C9C9D6" fill-rule="nonzero"></path>
    <path
      d="M643.28,243.44 C643.84,243.44 650.24,243.08 662.48,242.36 C666.56,242.12 671.12,242 676.16,242 C677.6,242 683.88,242.24 695,242.72 C698.68,242.88 702.64,242.96 706.88,242.96 C718.16,242.96 727.22,240.02 734.06,234.14 C740.9,228.26 744.32,220.48 744.32,210.8 C744.32,203.92 741.4,197.98 735.56,192.98 C729.72,187.98 721.92,184.56 712.16,182.72 C719.04,181.28 724.84,178.24 729.56,173.6 C734.28,168.96 736.64,163.92 736.64,158.48 C736.64,150.8 733.48,144.6 727.16,139.88 C720.84,135.16 712.48,132.8 702.08,132.8 C699.68,132.8 695.3,132.96 688.94,133.28 C682.58,133.6 677.76,133.76 674.48,133.76 L674.15135,133.759475 C669.81845,133.745825 663.128,133.466 654.08,132.92 C650.08,132.68 646.48,132.56 643.28,132.56 C642.32,132.56 641.84,133.6 641.84,135.68 C641.84,137.28 642.32,138.16 643.28,138.32 C649.68,139.36 654.2,140.92 656.84,143 C659.48,145.08 660.8,149.52 660.8,156.32 L660.8,156.32 L660.8,219.44 C660.8,226.32 659.5,230.8 656.9,232.88 C654.3,234.96 649.76,236.48 643.28,237.44 C642.32,237.44 641.84,238.4 641.84,240.32 C641.84,242.4 642.32,243.44 643.28,243.44 Z M692.72,180.32 L682.4,180.32 L682.4,148.16 C682.4,142.56 685.36,139.76 691.28,139.76 L691.28,139.76 L694.16,139.76 C700.88,139.76 705.76,141.24 708.8,144.2 C711.84,147.16 713.36,151.92 713.36,158.48 C713.36,166.24 711.78,171.82 708.62,175.22 C705.46,178.62 700.16,180.32 692.72,180.32 L692.72,180.32 Z M699.2,236.24 C693.28,236.24 689,235.38 686.36,233.66 C683.72,231.94 682.4,228.64 682.4,223.76 L682.4,223.76 L682.4,187.28 L698.48,187.28 C705.68,187.28 711.24,189.32 715.16,193.4 C719.08,197.48 721.04,203.28 721.04,210.8 C721.04,218.8 718.98,225.04 714.86,229.52 C710.74,234 705.52,236.24 699.2,236.24 Z M753.2,243.44 C754.64,243.44 758.56,243.08 764.96,242.36 C767.12,242.12 769.52,242 772.16,242 C774.08,242 777.12,242.24 781.28,242.72 C785.44,243.2 789.28,243.44 792.8,243.44 C793.76,243.44 794.24,242.4 794.24,240.32 C794.24,238.4 793.92,237.44 793.28,237.44 C789.28,237.44 786.32,236.66 784.4,235.1 C782.48,233.54 781.52,230.88 781.52,227.12 C781.52,224.88 782.32,221.52 783.92,217.04 L783.92,217.04 L788.96,204.56 L822.8,204.56 L828.44,219.44 C829.8,222.88 830.48,225.92 830.48,228.56 C830.48,232 829.6,234.34 827.84,235.58 C826.08,236.82 823.28,237.44 819.44,237.44 C818.8,237.44 818.48,238.4 818.48,240.32 C818.48,242.4 818.88,243.44 819.68,243.44 C821.76,243.44 827.28,243.08 836.24,242.36 C839.2,242.12 842.56,242 846.32,242 C847.36,242 852,242.36 860.24,243.08 C862.96,243.32 866.32,243.44 870.32,243.44 C871.28,243.44 871.76,242.4 871.76,240.32 C871.76,238.4 871.2,237.44 870.08,237.44 C865.44,236.8 861.58,235.16 858.5,232.52 C855.42,229.88 852.32,224.4 849.2,216.08 L849.2,216.08 L816.44,131.12 C816.04,130 815.04,129.44 813.44,129.44 C811.76,129.44 810.8,130 810.56,131.12 L810.56,131.12 L773.72,216.08 C769.64,225.52 766.3,231.32 763.7,233.48 C761.1,235.64 757.84,236.96 753.92,237.44 C752.64,237.44 752,238.4 752,240.32 C752,242.4 752.4,243.44 753.2,243.44 Z M820.4,197.84 L791.84,197.84 L806.48,160.88 L820.4,197.84 Z M980.36,244.16 C981.32,236.56 983.68,224.88 987.44,209.12 L987.44,209.12 L987.56,208.52 C987.56,207.16 986.44,206.48 984.2,206.48 C982.84,206.48 982,207.04 981.68,208.16 C976.16,226.56 963.72,235.76 944.36,235.76 L944.36,235.76 L911.48,235.28 L985.52,137 L986.12,135.68 C986.12,133.2 985.24,131.96 983.48,131.96 C978.15102,133.13551 963.456343,133.73526 939.395968,133.75925 L936.36128,133.759232 C911.75936,133.734144 897.1456,133.0944 892.52,131.84 C891.16,137.76 887.28,149.64 880.88,167.48 C880.88,168.84 882.04,169.52 884.36,169.52 C885.24,169.52 885.92,168.96 886.4,167.84 C890.72,158.24 896.08,151.24 902.48,146.84 C908.88,142.44 917.16,140.24 927.32,140.24 L927.32,140.24 L955.88,140.72 L881.36,238.76 C880.96,239.32 880.76,239.84 880.76,240.32 C880.76,241.36 881.06,242.26 881.66,243.02 C882.26,243.78 882.92,244.16 883.64,244.16 C888.84,242.72 904.76,242 931.4,242 C958.68,242 975,242.72 980.36,244.16 Z"
      fill="#2E3138" fill-rule="nonzero"></path>
  </g>
</svg>
