<?xml version="1.0" encoding="UTF-8"?>
<svg width="1200px" height="328px" viewBox="0 0 1200 328" version="1.1" xmlns="http://www.w3.org/2000/svg" xmlns:xlink="http://www.w3.org/1999/xlink">
    <!-- Generator: Sketch 60.1 (88133) - https://sketch.com -->
    <title>annotations</title>
    <desc>Created with Sketch.</desc>
    <g id="annotations" stroke="none" stroke-width="1" fill="none" fill-rule="evenodd" transform="translate(0.000000, 0.000000)">
        <rect fill="#F9F9FB" x="0" y="0" width="1200" height="328"></rect>
        <line x1="0" y1="76.5" x2="1200.5" y2="77" id="ascender-height" stroke="#DEDEE6" stroke-width="2" stroke-linecap="square"></line>
        <line x1="0" y1="251.5" x2="1200.5" y2="252" id="ascender-height" stroke="#DEDEE6" stroke-width="2" stroke-linecap="square"></line>
        <path d="M283.324229,242.903125 C276.778101,244.445879 270.131275,245.133051 263.403216,245.123007 C245.946309,245.011188 229.734994,240.635117 215.562151,230.225128 C196.43148,216.173632 186.35843,196.880329 183.945941,173.452142 C182.460877,159.032517 184.135488,144.970866 189.853196,131.59808 C200.628584,106.395261 219.617096,91.0582777 246.429483,85.565974 C263.828003,82.0023237 280.90751,83.5628488 297.183135,90.6410657 C318.824454,100.052454 333.135225,116.385499 339.727894,139.002111 C347.228525,164.731311 344.362479,189.350203 329.37137,211.876264 C318.368357,228.410722 302.580137,238.36457 283.324229,242.903125 M263.49122,77.0000057 C213.885002,77.0169368 175.926595,115.020462 176.000107,164.593369 C176.074678,214.145119 213.86554,251.912534 263.461603,251.99985 C313.100822,252.086866 351.01015,214.200973 350.999998,164.515512 C350.989842,114.815665 313.160902,76.9830859 263.49122,77.0000057" id="Fill-9" fill="#2E3138"></path>
        <path d="M270.594482,159.022966 C270.594482,170.091001 270.646506,181.159036 270.547575,192.225378 C270.528813,194.233363 271.188065,194.705531 273.083948,194.6683 C278.624055,194.560835 284.168427,194.706378 289.707681,194.588759 C291.474784,194.550681 292.104187,195.182777 292.224438,196.814212 C292.333603,198.284873 292.506731,199.774996 292.881132,201.197425 C293.29647,202.777243 292.590311,202.981172 291.278629,202.967633 C287.229302,202.924478 283.179122,202.953248 279.129795,202.953248 C265.914047,202.953248 252.698299,202.908401 239.483403,203 C237.47068,203.013327 236.977733,202.380384 237.00076,200.49171 C237.073252,194.631914 237.005024,194.631914 242.924649,194.631914 C248.466462,194.631914 254.008275,194.59299 259.549235,194.655607 C261.000784,194.67253 261.526139,194.252825 261.52358,192.747471 C261.480938,173.361487 261.483496,153.975502 261.520169,134.589518 C261.522727,133.013085 261.102273,132.808309 259.705306,133.431944 C253.360109,136.264955 246.965448,138.988808 240.629632,141.840435 C239.142264,142.509763 238.49154,142.581689 238.229715,140.662552 C237.407569,134.646212 237.335077,134.653828 242.972409,132.132211 C249.248524,129.32374 255.537433,126.542346 261.801609,123.707643 C264.404504,122.529761 267.116564,123.194012 269.780011,123.125471 C270.841808,123.098394 270.573161,124.12481 270.577425,124.76283 C270.604716,128.992037 270.593629,133.222091 270.594482,137.451299 C270.594482,144.642137 270.594482,151.832128 270.594482,159.022966" id="Fill-14" fill="#2E3138"></path>
        <path d="M526.904138,203.397966 C508.005265,203.354788 489.106391,203.348018 470.206672,203.377637 C468.720091,203.380176 468.124105,202.858875 468.327282,201.406678 C468.346753,201.268736 468.327282,201.125717 468.329822,200.98439 C468.373843,198.029221 467.590764,194.705078 468.70062,192.225512 C469.77238,189.831418 472.771785,188.283593 474.96356,186.409109 C484.661888,178.115678 494.39662,169.865407 504.067012,161.540664 C507.015622,159.003551 509.682324,156.162628 511.394939,152.604916 C515.055516,144.99527 511.111337,137.016651 502.690486,134.916213 C497.243641,133.557952 491.920397,134.15711 486.677576,135.966432 C482.257624,137.492254 478.080638,139.525837 474.187253,142.105263 C472.87168,142.976919 472.439082,142.691727 472.24945,141.213296 C471.865953,138.209043 471.376634,135.21833 470.93557,132.220848 C470.818743,131.427894 470.816204,130.712797 471.640765,130.194881 C483.87119,122.505686 496.947341,118.637393 511.079168,123.546596 C528.687018,129.661732 533.021467,149.412791 520.217066,163.246741 C514.052328,169.906874 506.668527,175.142737 499.702087,180.866897 C495.459914,184.353523 491.155942,187.763138 486.669957,191.376704 C487.738331,191.906468 488.518024,191.719443 489.265547,191.720289 C500.971945,191.734676 512.678342,191.775297 524.383046,191.683054 C526.193017,191.669513 526.849111,192.212818 527.056521,193.956977 C527.363826,196.539788 527.895474,199.098058 528.388179,201.656327 C528.634531,202.9325 528.28405,203.401333 526.904138,203.397966 M498.411064,77.0000694 C448.809565,77.0593777 411.146423,114.734403 411.000405,164.436595 C410.856895,213.99069 448.851893,252.015224 498.496568,251.999995 C548.222514,251.983065 586.038038,214.150635 585.999971,164.456905 C585.961847,114.748789 548.096375,76.9409001 498.411064,77.0000694" id="2" fill="#2E3138"></path>
        <path d="M793.045131,228.622203 C793.04768,230.649806 792.644093,231.369251 790.389951,231.365052 C748.556213,231.289969 706.721625,231.310211 664.887887,231.308524 C662.170682,231.307681 662.161336,231.30009 662.160486,228.488942 C662.158787,207.199111 662.158787,185.908438 662.158787,164.617764 C662.158787,143.257085 662.158787,121.896407 662.160486,100.534885 C662.160486,97.6334901 662.168133,97.6275861 665.021283,97.6275861 C706.785349,97.6267426 748.547716,97.6436112 790.310933,97.5794939 C792.435077,97.5761369 793.057026,98.0821942 793.053641,100.245589 C792.989903,143.037794 792.993302,185.829999 793.045131,228.622203 M809,86.1291209 C809,83.0227726 808.996601,83.0168686 805.929338,83.0168686 C753.5505,83.0101211 701.170812,83.0042171 648.791125,83 C646.005948,83 646,83.0067474 646,85.7942797 C646.004248,138.211694 646.009346,190.628265 646.016993,243.04568 C646.016993,245.997681 646.022941,246 649.006938,246 C701.385776,246 753.765463,246 806.145151,246 C808.994902,246 809,245.996837 809,243.16882 C809,216.960956 809,190.752249 809,164.543542 C809,138.405683 809,112.26698 809,86.1291209" id="Fill-7" fill="#2E3138"></path>
        <path d="M741.561053,182.386848 C740.612646,185.494872 738.426851,187.391021 735.39555,188.328509 C729.832021,190.048508 724.080696,189.465013 718.385967,189.525141 C717.136574,189.537844 717.354382,188.589346 717.350094,187.857648 C717.329514,184.825842 717.340661,181.794037 717.341519,178.762231 C717.341519,175.730426 717.350094,172.69862 717.336226,169.665968 C717.332944,168.750498 717.378392,167.988312 718.655225,168.019646 C723.216325,168.133974 727.798005,167.708844 732.329092,168.546401 C739.848604,169.93612 743.628511,175.614404 741.561053,182.386848 M718.921054,137.527982 C720.703819,137.570326 722.489156,137.539838 724.272778,137.538144 C726.838451,137.556776 729.406695,137.445835 731.949215,137.97259 C736.605498,138.938026 739.185748,141.836025 739.435284,146.453177 C739.660809,150.654514 737.300939,153.97595 733.00481,155.338569 C728.281641,156.835841 723.395545,156.307392 718.558327,156.342961 C717.632215,156.349736 717.342376,155.817899 717.344091,154.984576 C717.352667,149.628104 717.367244,144.271632 717.331135,138.916007 C717.322654,137.743088 717.903188,137.503423 718.921054,137.527982 M751.261215,163.925862 C749.521325,162.869811 747.601359,162.101697 745.749135,161.19385 C746.107575,160.486711 746.797871,160.403717 747.329528,160.110699 C757.89406,154.280825 759.942654,139.126031 751.172033,130.889344 C746.496885,126.5 740.558623,124.88332 734.329665,124.416693 C723.705106,123.620633 713.049678,124.254094 702.411399,124.020357 C700.522303,123.97886 700.000936,124.524246 700.005224,126.387367 C700.06525,151.150782 700.06868,175.914197 700.000039,200.677612 C699.994076,202.627961 700.668937,203.016676 702.458562,202.999463 C710.672658,202.916744 718.889326,202.974332 727.104279,202.941304 C732.614643,202.919285 738.100997,202.60933 743.416706,200.987568 C751.755998,198.443561 757.906065,193.781525 759.539623,184.732686 C761.200622,175.536492 758.350256,168.231365 751.261215,163.925862" id="Fill-16" fill="#2E3138"></path>
        <path d="M964.259234,204.500087 C962.861447,204.783392 962.125769,204.357166 961.34612,203.209569 C955.646734,194.822048 949.812051,186.526707 944.170166,178.101976 C942.924588,176.239774 941.628274,175.499798 939.387418,175.599589 C935.123025,175.790714 935.10865,175.654559 935.105268,179.871153 C935.100194,186.985069 935.019861,194.101523 935.15685,201.212903 C935.19913,203.422682 934.464298,203.972378 932.374805,203.897958 C928.083353,203.744889 923.780063,203.742351 919.488612,203.881044 C917.457465,203.946162 916.858776,203.332193 916.865485,201.280557 C916.936572,180.853841 916.908667,160.425433 916.908667,139.998716 C916.908667,135.207901 916.946719,130.417931 916.888372,125.628808 C916.87146,124.169998 917.203784,123.467232 918.871319,123.484663 C928.37847,123.589857 937.887312,123.537424 947.394463,123.665123 C952.298134,123.731087 957.050441,124.8068 961.525389,126.830528 C969.998363,130.662335 974.915564,137.184271 975.673227,146.520652 C976.414824,155.670982 973.412921,163.280471 965.770332,168.743607 C964.686265,169.519102 963.578521,170.352103 962.351546,170.817231 C960.295877,171.596108 960.579156,172.46632 961.666605,173.976717 C967.670409,182.321953 973.584579,190.732307 979.519044,199.127439 C979.956222,199.747327 980.554066,200.286876 980.703738,201.358361 C975.156561,202.407858 969.696482,203.398157 964.259234,204.500087 M1024.94247,89.6896596 C1024.94247,87.0046043 1024.93825,87 1022.15705,87 C997.078058,87 971.997377,87 946.918387,87 C921.908737,87 896.899932,87 871.891128,87 C869.004228,87 869,87.0029129 869,89.7902963 L869,240.071361 C869,242.955153 869.003382,242.95769 871.799802,242.95769 C921.959473,242.958535 972.119144,242.946696 1022.27712,242.999987 C1024.30912,243.002511 1025.00336,242.636329 1024.99999,240.392722 C1024.92556,190.158932 1024.94332,139.924296 1024.94247,89.6896596" id="Fill-4" fill="#2E3138"></path>
        <path d="M941.454117,138 C944.518173,138.008424 947.576239,138.01095 950.514515,139.097983 C955.547404,140.959663 958.273481,144.955834 957.978284,150.124922 C957.651429,155.839631 954.251961,160.143135 949.035109,161.292476 C944.825348,162.219527 940.536868,161.978713 936.266357,161.953453 C935.3782,161.947559 934.998294,161.567813 935,160.681178 C935.017119,153.530845 935.019686,146.380512 935.001717,139.230178 C934.99915,138.121253 935.687087,137.999162 936.539307,138 C938.177006,138.000846 939.815562,138 941.454117,138" id="Fill-12" fill="#2E3138"></path>
    </g>
</svg>