<?xml version="1.0" encoding="UTF-8"?>
<svg width="1200px" height="328px" viewBox="0 0 1200 328" version="1.1" xmlns="http://www.w3.org/2000/svg">
  <g stroke="none" stroke-width="1" fill="none" fill-rule="evenodd">
    <rect fill="#F9F9FB" x="0" y="0" width="1200" height="328"></rect>
    <line x1="0" y1="77.5" x2="1200.5" y2="78" stroke="#DEDEE6" stroke-width="2"></line>
    <line x1="0" y1="249.5" x2="1200.5" y2="250" stroke="#DEDEE6" stroke-width="2"></line>
    <path
      d="M338.6,254.28 C352.2,254.28 359,249.08 359,238.68 C359,236.04 357.92,233.3 355.76,230.46 C353.6,227.62 351.56,226.2 349.64,226.2 C348.6,226.2 347.7,226.6 346.94,227.4 C346.18,228.2 345.8,229.16 345.8,230.28 L345.8,230.28 L347,231.84 C349.24,233.84 350.36,235.8 350.36,237.72 C350.36,241.56 348.44,243.48 344.6,243.48 C340.52,243.48 334.84,239.2 327.56,230.64 C320.28,222.08 314.6,213.56 310.52,205.08 C320.84,205.08 330.28,203.36 338.84,199.92 C347.4,196.48 354.34,191.66 359.66,185.46 C364.98,179.26 367.64,173.08 367.64,166.92 C367.64,160.04 365.68,154.4 361.76,150 C357.84,145.6 352.68,143.4 346.28,143.4 C339.16,143.4 332.5,145.28 326.3,149.04 C320.1,152.8 312.92,159.56 304.76,169.32 L304.76,169.32 L334.04,84 C334.84,81.76 335.24,79.68 335.24,77.76 C335.24,76 334.44,75.12 332.84,75.12 C331.72,75.12 330.36,75.64 328.76,76.68 C325.08,79 319.72,81.48 312.68,84.12 C305.64,86.76 299.56,88.56 294.44,89.52 C293.32,89.52 292.76,90.48 292.76,92.4 C292.76,94.24 293.48,95.24 294.92,95.4 C301.96,96.2 305.48,98.16 305.48,101.28 C305.48,104.16 304.76,107.76 303.32,112.08 L303.32,112.08 L258.92,247.32 C258.84,248.68 259.7,249.7 261.5,250.38 C263.3,251.06 265.24,251.4 267.32,251.4 C269.56,251.4 271.8,251 274.04,250.2 C276.28,249.4 277.56,248.44 277.88,247.32 L277.88,247.32 L291.32,208.44 C296.68,221.56 303.8,232.48 312.68,241.2 C321.56,249.92 330.2,254.28 338.6,254.28 Z M305.96,197.64 C300.68,197.64 298.04,195.88 298.04,192.36 C298.04,189.32 300.44,184.86 305.24,178.98 C310.04,173.1 315.34,168.22 321.14,164.34 C326.94,160.46 332.04,158.52 336.44,158.52 C343.32,158.52 346.76,162.36 346.76,170.04 C346.76,188.44 333.16,197.64 305.96,197.64 Z"
      fill="#C9C9D6" fill-rule="nonzero"></path>
    <path
      d="M562.16,307.56 C572,307.56 579.6,305.56 584.96,301.56 C589.92,297.88 592.4,292.92 592.4,286.68 C592.4,283.96 591.48,281.2 589.64,278.4 C587.8,275.6 585.92,274.2 584,274.2 C583.04,274.2 582.2,274.6 581.48,275.4 C580.76,276.2 580.4,277.16 580.4,278.28 L580.4,278.28 L581.96,280.08 C583.96,282 584.96,283.88 584.96,285.72 C584.96,289 583.6,291.5 580.88,293.22 C578.16,294.94 574.4,295.8 569.6,295.8 C557.68,295.8 544.48,289.88 530,278.04 C518.4,268.6 506.72,255.96 494.96,240.12 C485.28,227.08 477.92,215.4 472.88,205.08 C490.08,205.08 504.28,200.64 515.48,191.76 C525.16,184.08 530,175.8 530,166.92 C530,160.12 528.16,154.6 524.48,150.36 C520.56,145.88 515.28,143.64 508.64,143.64 C500.8,143.64 493.44,145.96 486.56,150.6 C481.04,154.28 474.56,160.52 467.12,169.32 L467.12,169.32 L496.4,83.88 C496.8,82.76 497.1,81.7 497.3,80.7 C497.5,79.7 497.6,78.76 497.6,77.88 C497.6,75.96 496.8,75 495.2,75 C494.4,75 493.68,75.16 493.04,75.48 C492.4,75.8 491.76,76.2 491.12,76.68 C487.28,79.08 481.96,81.56 475.16,84.12 C468.36,86.68 462.24,88.44 456.8,89.4 C455.68,89.64 455.12,90.6 455.12,92.28 C455.12,94.36 455.84,95.4 457.28,95.4 C464.32,96.12 467.84,98.04 467.84,101.16 C467.84,102.52 467.66,104.1 467.3,105.9 C466.94,107.7 466.4,109.72 465.68,111.96 L465.68,111.96 L421.28,247.32 C420.96,248.6 421.72,249.6 423.56,250.32 C425.4,251.04 427.44,251.4 429.68,251.4 C431.76,251.4 433.96,251.02 436.28,250.26 C438.6,249.5 439.92,248.52 440.24,247.32 L440.24,247.32 L453.68,208.44 C458.72,220.68 466.84,234.16 478.04,248.88 C490.76,265.6 503.88,279.08 517.4,289.32 C533.48,301.48 548.4,307.56 562.16,307.56 Z M468.32,197.64 C465.52,197.64 463.5,197.18 462.26,196.26 C461.02,195.34 460.4,194.04 460.4,192.36 C460.4,187.56 464.88,180.84 473.84,172.2 C483.28,163.08 491.6,158.52 498.8,158.52 C502.08,158.52 504.62,159.54 506.42,161.58 C508.22,163.62 509.12,166.44 509.12,170.04 C509.12,177.88 506.68,184.04 501.8,188.52 C495.16,194.6 484,197.64 468.32,197.64 Z"
      fill="#2E3138" fill-rule="nonzero"></path>
    <path
      d="M747.84,161.48 C749.2,160.12 751.36,158.2 754.32,155.72 C758.64,152.04 760.8,149.64 760.8,148.52 C760.8,146.2 759.76,144.1 757.68,142.22 C755.6,140.34 753.52,139.4 751.44,139.4 C749.76,139.4 748.04,141 746.28,144.2 C743.48,149.16 740.08,151.64 736.08,151.64 C732.32,151.64 726.4,149.68 718.32,145.76 C709.76,141.52 703.36,139.4 699.12,139.4 C692.4,139.4 686.32,142.18 680.88,147.74 C675.44,153.3 672.72,159.56 672.72,166.52 C672.72,170.84 673.82,174.36 676.02,177.08 C678.22,179.8 681.12,181.16 684.72,181.16 C687.28,181.16 689.6,180.3 691.68,178.58 C693.76,176.86 694.8,174.92 694.8,172.76 C694.8,169.48 692.56,166.72 688.08,164.48 C684.56,162.72 682.8,160.84 682.8,158.84 C682.8,155.96 684.48,154.52 687.84,154.52 C691.44,154.52 697.2,156.6 705.12,160.76 C713.52,165.08 719.76,167.24 723.84,167.24 C728.2625,167.24 731.370937,166.451563 733.165312,164.874688 L733.176,164.865 L669.84,228.44 C668.462609,229.817391 666.35327,231.707146 663.511985,234.109263 L663.12,234.44 C658.96,237.8 656.88,240.04 656.88,241.16 C656.88,243.56 657.92,245.68 660,247.52 C662.08,249.36 664.24,250.28 666.48,250.28 C668,250.28 669.6,249 671.28,246.44 C674.08,242.28 677.52,240.2 681.6,240.2 C685.36,240.2 691.84,241.84 701.04,245.12 C710.88,248.56 717.92,250.28 722.16,250.28 C730.08,250.28 736.82,247.82 742.38,242.9 C747.94,237.98 750.72,232.76 750.72,227.24 C750.72,222.92 749.78,219.48 747.9,216.92 C746.02,214.36 743.52,213.08 740.4,213.08 C737.44,213.08 735.06,213.98 733.26,215.78 C731.46,217.58 730.56,219.8 730.56,222.44 C730.56,225 731.68,227.6 733.92,230.24 C735.68,232.24 736.56,233.96 736.56,235.4 C736.56,238.28 735.12,239.72 732.24,239.72 C729.04,239.72 723,237 714.12,231.56 C704.36,225.64 697.6,222.68 693.84,222.68 C689.258182,222.68 686.130909,223.407273 684.458182,224.861818 L747.84,161.48 Z"
      fill="#C9C9D6" fill-rule="nonzero"></path>
    <path
      d="M935.64,310.28 C943.96,310.28 951.16,307.52 957.24,302 C963.32,296.48 966.36,290.52 966.36,284.12 C966.36,279.96 965.2,276.2 962.88,272.84 C960.56,269.48 957.88,267.8 954.84,267.8 C951.88,267.8 949.5,268.68 947.7,270.44 C945.9,272.2 945,274.44 945,277.16 C945,279.56 946.44,282.24 949.32,285.2 C951.88,287.92 953.16,290.28 953.16,292.28 C953.16,294.44 952.48,296.22 951.12,297.62 C949.76,299.02 947.96,299.72 945.72,299.72 C941,299.72 935.06,297.3 927.9,292.46 C920.74,287.62 909.08,277.4 892.92,261.8 C877.16,246.52 865.84,236.54 858.96,231.86 C852.08,227.18 846.4,224.84 841.92,224.84 C836.96,224.84 833.6,225.72 831.84,227.48 L831.84,227.48 L897.84,161.48 C899.28,160.04 901.52,158.08 904.56,155.6 C908.88,152.08 911.04,149.72 911.04,148.52 C911.04,146.2 910,144.14 907.92,142.34 C905.84,140.54 903.68,139.64 901.44,139.64 C899.76,139.64 898.08,141.2 896.4,144.32 C893.68,149.2 890.32,151.64 886.32,151.64 C882.56,151.64 876.6,149.72 868.44,145.88 C859.8,141.72 853.36,139.64 849.12,139.64 C842.48,139.64 836.46,142.4 831.06,147.92 C825.66,153.44 822.96,159.64 822.96,166.52 C822.96,170.76 824.06,174.26 826.26,177.02 C828.46,179.78 831.28,181.16 834.72,181.16 C837.28,181.16 839.64,180.3 841.8,178.58 C843.96,176.86 845.04,174.92 845.04,172.76 C845.04,169.48 842.8,166.72 838.32,164.48 C834.8,162.72 833.04,160.84 833.04,158.84 C833.04,155.96 834.64,154.52 837.84,154.52 C841.52,154.52 847.32,156.6 855.24,160.76 C863.56,165.08 869.76,167.24 873.84,167.24 C878.48,167.24 881.84,166.36 883.92,164.6 L883.92,164.6 L820.08,228.44 C818.56,229.96 816.24,232 813.12,234.56 C808.96,237.92 806.88,240.12 806.88,241.16 C806.88,243.56 807.92,245.68 810,247.52 C812.08,249.36 814.24,250.28 816.48,250.28 C818.08,250.28 819.76,248.96 821.52,246.32 C824.16,242.24 827.52,240.2 831.6,240.2 C835.6,240.2 840.42,242.08 846.06,245.84 C851.7,249.6 861.08,257.76 874.2,270.32 C891,286.48 903.7,297.18 912.3,302.42 C920.9,307.66 928.68,310.28 935.64,310.28 Z"
      fill="#2E3138" fill-rule="nonzero"></path>
  </g>
</svg>
