<?xml version="1.0" encoding="UTF-8"?>
<svg width="1200px" height="595px" viewBox="0 0 1200 595" version="1.1" xmlns="http://www.w3.org/2000/svg" xmlns:xlink="http://www.w3.org/1999/xlink">
    <!-- Generator: Sketch 60.1 (88133) - https://sketch.com -->
    <title>child-elements-no-collapse</title>
    <desc>Created with Sketch.</desc>
    <g id="child-elements-no-collapse" stroke="none" stroke-width="1" fill="none" fill-rule="evenodd">
        <rect fill="#F9F9FB" x="0" y="0" width="1200" height="595"></rect>
        <rect id="margin-fill" fill-opacity="0.1" fill="#D75037" x="115" y="90" width="430" height="55"></rect>
        <rect id="parent" fill="#FFFFFF" x="115" y="145" width="430" height="360"></rect>
        <rect id="margin-fill" fill-opacity="0.1" fill="#D75037" x="115" y="145" width="215" height="55"></rect>
        <rect id="child" stroke="#DEDEE6" stroke-width="2" fill="#FFFFFF" x="116" y="201" width="213" height="178"></rect>
        <path id="line" d="M323,145 L323,143 L329,143 L329,92 L323,92 L323,90 L337,90 L337,92 L331,92 L331,143 L337,143 L337,145 L323,145 Z" fill="#D75037" fill-rule="nonzero"></path>
        <path id="line" d="M216,200 L216,198 L222,198 L222,145 L216,145 L216,143 L230,143 L230,145 L224,145 L224,198 L230,198 L230,200 L216,200 Z" fill="#D75037" fill-rule="nonzero"></path>
        <line x1="330.5" y1="-70" x2="330.5" y2="358" id="line" stroke="#D75037" stroke-width="2" stroke-linecap="square" transform="translate(330.500000, 144.000000) rotate(-90.000000) translate(-330.500000, -144.000000) "></line>
        <g id="margin-value" transform="translate(278.000000, 106.000000)">
            <rect id="pill" fill="#D75037" x="0" y="0" width="40" height="24" rx="12"></rect>
            <text id="30" font-family="Menlo-Bold, Menlo" font-size="16" font-weight="bold" fill="#F9FAFA">
                <tspan x="11" y="17">30</tspan>
            </text>
        </g>
        <g id="margin-value" transform="translate(171.000000, 161.000000)">
            <rect id="pill" fill="#D75037" x="0" y="0" width="40" height="24" rx="12"></rect>
            <text id="30" font-family="Menlo-Bold, Menlo" font-size="16" font-weight="bold" fill="#F9FAFA">
                <tspan x="11" y="17">30</tspan>
            </text>
        </g>
        <rect id="parent" fill="#FFFFFF" transform="translate(870.000000, 270.000000) scale(1, -1) translate(-870.000000, -270.000000) " x="655" y="90" width="430" height="360"></rect>
        <rect id="child" stroke="#DEDEE6" stroke-width="2" fill="#FFFFFF" transform="translate(762.500000, 305.000000) scale(1, -1) translate(-762.500000, -305.000000) " x="656" y="216" width="213" height="178"></rect>
        <rect id="margin-fill" fill-opacity="0.1" fill="#D75037" transform="translate(762.500000, 422.500000) scale(1, -1) translate(-762.500000, -422.500000) " x="655" y="395" width="215" height="55"></rect>
        <rect id="margin-fill" fill-opacity="0.1" fill="#D75037" transform="translate(870.000000, 477.500000) scale(1, -1) translate(-870.000000, -477.500000) " x="655" y="450" width="430" height="55"></rect>
        <path id="line" d="M863,505 L863,503 L869,503 L869,452 L863,452 L863,450 L877,450 L877,452 L871,452 L871,503 L877,503 L877,505 L863,505 Z" fill="#D75037" fill-rule="nonzero"></path>
        <path id="line" d="M756,452 L756,450 L762,450 L762,397 L756,397 L756,395 L770,395 L770,397 L764,397 L764,450 L770,450 L770,452 L756,452 Z" fill="#D75037" fill-rule="nonzero"></path>
        <line x1="870" y1="237" x2="870" y2="665" id="line" stroke="#D75037" stroke-width="2" stroke-linecap="square" transform="translate(870.000000, 451.000000) scale(1, -1) rotate(-90.000000) translate(-870.000000, -451.000000) "></line>
        <g id="margin-value" transform="translate(838.000000, 477.000000) scale(1, -1) translate(-838.000000, -477.000000) translate(818.000000, 465.000000)">
            <rect id="pill" fill="#D75037" x="0" y="0" width="40" height="24" rx="12"></rect>
            <text id="30" transform="translate(21.000000, 12.500000) scale(1, -1) translate(-21.000000, -12.500000) " font-family="Menlo-Bold, Menlo" font-size="16" font-weight="bold" fill="#F9FAFA">
                <tspan x="11" y="18">30</tspan>
            </text>
        </g>
        <g id="margin-value" transform="translate(731.000000, 422.000000) scale(1, -1) translate(-731.000000, -422.000000) translate(711.000000, 410.000000)">
            <rect id="pill" fill="#D75037" x="0" y="0" width="40" height="24" rx="12"></rect>
            <text id="30" transform="translate(21.000000, 12.500000) scale(1, -1) translate(-21.000000, -12.500000) " font-family="Menlo-Bold, Menlo" font-size="16" font-weight="bold" fill="#F9FAFA">
                <tspan x="11" y="18">30</tspan>
            </text>
        </g>
    </g>
</svg>