<?xml version="1.0" encoding="UTF-8"?>
<svg width="1200px" height="328px" viewBox="0 0 1200 328" version="1.1" xmlns="http://www.w3.org/2000/svg">
  <g stroke="none" stroke-width="1" fill="none" fill-rule="evenodd">
    <rect fill="#F9F9FB" x="0" y="0" width="1200" height="328"></rect>
    <path
      d="M466.4,242.44 C467.68,242.44 468.32,241.32 468.32,239.08 C468.32,237.08 467.68,236 466.4,235.84 C459.52,234.96 455.12,233.32 453.2,230.92 C451.28,228.52 450.32,223.4 450.32,215.56 L450.32,215.56 L450.32,155.32 L477.44,156.28 C479.36,156.28 480.32,154.12 480.32,149.8 C480.32,145.48 479.36,143.32 477.44,143.32 L477.44,143.32 L450.56,143.32 L450.56,115.36 C450.56,105.04 452.48,96.86 456.32,90.82 C460.16,84.78 464.8,81.76 470.24,81.76 C472.8,81.76 475.72,83 479,85.48 C482.92,88.44 486.8,89.92 490.64,89.92 C494.96,89.92 498.36,88.98 500.84,87.1 C503.32,85.22 504.56,82.64 504.56,79.36 C504.56,75.84 503.02,73.08 499.94,71.08 C496.86,69.08 492.64,68.08 487.28,68.08 C471.84,68.08 458.22,75.46 446.42,90.22 C434.62,104.98 428.72,122.04 428.72,141.4 C428.72,143.56 423.6,145.8 413.36,148.12 C411.92,148.44 411.2,149.64 411.2,151.72 C411.2,153.8 412,154.84 413.6,154.84 L413.6,154.84 L425.84,154.84 C427.76,154.84 428.72,155.96 428.72,158.2 L428.72,158.2 L428.72,215.56 C428.72,223.4 427.74,228.52 425.78,230.92 C423.82,233.32 419.44,234.96 412.64,235.84 C411.36,236 410.72,237.08 410.72,239.08 C410.72,241.32 411.36,242.44 412.64,242.44 C415.92,242.44 420.08,242.2 425.12,241.72 C430.72,241.24 435.52,241 439.52,241 C443.44,241 448.24,241.24 453.92,241.72 C458.96,242.2 463.12,242.44 466.4,242.44 Z M546.8,242.44 C548.08,242.44 548.72,241.32 548.72,239.08 C548.72,237.08 548.08,236 546.8,235.84 C539.92,234.96 535.52,233.32 533.6,230.92 C531.68,228.52 530.72,223.4 530.72,215.56 L530.72,215.56 L530.72,155.32 L557.84,156.28 C559.76,156.28 560.72,154.12 560.72,149.8 C560.72,145.48 559.76,143.32 557.84,143.32 L557.84,143.32 L530.96,143.32 L530.96,115.36 C530.96,105.04 532.88,96.86 536.72,90.82 C540.56,84.78 545.2,81.76 550.64,81.76 C553.2,81.76 556.12,83 559.4,85.48 C563.32,88.44 567.2,89.92 571.04,89.92 C575.36,89.92 578.76,88.98 581.24,87.1 C583.72,85.22 584.96,82.64 584.96,79.36 C584.96,75.84 583.42,73.08 580.34,71.08 C577.26,69.08 573.04,68.08 567.68,68.08 C552.24,68.08 538.62,75.46 526.82,90.22 C515.02,104.98 509.12,122.04 509.12,141.4 C509.12,143.56 504,145.8 493.76,148.12 C492.32,148.44 491.6,149.64 491.6,151.72 C491.6,153.8 492.4,154.84 494,154.84 L494,154.84 L506.24,154.84 C508.16,154.84 509.12,155.96 509.12,158.2 L509.12,158.2 L509.12,215.56 C509.12,223.4 508.14,228.52 506.18,230.92 C504.22,233.32 499.84,234.96 493.04,235.84 C491.76,236 491.12,237.08 491.12,239.08 C491.12,241.32 491.76,242.44 493.04,242.44 C496.32,242.44 500.48,242.2 505.52,241.72 C511.12,241.24 515.92,241 519.92,241 C523.84,241 528.64,241.24 534.32,241.72 C539.36,242.2 543.52,242.44 546.8,242.44 Z"
      fill="#C9C9D6" fill-rule="nonzero"></path>
    <path
      d="M784.84,242.2 C786.12,242.2 786.76,241.08 786.76,238.84 C786.76,236.84 786.12,235.76 784.84,235.6 C777.96,234.8 773.56,233.16 771.64,230.68 C769.72,228.2 768.76,223.08 768.76,215.32 L768.76,215.32 L768.76,155.08 L795.88,156.16 C797.8,156.16 798.76,153.96 798.76,149.56 C798.76,145.24 797.8,143.08 795.88,143.08 L795.88,143.08 L769,143.08 L769,115 C769,104.76 770.96,96.64 774.88,90.64 C778.8,84.64 783.4,81.64 788.68,81.64 C791.16,81.64 793.6,82.48 796,84.16 C801.2,87.76 805.56,89.56 809.08,89.56 C813.4,89.56 816.8,88.64 819.28,86.8 C821.76,84.96 823,82.44 823,79.24 C823,75.64 821.5,72.82 818.5,70.78 C815.5,68.74 811.24,67.72 805.72,67.72 C792.76,67.72 780.76,73.32 769.72,84.52 L769.72,84.52 L767.32,82.12 C761.24,76.36 753.48,73.48 744.04,73.48 C727.16,73.48 712.64,80.22 700.48,93.7 C688.32,107.18 681.4,123.08 679.72,141.4 C679.56,143.4 674.44,145.52 664.36,147.76 C662.92,148.08 662.2,149.32 662.2,151.48 C662.2,153.56 663,154.6 664.6,154.6 L664.6,154.6 L676.84,154.6 C678.76,154.6 679.72,155.8 679.72,158.2 L679.72,158.2 L679.72,215.32 C679.72,223.08 678.76,228.2 676.84,230.68 C674.92,233.16 670.52,234.8 663.64,235.6 C662.36,235.76 661.72,236.84 661.72,238.84 C661.72,241.08 662.36,242.2 663.64,242.2 C666.92,242.2 671.24,242 676.6,241.6 C681.96,241.2 686.6,241 690.52,241 C694.52,241 699.2,241.2 704.56,241.6 C709.92,242 714.2,242.2 717.4,242.2 C718.68,242.2 719.32,241.08 719.32,238.84 C719.32,236.84 718.68,235.76 717.4,235.6 C710.52,234.8 706.16,233.18 704.32,230.74 C702.48,228.3 701.56,223.16 701.56,215.32 L701.56,215.32 L701.56,155.08 L747.16,155.08 L747.16,215.32 C747.16,223.08 746.2,228.2 744.28,230.68 C742.36,233.16 737.96,234.8 731.08,235.6 C729.8,235.76 729.16,236.84 729.16,238.84 C729.16,241.08 729.8,242.2 731.08,242.2 C734.36,242.2 738.68,242 744.04,241.6 C749.4,241.2 754.04,241 757.96,241 C761.96,241 766.64,241.2 772,241.6 C777.36,242 781.64,242.2 784.84,242.2 Z M747.16,143.08 L701.56,143.08 L701.56,123.88 C701.56,100.04 710.84,88.12 729.4,88.12 C742.2,88.12 752.04,91.8 758.92,99.16 C751.08,110.92 747.16,125 747.16,141.4 L747.16,141.4 L747.16,143.08 Z"
      fill="#2E3138" fill-rule="nonzero"></path>
  </g>
</svg>
