<?xml version="1.0" encoding="UTF-8"?>
<svg width="592px" height="621px" viewBox="0 0 592 621" version="1.1" xmlns="http://www.w3.org/2000/svg" xmlns:xlink="http://www.w3.org/1999/xlink">
    <!-- Generator: Sketch 60.1 (88133) - https://sketch.com -->
    <title>component-variants</title>
    <desc>Created with Sketch.</desc>
    <g id="component-variants" stroke="none" stroke-width="1" fill="none" fill-rule="evenodd">
        <polygon id="Triangle" stroke="#C9C9D6" stroke-width="3" points="505 169 588 335 422 335"></polygon>
        <circle id="Oval" stroke="#C9C9D6" stroke-width="3" cx="252" cy="84" r="82.5"></circle>
        <path d="M85.5,85.5 L85.5,250.5 L251.5,250.5 L251.5,85.5 L85.5,85.5 Z" id="Rectangle" stroke="#8D8DA6" stroke-width="3" fill-opacity="0.25" fill="#8D8DA6" transform="translate(168.500000, 168.000000) rotate(-360.000000) translate(-168.500000, -168.000000) "></path>
        <circle id="Oval-Copy-4" stroke="#8D8DA6" stroke-width="3" fill-opacity="0.25" fill="#8D8DA6" cx="336" cy="420" r="82.5"></circle>
        <path d="M3.34164079,621.67082 L5.13049517,618.093112 L2.4472136,616.751471 L0.658359214,620.32918 L3.34164079,621.67082 Z M6.91934955,614.515403 L8.70820393,610.937694 L6.02492236,609.596053 L4.23606798,613.173762 L6.91934955,614.515403 Z M10.4970583,607.359985 L12.2859127,603.782277 L9.60263112,602.440636 L7.81377674,606.018345 L10.4970583,607.359985 Z M14.0747671,600.204568 L15.8636215,596.626859 L13.1803399,595.285218 L11.3914855,598.862927 L14.0747671,600.204568 Z M17.6524758,593.04915 L19.4413302,589.471442 L16.7580487,588.129801 L14.9691943,591.707509 L17.6524758,593.04915 Z M21.2301846,585.893733 L23.019039,582.316024 L20.3357574,580.974383 L18.546903,584.552092 L21.2301846,585.893733 Z M24.8078934,578.738315 L26.5967478,575.160606 L23.9134662,573.818966 L22.1246118,577.396674 L24.8078934,578.738315 Z M28.3856021,571.582898 L30.1744565,568.005189 L27.4911749,566.663548 L25.7023206,570.241257 L28.3856021,571.582898 Z M31.9633109,564.42748 L33.7521653,560.849771 L31.0688837,559.508131 L29.2800293,563.085839 L31.9633109,564.42748 Z M35.5410197,557.272063 L37.329874,553.694354 L34.6465925,552.352713 L32.8577381,555.930422 L35.5410197,557.272063 Z M39.1187284,550.116645 L40.9075828,546.538936 L38.2243012,545.197296 L36.4354469,548.775004 L39.1187284,550.116645 Z M42.6964372,542.961228 L44.4852916,539.383519 L41.80201,538.041878 L40.0131556,541.619587 L42.6964372,542.961228 Z M46.274146,535.80581 L48.0630003,532.228101 L45.3797188,530.886461 L43.5908644,534.464169 L46.274146,535.80581 Z M49.8518547,528.650393 L51.6407091,525.072684 L48.9574275,523.731043 L47.1685731,527.308752 L49.8518547,528.650393 Z M53.4295635,521.494975 L55.2184179,517.917266 L52.5351363,516.575625 L50.7462819,520.153334 L53.4295635,521.494975 Z M57.0072722,514.339557 L58.7961266,510.761849 L56.1128451,509.420208 L54.3239907,512.997917 L57.0072722,514.339557 Z M60.584981,507.18414 L62.3738354,503.606431 L59.6905538,502.26479 L57.9016994,505.842499 L60.584981,507.18414 Z M64.1626898,500.028722 L65.9515442,496.451014 L63.2682626,495.109373 L61.4794082,498.687082 L64.1626898,500.028722 Z M67.7403985,492.873305 L69.5292529,489.295596 L66.8459713,487.953955 L65.057117,491.531664 L67.7403985,492.873305 Z M71.3181073,485.717887 L73.1069617,482.140179 L70.4236801,480.798538 L68.6348257,484.376247 L71.3181073,485.717887 Z M74.8958161,478.56247 L76.6846704,474.984761 L74.0013889,473.64312 L72.2125345,477.220829 L74.8958161,478.56247 Z M78.4735248,471.407052 L80.2623792,467.829344 L77.5790976,466.487703 L75.7902433,470.065412 L78.4735248,471.407052 Z M82.0512336,464.251635 L83.840088,460.673926 L81.1568064,459.332285 L79.367952,462.909994 L82.0512336,464.251635 Z M85.6289424,457.096217 L87.4177967,453.518508 L84.7345152,452.176868 L82.9456608,455.754576 L85.6289424,457.096217 Z M89.2066511,449.9408 L90.9955055,446.363091 L88.3122239,445.02145 L86.5233695,448.599159 L89.2066511,449.9408 Z M92.7843599,442.785382 L94.5732143,439.207673 L91.8899327,437.866033 L90.1010783,441.443741 L92.7843599,442.785382 Z M96.3620687,435.629965 L98.150923,432.052256 L95.4676415,430.710615 L93.6787871,434.288324 L96.3620687,435.629965 Z M99.9397774,428.474547 L101.728632,424.896838 L99.0453502,423.555198 L97.2564958,427.132906 L99.9397774,428.474547 Z M103.517486,421.31913 L105.306341,417.741421 L102.623059,416.39978 L100.834205,419.977489 L103.517486,421.31913 Z M107.095195,414.163712 L108.884049,410.586003 L106.200768,409.244363 L104.411913,412.822071 L107.095195,414.163712 Z M110.672904,407.008295 L112.461758,403.430586 L109.778477,402.088945 L107.989622,405.666654 L110.672904,407.008295 Z M114.250612,399.852877 L116.039467,396.275168 L113.356185,394.933527 L111.567331,398.511236 L114.250612,399.852877 Z M117.828321,392.697459 L119.617176,389.119751 L116.933894,387.77811 L115.14504,391.355819 L117.828321,392.697459 Z M121.40603,385.542042 L123.194884,381.964333 L120.511603,380.622692 L118.722748,384.200401 L121.40603,385.542042 Z M124.983739,378.386624 L126.772593,374.808916 L124.089312,373.467275 L122.300457,377.044984 L124.983739,378.386624 Z M128.561448,371.231207 L129.341641,369.67082 L126.658359,369.67082 L127.66702,371.688143 L130.350302,370.346502 L128,365.645898 L125.878166,369.889566 L128.561448,371.231207 Z M129.455875,375.265851 L131.244729,378.84356 L133.928011,377.501919 L132.139156,373.924211 L129.455875,375.265851 Z M133.033583,382.421269 L134.822438,385.998978 L137.505719,384.657337 L135.716865,381.079628 L133.033583,382.421269 Z M136.611292,389.576686 L138.400147,393.154395 L141.083428,391.812754 L139.294574,388.235046 L136.611292,389.576686 Z M140.189001,396.732104 L141.977855,400.309813 L144.661137,398.968172 L142.872283,395.390463 L140.189001,396.732104 Z M143.76671,403.887522 L145.555564,407.46523 L148.238846,406.123589 L146.449991,402.545881 L143.76671,403.887522 Z M147.344419,411.042939 L149.133273,414.620648 L151.816554,413.279007 L150.0277,409.701298 L147.344419,411.042939 Z M150.922127,418.198357 L152.710982,421.776065 L155.394263,420.434425 L153.605409,416.856716 L150.922127,418.198357 Z M154.499836,425.353774 L156.28869,428.931483 L158.971972,427.589842 L157.183118,424.012133 L154.499836,425.353774 Z M158.077545,432.509192 L159.866399,436.0869 L162.549681,434.74526 L160.760826,431.167551 L158.077545,432.509192 Z M161.655254,439.664609 L163.444108,443.242318 L166.12739,441.900677 L164.338535,438.322968 L161.655254,439.664609 Z M165.232962,446.820027 L167.021817,450.397735 L169.705098,449.056095 L167.916244,445.478386 L165.232962,446.820027 Z M168.810671,453.975444 L170.599526,457.553153 L173.282807,456.211512 L171.493953,452.633803 L168.810671,453.975444 Z M172.38838,461.130862 L174.177234,464.708571 L176.860516,463.36693 L175.071661,459.789221 L172.38838,461.130862 Z M175.966089,468.286279 L177.754943,471.863988 L180.438225,470.522347 L178.64937,466.944638 L175.966089,468.286279 Z M179.543797,475.441697 L181.332652,479.019406 L184.015933,477.677765 L182.227079,474.100056 L179.543797,475.441697 Z M183.121506,482.597114 L184.910361,486.174823 L187.593642,484.833182 L185.804788,481.255474 L183.121506,482.597114 Z M186.699215,489.752532 L188.488069,493.330241 L191.171351,491.9886 L189.382497,488.410891 L186.699215,489.752532 Z M190.276924,496.907949 L192.065778,500.485658 L194.74906,499.144017 L192.960205,495.566309 L190.276924,496.907949 Z M193.854632,504.063367 L195.643487,507.641076 L198.326768,506.299435 L196.537914,502.721726 L193.854632,504.063367 Z M197.432341,511.218784 L199.221196,514.796493 L201.904477,513.454852 L200.115623,509.877144 L197.432341,511.218784 Z M201.01005,518.374202 L202.798904,521.951911 L205.482186,520.61027 L203.693332,517.032561 L201.01005,518.374202 Z M204.587759,525.529619 L206.376613,529.107328 L209.059895,527.765687 L207.27104,524.187979 L204.587759,525.529619 Z M208.165468,532.685037 L209.954322,536.262746 L212.637603,534.921105 L210.848749,531.343396 L208.165468,532.685037 Z M211.743176,539.840455 L213.532031,543.418163 L216.215312,542.076523 L214.426458,538.498814 L211.743176,539.840455 Z M215.320885,546.995872 L217.109739,550.573581 L219.793021,549.23194 L218.004167,545.654231 L215.320885,546.995872 Z M218.898594,554.15129 L220.687448,557.728998 L223.37073,556.387358 L221.581875,552.809649 L218.898594,554.15129 Z M222.476303,561.306707 L224.265157,564.884416 L226.948439,563.542775 L225.159584,559.965066 L222.476303,561.306707 Z M226.054011,568.462125 L227.842866,572.039833 L230.526147,570.698193 L228.737293,567.120484 L226.054011,568.462125 Z M229.63172,575.617542 L231.420574,579.195251 L234.103856,577.85361 L232.315002,574.275901 L229.63172,575.617542 Z M233.209429,582.77296 L234.998283,586.350668 L237.681565,585.009028 L235.89271,581.431319 L233.209429,582.77296 Z M236.787138,589.928377 L238.575992,593.506086 L241.259274,592.164445 L239.470419,588.586736 L236.787138,589.928377 Z M240.364846,597.083795 L242.153701,600.661504 L244.836982,599.319863 L243.048128,595.742154 L240.364846,597.083795 Z M243.942555,604.239212 L245.73141,607.816921 L248.414691,606.47528 L246.625837,602.897572 L243.942555,604.239212 Z M247.520264,611.39463 L249.309118,614.972339 L251.9924,613.630698 L250.203546,610.052989 L247.520264,611.39463 Z M251.097973,618.550047 L252.658359,621.67082 L255.341641,620.32918 L253.781254,617.208407 L251.097973,618.550047 Z" id="Path" fill="#C9C9D6" fill-rule="nonzero"></path>
        <line x1="170.520546" y1="558.5" x2="502.50885" y2="559.5" id="Line-2" stroke="#8D8DA6" stroke-width="3" stroke-linecap="square"></line>
        <line x1="170" y1="531" x2="170" y2="587" id="Line-3-Copy" stroke="#8D8DA6" stroke-width="3" stroke-linecap="square"></line>
        <line x1="503" y1="531" x2="503" y2="587" id="Line-3-Copy-2" stroke="#8D8DA6" stroke-width="3" stroke-linecap="square"></line>
        <line x1="336" y1="369" x2="336" y2="471" id="Line-Copy-3" stroke="#8D8DA6" stroke-width="3" stroke-linecap="square"></line>
        <line x1="387" y1="420" x2="285" y2="420" id="Line-Copy-4" stroke="#8D8DA6" stroke-width="3" stroke-linecap="square"></line>
    </g>
</svg>