<?xml version="1.0" encoding="UTF-8"?>
<svg width="592px" height="621px" viewBox="0 0 592 621" version="1.1" xmlns="http://www.w3.org/2000/svg" xmlns:xlink="http://www.w3.org/1999/xlink">
    <!-- Generator: Sketch 60.1 (88133) - https://sketch.com -->
    <title>component-variants</title>
    <desc>Created with Sketch.</desc>
    <defs>
        <circle id="path-1" cx="169" cy="169" r="85"></circle>
        <mask id="mask-2" maskContentUnits="userSpaceOnUse" maskUnits="objectBoundingBox" x="0" y="0" width="170" height="170" fill="white">
            <use xlink:href="#path-1"></use>
        </mask>
    </defs>
    <g id="component-variants" stroke="none" stroke-width="1" fill="none" fill-rule="evenodd">
        <polygon id="Line-6-Copy-4" fill="#C9C9D6" fill-rule="nonzero" transform="translate(423.500000, 254.000000) rotate(-360.000000) translate(-423.500000, -254.000000) " points="425 -1 425 509 422 509 422 -1"></polygon>
        <polygon id="Line-6-Copy-11" fill="#C9C9D6" fill-rule="nonzero" transform="translate(590.500000, 254.000000) rotate(-360.000000) translate(-590.500000, -254.000000) " points="592 -1 592 509 589 509 589 -1"></polygon>
        <polygon id="Line-6-Copy-5" fill="#C9C9D6" fill-rule="nonzero" transform="translate(508.500000, 254.000000) rotate(-360.000000) translate(-508.500000, -254.000000) " points="510 -1 510 509 507 509 507 -1"></polygon>
        <polygon id="Line-6" fill="#C9C9D6" fill-rule="nonzero" transform="translate(508.500000, 83.500000) rotate(-360.000000) translate(-508.500000, -83.500000) " points="595 82 595 85 422 85 422 82"></polygon>
        <polygon id="Line-6-Copy" fill="#C9C9D6" fill-rule="nonzero" transform="translate(504.500000, 1.500000) rotate(-360.000000) translate(-504.500000, -1.500000) " points="591 1.42108547e-14 591 3 418 3 418 1.42108547e-14"></polygon>
        <polygon id="Line-6-Copy-6" fill="#C9C9D6" fill-rule="nonzero" transform="translate(508.500000, 168.500000) rotate(-360.000000) translate(-508.500000, -168.500000) " points="595 167 595 170 422 170 422 167"></polygon>
        <polygon id="Line-6-Copy-7" fill="#C9C9D6" fill-rule="nonzero" transform="translate(508.500000, 253.500000) rotate(-360.000000) translate(-508.500000, -253.500000) " points="595 252 595 255 422 255 422 252"></polygon>
        <polygon id="Line-6-Copy-8" fill="#C9C9D6" fill-rule="nonzero" transform="translate(508.500000, 338.500000) rotate(-360.000000) translate(-508.500000, -338.500000) " points="595 337 595 340 422 340 422 337"></polygon>
        <polygon id="Line-6-Copy-9" fill="#C9C9D6" fill-rule="nonzero" transform="translate(508.500000, 423.500000) rotate(-360.000000) translate(-508.500000, -423.500000) " points="595 422 595 425 422 425 422 422"></polygon>
        <polygon id="Line-6-Copy-10" fill="#C9C9D6" fill-rule="nonzero" transform="translate(508.500000, 508.500000) rotate(-360.000000) translate(-508.500000, -508.500000) " points="595 507 595 510 422 510 422 507"></polygon>
        <path d="M1.5,1.5 L1.5,165.5 L171.5,165.5 L171.5,1.5 L1.5,1.5 Z" id="Rectangle" stroke="#8D8DA6" stroke-width="3" fill-opacity="0.25" fill="#8D8DA6" transform="translate(86.500000, 83.500000) rotate(-360.000000) translate(-86.500000, -83.500000) "></path>
        <use id="Oval" stroke="#8D8DA6" mask="url(#mask-2)" stroke-width="6" stroke-dasharray="4" xlink:href="#path-1"></use>
        <circle id="Oval-Copy-4" stroke="#8D8DA6" stroke-width="3" cx="251" cy="422" r="83.5"></circle>
        <line x1="252" y1="371" x2="252" y2="473" id="Line-Copy-3" stroke="#C9C9D6" stroke-width="3" stroke-linecap="square"></line>
        <line x1="303" y1="422" x2="201" y2="422" id="Line-Copy-4" stroke="#C9C9D6" stroke-width="3" stroke-linecap="square"></line>
        <g id="Group-Copy" transform="translate(166.000000, 565.000000)" stroke="#8D8DA6" stroke-linecap="square" stroke-width="3">
            <line x1="1.52992519" y1="27.5" x2="339.5" y2="28.5" id="Line-2"></line>
            <line x1="1" y1="0" x2="1" y2="56" id="Line-3-Copy"></line>
            <line x1="339" y1="0" x2="339" y2="56" id="Line-3-Copy-2"></line>
        </g>
    </g>
</svg>