<?xml version="1.0" encoding="UTF-8"?>
<svg width="592px" height="621px" viewBox="0 0 592 621" version="1.1" xmlns="http://www.w3.org/2000/svg" xmlns:xlink="http://www.w3.org/1999/xlink">
    <!-- Generator: Sketch 60.1 (88133) - https://sketch.com -->
    <title>component-variants</title>
    <desc>Created with Sketch.</desc>
    <g id="component-variants" stroke="none" stroke-width="1" fill="none" fill-rule="evenodd">
        <polygon id="Line-6-Copy-4" fill="#C9C9D6" fill-rule="nonzero" transform="translate(423.500000, 127.000000) rotate(-360.000000) translate(-423.500000, -127.000000) " points="425 2 425 252 422 252 422 2"></polygon>
        <polygon id="Line-6-Copy-11" fill="#C9C9D6" fill-rule="nonzero" transform="translate(590.500000, 127.000000) rotate(-360.000000) translate(-590.500000, -127.000000) " points="592 2 592 252 589 252 589 2"></polygon>
        <polygon id="Line-6-Copy-5" fill="#C9C9D6" fill-rule="nonzero" transform="translate(508.500000, 127.000000) rotate(-360.000000) translate(-508.500000, -127.000000) " points="510 2 510 252 507 252 507 2"></polygon>
        <polygon id="Line-6" fill="#C9C9D6" fill-rule="nonzero" transform="translate(508.500000, 1.500000) rotate(-360.000000) translate(-508.500000, -1.500000) " points="595 0 595 3 422 3 422 0"></polygon>
        <polygon id="Line-6-Copy-6" fill="#C9C9D6" fill-rule="nonzero" transform="translate(508.500000, 86.500000) rotate(-360.000000) translate(-508.500000, -86.500000) " points="595 85 595 88 422 88 422 85"></polygon>
        <polygon id="Line-6-Copy-7" fill="#C9C9D6" fill-rule="nonzero" transform="translate(508.500000, 171.500000) rotate(-360.000000) translate(-508.500000, -171.500000) " points="595 170 595 173 422 173 422 170"></polygon>
        <polygon id="Line-6-Copy-8" fill="#C9C9D6" fill-rule="nonzero" transform="translate(506.500000, 250.500000) rotate(-360.000000) translate(-506.500000, -250.500000) " points="593 249 593 252 420 252 420 249"></polygon>
        <circle id="Oval" stroke="#C9C9D6" stroke-width="3" cx="253" cy="252" r="83.5"></circle>
        <path d="M85.5,86.5 L85.5,250.5 L255.5,250.5 L255.5,86.5 L85.5,86.5 Z" id="Rectangle" stroke="#8D8DA6" stroke-width="3" fill-opacity="0.25" fill="#8D8DA6" transform="translate(170.500000, 168.500000) rotate(-360.000000) translate(-170.500000, -168.500000) "></path>
        <circle id="Oval-Copy-4" stroke="#8D8DA6" stroke-width="3" fill-opacity="0.25" fill="#8D8DA6" cx="421" cy="422" r="83.5"></circle>
        <line x1="422" y1="371" x2="422" y2="473" id="Line-Copy-3" stroke="#8D8DA6" stroke-width="3" stroke-linecap="square"></line>
        <line x1="473" y1="422" x2="371" y2="422" id="Line-Copy-4" stroke="#8D8DA6" stroke-width="3" stroke-linecap="square"></line>
        <path d="M130.130495,370.906888 L127.447214,372.248529 L125.658359,368.67082 L128.341641,367.32918 L130.130495,370.906888 Z M133.708204,378.062306 L131.024922,379.403947 L129.236068,375.826238 L131.91935,374.484597 L133.708204,378.062306 Z M137.285913,385.217723 L134.602631,386.559364 L132.813777,382.981655 L135.497058,381.640015 L137.285913,385.217723 Z M140.863621,392.373141 L138.18034,393.714782 L136.391486,390.137073 L139.074767,388.795432 L140.863621,392.373141 Z M144.44133,399.528558 L141.758049,400.870199 L139.969194,397.292491 L142.652476,395.95085 L144.44133,399.528558 Z M148.019039,406.683976 L145.335757,408.025617 L143.546903,404.447908 L146.230185,403.106267 L148.019039,406.683976 Z M151.596748,413.839394 L148.913466,415.181034 L147.124612,411.603326 L149.807893,410.261685 L151.596748,413.839394 Z M155.174457,420.994811 L152.491175,422.336452 L150.702321,418.758743 L153.385602,417.417102 L155.174457,420.994811 Z M158.752165,428.150229 L156.068884,429.491869 L154.280029,425.914161 L156.963311,424.57252 L158.752165,428.150229 Z M162.329874,435.305646 L159.646592,436.647287 L157.857738,433.069578 L160.54102,431.727937 L162.329874,435.305646 Z M165.907583,442.461064 L163.224301,443.802704 L161.435447,440.224996 L164.118728,438.883355 L165.907583,442.461064 Z M169.485292,449.616481 L166.80201,450.958122 L165.013156,447.380413 L167.696437,446.038772 L169.485292,449.616481 Z M173.063,456.771899 L170.379719,458.113539 L168.590864,454.535831 L171.274146,453.19419 L173.063,456.771899 Z M176.640709,463.927316 L173.957428,465.268957 L172.168573,461.691248 L174.851855,460.349607 L176.640709,463.927316 Z M180.218418,471.082734 L177.535136,472.424375 L175.746282,468.846666 L178.429563,467.505025 L180.218418,471.082734 Z M183.796127,478.238151 L181.112845,479.579792 L179.323991,476.002083 L182.007272,474.660443 L183.796127,478.238151 Z M187.373835,485.393569 L184.690554,486.73521 L182.901699,483.157501 L185.584981,481.81586 L187.373835,485.393569 Z M190.951544,492.548986 L188.268263,493.890627 L186.479408,490.312918 L189.16269,488.971278 L190.951544,492.548986 Z M194.529253,499.704404 L191.845971,501.046045 L190.057117,497.468336 L192.740399,496.126695 L194.529253,499.704404 Z M198.106962,506.859821 L195.42368,508.201462 L193.634826,504.623753 L196.318107,503.282113 L198.106962,506.859821 Z M201.68467,514.015239 L199.001389,515.35688 L197.212534,511.779171 L199.895816,510.43753 L201.68467,514.015239 Z M205.262379,521.170656 L202.579098,522.512297 L200.790243,518.934588 L203.473525,517.592948 L205.262379,521.170656 Z M208.840088,528.326074 L206.156806,529.667715 L204.367952,526.090006 L207.051234,524.748365 L208.840088,528.326074 Z M212.417797,535.481492 L209.734515,536.823132 L207.945661,533.245424 L210.628942,531.903783 L212.417797,535.481492 Z M215.995506,542.636909 L213.312224,543.97855 L211.52337,540.400841 L214.206651,539.0592 L215.995506,542.636909 Z M219.573214,549.792327 L216.889933,551.133967 L215.101078,547.556259 L217.78436,546.214618 L219.573214,549.792327 Z M223.150923,556.947744 L220.467641,558.289385 L218.678787,554.711676 L221.362069,553.370035 L223.150923,556.947744 Z M226.728632,564.103162 L224.04535,565.444802 L222.256496,561.867094 L224.939777,560.525453 L226.728632,564.103162 Z M230.306341,571.258579 L227.623059,572.60022 L225.834205,569.022511 L228.517486,567.68087 L230.306341,571.258579 Z M233.884049,578.413997 L231.200768,579.755637 L229.411913,576.177929 L232.095195,574.836288 L233.884049,578.413997 Z M237.461758,585.569414 L234.778477,586.911055 L232.989622,583.333346 L235.672904,581.991705 L237.461758,585.569414 Z M241.039467,592.724832 L238.356185,594.066473 L236.567331,590.488764 L239.250612,589.147123 L241.039467,592.724832 Z M244.617176,599.880249 L241.933894,601.22189 L240.14504,597.644181 L242.828321,596.302541 L244.617176,599.880249 Z M248.194884,607.035667 L245.511603,608.377308 L243.722748,604.799599 L246.40603,603.457958 L248.194884,607.035667 Z M251.772593,614.191084 L249.089312,615.532725 L247.300457,611.955016 L249.983739,610.613376 L251.772593,614.191084 Z M250.744565,621.5 L250.744565,618.5 L253,618.5 L251.658359,620.67082 L250.878166,619.110434 L253.561448,617.768793 L255.427051,621.5 L250.744565,621.5 Z M242.744565,621.5 L242.744565,618.5 L246.744565,618.5 L246.744565,621.5 L242.744565,621.5 Z M234.744565,621.5 L234.744565,618.5 L238.744565,618.5 L238.744565,621.5 L234.744565,621.5 Z M226.744565,621.5 L226.744565,618.5 L230.744565,618.5 L230.744565,621.5 L226.744565,621.5 Z M218.744565,621.5 L218.744565,618.5 L222.744565,618.5 L222.744565,621.5 L218.744565,621.5 Z M210.744565,621.5 L210.744565,618.5 L214.744565,618.5 L214.744565,621.5 L210.744565,621.5 Z M202.744565,621.5 L202.744565,618.5 L206.744565,618.5 L206.744565,621.5 L202.744565,621.5 Z M194.744565,621.5 L194.744565,618.5 L198.744565,618.5 L198.744565,621.5 L194.744565,621.5 Z M186.744565,621.5 L186.744565,618.5 L190.744565,618.5 L190.744565,621.5 L186.744565,621.5 Z M178.744565,621.5 L178.744565,618.5 L182.744565,618.5 L182.744565,621.5 L178.744565,621.5 Z M170.744565,621.5 L170.744565,618.5 L174.744565,618.5 L174.744565,621.5 L170.744565,621.5 Z M162.744565,621.5 L162.744565,618.5 L166.744565,618.5 L166.744565,621.5 L162.744565,621.5 Z M154.744565,621.5 L154.744565,618.5 L158.744565,618.5 L158.744565,621.5 L154.744565,621.5 Z M146.744565,621.5 L146.744565,618.5 L150.744565,618.5 L150.744565,621.5 L146.744565,621.5 Z M138.744565,621.5 L138.744565,618.5 L142.744565,618.5 L142.744565,621.5 L138.744565,621.5 Z M130.744565,621.5 L130.744565,618.5 L134.744565,618.5 L134.744565,621.5 L130.744565,621.5 Z M122.744565,621.5 L122.744565,618.5 L126.744565,618.5 L126.744565,621.5 L122.744565,621.5 Z M114.744565,621.5 L114.744565,618.5 L118.744565,618.5 L118.744565,621.5 L114.744565,621.5 Z M106.744565,621.5 L106.744565,618.5 L110.744565,618.5 L110.744565,621.5 L106.744565,621.5 Z M98.7445652,621.5 L98.7445652,618.5 L102.744565,618.5 L102.744565,621.5 L98.7445652,621.5 Z M90.7445652,621.5 L90.7445652,618.5 L94.7445652,618.5 L94.7445652,621.5 L90.7445652,621.5 Z M82.7445652,621.5 L82.7445652,618.5 L86.7445652,618.5 L86.7445652,621.5 L82.7445652,621.5 Z M74.7445652,621.5 L74.7445652,618.5 L78.7445652,618.5 L78.7445652,621.5 L74.7445652,621.5 Z M66.7445652,621.5 L66.7445652,618.5 L70.7445652,618.5 L70.7445652,621.5 L66.7445652,621.5 Z M58.7445652,621.5 L58.7445652,618.5 L62.7445652,618.5 L62.7445652,621.5 L58.7445652,621.5 Z M50.7445652,621.5 L50.7445652,618.5 L54.7445652,618.5 L54.7445652,621.5 L50.7445652,621.5 Z M42.7445652,621.5 L42.7445652,618.5 L46.7445652,618.5 L46.7445652,621.5 L42.7445652,621.5 Z M34.7445652,621.5 L34.7445652,618.5 L38.7445652,618.5 L38.7445652,621.5 L34.7445652,621.5 Z M26.7445652,621.5 L26.7445652,618.5 L30.7445652,618.5 L30.7445652,621.5 L26.7445652,621.5 Z M18.7445652,621.5 L18.7445652,618.5 L22.7445652,618.5 L22.7445652,621.5 L18.7445652,621.5 Z M10.7445652,621.5 L10.7445652,618.5 L14.7445652,618.5 L14.7445652,621.5 L10.7445652,621.5 Z M2.74456516,621.5 L2.74456516,618.5 L6.74456516,618.5 L6.74456516,621.5 L2.74456516,621.5 Z M2.45587472,613.734149 L5.13915629,615.075789 L3.35030191,618.653498 L0.667020335,617.311857 L2.45587472,613.734149 Z M6.03358348,606.578731 L8.71686505,607.920372 L6.92801067,611.498081 L4.2447291,610.15644 L6.03358348,606.578731 Z M9.61129225,599.423314 L12.2945738,600.764954 L10.5057194,604.342663 L7.82243786,603.001022 L9.61129225,599.423314 Z M13.189001,592.267896 L15.8722826,593.609537 L14.0834282,597.187246 L11.4001466,595.845605 L13.189001,592.267896 Z M16.7667098,585.112478 L19.4499913,586.454119 L17.661137,590.031828 L14.9778554,588.690187 L16.7667098,585.112478 Z M20.3444185,577.957061 L23.0277001,579.298702 L21.2388457,582.876411 L18.5555642,581.53477 L20.3444185,577.957061 Z M23.9221273,570.801643 L26.6054089,572.143284 L24.8165545,575.720993 L22.1332729,574.379352 L23.9221273,570.801643 Z M27.4998361,563.646226 L30.1831176,564.987867 L28.3942633,568.565575 L25.7109817,567.223935 L27.4998361,563.646226 Z M31.0775448,556.490808 L33.7608264,557.832449 L31.971972,561.410158 L29.2886904,560.068517 L31.0775448,556.490808 Z M34.6552536,549.335391 L37.3385352,550.677032 L35.5496808,554.25474 L32.8663992,552.9131 L34.6552536,549.335391 Z M38.2329624,542.179973 L40.9162439,543.521614 L39.1273895,547.099323 L36.444108,545.757682 L38.2329624,542.179973 Z M41.8106711,535.024556 L44.4939527,536.366197 L42.7050983,539.943905 L40.0218167,538.602265 L41.8106711,535.024556 Z M45.3883799,527.869138 L48.0716615,529.210779 L46.2828071,532.788488 L43.5995255,531.446847 L45.3883799,527.869138 Z M48.9660886,520.713721 L51.6493702,522.055362 L49.8605158,525.63307 L47.1772343,524.291429 L48.9660886,520.713721 Z M52.5437974,513.558303 L55.227079,514.899944 L53.4382246,518.477653 L50.754943,517.136012 L52.5437974,513.558303 Z M56.1215062,506.402886 L58.8047878,507.744526 L57.0159334,511.322235 L54.3326518,509.980594 L56.1215062,506.402886 Z M59.6992149,499.247468 L62.3824965,500.589109 L60.5936421,504.166818 L57.9103606,502.825177 L59.6992149,499.247468 Z M63.2769237,492.092051 L65.9602053,493.433691 L64.1713509,497.0114 L61.4880693,495.669759 L63.2769237,492.092051 Z M66.8546325,484.936633 L69.537914,486.278274 L67.7490597,489.855983 L65.0657781,488.514342 L66.8546325,484.936633 Z M70.4323412,477.781216 L73.1156228,479.122856 L71.3267684,482.700565 L68.6434869,481.358924 L70.4323412,477.781216 Z M74.01005,470.625798 L76.6933316,471.967439 L74.9044772,475.545148 L72.2211956,474.203507 L74.01005,470.625798 Z M77.5877588,463.470381 L80.2710403,464.812021 L78.482186,468.38973 L75.7989044,467.048089 L77.5877588,463.470381 Z M81.1654675,456.314963 L83.8487491,457.656604 L82.0598947,461.234313 L79.3766131,459.892672 L81.1654675,456.314963 Z M84.7431763,449.159545 L87.4264579,450.501186 L85.6376035,454.078895 L82.9543219,452.737254 L84.7431763,449.159545 Z M88.3208851,442.004128 L91.0041666,443.345769 L89.2153122,446.923477 L86.5320307,445.581837 L88.3208851,442.004128 Z M91.8985938,434.84871 L94.5818754,436.190351 L92.793021,439.76806 L90.1097394,438.426419 L91.8985938,434.84871 Z M95.4763026,427.693293 L98.1595842,429.034934 L96.3707298,432.612642 L93.6874482,431.271002 L95.4763026,427.693293 Z M99.0540113,420.537875 L101.737293,421.879516 L99.9484385,425.457225 L97.265157,424.115584 L99.0540113,420.537875 Z M102.63172,413.382458 L105.315002,414.724099 L103.526147,418.301807 L100.842866,416.960167 L102.63172,413.382458 Z M106.209429,406.22704 L108.89271,407.568681 L107.103856,411.14639 L104.420574,409.804749 L106.209429,406.22704 Z M109.787138,399.071623 L112.470419,400.413264 L110.681565,403.990972 L107.998283,402.649332 L109.787138,399.071623 Z M113.364846,391.916205 L116.048128,393.257846 L114.259274,396.835555 L111.575992,395.493914 L113.364846,391.916205 Z M116.942555,384.760788 L119.625837,386.102428 L117.836982,389.680137 L115.153701,388.338496 L116.942555,384.760788 Z M120.520264,377.60537 L123.203546,378.947011 L121.414691,382.52472 L118.73141,381.183079 L120.520264,377.60537 Z M124.097973,370.449953 L126.781254,371.791593 L124.9924,375.369302 L122.309118,374.027661 L124.097973,370.449953 Z" id="Triangle" fill="#C9C9D6" fill-rule="nonzero"></path>
        <g id="Group" transform="translate(166.000000, 531.000000)" stroke="#8D8DA6" stroke-linecap="square" stroke-width="3">
            <line x1="1.52992519" y1="27.5" x2="339.5" y2="28.5" id="Line-2"></line>
            <line x1="1" y1="0" x2="1" y2="56" id="Line-3-Copy"></line>
            <line x1="339" y1="0" x2="339" y2="56" id="Line-3-Copy-2"></line>
        </g>
    </g>
</svg>