<?xml version="1.0" encoding="UTF-8"?>
<svg width="592px" height="621px" viewBox="0 0 592 621" version="1.1" xmlns="http://www.w3.org/2000/svg" xmlns:xlink="http://www.w3.org/1999/xlink">
    <!-- Generator: Sketch 60.1 (88133) - https://sketch.com -->
    <title>component-variants</title>
    <desc>Created with Sketch.</desc>
    <defs>
        <circle id="path-1" cx="253" cy="254" r="85"></circle>
        <mask id="mask-2" maskContentUnits="userSpaceOnUse" maskUnits="objectBoundingBox" x="0" y="0" width="170" height="170" fill="white">
            <use xlink:href="#path-1"></use>
        </mask>
    </defs>
    <g id="component-variants" stroke="none" stroke-width="1" fill="none" fill-rule="evenodd">
        <polygon id="Line-6-Copy-4" fill="#C9C9D6" fill-rule="nonzero" transform="translate(423.500000, 127.000000) rotate(-360.000000) translate(-423.500000, -127.000000) " points="425 2 425 252 422 252 422 2"></polygon>
        <polygon id="Line-6-Copy-11" fill="#C9C9D6" fill-rule="nonzero" transform="translate(590.500000, 127.000000) rotate(-360.000000) translate(-590.500000, -127.000000) " points="592 2 592 252 589 252 589 2"></polygon>
        <polygon id="Line-6-Copy-5" fill="#C9C9D6" fill-rule="nonzero" transform="translate(508.500000, 127.000000) rotate(-360.000000) translate(-508.500000, -127.000000) " points="510 2 510 252 507 252 507 2"></polygon>
        <polygon id="Line-6" fill="#C9C9D6" fill-rule="nonzero" transform="translate(508.500000, 1.500000) rotate(-360.000000) translate(-508.500000, -1.500000) " points="595 0 595 3 422 3 422 0"></polygon>
        <polygon id="Line-6-Copy-6" fill="#C9C9D6" fill-rule="nonzero" transform="translate(508.500000, 86.500000) rotate(-360.000000) translate(-508.500000, -86.500000) " points="595 85 595 88 422 88 422 85"></polygon>
        <polygon id="Line-6-Copy-7" fill="#C9C9D6" fill-rule="nonzero" transform="translate(508.500000, 171.500000) rotate(-360.000000) translate(-508.500000, -171.500000) " points="595 170 595 173 422 173 422 170"></polygon>
        <polygon id="Line-6-Copy-8" fill="#C9C9D6" fill-rule="nonzero" transform="translate(506.500000, 250.500000) rotate(-360.000000) translate(-506.500000, -250.500000) " points="593 249 593 252 420 252 420 249"></polygon>
        <path d="M85.5,86.5 L85.5,250.5 L255.5,250.5 L255.5,86.5 L85.5,86.5 Z" id="Rectangle" stroke="#8D8DA6" stroke-width="3" fill-opacity="0.25" fill="#8D8DA6" transform="translate(170.500000, 168.500000) rotate(-360.000000) translate(-170.500000, -168.500000) "></path>
        <use id="Oval" stroke="#8D8DA6" mask="url(#mask-2)" stroke-width="6" stroke-dasharray="4" xlink:href="#path-1"></use>
        <circle id="Oval-Copy-4" stroke="#8D8DA6" stroke-width="3" cx="421" cy="422" r="83.5"></circle>
        <g id="Group" transform="translate(166.000000, 525.000000)" stroke="#8D8DA6" stroke-linecap="square" stroke-width="3">
            <line x1="1.52992519" y1="27.5" x2="339.5" y2="28.5" id="Line-2"></line>
            <line x1="1" y1="0" x2="1" y2="56" id="Line-3-Copy"></line>
            <line x1="339" y1="0" x2="339" y2="56" id="Line-3-Copy-2"></line>
        </g>
        <line x1="422" y1="371" x2="422" y2="473" id="Line-Copy-3" stroke="#C9C9D6" stroke-width="3" stroke-linecap="square"></line>
        <line x1="473" y1="422" x2="371" y2="422" id="Line-Copy-4" stroke="#C9C9D6" stroke-width="3" stroke-linecap="square"></line>
    </g>
</svg>