<svg width="1200px" height="328px" viewBox="0 0 1200 328" version="1.1" xmlns="http://www.w3.org/2000/svg">
  <g stroke="none" stroke-width="1" fill="none" fill-rule="evenodd">
    <rect fill="#F9F9FB" x="0" y="0" width="1200" height="328"></rect>
    <path
      d="M438.157985,163.117708 C431.216246,176.119553 420.38804,185.407303 408.085093,193.136638 C393.935884,202.027882 378.568849,208.035684 362.384472,212.068489 C361.894571,212.190201 361.385779,212.231608 360.169211,212.422332 C366.4334,206.465976 368.637327,199.195884 371.144765,192.136592 C377.125592,175.305213 383.155535,158.485126 388.769881,141.529525 C391.497712,133.290756 394.762042,125.257769 397.526396,117.040332 C398.686291,113.596009 399.203898,113.515705 402.842266,114.306205 C409.833121,115.821958 416.725744,117.645127 423.215363,120.655301 C431.835864,124.656738 439.122675,130.137539 441.776203,139.843124 C444.026727,148.075619 442.029339,155.865182 438.157985,163.117708 M441.198144,110.378799 C431.3107,103.818903 420.035412,99.7998995 408.160656,97.940342 C405.957989,97.5965371 404.172179,96.937787 403.278014,94.6327889 C402.531198,92.7092385 400.851176,92.1659265 398.885274,92.3867647 C397.190139,92.5787433 395.580643,93.1145267 394.157536,94.0079174 C392.168965,95.2538962 390.130018,95.2714629 387.840453,95.1384581 C380.954127,94.7381889 374.007351,93.9138102 367.225554,95.9942059 C365.063187,96.6579751 362.932305,97.7408348 362.559527,100.171309 C362.188008,102.593 363.920924,104.111262 365.729403,105.544201 C369.347621,108.407568 373.687467,109.198068 378.003385,110.021192 C380.612834,110.518078 381.733688,111.318616 380.320656,114.160652 C378.367347,118.086803 376.667175,122.149723 375.060198,126.232719 C367.982445,144.232282 361.618765,162.485308 356.234887,181.055788 C354.035998,188.64208 350.890051,196.079055 351.510928,204.276416 C351.809403,208.197548 352.952926,211.446127 357.515684,213.017089 C351.63057,214.468849 346.332331,215.733649 341.05802,217.093812 C337.798727,217.934502 334.659076,219.096412 331.958951,221.203158 C330.272633,222.516894 328.418816,223.882075 329.173188,226.326352 C329.913708,228.727966 332.108818,229.349074 334.38453,229.710445 C340.343947,230.657791 346.283215,230.414367 352.250188,229.699152 C379.261512,226.463121 404.508435,218.3423 426.682454,202.265032 C440.971455,191.904461 452.967112,179.452201 458.692283,162.234355 C466.25364,139.491791 459.563779,122.565049 441.198144,110.378799"
      fill="#C9C9D6"></path>
    <path
      d="M521.761276,140.030459 C523.295255,139.01912 525.058894,138.229205 526.827527,137.729134 C529.221483,137.051176 532.004863,136.411781 533.659913,138.915871 C535.231337,141.293077 534.916803,144.074571 533.596258,146.594833 C532.525343,148.64239 530.759207,150.156288 529.075449,151.676407 C520.285959,159.6166 509.553096,163.862233 498.434553,167.472204 C504.443159,156.713199 511.377895,146.882187 521.761276,140.030459 M565.899693,180.449188 C557.036562,188.644393 547.827692,196.358186 537.680213,202.896436 C527.826049,209.245605 517.481361,214.56602 505.445426,215.211635 C495.688618,215.732854 490.375233,212.107956 488.857479,202.811847 C488.308292,199.454401 488.639052,196.225082 488.982294,192.931077 C489.93089,183.853905 489.967087,184.046719 498.647987,181.588655 C512.489999,177.667695 526.057416,172.99414 537.592842,164.000313 C544.652392,158.497036 550.0519,151.892856 551.149026,142.544501 C552.005259,135.25241 546.263757,125.422643 539.861983,123.001898 C529.835574,119.206578 520.856365,121.606176 512.397635,127.23136 C500.874691,134.895394 491.925438,145.03242 484.894595,156.817691 C479.707273,165.512968 474.824501,174.381154 472.619015,184.451006 C471.015139,191.775439 469.781964,199.073749 470.939002,206.588508 C472.479222,216.581234 477.530495,224.194266 486.643257,228.71979 C496.048086,233.392102 505.892265,232.697972 515.530498,229.6341 C532.240764,224.32115 545.814422,213.859451 558.64543,202.392633 C564.121075,197.497652 569.191071,192.148627 574.447041,187.006099 C577.009498,179.816013 579.375995,172.56373 581.401747,165.203222 C575.721405,169.759845 571.234296,175.516889 565.899693,180.449188"
      fill="#C9C9D6"></path>
    <path
      d="M579.883202,165.673532 C582.404845,158.760292 584.859897,151.822127 587.488335,144.948769 C588.22083,143.03071 586.951842,142.830055 585.826087,142.416283 C581.124549,140.692647 576.417985,139.018863 572.319531,136.007796 C569.182241,133.703383 566.325133,131.197069 567.070192,126.902311 C567.689609,123.325423 571.573215,120.832818 576.480806,120.607237 C582.089482,120.351745 587.551157,121.308906 592.73893,123.408925 C594.874851,124.273859 595.753091,123.953559 596.647665,121.718939 C601.081585,110.645542 605.778097,99.680574 613.072893,90.0553806 C620.990876,79.6076277 630.752033,72.7193144 644.703363,74.1999217 C654.242132,75.2131655 661.47662,82.658576 661.560801,91.2667866 C661.587186,94.0734595 660.799408,96.6483203 659.081877,98.8168864 C656.748698,101.764392 651.890107,101.998696 648.633456,99.3079296 C646.550306,97.586786 644.725978,95.5578057 642.73329,93.7220023 C639.422613,90.671054 636.944946,90.5003106 633.26865,93.0826491 C628.868653,96.1734791 626.225138,100.68634 623.709777,105.216649 C619.523373,112.758025 616.166209,120.691986 612.855532,128.644641 C611.894368,130.956532 612.199679,131.840161 614.942452,132.171677 C621.914348,133.015424 628.900064,133.33697 635.905883,133.533886 C637.696287,133.584984 638.298114,133.340709 637.711364,131.29428 C635.680983,124.195342 639.021814,120.703203 646.42592,122.13645 C650.11478,122.850582 653.762178,123.818959 657.383192,124.832202 C659.194955,125.340694 660.075708,125.15001 660.883588,123.17462 C663.66908,116.36607 666.710882,109.658471 669.735094,102.945886 C670.58318,101.061477 671.69009,99.2792646 673.343543,97.933258 C677.493511,94.549547 682.245306,95.7459973 684.220404,100.722483 C685.762036,104.604715 685.720574,108.631518 685.044618,112.678262 C684.202814,117.712077 682.623489,122.552715 680.895907,127.334778 C680.202361,129.260315 680.355645,130.057948 682.63731,130.386972 C688.963404,131.296773 695.323421,131.659447 701.69349,131.951082 C702.738835,131.998441 703.784179,132.023367 704.83078,132.045801 C707.510732,132.103131 709.930604,132.722543 710.695767,135.663817 C711.440826,138.522834 709.646653,140.376086 707.597425,141.92524 C702.939862,145.44729 697.356315,145.864802 691.825537,146.271096 C686.290991,146.678637 680.737597,146.558992 675.20305,146.218751 C673.452852,146.111569 672.484149,146.697332 671.726526,148.157998 C662.391297,166.143388 655.929509,185.125819 651.666463,204.873481 C651.493077,205.677346 651.440307,206.523585 651.454128,207.347391 C651.519462,211.278229 653.636536,212.984417 657.575425,212.321384 C664.841323,211.097515 671.113391,207.607868 677.224636,203.777981 C692.808061,194.009463 706.190231,181.674808 718.925342,168.581155 C719.588734,167.898181 719.961892,166.639416 721.342702,166.931051 C722.504894,168.039014 721.886733,169.241695 721.484678,170.395771 C719.432938,176.275826 717.152529,182.076117 715.203815,187.993561 C714.771605,189.304671 714.458756,190.967239 712.383144,190.689313 C704.766703,197.93033 697.147749,205.167608 688.748556,211.538706 C679.50002,218.552896 669.918532,225.022451 658.752694,228.692812 C652.817348,230.645768 646.66464,231.797351 640.802167,228.61928 C633.366651,224.588738 631.851404,217.534667 632.199433,209.955902 C632.655515,199.989222 636.35317,190.740412 639.264304,181.339553 C642.640315,170.436899 646.533972,159.706236 650.563323,149.026671 C650.812095,148.364884 650.89125,147.639536 651.126201,146.601366 C644.822723,147.441374 638.71399,147.947373 632.590181,148.136811 C624.740045,148.37984 616.897447,148.159244 609.112645,147.074961 C606.667645,146.733474 605.445144,147.366596 604.549314,149.831782 C594.438872,177.634296 585.329799,205.75337 577.181891,234.180281 C575.84003,238.8589 574.765788,243.659657 571.561907,247.566815 C568.124332,251.75813 564.410343,251.315693 562.229191,246.336715 C559.550496,240.218616 560.276709,233.938499 561.837187,227.720696 C564.916682,215.444618 568.226102,203.227115 571.980296,191.132997 C572.348429,189.94901 572.58338,188.725141 572.882409,187.51872 C571.858423,186.944175 571.854654,186.127846 572.206453,185.132051 C574.525811,178.552821 575.846312,171.587237 579.883202,165.673532"
      fill="#2E3138"></path>
    <path
      d="M713.962073,191.342943 C716.197005,185.325183 718.426929,179.304919 720.668122,173.289663 C721.394318,171.346754 722.149312,169.415112 722.890533,167.478463 C725.333308,161.508274 727.746033,155.526818 730.223866,149.5704 C734.701243,138.811792 739.204913,128.064451 743.722356,117.320866 C747.149252,109.16866 750.5774,101.016455 754.081924,92.8967978 C755.389078,89.8685138 757.664076,87.5225013 760.116868,85.3918112 C763.861788,82.1369379 768.541999,83.4739397 769.913008,88.262359 C770.655481,90.8599982 771.019831,93.5577874 770.852055,96.3056516 C769.764012,113.93705 763.114306,129.396446 752.576945,143.359852 C748.202237,149.157282 745.733169,155.958715 742.937312,162.533559 C738.169457,173.750353 733.422886,184.994688 730.168775,196.789848 C729.195922,200.320134 728.388342,203.882968 728.007714,207.5109 C727.551963,211.844889 729.585314,213.42851 733.670795,211.8862 C740.618492,209.263524 746.212709,204.501394 751.899579,199.929549 C763.136843,190.897276 773.104516,180.506719 783.422767,170.481709 C786.123466,167.85778 786.804588,164.877068 787.07253,161.548334 C787.399318,157.501024 787.557078,153.439944 787.789962,149.385123 C787.893883,147.567401 787.663504,145.842319 786.436482,144.382633 C786.303763,144.224897 786.203598,144.034612 786.110946,143.849335 C783.293804,138.294768 790.193923,125.200163 796.364089,124.386445 C799.657014,123.952044 802.787172,125.893701 804.171953,129.397697 C805.608069,133.034392 806.212816,136.84009 805.931101,140.74719 C804.8681,155.509292 803.073894,170.193778 801.319754,184.883271 C800.762586,189.538992 800.268021,194.200972 799.780968,198.862952 C799.709601,199.553986 799.48423,200.472862 800.260509,200.845921 C801.095635,201.247772 801.580183,200.388987 802.017153,199.873214 C810.452301,189.945851 818.884944,180.014732 826.781705,169.646709 C830.949822,164.17727 835.178039,158.752898 839.237227,153.204591 C841.817729,149.67681 844.080206,145.917431 846.603113,142.345834 C847.86394,140.561913 848.235803,139.042137 846.427824,137.418456 C844.949138,136.088966 845.164493,134.497833 845.865648,132.824077 C848.30091,127.009121 858.759392,120.68966 865.077301,121.256759 C868.679486,121.57849 870.232044,123.227209 870.447399,126.887689 C870.806741,132.922976 868.534247,138.11575 865.212524,142.920444 C858.283608,152.945454 851.580063,163.148229 844.219185,172.849003 C836.47768,183.053031 828.145202,192.817651 819.942937,202.666146 C805.472846,220.039658 790.196427,236.733402 776.212136,254.517529 C775.847786,254.980722 775.544787,255.493991 774.757239,256.658234 C778.578535,255.828241 781.674887,255.114673 784.787515,254.488736 C789.895932,253.462199 795.016869,252.466959 800.273029,253.240617 C801.617745,253.438413 803.145261,253.5636 803.62981,255.087132 C804.15192,256.728339 802.995014,257.902597 801.88193,258.82648 C798.056878,261.999982 793.443026,263.803932 788.961893,265.728063 C782.836801,268.358251 776.535169,270.58158 770.301147,272.962645 C768.632147,273.601101 766.886772,273.79389 765.102582,273.941611 C756.145324,274.681468 753.268084,268.280635 755.121137,260.962178 C756.518439,255.450175 759.890244,251.044829 763.357206,246.718352 C770.070768,238.340809 776.804362,229.978288 783.536704,221.614516 C784.324252,220.636802 785.23325,219.725437 784.971568,218.30456 C783.0484,207.820113 784.453214,197.306872 784.701123,186.803646 C784.718652,186.086322 784.703627,185.368999 784.703627,184.684223 C783.474101,184.228541 783.049652,185.141157 782.551331,185.69699 C769.279464,200.494144 754.785584,213.938022 738.439903,225.301286 C733.799757,228.527366 728.841588,231.177584 723.163483,232.199113 C717.794637,233.164308 712.398246,230.092209 710.462557,224.990821 C707.839485,218.076719 708.973854,211.240233 710.71923,204.391229 C711.827305,200.048477 712.884047,195.693206 713.962073,191.342943"
      fill="#C9C9D6"></path>
  </g>
</svg>
