<?xml version="1.0" encoding="UTF-8"?>
<svg width="592px" height="592px" viewBox="0 0 592 592" version="1.1" xmlns="http://www.w3.org/2000/svg" xmlns:xlink="http://www.w3.org/1999/xlink">
    <!-- Generator: Sketch 60.1 (88133) - https://sketch.com -->
    <title>Artboard</title>
    <desc>Created with Sketch.</desc>
    <defs>
        <linearGradient x1="100%" y1="50%" x2="0%" y2="50%" id="linearGradient-1">
            <stop stop-color="#8D8DA6" stop-opacity="0" offset="0%"></stop>
            <stop stop-color="#C1C1D2" offset="51.8607475%"></stop>
            <stop stop-color="#C1C1D2" stop-opacity="0" offset="100%"></stop>
        </linearGradient>
    </defs>
    <g id="Artboard" stroke="none" stroke-width="1" fill="none" fill-rule="evenodd">
        <polygon id="Line-6-Copy" fill="#D4D4DD" fill-rule="nonzero" transform="translate(168.500000, 296.000000) rotate(-360.000000) translate(-168.500000, -296.000000) " points="170 2.27373675e-13 170 592 167 592 167 2.27373675e-13"></polygon>
        <polygon id="Line-6-Copy-2" fill="#C9C9D6" fill-rule="nonzero" transform="translate(253.500000, 296.000000) rotate(-360.000000) translate(-253.500000, -296.000000) " points="255 2.27373675e-13 255 592 252 592 252 2.27373675e-13"></polygon>
        <polygon id="Line-6-Copy-3" fill="#C9C9D6" fill-rule="nonzero" transform="translate(338.500000, 295.000000) rotate(-360.000000) translate(-338.500000, -295.000000) " points="340 -1 340 591 337 591 337 -1"></polygon>
        <polygon id="Line-6-Copy-4" fill="#D4D4DD" fill-rule="nonzero" transform="translate(423.500000, 295.000000) rotate(-360.000000) translate(-423.500000, -295.000000) " points="425 -1 425 591 422 591 422 -1"></polygon>
        <polygon id="Line-6-Copy-5" fill="#DEDEE6" fill-rule="nonzero" transform="translate(508.500000, 295.000000) rotate(-360.000000) translate(-508.500000, -295.000000) " points="510 -1 510 591 507 591 507 -1"></polygon>
        <polygon id="Line-6" fill="#DEDEE6" fill-rule="nonzero" transform="translate(83.500000, 296.000000) rotate(-360.000000) translate(-83.500000, -296.000000) " points="85 2.27373675e-13 85 592 82 592 82 2.27373675e-13"></polygon>
        <polygon id="Line-6" fill="url(#linearGradient-1)" fill-rule="nonzero" transform="translate(297.000000, 83.500000) rotate(-360.000000) translate(-297.000000, -83.500000) " points="595 82 595 85 -1 85 -1 82"></polygon>
        <polygon id="Line-6-Copy-6" fill="url(#linearGradient-1)" fill-rule="nonzero" transform="translate(297.000000, 168.500000) rotate(-360.000000) translate(-297.000000, -168.500000) " points="595 167 595 170 -1 170 -1 167"></polygon>
        <polygon id="Line-6-Copy-7" fill="url(#linearGradient-1)" fill-rule="nonzero" transform="translate(297.000000, 253.500000) rotate(-360.000000) translate(-297.000000, -253.500000) " points="595 252 595 255 -1 255 -1 252"></polygon>
        <polygon id="Line-6-Copy-8" fill="url(#linearGradient-1)" fill-rule="nonzero" transform="translate(297.000000, 338.500000) rotate(-360.000000) translate(-297.000000, -338.500000) " points="595 337 595 340 -1 340 -1 337"></polygon>
        <polygon id="Line-6-Copy-9" fill="url(#linearGradient-1)" fill-rule="nonzero" transform="translate(297.000000, 423.500000) rotate(-360.000000) translate(-297.000000, -423.500000) " points="595 422 595 425 -1 425 -1 422"></polygon>
        <polygon id="Line-6-Copy-10" fill="url(#linearGradient-1)" fill-rule="nonzero" transform="translate(297.000000, 508.500000) rotate(-360.000000) translate(-297.000000, -508.500000) " points="595 507 595 510 -1 510 -1 507"></polygon>
        <path d="M168.5,83.5 L168.5,168.5 L338.5,168.5 L338.5,83.5 L168.5,83.5 Z" id="Rectangle" stroke="#8D8DA6" stroke-width="3" fill-opacity="0.25" fill="#8D8DA6" transform="translate(253.500000, 126.000000) rotate(-360.000000) translate(-253.500000, -126.000000) "></path>
        <path d="M338.5,253.5 L338.5,338.5 L508.5,338.5 L508.5,253.5 L338.5,253.5 Z" id="Rectangle-Copy-2" stroke="#8D8DA6" stroke-width="3" fill-opacity="0.25" fill="#8D8DA6" transform="translate(423.500000, 296.000000) rotate(-360.000000) translate(-423.500000, -296.000000) "></path>
        <path d="M83.5,423.5 L83.5,508.5 L253.5,508.5 L253.5,423.5 L83.5,423.5 Z" id="Rectangle-Copy-3" stroke="#8D8DA6" stroke-width="3" fill-opacity="0.25" fill="#8D8DA6" transform="translate(168.500000, 466.000000) rotate(-360.000000) translate(-168.500000, -466.000000) "></path>
    </g>
</svg>