<?xml version="1.0" encoding="UTF-8"?>
<svg width="597px" height="752px" viewBox="0 0 597 752" version="1.1" xmlns="http://www.w3.org/2000/svg" xmlns:xlink="http://www.w3.org/1999/xlink">
    <!-- Generator: Sketch 60.1 (88133) - https://sketch.com -->
    <title>Group 5</title>
    <desc>Created with Sketch.</desc>
    <defs>
        <linearGradient x1="100%" y1="50%" x2="0%" y2="50%" id="linearGradient-1">
            <stop stop-color="#8D8DA6" stop-opacity="0" offset="0%"></stop>
            <stop stop-color="#C1C1D2" offset="51.8607475%"></stop>
            <stop stop-color="#C1C1D2" stop-opacity="0" offset="100%"></stop>
        </linearGradient>
    </defs>
    <g id="Pages" stroke="none" stroke-width="1" fill="none" fill-rule="evenodd">
        <g id="Group-5" transform="translate(299.000000, 376.500000) rotate(-360.000000) translate(-299.000000, -376.500000) translate(2.000000, 1.000000)">
            <polygon id="Line-6-Copy" fill="#D4D4DD" fill-rule="nonzero" points="170.5 0.318274157 170.5 750.977995 167.5 750.977995 167.5 0.318274157"></polygon>
            <polygon id="Line-6-Copy-2" fill="#C9C9D6" fill-rule="nonzero" points="255.5 0.318274157 255.5 750.977995 252.5 750.977995 252.5 0.318274157"></polygon>
            <polygon id="Line-6-Copy-3" fill="#C4C4D2" fill-rule="nonzero" points="344.5 -0.681725843 344.5 749.977995 341.5 749.977995 341.5 -0.681725843"></polygon>
            <polygon id="Line-6-Copy-4" fill="#C8C8D5" fill-rule="nonzero" points="429.5 -0.681725843 429.5 749.977995 426.5 749.977995 426.5 -0.681725843"></polygon>
            <polygon id="Line-6-Copy-5" fill="#D6D6E0" fill-rule="nonzero" points="516.5 -0.681725843 516.5 749.977995 513.5 749.977995 513.5 -0.681725843"></polygon>
            <polygon id="Line-6" fill="#DEDEE6" fill-rule="nonzero" points="83.5 0.318274157 83.5 750.977995 80.5 750.977995 80.5 0.318274157"></polygon>
            <polygon id="Line-6" fill="url(#linearGradient-1)" fill-rule="nonzero" points="594.953593 81.7559618 594.953593 84.7559618 -1.5 84.7559618 -1.5 81.7559618"></polygon>
            <polygon id="Line-6-Copy-6" fill="url(#linearGradient-1)" fill-rule="nonzero" points="594.953593 164.755962 594.953593 167.755962 -1.5 167.755962 -1.5 164.755962"></polygon>
            <polygon id="Line-6-Copy-7" fill="url(#linearGradient-1)" fill-rule="nonzero" points="594.953593 249.755962 594.953593 252.755962 -1.5 252.755962 -1.5 249.755962"></polygon>
            <polygon id="Line-6-Copy-8" fill="url(#linearGradient-1)" fill-rule="nonzero" points="594.953593 333.755962 594.953593 336.755962 -1.5 336.755962 -1.5 333.755962"></polygon>
            <polygon id="Line-6-Copy-9" fill="url(#linearGradient-1)" fill-rule="nonzero" points="594.953593 416.755962 594.953593 419.755962 -1.5 419.755962 -1.5 416.755962"></polygon>
            <polygon id="Line-6-Copy-10" fill="url(#linearGradient-1)" fill-rule="nonzero" points="594.953593 501.755962 594.953593 504.755962 -1.5 504.755962 -1.5 501.755962"></polygon>
            <polygon id="Line-6-Copy-11" fill="url(#linearGradient-1)" fill-rule="nonzero" points="594.953593 584.755962 594.953593 587.755962 -1.5 587.755962 -1.5 584.755962"></polygon>
            <polygon id="Line-6-Copy-12" fill="url(#linearGradient-1)" fill-rule="nonzero" points="594.953593 669.755962 594.953593 672.755962 -1.5 672.755962 -1.5 669.755962"></polygon>
            <path d="M168.5,165.755962 L168.5,250.755962 L341.5,250.755962 L341.5,165.755962 L168.5,165.755962 Z" id="Rectangle" stroke="#8D8DA6" stroke-width="3" fill-opacity="0.25" fill="#8D8DA6"></path>
            <path d="M342.5,334.755962 L342.5,419.755962 L515.5,419.755962 L515.5,334.755962 L342.5,334.755962 Z" id="Rectangle-Copy-2" stroke="#8D8DA6" stroke-width="3" fill-opacity="0.25" fill="#8D8DA6"></path>
            <path d="M81.5,502.755962 L81.5,586.755962 L254.5,586.755962 L254.5,502.755962 L81.5,502.755962 Z" id="Rectangle-Copy-3" stroke="#8D8DA6" stroke-width="3" fill-opacity="0.25" fill="#8D8DA6"></path>
        </g>
    </g>
</svg>