<?xml version="1.0" encoding="UTF-8"?>
<svg width="594px" height="751px" viewBox="0 0 594 751" version="1.1" xmlns="http://www.w3.org/2000/svg" xmlns:xlink="http://www.w3.org/1999/xlink">
    <!-- Generator: Sketch 60.1 (88133) - https://sketch.com -->
    <title>Artboard Copy</title>
    <desc>Created with Sketch.</desc>
    <defs>
        <linearGradient x1="100%" y1="50%" x2="0%" y2="50%" id="linearGradient-1">
            <stop stop-color="#2E2E35" stop-opacity="0" offset="0%"></stop>
            <stop stop-color="#2E2E35" offset="51.8607475%"></stop>
            <stop stop-color="#2E2E35" stop-opacity="0" offset="100%"></stop>
        </linearGradient>
    </defs>
    <g id="Artboard-Copy" stroke="none" stroke-width="1" fill="none" fill-rule="evenodd">
        <g id="Group-5" transform="translate(296.500000, 375.000000) rotate(-360.000000) translate(-296.500000, -375.000000) translate(-2.000000, -1.000000)">
            <polygon id="Line-6-Copy" fill="#25252A" fill-rule="nonzero" points="172.5 1.31827416 172.5 751.977995 169.5 751.977995 169.5 1.31827416"></polygon>
            <polygon id="Line-6-Copy-2" fill="#2E2E2E" fill-rule="nonzero" points="257.5 1.31827416 257.5 751.977995 254.5 751.977995 254.5 1.31827416"></polygon>
            <polygon id="Line-6-Copy-3" fill="#2E2E2E" fill-rule="nonzero" points="346.5 0.318274157 346.5 750.977995 343.5 750.977995 343.5 0.318274157"></polygon>
            <polygon id="Line-6-Copy-4" fill="#242428" fill-rule="nonzero" points="431.5 0.318274157 431.5 750.977995 428.5 750.977995 428.5 0.318274157"></polygon>
            <polygon id="Line-6-Copy-5" fill="#1F1F21" fill-rule="nonzero" points="518.5 0.318274157 518.5 750.977995 515.5 750.977995 515.5 0.318274157"></polygon>
            <polygon id="Line-6" fill="#1E1E21" fill-rule="nonzero" points="85.5 1.31827416 85.5 751.977995 82.5 751.977995 82.5 1.31827416"></polygon>
            <polygon id="Line-6" fill="url(#linearGradient-1)" fill-rule="nonzero" points="596.953593 82.7559618 596.953593 85.7559618 0.5 85.7559618 0.5 82.7559618"></polygon>
            <polygon id="Line-6-Copy-6" fill="url(#linearGradient-1)" fill-rule="nonzero" points="596.953593 165.755962 596.953593 168.755962 0.5 168.755962 0.5 165.755962"></polygon>
            <polygon id="Line-6-Copy-7" fill="url(#linearGradient-1)" fill-rule="nonzero" points="596.953593 250.755962 596.953593 253.755962 0.5 253.755962 0.5 250.755962"></polygon>
            <polygon id="Line-6-Copy-8" fill="url(#linearGradient-1)" fill-rule="nonzero" points="596.953593 334.755962 596.953593 337.755962 0.5 337.755962 0.5 334.755962"></polygon>
            <polygon id="Line-6-Copy-9" fill="url(#linearGradient-1)" fill-rule="nonzero" points="596.953593 417.755962 596.953593 420.755962 0.5 420.755962 0.5 417.755962"></polygon>
            <polygon id="Line-6-Copy-10" fill="url(#linearGradient-1)" fill-rule="nonzero" points="596.953593 502.755962 596.953593 505.755962 0.5 505.755962 0.5 502.755962"></polygon>
            <polygon id="Line-6-Copy-11" fill="url(#linearGradient-1)" fill-rule="nonzero" points="596.953593 585.755962 596.953593 588.755962 0.5 588.755962 0.5 585.755962"></polygon>
            <polygon id="Line-6-Copy-12" fill="url(#linearGradient-1)" fill-rule="nonzero" points="596.953593 670.755962 596.953593 673.755962 0.5 673.755962 0.5 670.755962"></polygon>
            <path d="M170.5,166.755962 L170.5,251.755962 L343.5,251.755962 L343.5,166.755962 L170.5,166.755962 Z" id="Rectangle" stroke-opacity="0.6" stroke="#9A9A9A" stroke-width="3" fill-opacity="0.06" fill="#9A9A9A"></path>
            <path d="M344.5,335.755962 L344.5,420.755962 L517.5,420.755962 L517.5,335.755962 L344.5,335.755962 Z" id="Rectangle-Copy-2" stroke-opacity="0.6" stroke="#9A9A9A" stroke-width="3" fill-opacity="0.06" fill="#9A9A9A"></path>
            <path d="M83.5,503.755962 L83.5,587.755962 L256.5,587.755962 L256.5,503.755962 L83.5,503.755962 Z M256.5,587.755962 L258,587.755962 L256.5,589.255962 L256.5,587.755962 Z" id="Rectangle-Copy-3" stroke-opacity="0.6" stroke="#9A9A9A" stroke-width="3" fill-opacity="0.06" fill="#9A9A9A"></path>
        </g>
    </g>
</svg>