<?xml version="1.0" encoding="UTF-8"?>
<svg width="594px" height="752px" viewBox="0 0 594 752" version="1.1" xmlns="http://www.w3.org/2000/svg" xmlns:xlink="http://www.w3.org/1999/xlink">
    <!-- Generator: Sketch 60.1 (88133) - https://sketch.com -->
    <title>Group 5</title>
    <desc>Created with Sketch.</desc>
    <defs>
        <linearGradient x1="100%" y1="50%" x2="0%" y2="50%" id="linearGradient-1">
            <stop stop-color="#8D8DA6" stop-opacity="0" offset="0%"></stop>
            <stop stop-color="#C1C1D2" offset="51.8607475%"></stop>
            <stop stop-color="#C1C1D2" stop-opacity="0" offset="100%"></stop>
        </linearGradient>
    </defs>
    <g id="Pages" stroke="none" stroke-width="1" fill="none" fill-rule="evenodd">
        <g id="Group-5" transform="translate(297.000000, 376.500000) rotate(-360.000000) translate(-297.000000, -376.500000) translate(0.000000, 1.000000)" stroke-width="3">
            <line x1="169" y1="1.81827416" x2="169" y2="749.477995" id="Line-6-Copy" stroke="#D4D4DD" stroke-linecap="square"></line>
            <line x1="254" y1="1.81827416" x2="254" y2="749.477995" id="Line-6-Copy-2" stroke="#C9C9D6" stroke-linecap="square"></line>
            <line x1="343" y1="0.818274157" x2="343" y2="748.477995" id="Line-6-Copy-3" stroke="#C4C4D2" stroke-linecap="square"></line>
            <line x1="428" y1="0.818274157" x2="428" y2="748.477995" id="Line-6-Copy-4" stroke="#C8C8D5" stroke-linecap="square"></line>
            <line x1="515" y1="0.818274157" x2="515" y2="748.477995" id="Line-6-Copy-5" stroke="#D6D6E0" stroke-linecap="square"></line>
            <line x1="82" y1="1.81827416" x2="82" y2="749.477995" id="Line-6" stroke="#DEDEE6" stroke-linecap="square"></line>
            <line x1="593.453593" y1="83.2559618" x2="0" y2="83.2559618" id="Line-6" stroke="url(#linearGradient-1)" stroke-linecap="square"></line>
            <line x1="593.453593" y1="166.255962" x2="0" y2="166.255962" id="Line-6-Copy-6" stroke="url(#linearGradient-1)" stroke-linecap="square"></line>
            <line x1="593.453593" y1="251.255962" x2="0" y2="251.255962" id="Line-6-Copy-7" stroke="url(#linearGradient-1)" stroke-linecap="square"></line>
            <line x1="593.453593" y1="335.255962" x2="0" y2="335.255962" id="Line-6-Copy-8" stroke="url(#linearGradient-1)" stroke-linecap="square"></line>
            <line x1="593.453593" y1="418.255962" x2="5.45696821e-12" y2="418.255962" id="Line-6-Copy-9" stroke="url(#linearGradient-1)" stroke-linecap="square"></line>
            <line x1="593.453593" y1="503.255962" x2="5.45696821e-12" y2="503.255962" id="Line-6-Copy-10" stroke="url(#linearGradient-1)" stroke-linecap="square"></line>
            <line x1="593.453593" y1="586.255962" x2="5.45696821e-12" y2="586.255962" id="Line-6-Copy-11" stroke="url(#linearGradient-1)" stroke-linecap="square"></line>
            <line x1="593.453593" y1="671.255962" x2="5.45696821e-12" y2="671.255962" id="Line-6-Copy-12" stroke="url(#linearGradient-1)" stroke-linecap="square"></line>
            <path d="M168.5,165.755962 L168.5,250.755962 L341.5,250.755962 L341.5,165.755962 L168.5,165.755962 Z" id="Rectangle" stroke="#8D8DA6" fill-opacity="0.25" fill="#8D8DA6"></path>
            <path d="M342.5,334.755962 L342.5,419.755962 L515.5,419.755962 L515.5,334.755962 L342.5,334.755962 Z" id="Rectangle-Copy-2" stroke="#8D8DA6" fill-opacity="0.25" fill="#8D8DA6"></path>
            <path d="M81.5,502.755962 L81.5,586.755962 L254.5,586.755962 L254.5,502.755962 L81.5,502.755962 Z" id="Rectangle-Copy-3" stroke="#8D8DA6" fill-opacity="0.25" fill="#8D8DA6"></path>
        </g>
    </g>
</svg>