<?xml version="1.0" encoding="UTF-8"?>
<svg width="1200px" height="1024px" viewBox="0 0 1200 1024" version="1.1" xmlns="http://www.w3.org/2000/svg" xmlns:xlink="http://www.w3.org/1999/xlink">
    <!-- Generator: Sketch 60.1 (88133) - https://sketch.com -->
    <title>css-grid-layout</title>
    <desc>Created with Sketch.</desc>
    <g id="css-grid-layout" stroke="none" stroke-width="1" fill="none" fill-rule="evenodd">
        <rect fill="#F9F9FB" x="0" y="0" width="1200" height="1024"></rect>
        <text id="At-earum-odio-provid" font-family="DMSerifText-Regular, DM Serif Text" font-size="32" font-weight="normal" line-spacing="40" fill="#2E3138">
            <tspan x="174.792" y="113">At earum odio </tspan>
            <tspan x="157.096" y="153">provident quod </tspan>
            <tspan x="197" y="193">voluptatibus</tspan>
        </text>
        <text id="Amet-assumenda-atque" font-family="DMSerifText-Regular, DM Serif Text" font-size="26" font-weight="normal" line-spacing="37" fill="#2E3138">
            <tspan x="424" y="425">Amet assumenda atque beatae</tspan>
        </text>
        <text id="Lorem-ipsum-dolor-si" font-family="Roboto-Regular, Roboto" font-size="17" font-weight="normal" line-spacing="26" fill="#2E3138">
            <tspan x="424" y="103">Lorem ipsum dolor sit amet, consectetur adipisicing elit. </tspan>
            <tspan x="424" y="129">Aliquid aspernatur dolore est eveniet facilis fugiat incidunt </tspan>
            <tspan x="424" y="155">magni molestias nisi, nulla repellat tempore voluptates. At </tspan>
            <tspan x="424" y="181">earum odio provident quod velit voluptatibus! Amet </tspan>
            <tspan x="424" y="207">assumenda atque beatae consequatur deserunt eveniet </tspan>
            <tspan x="424" y="233">exercitationem labore maiores minus natus neque, officia </tspan>
            <tspan x="424" y="259">possimus quasi quia quibusdam quisquam sapiente ut. </tspan>
            <tspan x="424" y="285">Amet animi corporis cupiditate eaque iure quis, tempora </tspan>
            <tspan x="424" y="311">veniam? Consectetur, doloremque eum exercitationem </tspan>
            <tspan x="424" y="337">perferendis ratione rerum vero.</tspan>
        </text>
        <text id="Amet-assumenda-atque" font-family="Roboto-Regular, Roboto" font-size="17" font-weight="normal" line-spacing="26" fill="#2E3138">
            <tspan x="424" y="470">Amet assumenda atque beatae consequatur deserunt </tspan>
            <tspan x="424" y="496">eveniet exercitationem labore maiores minus natus neque, </tspan>
            <tspan x="424" y="522">officia possimus quasi quia quibusdam quisquam sapiente </tspan>
            <tspan x="424" y="548">ut. Amet animi corporis cupiditate eaque iure quis.</tspan>
            <tspan x="424" y="590">Consectetur, doloremque eum exercitationem perferendis </tspan>
            <tspan x="424" y="616">ratione rerum vero voluptatum. Accusamus ad beatae </tspan>
            <tspan x="424" y="642">consectetur, ea esse eum eveniet facere hic id illo itaque </tspan>
            <tspan x="424" y="668">labore magni molestias nemo numquam sed suscipit unde.</tspan>
            <tspan x="424" y="710">A aperiam aut beatae commodi consectetur corporis cum </tspan>
            <tspan x="424" y="736">debitis eligendi enim error excepturi harum illo in ipsum </tspan>
            <tspan x="424" y="762">modi numquam omnis, praesentium quae quos ratione </tspan>
            <tspan x="424" y="788">similique totam, vel vitae voluptatibus voluptatum!</tspan>
            <tspan x="424" y="830">Adipisci autem consequuntur cupiditate dicta dolore </tspan>
            <tspan x="424" y="856">dolorem doloribus dolorum eum, id ipsum labore libero </tspan>
            <tspan x="424" y="882">minus nemo provident quasi quidem recusandae repellat </tspan>
            <tspan x="424" y="908">sequi, tempore ut? Eveniet ipsum necessitatibus </tspan>
            <tspan x="424" y="934">praesentium quod voluptas!</tspan>
        </text>
        <text id="A-aperiam-aut-beatae" font-family="Roboto-Italic, Roboto" font-size="16" font-style="italic" font-weight="normal" line-spacing="26" fill="#D75037">
            <tspan x="231.164062" y="590">A aperiam aut beatae </tspan>
            <tspan x="227.078125" y="616">commodi consectetur </tspan>
            <tspan x="233.21875" y="642">corporis cum debitis.</tspan>
        </text>
        <text id="AUGUST-12,-2017" font-family="Roboto-Regular, Roboto" font-size="18" font-weight="normal" line-spacing="28" fill="#2E3138">
            <tspan x="239" y="234">AUGUST 12, 2017</tspan>
        </text>
        <path d="M969.951499,110.4375 L970.781198,104.827227 L965.593538,104.827227 L965.593538,101.186543 C965.593538,99.6516797 966.318212,98.1555664 968.641602,98.1555664 L971,98.1555664 L971,93.3790234 C971,93.3790234 968.859821,93 966.81358,93 C962.54139,93 959.748888,95.6870703 959.748888,100.551406 L959.748888,104.827227 L955,104.827227 L955,110.4375 L959.748888,110.4375 L959.748888,124 L965.593538,124 L965.593538,110.4375 L969.951499,110.4375 Z" id="facebook" fill="#091C2E" fill-rule="nonzero"></path>
        <path d="M968.813527,170.230446 C968.833204,170.503871 968.833204,170.777355 968.833204,171.05078 C968.833204,179.390586 962.440459,189 950.75638,189 C947.156733,189 943.812837,187.964799 941,186.168001 C941.511441,186.226558 942.003145,186.246096 942.534264,186.246096 C945.504402,186.246096 948.238589,185.250033 950.421978,183.55081 C947.628819,183.492193 945.288068,181.675796 944.48158,179.175778 C944.875015,179.234335 945.26839,179.273412 945.681503,179.273412 C946.251917,179.273412 946.822392,179.195257 947.353451,179.058605 C944.442285,178.472618 942.258835,175.933582 942.258835,172.867176 L942.258835,172.789081 C943.104618,173.257834 944.088205,173.550798 945.130645,173.589815 C943.419341,172.45698 942.298191,170.523409 942.298191,168.335894 C942.298191,167.16404 942.612854,166.089821 943.163651,165.152314 C946.291212,168.980437 950.992393,171.480395 956.263927,171.75388 C956.165598,171.285126 956.106565,170.796894 956.106565,170.308602 C956.106565,166.831999 958.93908,164 962.460015,164 C964.289325,164 965.941595,164.761717 967.102163,165.992187 C968.538037,165.718762 969.914939,165.191392 971.13454,164.468753 C970.662393,165.93363 969.659249,167.1641 968.34138,167.945296 C969.619954,167.808644 970.859171,167.457004 972,166.968771 C971.134661,168.21872 970.052744,169.331957 968.813527,170.230446 Z" id="twitter" fill="#091C2E" fill-rule="nonzero"></path>
        <path d="M950.043661,256 L944.445982,256 L944.445982,237.973482 L950.043661,237.973482 L950.043661,256 Z M947.241808,235.514498 C945.451853,235.514498 944,234.031876 944,232.24188 C944,230.451439 945.451407,229 947.241808,229 C949.032209,229 950.483616,230.451439 950.483616,232.24188 C950.483616,234.031876 949.031161,235.514498 947.241808,235.514498 Z M970.993973,256 L965.408348,256 L965.408348,247.224804 C965.408348,245.133463 965.366161,242.451483 962.498013,242.451483 C959.587679,242.451483 959.141696,244.723632 959.141696,247.074131 L959.141696,256 L953.550045,256 L953.550045,237.973482 L958.918705,237.973482 L958.918705,240.432465 L958.997054,240.432465 C959.744375,239.016139 961.569888,237.521462 964.293393,237.521462 C969.958571,237.521462 971,241.252126 971,246.09777 L971,256 L970.993973,256 Z" id="linkedin" fill="#091C2E" fill-rule="nonzero"></path>
    </g>
</svg>