<?xml version="1.0" encoding="UTF-8"?>
<svg width="1200px" height="998px" viewBox="0 0 1200 998" version="1.1" xmlns="http://www.w3.org/2000/svg" xmlns:xlink="http://www.w3.org/1999/xlink">
    <!-- Generator: Sketch 60.1 (88133) - https://sketch.com -->
    <title>css-grid-layout</title>
    <desc>Created with Sketch.</desc>
    <g id="css-grid-layout" stroke="none" stroke-width="1" fill="none" fill-rule="evenodd">
        <text id="At-earum-odio-provid" font-family="DMSerifText-Regular, DM Serif Text" font-size="32" font-weight="normal" line-spacing="40" fill="#2E3138">
            <tspan x="161.792" y="113">At earum odio </tspan>
            <tspan x="144.096" y="153">provident quod </tspan>
            <tspan x="184" y="193">voluptatibus</tspan>
        </text>
        <text id="Amet-assumenda-atque" font-family="DMSerifText-Regular, DM Serif Text" font-size="26" font-weight="normal" line-spacing="37" fill="#2E3138">
            <tspan x="416" y="425">Amet assumenda atque beatae</tspan>
        </text>
        <text id="Lorem-ipsum-dolor-si" font-family="Roboto-Regular, Roboto" font-size="17" font-weight="normal" line-spacing="26" fill="#2E3138">
            <tspan x="416" y="103">Lorem ipsum dolor sit amet, consectetur adipisicing elit. </tspan>
            <tspan x="416" y="129">Aliquid aspernatur dolore est eveniet facilis fugiat incidunt </tspan>
            <tspan x="416" y="155">magni molestias nisi, nulla repellat tempore voluptates. At </tspan>
            <tspan x="416" y="181">earum odio provident quod velit voluptatibus! Amet </tspan>
            <tspan x="416" y="207">assumenda atque beatae consequatur deserunt eveniet </tspan>
            <tspan x="416" y="233">exercitationem labore maiores minus natus neque, officia </tspan>
            <tspan x="416" y="259">possimus quasi quia quibusdam quisquam sapiente ut. Amet </tspan>
            <tspan x="416" y="285">animi corporis cupiditate eaque iure quis, tempora veniam? </tspan>
            <tspan x="416" y="311">Consectetur, doloremque eum exercitationem perferendis </tspan>
            <tspan x="416" y="337">ratione rerum vero.</tspan>
        </text>
        <text id="Amet-assumenda-atque" font-family="Roboto-Regular, Roboto" font-size="17" font-weight="normal" line-spacing="26" fill="#2E3138">
            <tspan x="416" y="470">Amet assumenda atque beatae consequatur deserunt eveniet </tspan>
            <tspan x="416" y="496">exercitationem labore maiores minus natus neque, officia </tspan>
            <tspan x="416" y="522">possimus quasi quia quibusdam quisquam sapiente ut. Amet </tspan>
            <tspan x="416" y="548">animi corporis cupiditate eaque iure quis, tempora veniam?</tspan>
            <tspan x="416" y="590">Consectetur, doloremque eum exercitationem perferendis </tspan>
            <tspan x="416" y="616">ratione rerum vero voluptatum. Accusamus ad beatae </tspan>
            <tspan x="416" y="642">consectetur, ea esse eum eveniet facere hic id illo itaque </tspan>
            <tspan x="416" y="668">labore magni molestias nemo numquam sed suscipit unde.</tspan>
            <tspan x="416" y="710">A aperiam aut beatae commodi consectetur corporis cum </tspan>
            <tspan x="416" y="736">debitis eligendi enim error excepturi harum illo in ipsum modi </tspan>
            <tspan x="416" y="762">numquam omnis, praesentium quae quos ratione similique </tspan>
            <tspan x="416" y="788">totam, vel vitae voluptatibus voluptatum!</tspan>
            <tspan x="416" y="830">Adipisci autem consequuntur cupiditate dicta dolore dolorem </tspan>
            <tspan x="416" y="856">doloribus dolorum eum, id ipsum labore libero minus nemo </tspan>
            <tspan x="416" y="882">provident quasi quidem recusandae repellat sequi, tempore </tspan>
            <tspan x="416" y="908">ut? Eveniet ipsum necessitatibus praesentium quod voluptas!</tspan>
        </text>
        <text id="A-aperiam-aut-beatae" font-family="Roboto-Italic, Roboto" font-size="16" font-style="italic" font-weight="normal" line-spacing="26" fill="#D75037">
            <tspan x="218.164062" y="590">A aperiam aut beatae </tspan>
            <tspan x="214.078125" y="616">commodi consectetur </tspan>
            <tspan x="220.21875" y="642">corporis cum debitis.</tspan>
        </text>
        <text id="AUGUST-12,-2017" font-family="Roboto-Regular, Roboto" font-size="18" font-weight="normal" line-spacing="28" fill="#2E3138">
            <tspan x="226" y="234">AUGUST 12, 2017</tspan>
        </text>
        <path d="M987.951499,110.4375 L988.781198,104.827227 L983.593538,104.827227 L983.593538,101.186543 C983.593538,99.6516797 984.318212,98.1555664 986.641602,98.1555664 L989,98.1555664 L989,93.3790234 C989,93.3790234 986.859821,93 984.81358,93 C980.54139,93 977.748888,95.6870703 977.748888,100.551406 L977.748888,104.827227 L973,104.827227 L973,110.4375 L977.748888,110.4375 L977.748888,124 L983.593538,124 L983.593538,110.4375 L987.951499,110.4375 Z" id="facebook" fill="#091C2E" fill-rule="nonzero"></path>
        <path d="M986.813527,170.230446 C986.833204,170.503871 986.833204,170.777355 986.833204,171.05078 C986.833204,179.390586 980.440459,189 968.75638,189 C965.156733,189 961.812837,187.964799 959,186.168001 C959.511441,186.226558 960.003145,186.246096 960.534264,186.246096 C963.504402,186.246096 966.238589,185.250033 968.421978,183.55081 C965.628819,183.492193 963.288068,181.675796 962.48158,179.175778 C962.875015,179.234335 963.26839,179.273412 963.681503,179.273412 C964.251917,179.273412 964.822392,179.195257 965.353451,179.058605 C962.442285,178.472618 960.258835,175.933582 960.258835,172.867176 L960.258835,172.789081 C961.104618,173.257834 962.088205,173.550798 963.130645,173.589815 C961.419341,172.45698 960.298191,170.523409 960.298191,168.335894 C960.298191,167.16404 960.612854,166.089821 961.163651,165.152314 C964.291212,168.980437 968.992393,171.480395 974.263927,171.75388 C974.165598,171.285126 974.106565,170.796894 974.106565,170.308602 C974.106565,166.831999 976.93908,164 980.460015,164 C982.289325,164 983.941595,164.761717 985.102163,165.992187 C986.538037,165.718762 987.914939,165.191392 989.13454,164.468753 C988.662393,165.93363 987.659249,167.1641 986.34138,167.945296 C987.619954,167.808644 988.859171,167.457004 990,166.968771 C989.134661,168.21872 988.052744,169.331957 986.813527,170.230446 Z" id="twitter" fill="#091C2E" fill-rule="nonzero"></path>
        <path d="M968.043661,256 L962.445982,256 L962.445982,237.973482 L968.043661,237.973482 L968.043661,256 Z M965.241808,235.514498 C963.451853,235.514498 962,234.031876 962,232.24188 C962,230.451439 963.451407,229 965.241808,229 C967.032209,229 968.483616,230.451439 968.483616,232.24188 C968.483616,234.031876 967.031161,235.514498 965.241808,235.514498 Z M988.993973,256 L983.408348,256 L983.408348,247.224804 C983.408348,245.133463 983.366161,242.451483 980.498013,242.451483 C977.587679,242.451483 977.141696,244.723632 977.141696,247.074131 L977.141696,256 L971.550045,256 L971.550045,237.973482 L976.918705,237.973482 L976.918705,240.432465 L976.997054,240.432465 C977.744375,239.016139 979.569888,237.521462 982.293393,237.521462 C987.958571,237.521462 989,241.252126 989,246.09777 L989,256 L988.993973,256 Z" id="linkedin" fill="#091C2E" fill-rule="nonzero"></path>
    </g>
</svg>