<?xml version="1.0" encoding="UTF-8"?>
<svg width="1200px" height="328px" viewBox="0 0 1200 328" version="1.1" xmlns="http://www.w3.org/2000/svg">
  <g stroke="none" stroke-width="1" fill="none" fill-rule="evenodd">
    <rect fill="#F9F9FB" x="0" y="0" width="1200" height="328"></rect>
    <line x1="0" y1="80.5" x2="1200.5" y2="81" stroke="#DEDEE6" stroke-width="2"></line>
    <line x1="0" y1="137" x2="1200.5" y2="137.5" stroke="#DEDEE6" stroke-width="2"></line>
    <polygon fill="#DEDEE6" fill-rule="nonzero"
             points="-1.00041641 247.499583 -0.99958342 245.499584 1201.50042 246.000417 1201.49958 248.000416"></polygon>
    <path
      d="M214.08,247.44 L226.08,246 C223.92,241.68 215.28,222.72 206.88,204 L149.04,73.44 L145.44,74.16 C140.88,86.64 134.64,100.56 123.6,126.24 L70.8,246 L83.52,246 C85.2,241.68 93.84,219.36 101.52,201.84 L108.24,185.76 L186.96,185.76 L214.08,247.44 Z M182.64,176.16 L112.56,176.16 L147.6,94.8 L182.64,176.16 Z M274.56,248.64 C292.08,248.64 307.2,238.08 312.96,223.68 C312,243.36 319.44,247.68 327.36,247.68 C331.92,247.68 335.76,246.24 338.64,244.32 L339.36,236.4 C336.72,237.84 333.36,239.28 330.24,239.28 C324.72,239.28 321.84,236.16 322.08,224.88 L323.52,177.36 C324.24,149.52 309.36,135.84 286.08,135.84 C273.36,135.84 261.84,139.68 250.56,146.16 L253.2,155.76 C261.84,150 273.36,145.2 284.88,145.2 C304.08,145.2 313.68,156.48 313.2,179.52 L312.96,185.28 C307.68,184.8 302.4,184.32 295.92,184.32 C256.32,184.32 241.92,200.4 241.92,218.88 C241.92,235.44 253.2,248.64 274.56,248.64 Z M276.72,239.76 C259.68,239.76 252.48,229.68 252.48,218.16 C252.48,204.96 262.08,192 295.68,192 C300.96,192 306.96,192.24 312.72,192.96 L312.24,203.52 C311.52,224.4 295.92,239.76 276.72,239.76 Z"
      fill="#C9C9D6" fill-rule="nonzero"></path>
    <path
      d="M464.28,248.88 C471.24,239.28 476.28,233.04 481.56,225.6 L566.52,109.68 C572.04,101.76 581.16,89.04 587.16,81.6 C585.72,80.88 580.92,78.48 579.48,77.52 C574.92,84.72 568.44,93.84 552.84,115.2 L485.88,206.64 C477.72,217.92 472.92,224.4 457.32,244.56 L464.28,248.88 Z M483.24,170.16 C483.034286,167.28 483.004898,160.34449 483.0007,155.701224 L483,95.04 C483,92.88 483.24,80.88 483.24,78.96 L481.32,78.24 L473.16,80.88 C466.92,82.8 459.96,85.2 452.04,87.36 L453.96,95.04 L474.12,89.04 L474.12,142.56 C474.12,150 473.88,164.64 473.64,170.16 L483.24,170.16 Z M618.36,246.24 C618.36,243.12 618.84,240.24 619.08,237.12 C602.76,237.6 582.84,237.84 566.04,237.84 C576.36,229.2 586.68,220.56 594.84,213.12 C609.24,199.44 616.44,191.04 616.44,178.56 C616.44,163.44 604.44,154.08 587.16,154.08 C575.16,154.08 564.12,159.36 555.72,166.8 L559.8,174 C568.68,166.32 577.08,162.48 586.68,162.48 C599.4,162.48 607.08,169.2 607.08,179.52 C607.08,187.92 602.28,195.6 589.32,207.84 C580.68,216 568.44,226.08 552.36,239.76 L553.8,246.24 C563.64,246 574.44,245.76 585.96,245.76 C598.44,245.76 608.28,246 618.36,246.24 Z M713.4,248.88 C720.36,239.28 725.4,233.04 730.68,225.6 L815.64,109.68 C821.16,101.76 830.28,89.04 836.28,81.6 C834.84,80.88 830.04,78.48 828.6,77.52 C824.04,84.72 817.56,93.84 801.96,115.2 L735,206.64 C726.84,217.92 722.04,224.4 706.44,244.56 L713.4,248.88 Z M732.36,170.16 C732.154286,167.28 732.124898,160.34449 732.1207,155.701224 L732.12,95.04 C732.12,92.88 732.36,80.88 732.36,78.96 L730.44,78.24 L722.28,80.88 C716.04,82.8 709.08,85.2 701.16,87.36 L703.08,95.04 L723.24,89.04 L723.24,142.56 C723.24,150 723,164.64 722.76,170.16 L732.36,170.16 Z M831.72,247.92 C853.32,247.92 868.92,237.12 868.92,222.24 C868.92,209.76 858.12,201.36 837,198.96 C855.96,194.64 867,186.72 867,174.96 C867,163.2 855.48,154.32 837,154.32 C825,154.32 814.44,158.16 806.04,162.72 L808.92,169.92 C816.84,165.36 826.44,162.48 836.28,162.48 C850.2,162.48 857.64,168.48 857.64,175.92 C857.64,185.76 846.6,193.68 820.44,197.52 L821.88,203.52 C845.88,204.24 859.56,210.24 859.56,222.24 C859.56,232.32 848.28,239.76 831,239.76 C821.4,239.76 812.76,237.84 804.6,234.96 L805.8,243.84 C814.44,246.48 822.84,247.92 831.72,247.92 Z M972.84,248.88 C979.8,239.28 984.84,233.04 990.12,225.6 L1075.08,109.68 C1080.6,101.76 1089.72,89.04 1095.72,81.6 C1094.28,80.88 1089.48,78.48 1088.04,77.52 C1083.48,84.72 1077,93.84 1061.4,115.2 L994.44,206.64 C986.28,217.92 981.48,224.4 965.88,244.56 L972.84,248.88 Z M981.48,170.16 C981.274286,167.28 981.244898,160.34449 981.2407,155.701224 L981.24,95.04 C981.24,92.88 981.48,80.88 981.48,78.96 L979.56,78.24 L971.4,80.88 C965.16,82.8 958.2,85.2 950.28,87.36 L952.2,95.04 L972.36,89.04 L972.36,142.56 C972.36,150 972.12,164.64 971.88,170.16 L981.48,170.16 Z M1105.8,246 C1105.56,242.88 1105.32,235.44 1105.32,230.88 L1105.32,222.48 C1111.32,222.48 1117.08,222.72 1121.88,222.72 C1121.88,219.36 1122.36,217.68 1122.84,214.8 C1117.56,214.8 1112.04,215.04 1105.32,215.04 L1105.32,171.6 C1105.32,169.44 1105.56,156 1105.8,154.32 L1097.64,153.6 L1087.56,166.32 L1048.2,216.48 L1049.88,222.96 C1059.96,222.48 1074.36,222.48 1085.88,222.48 L1097.16,222.48 L1097.16,226.56 C1097.16,232.8 1097.16,241.44 1096.68,246 L1105.8,246 Z M1058.28,215.28 L1097.4,165.36 L1097.4,215.04 L1094.04,215.04 C1088.04,215.28 1064.04,215.28 1058.28,215.28 Z"
      fill="#2E3138" fill-rule="nonzero"></path>
  </g>
</svg>
