<?xml version="1.0" encoding="UTF-8"?>
<svg width="1200px" height="328px" viewBox="0 0 1200 328" version="1.1" xmlns="http://www.w3.org/2000/svg" xmlns:xlink="http://www.w3.org/1999/xlink">
    <!-- Generator: Sketch 60.1 (88133) - https://sketch.com -->
    <title>discretionary-ligatures copy</title>
    <desc>Created with Sketch.</desc>
    <g id="discretionary-ligatures-copy" stroke="none" stroke-width="1" fill="none" fill-rule="evenodd">
        <rect fill="#F9F9FB" x="0" y="0" width="1200" height="328"></rect>
        <path d="M415.48,246.04 C421.72,246.04 427.62,245.04 433.18,243.04 C438.74,241.04 443.86,238.08 448.54,234.16 C453.22,230.24 455.56,227.48 455.56,225.88 C455.56,224.76 455.22,223.74 454.54,222.82 C453.86,221.9 453.16,221.44 452.44,221.44 L452.44,221.44 L451.84,221.68 C444.72,229.28 435.08,233.08 422.92,233.08 C412.2,233.08 403.64,229.14 397.24,221.26 C390.84,213.38 387.64,203 387.64,190.12 C387.64,174.68 390.18,162.94 395.26,154.9 C400.34,146.86 407.72,142.84 417.4,142.84 C421.32,142.84 424.5,143.58 426.94,145.06 C429.38,146.54 431.68,149.64 433.84,154.36 C435.68,158.36 437.5,160.96 439.3,162.16 C441.1,163.36 443.4,163.96 446.2,163.96 C452.76,163.96 456.04,160.68 456.04,154.12 C456.04,148.92 452.3,144.46 444.82,140.74 C437.34,137.02 428.2,135.16 417.4,135.16 C402.76,135.16 390.1,140.38 379.42,150.82 C368.74,161.26 363.4,174.44 363.4,190.36 C363.4,206.44 368.5,219.74 378.7,230.26 C388.9,240.78 401.16,246.04 415.48,246.04 Z M517.48,245.08 C524.92,245.08 531.62,243.38 537.58,239.98 C543.54,236.58 546.52,233.88 546.52,231.88 C546.52,230.92 546.26,230.02 545.74,229.18 C545.22,228.34 544.64,227.92 544,227.92 C538.56,231.04 532.52,232.6 525.88,232.6 C515.16,232.6 509.8,225.08 509.8,210.04 L509.8,210.04 L509.8,152.44 L545.56,153.4 C547.64,153.4 548.68,151.24 548.68,146.92 C548.68,142.6 547.64,140.44 545.56,140.44 L545.56,140.44 L510.28,140.44 L511.24,117.52 C511.24,116.24 510.12,115.6 507.88,115.6 C506.52,115.6 505.4,116.24 504.52,117.52 C496.28,129.44 486.6,138.68 475.48,145.24 C474.04,146.04 473.32,147.24 473.32,148.84 C473.32,150.92 474.2,151.96 475.96,151.96 L475.96,151.96 L485.08,151.96 C487,151.96 487.96,153.08 487.96,155.32 L487.96,155.32 L487.48,213.64 L487.48,214.72 C487.48,223.84 490.2,231.18 495.64,236.74 C501.08,242.3 508.36,245.08 517.48,245.08 Z" id="ct" fill="#C9C9D6" fill-rule="nonzero"></path>
        <path d="M708.36,246.04 C714.44,246.04 720.52,244.88 726.6,242.56 C732.68,240.24 738.32,236.98 743.52,232.78 C748.72,228.58 751.32,225.64 751.32,223.96 C751.32,222.92 750.96,221.94 750.24,221.02 C749.52,220.1 748.8,219.64 748.08,219.64 L748.08,219.64 L747.48,219.88 C743.88,223.72 739.14,226.88 733.26,229.36 C727.38,231.84 721.56,233.08 715.8,233.08 C703.96,233.08 694.64,229.2 687.84,221.44 C681.04,213.68 677.64,203.32 677.64,190.36 C677.64,158.84 687.56,143.08 707.4,143.08 C711.08,143.08 714.08,143.82 716.4,145.3 C718.72,146.78 720.84,149.8 722.76,154.36 C724.28,158.04 725.8,160.44 727.32,161.56 C728.84,162.68 730.84,163.24 733.32,163.24 C739.88,163.24 743.16,159.88 743.16,153.16 C743.16,150.44 741.8,147.72 739.08,145 C736.36,142.28 732.88,140.24 728.64,138.88 C721.76,136.72 716.78,133.64 713.7,129.64 C710.62,125.64 709.08,120.32 709.08,113.68 C709.08,103.6 712.38,95.28 718.98,88.72 C725.58,82.16 734.04,78.88 744.36,78.88 C755.96,78.88 764.88,82.94 771.12,91.06 C777.36,99.18 780.48,110.64 780.48,125.44 C780.48,129.6 779.42,133.12 777.3,136 C775.18,138.88 771.24,142 765.48,145.36 C763.96,146.24 763.2,147.4 763.2,148.84 C763.2,151.08 764,152.2 765.6,152.2 L765.6,152.2 L774.96,152.2 C776.72,152.2 777.6,153.32 777.6,155.56 L777.6,155.56 L777.36,213.64 L777.36,214.72 C777.36,223.84 780.06,231.18 785.46,236.74 C790.86,242.3 798.08,245.08 807.12,245.08 C814.8,245.08 821.56,243.44 827.4,240.16 C833.24,236.88 836.16,234.12 836.16,231.88 C836.16,230.92 835.94,230.02 835.5,229.18 C835.06,228.34 834.56,227.92 834,227.92 C828.56,231.04 822.48,232.6 815.76,232.6 C805.04,232.6 799.68,225.08 799.68,210.04 L799.68,210.04 L799.68,152.68 L835.44,153.64 C837.52,153.64 838.56,151.4 838.56,146.92 C838.56,142.6 837.52,140.44 835.44,140.44 L835.44,140.44 L800.16,140.44 L800.16,120.4 C800.16,105.12 795.56,92.58 786.36,82.78 C777.16,72.98 765.4,68.08 751.08,68.08 C736.44,68.08 724.34,72.46 714.78,81.22 C705.22,89.98 700.44,101.28 700.44,115.12 C700.44,118.8 701.12,122.6 702.48,126.52 C703.84,130.44 705.48,133.4 707.4,135.4 C692.6,135.4 679.9,140.58 669.3,150.94 C658.7,161.3 653.4,174.44 653.4,190.36 C653.4,206.76 658.68,220.14 669.24,230.5 C679.8,240.86 692.84,246.04 708.36,246.04 Z" id="c" fill="#2E3138" fill-rule="nonzero"></path>
    </g>
</svg>