<?xml version="1.0" encoding="UTF-8"?>
<svg width="592px" height="592px" viewBox="0 0 592 592" version="1.1" xmlns="http://www.w3.org/2000/svg">
  <defs>
    <linearGradient x1="-1.11022302e-14%" y1="50%" x2="100%" y2="50%" id="linearGradient-1">
      <stop stop-color="#8D8DA6" stop-opacity="0" offset="0%"></stop>
      <stop stop-color="#C1C1D2" offset="51.8607475%"></stop>
      <stop stop-color="#C1C1D2" stop-opacity="0" offset="100%"></stop>
    </linearGradient>
    <linearGradient x1="50%" y1="100%" x2="50%" y2="3.061617e-15%" id="linearGradient-2">
      <stop stop-color="#8D8DA6" stop-opacity="0" offset="0%"></stop>
      <stop stop-color="#C1C1D2" offset="51.8607475%"></stop>
      <stop stop-color="#C1C1D2" stop-opacity="0" offset="100%"></stop>
    </linearGradient>
  </defs>
  <g stroke="none" stroke-width="1" fill="none" fill-rule="evenodd">
    <circle stroke="#8D8DA6" stroke-width="3" cx="294" cy="295.5" r="134.5"></circle>
    <circle stroke="#C9C9D6" stroke-width="3" cx="294.5" cy="296" r="192.5"></circle>
    <polyline stroke="#8D8DA6" stroke-width="8"
              points="213.474969 395.615905 294.004355 202 373.810151 395.615905"></polyline>
    <line x1="249.983696" y1="322.5" x2="338.016304" y2="322.5" id="Line-5" stroke="#8D8DA6" stroke-width="7"></line>
    <path
      d="M593,192.5 L593,189.5 L589,189.5 L589,192.5 L593,192.5 Z M585,192.5 L585,189.5 L581,189.5 L581,192.5 L585,192.5 Z M577,192.5 L577,189.5 L573,189.5 L573,192.5 L577,192.5 Z M569,192.5 L569,189.5 L565,189.5 L565,192.5 L569,192.5 Z M561,192.5 L561,189.5 L557,189.5 L557,192.5 L561,192.5 Z M553,192.5 L553,189.5 L549,189.5 L549,192.5 L553,192.5 Z M545,192.5 L545,189.5 L541,189.5 L541,192.5 L545,192.5 Z M537,192.5 L537,189.5 L533,189.5 L533,192.5 L537,192.5 Z M529,192.5 L529,189.5 L525,189.5 L525,192.5 L529,192.5 Z M521,192.5 L521,189.5 L517,189.5 L517,192.5 L521,192.5 Z M513,192.5 L513,189.5 L509,189.5 L509,192.5 L513,192.5 Z M505,192.5 L505,189.5 L501,189.5 L501,192.5 L505,192.5 Z M497,192.5 L497,189.5 L493,189.5 L493,192.5 L497,192.5 Z M489,192.5 L489,189.5 L485,189.5 L485,192.5 L489,192.5 Z M481,192.5 L481,189.5 L477,189.5 L477,192.5 L481,192.5 Z M473,192.5 L473,189.5 L469,189.5 L469,192.5 L473,192.5 Z M465,192.5 L465,189.5 L461,189.5 L461,192.5 L465,192.5 Z M457,192.5 L457,189.5 L453,189.5 L453,192.5 L457,192.5 Z M449,192.5 L449,189.5 L445,189.5 L445,192.5 L449,192.5 Z M441,192.5 L441,189.5 L437,189.5 L437,192.5 L441,192.5 Z M433,192.5 L433,189.5 L429,189.5 L429,192.5 L433,192.5 Z M425,192.5 L425,189.5 L421,189.5 L421,192.5 L425,192.5 Z M417,192.5 L417,189.5 L413,189.5 L413,192.5 L417,192.5 Z M409,192.5 L409,189.5 L405,189.5 L405,192.5 L409,192.5 Z M401,192.5 L401,189.5 L397,189.5 L397,192.5 L401,192.5 Z M393,192.5 L393,189.5 L389,189.5 L389,192.5 L393,192.5 Z M385,192.5 L385,189.5 L381,189.5 L381,192.5 L385,192.5 Z M377,192.5 L377,189.5 L373,189.5 L373,192.5 L377,192.5 Z M369,192.5 L369,189.5 L365,189.5 L365,192.5 L369,192.5 Z M361,192.5 L361,189.5 L357,189.5 L357,192.5 L361,192.5 Z M353,192.5 L353,189.5 L349,189.5 L349,192.5 L353,192.5 Z M345,192.5 L345,189.5 L341,189.5 L341,192.5 L345,192.5 Z M337,192.5 L337,189.5 L333,189.5 L333,192.5 L337,192.5 Z M329,192.5 L329,189.5 L325,189.5 L325,192.5 L329,192.5 Z M321,192.5 L321,189.5 L317,189.5 L317,192.5 L321,192.5 Z M313,192.5 L313,189.5 L309,189.5 L309,192.5 L313,192.5 Z M305,192.5 L305,189.5 L301,189.5 L301,192.5 L305,192.5 Z M297,192.5 L297,189.5 L293,189.5 L293,192.5 L297,192.5 Z M289,192.5 L289,189.5 L285,189.5 L285,192.5 L289,192.5 Z M281,192.5 L281,189.5 L277,189.5 L277,192.5 L281,192.5 Z M273,192.5 L273,189.5 L269,189.5 L269,192.5 L273,192.5 Z M265,192.5 L265,189.5 L261,189.5 L261,192.5 L265,192.5 Z M257,192.5 L257,189.5 L253,189.5 L253,192.5 L257,192.5 Z M249,192.5 L249,189.5 L245,189.5 L245,192.5 L249,192.5 Z M241,192.5 L241,189.5 L237,189.5 L237,192.5 L241,192.5 Z M233,192.5 L233,189.5 L229,189.5 L229,192.5 L233,192.5 Z M225,192.5 L225,189.5 L221,189.5 L221,192.5 L225,192.5 Z M217,192.5 L217,189.5 L213,189.5 L213,192.5 L217,192.5 Z M209,192.5 L209,189.5 L205,189.5 L205,192.5 L209,192.5 Z M201,192.5 L201,189.5 L197,189.5 L197,192.5 L201,192.5 Z M193,192.5 L193,189.5 L189,189.5 L189,192.5 L193,192.5 Z M185,192.5 L185,189.5 L181,189.5 L181,192.5 L185,192.5 Z M177,192.5 L177,189.5 L173,189.5 L173,192.5 L177,192.5 Z M169,192.5 L169,189.5 L165,189.5 L165,192.5 L169,192.5 Z M161,192.5 L161,189.5 L157,189.5 L157,192.5 L161,192.5 Z M153,192.5 L153,189.5 L149,189.5 L149,192.5 L153,192.5 Z M145,192.5 L145,189.5 L141,189.5 L141,192.5 L145,192.5 Z M137,192.5 L137,189.5 L133,189.5 L133,192.5 L137,192.5 Z M129,192.5 L129,189.5 L125,189.5 L125,192.5 L129,192.5 Z M121,192.5 L121,189.5 L117,189.5 L117,192.5 L121,192.5 Z M113,192.5 L113,189.5 L109,189.5 L109,192.5 L113,192.5 Z M105,192.5 L105,189.5 L101,189.5 L101,192.5 L105,192.5 Z M97,192.5 L97,189.5 L93,189.5 L93,192.5 L97,192.5 Z M89,192.5 L89,189.5 L85,189.5 L85,192.5 L89,192.5 Z M81,192.5 L81,189.5 L77,189.5 L77,192.5 L81,192.5 Z M73,192.5 L73,189.5 L69,189.5 L69,192.5 L73,192.5 Z M65,192.5 L65,189.5 L61,189.5 L61,192.5 L65,192.5 Z M57,192.5 L57,189.5 L53,189.5 L53,192.5 L57,192.5 Z M49,192.5 L49,189.5 L45,189.5 L45,192.5 L49,192.5 Z M41,192.5 L41,189.5 L37,189.5 L37,192.5 L41,192.5 Z M33,192.5 L33,189.5 L29,189.5 L29,192.5 L33,192.5 Z M25,192.5 L25,189.5 L21,189.5 L21,192.5 L25,192.5 Z M17,192.5 L17,189.5 L13,189.5 L13,192.5 L17,192.5 Z M9,192.5 L9,189.5 L5,189.5 L5,192.5 L9,192.5 Z M1,192.5 L1,189.5 L-3,189.5 L-3,192.5 L1,192.5 Z"
      fill="url(#linearGradient-1)" fill-rule="nonzero"></path>
    <path
      d="M593,401.5 L593,398.5 L589,398.5 L589,401.5 L593,401.5 Z M585,401.5 L585,398.5 L581,398.5 L581,401.5 L585,401.5 Z M577,401.5 L577,398.5 L573,398.5 L573,401.5 L577,401.5 Z M569,401.5 L569,398.5 L565,398.5 L565,401.5 L569,401.5 Z M561,401.5 L561,398.5 L557,398.5 L557,401.5 L561,401.5 Z M553,401.5 L553,398.5 L549,398.5 L549,401.5 L553,401.5 Z M545,401.5 L545,398.5 L541,398.5 L541,401.5 L545,401.5 Z M537,401.5 L537,398.5 L533,398.5 L533,401.5 L537,401.5 Z M529,401.5 L529,398.5 L525,398.5 L525,401.5 L529,401.5 Z M521,401.5 L521,398.5 L517,398.5 L517,401.5 L521,401.5 Z M513,401.5 L513,398.5 L509,398.5 L509,401.5 L513,401.5 Z M505,401.5 L505,398.5 L501,398.5 L501,401.5 L505,401.5 Z M497,401.5 L497,398.5 L493,398.5 L493,401.5 L497,401.5 Z M489,401.5 L489,398.5 L485,398.5 L485,401.5 L489,401.5 Z M481,401.5 L481,398.5 L477,398.5 L477,401.5 L481,401.5 Z M473,401.5 L473,398.5 L469,398.5 L469,401.5 L473,401.5 Z M465,401.5 L465,398.5 L461,398.5 L461,401.5 L465,401.5 Z M457,401.5 L457,398.5 L453,398.5 L453,401.5 L457,401.5 Z M449,401.5 L449,398.5 L445,398.5 L445,401.5 L449,401.5 Z M441,401.5 L441,398.5 L437,398.5 L437,401.5 L441,401.5 Z M433,401.5 L433,398.5 L429,398.5 L429,401.5 L433,401.5 Z M425,401.5 L425,398.5 L421,398.5 L421,401.5 L425,401.5 Z M417,401.5 L417,398.5 L413,398.5 L413,401.5 L417,401.5 Z M409,401.5 L409,398.5 L405,398.5 L405,401.5 L409,401.5 Z M401,401.5 L401,398.5 L397,398.5 L397,401.5 L401,401.5 Z M393,401.5 L393,398.5 L389,398.5 L389,401.5 L393,401.5 Z M385,401.5 L385,398.5 L381,398.5 L381,401.5 L385,401.5 Z M377,401.5 L377,398.5 L373,398.5 L373,401.5 L377,401.5 Z M369,401.5 L369,398.5 L365,398.5 L365,401.5 L369,401.5 Z M361,401.5 L361,398.5 L357,398.5 L357,401.5 L361,401.5 Z M353,401.5 L353,398.5 L349,398.5 L349,401.5 L353,401.5 Z M345,401.5 L345,398.5 L341,398.5 L341,401.5 L345,401.5 Z M337,401.5 L337,398.5 L333,398.5 L333,401.5 L337,401.5 Z M329,401.5 L329,398.5 L325,398.5 L325,401.5 L329,401.5 Z M321,401.5 L321,398.5 L317,398.5 L317,401.5 L321,401.5 Z M313,401.5 L313,398.5 L309,398.5 L309,401.5 L313,401.5 Z M305,401.5 L305,398.5 L301,398.5 L301,401.5 L305,401.5 Z M297,401.5 L297,398.5 L293,398.5 L293,401.5 L297,401.5 Z M289,401.5 L289,398.5 L285,398.5 L285,401.5 L289,401.5 Z M281,401.5 L281,398.5 L277,398.5 L277,401.5 L281,401.5 Z M273,401.5 L273,398.5 L269,398.5 L269,401.5 L273,401.5 Z M265,401.5 L265,398.5 L261,398.5 L261,401.5 L265,401.5 Z M257,401.5 L257,398.5 L253,398.5 L253,401.5 L257,401.5 Z M249,401.5 L249,398.5 L245,398.5 L245,401.5 L249,401.5 Z M241,401.5 L241,398.5 L237,398.5 L237,401.5 L241,401.5 Z M233,401.5 L233,398.5 L229,398.5 L229,401.5 L233,401.5 Z M225,401.5 L225,398.5 L221,398.5 L221,401.5 L225,401.5 Z M217,401.5 L217,398.5 L213,398.5 L213,401.5 L217,401.5 Z M209,401.5 L209,398.5 L205,398.5 L205,401.5 L209,401.5 Z M201,401.5 L201,398.5 L197,398.5 L197,401.5 L201,401.5 Z M193,401.5 L193,398.5 L189,398.5 L189,401.5 L193,401.5 Z M185,401.5 L185,398.5 L181,398.5 L181,401.5 L185,401.5 Z M177,401.5 L177,398.5 L173,398.5 L173,401.5 L177,401.5 Z M169,401.5 L169,398.5 L165,398.5 L165,401.5 L169,401.5 Z M161,401.5 L161,398.5 L157,398.5 L157,401.5 L161,401.5 Z M153,401.5 L153,398.5 L149,398.5 L149,401.5 L153,401.5 Z M145,401.5 L145,398.5 L141,398.5 L141,401.5 L145,401.5 Z M137,401.5 L137,398.5 L133,398.5 L133,401.5 L137,401.5 Z M129,401.5 L129,398.5 L125,398.5 L125,401.5 L129,401.5 Z M121,401.5 L121,398.5 L117,398.5 L117,401.5 L121,401.5 Z M113,401.5 L113,398.5 L109,398.5 L109,401.5 L113,401.5 Z M105,401.5 L105,398.5 L101,398.5 L101,401.5 L105,401.5 Z M97,401.5 L97,398.5 L93,398.5 L93,401.5 L97,401.5 Z M89,401.5 L89,398.5 L85,398.5 L85,401.5 L89,401.5 Z M81,401.5 L81,398.5 L77,398.5 L77,401.5 L81,401.5 Z M73,401.5 L73,398.5 L69,398.5 L69,401.5 L73,401.5 Z M65,401.5 L65,398.5 L61,398.5 L61,401.5 L65,401.5 Z M57,401.5 L57,398.5 L53,398.5 L53,401.5 L57,401.5 Z M49,401.5 L49,398.5 L45,398.5 L45,401.5 L49,401.5 Z M41,401.5 L41,398.5 L37,398.5 L37,401.5 L41,401.5 Z M33,401.5 L33,398.5 L29,398.5 L29,401.5 L33,401.5 Z M25,401.5 L25,398.5 L21,398.5 L21,401.5 L25,401.5 Z M17,401.5 L17,398.5 L13,398.5 L13,401.5 L17,401.5 Z M9,401.5 L9,398.5 L5,398.5 L5,401.5 L9,401.5 Z M1,401.5 L1,398.5 L-3,398.5 L-3,401.5 L1,401.5 Z"
      fill="url(#linearGradient-1)" fill-rule="nonzero"></path>
    <path
      d="M209,-0.999153976 L206,-0.999153976 L206,3.00084602 L209,3.00084602 L209,-0.999153976 Z M209,7.00084602 L206,7.00084602 L206,11.000846 L209,11.000846 L209,7.00084602 Z M209,15.000846 L206,15.000846 L206,19.000846 L209,19.000846 L209,15.000846 Z M209,23.000846 L206,23.000846 L206,27.000846 L209,27.000846 L209,23.000846 Z M209,31.000846 L206,31.000846 L206,35.000846 L209,35.000846 L209,31.000846 Z M209,39.000846 L206,39.000846 L206,43.000846 L209,43.000846 L209,39.000846 Z M209,47.000846 L206,47.000846 L206,51.000846 L209,51.000846 L209,47.000846 Z M209,55.000846 L206,55.000846 L206,59.000846 L209,59.000846 L209,55.000846 Z M209,63.000846 L206,63.000846 L206,67.000846 L209,67.000846 L209,63.000846 Z M209,71.000846 L206,71.000846 L206,75.000846 L209,75.000846 L209,71.000846 Z M209,79.000846 L206,79.000846 L206,83.000846 L209,83.000846 L209,79.000846 Z M209,87.000846 L206,87.000846 L206,91.000846 L209,91.000846 L209,87.000846 Z M209,95.000846 L206,95.000846 L206,99.000846 L209,99.000846 L209,95.000846 Z M209,103.000846 L206,103.000846 L206,107.000846 L209,107.000846 L209,103.000846 Z M209,111.000846 L206,111.000846 L206,115.000846 L209,115.000846 L209,111.000846 Z M209,119.000846 L206,119.000846 L206,123.000846 L209,123.000846 L209,119.000846 Z M209,127.000846 L206,127.000846 L206,131.000846 L209,131.000846 L209,127.000846 Z M209,135.000846 L206,135.000846 L206,139.000846 L209,139.000846 L209,135.000846 Z M209,143.000846 L206,143.000846 L206,147.000846 L209,147.000846 L209,143.000846 Z M209,151.000846 L206,151.000846 L206,155.000846 L209,155.000846 L209,151.000846 Z M209,159.000846 L206,159.000846 L206,163.000846 L209,163.000846 L209,159.000846 Z M209,167.000846 L206,167.000846 L206,171.000846 L209,171.000846 L209,167.000846 Z M209,175.000846 L206,175.000846 L206,179.000846 L209,179.000846 L209,175.000846 Z M209,183.000846 L206,183.000846 L206,187.000846 L209,187.000846 L209,183.000846 Z M209,191.000846 L206,191.000846 L206,195.000846 L209,195.000846 L209,191.000846 Z M209,199.000846 L206,199.000846 L206,203.000846 L209,203.000846 L209,199.000846 Z M209,207.000846 L206,207.000846 L206,211.000846 L209,211.000846 L209,207.000846 Z M209,215.000846 L206,215.000846 L206,219.000846 L209,219.000846 L209,215.000846 Z M209,223.000846 L206,223.000846 L206,227.000846 L209,227.000846 L209,223.000846 Z M209,231.000846 L206,231.000846 L206,235.000846 L209,235.000846 L209,231.000846 Z M209,239.000846 L206,239.000846 L206,243.000846 L209,243.000846 L209,239.000846 Z M209,247.000846 L206,247.000846 L206,251.000846 L209,251.000846 L209,247.000846 Z M209,255.000846 L206,255.000846 L206,259.000846 L209,259.000846 L209,255.000846 Z M209,263.000846 L206,263.000846 L206,267.000846 L209,267.000846 L209,263.000846 Z M209,271.000846 L206,271.000846 L206,275.000846 L209,275.000846 L209,271.000846 Z M209,279.000846 L206,279.000846 L206,283.000846 L209,283.000846 L209,279.000846 Z M209,287.000846 L206,287.000846 L206,291.000846 L209,291.000846 L209,287.000846 Z M209,295.000846 L206,295.000846 L206,299.000846 L209,299.000846 L209,295.000846 Z M209,303.000846 L206,303.000846 L206,307.000846 L209,307.000846 L209,303.000846 Z M209,311.000846 L206,311.000846 L206,315.000846 L209,315.000846 L209,311.000846 Z M209,319.000846 L206,319.000846 L206,323.000846 L209,323.000846 L209,319.000846 Z M209,327.000846 L206,327.000846 L206,331.000846 L209,331.000846 L209,327.000846 Z M209,335.000846 L206,335.000846 L206,339.000846 L209,339.000846 L209,335.000846 Z M209,343.000846 L206,343.000846 L206,347.000846 L209,347.000846 L209,343.000846 Z M209,351.000846 L206,351.000846 L206,355.000846 L209,355.000846 L209,351.000846 Z M209,359.000846 L206,359.000846 L206,363.000846 L209,363.000846 L209,359.000846 Z M209,367.000846 L206,367.000846 L206,371.000846 L209,371.000846 L209,367.000846 Z M209,375.000846 L206,375.000846 L206,379.000846 L209,379.000846 L209,375.000846 Z M209,383.000846 L206,383.000846 L206,387.000846 L209,387.000846 L209,383.000846 Z M209,391.000846 L206,391.000846 L206,395.000846 L209,395.000846 L209,391.000846 Z M209,399.000846 L206,399.000846 L206,403.000846 L209,403.000846 L209,399.000846 Z M209,407.000846 L206,407.000846 L206,411.000846 L209,411.000846 L209,407.000846 Z M209,415.000846 L206,415.000846 L206,419.000846 L209,419.000846 L209,415.000846 Z M209,423.000846 L206,423.000846 L206,427.000846 L209,427.000846 L209,423.000846 Z M209,431.000846 L206,431.000846 L206,435.000846 L209,435.000846 L209,431.000846 Z M209,439.000846 L206,439.000846 L206,443.000846 L209,443.000846 L209,439.000846 Z M209,447.000846 L206,447.000846 L206,451.000846 L209,451.000846 L209,447.000846 Z M209,455.000846 L206,455.000846 L206,459.000846 L209,459.000846 L209,455.000846 Z M209,463.000846 L206,463.000846 L206,467.000846 L209,467.000846 L209,463.000846 Z M209,471.000846 L206,471.000846 L206,475.000846 L209,475.000846 L209,471.000846 Z M209,479.000846 L206,479.000846 L206,483.000846 L209,483.000846 L209,479.000846 Z M209,487.000846 L206,487.000846 L206,491.000846 L209,491.000846 L209,487.000846 Z M209,495.000846 L206,495.000846 L206,499.000846 L209,499.000846 L209,495.000846 Z M209,503.000846 L206,503.000846 L206,507.000846 L209,507.000846 L209,503.000846 Z M209,511.000846 L206,511.000846 L206,515.000846 L209,515.000846 L209,511.000846 Z M209,519.000846 L206,519.000846 L206,523.000846 L209,523.000846 L209,519.000846 Z M209,527.000846 L206,527.000846 L206,531.000846 L209,531.000846 L209,527.000846 Z M209,535.000846 L206,535.000846 L206,539.000846 L209,539.000846 L209,535.000846 Z M209,543.000846 L206,543.000846 L206,547.000846 L209,547.000846 L209,543.000846 Z M209,551.000846 L206,551.000846 L206,555.000846 L209,555.000846 L209,551.000846 Z M209,559.000846 L206,559.000846 L206,563.000846 L209,563.000846 L209,559.000846 Z M209,567.000846 L206,567.000846 L206,571.000846 L209,571.000846 L209,567.000846 Z M209,575.000846 L206,575.000846 L206,579.000846 L209,579.000846 L209,575.000846 Z M209,583.000846 L206,583.000846 L206,587.000846 L209,587.000846 L209,583.000846 Z"
      fill="url(#linearGradient-2)" fill-rule="nonzero"></path>
    <path
      d="M385,-0.999153976 L382,-0.999153976 L382,3.00084602 L385,3.00084602 L385,-0.999153976 Z M385,7.00084602 L382,7.00084602 L382,11.000846 L385,11.000846 L385,7.00084602 Z M385,15.000846 L382,15.000846 L382,19.000846 L385,19.000846 L385,15.000846 Z M385,23.000846 L382,23.000846 L382,27.000846 L385,27.000846 L385,23.000846 Z M385,31.000846 L382,31.000846 L382,35.000846 L385,35.000846 L385,31.000846 Z M385,39.000846 L382,39.000846 L382,43.000846 L385,43.000846 L385,39.000846 Z M385,47.000846 L382,47.000846 L382,51.000846 L385,51.000846 L385,47.000846 Z M385,55.000846 L382,55.000846 L382,59.000846 L385,59.000846 L385,55.000846 Z M385,63.000846 L382,63.000846 L382,67.000846 L385,67.000846 L385,63.000846 Z M385,71.000846 L382,71.000846 L382,75.000846 L385,75.000846 L385,71.000846 Z M385,79.000846 L382,79.000846 L382,83.000846 L385,83.000846 L385,79.000846 Z M385,87.000846 L382,87.000846 L382,91.000846 L385,91.000846 L385,87.000846 Z M385,95.000846 L382,95.000846 L382,99.000846 L385,99.000846 L385,95.000846 Z M385,103.000846 L382,103.000846 L382,107.000846 L385,107.000846 L385,103.000846 Z M385,111.000846 L382,111.000846 L382,115.000846 L385,115.000846 L385,111.000846 Z M385,119.000846 L382,119.000846 L382,123.000846 L385,123.000846 L385,119.000846 Z M385,127.000846 L382,127.000846 L382,131.000846 L385,131.000846 L385,127.000846 Z M385,135.000846 L382,135.000846 L382,139.000846 L385,139.000846 L385,135.000846 Z M385,143.000846 L382,143.000846 L382,147.000846 L385,147.000846 L385,143.000846 Z M385,151.000846 L382,151.000846 L382,155.000846 L385,155.000846 L385,151.000846 Z M385,159.000846 L382,159.000846 L382,163.000846 L385,163.000846 L385,159.000846 Z M385,167.000846 L382,167.000846 L382,171.000846 L385,171.000846 L385,167.000846 Z M385,175.000846 L382,175.000846 L382,179.000846 L385,179.000846 L385,175.000846 Z M385,183.000846 L382,183.000846 L382,187.000846 L385,187.000846 L385,183.000846 Z M385,191.000846 L382,191.000846 L382,195.000846 L385,195.000846 L385,191.000846 Z M385,199.000846 L382,199.000846 L382,203.000846 L385,203.000846 L385,199.000846 Z M385,207.000846 L382,207.000846 L382,211.000846 L385,211.000846 L385,207.000846 Z M385,215.000846 L382,215.000846 L382,219.000846 L385,219.000846 L385,215.000846 Z M385,223.000846 L382,223.000846 L382,227.000846 L385,227.000846 L385,223.000846 Z M385,231.000846 L382,231.000846 L382,235.000846 L385,235.000846 L385,231.000846 Z M385,239.000846 L382,239.000846 L382,243.000846 L385,243.000846 L385,239.000846 Z M385,247.000846 L382,247.000846 L382,251.000846 L385,251.000846 L385,247.000846 Z M385,255.000846 L382,255.000846 L382,259.000846 L385,259.000846 L385,255.000846 Z M385,263.000846 L382,263.000846 L382,267.000846 L385,267.000846 L385,263.000846 Z M385,271.000846 L382,271.000846 L382,275.000846 L385,275.000846 L385,271.000846 Z M385,279.000846 L382,279.000846 L382,283.000846 L385,283.000846 L385,279.000846 Z M385,287.000846 L382,287.000846 L382,291.000846 L385,291.000846 L385,287.000846 Z M385,295.000846 L382,295.000846 L382,299.000846 L385,299.000846 L385,295.000846 Z M385,303.000846 L382,303.000846 L382,307.000846 L385,307.000846 L385,303.000846 Z M385,311.000846 L382,311.000846 L382,315.000846 L385,315.000846 L385,311.000846 Z M385,319.000846 L382,319.000846 L382,323.000846 L385,323.000846 L385,319.000846 Z M385,327.000846 L382,327.000846 L382,331.000846 L385,331.000846 L385,327.000846 Z M385,335.000846 L382,335.000846 L382,339.000846 L385,339.000846 L385,335.000846 Z M385,343.000846 L382,343.000846 L382,347.000846 L385,347.000846 L385,343.000846 Z M385,351.000846 L382,351.000846 L382,355.000846 L385,355.000846 L385,351.000846 Z M385,359.000846 L382,359.000846 L382,363.000846 L385,363.000846 L385,359.000846 Z M385,367.000846 L382,367.000846 L382,371.000846 L385,371.000846 L385,367.000846 Z M385,375.000846 L382,375.000846 L382,379.000846 L385,379.000846 L385,375.000846 Z M385,383.000846 L382,383.000846 L382,387.000846 L385,387.000846 L385,383.000846 Z M385,391.000846 L382,391.000846 L382,395.000846 L385,395.000846 L385,391.000846 Z M385,399.000846 L382,399.000846 L382,403.000846 L385,403.000846 L385,399.000846 Z M385,407.000846 L382,407.000846 L382,411.000846 L385,411.000846 L385,407.000846 Z M385,415.000846 L382,415.000846 L382,419.000846 L385,419.000846 L385,415.000846 Z M385,423.000846 L382,423.000846 L382,427.000846 L385,427.000846 L385,423.000846 Z M385,431.000846 L382,431.000846 L382,435.000846 L385,435.000846 L385,431.000846 Z M385,439.000846 L382,439.000846 L382,443.000846 L385,443.000846 L385,439.000846 Z M385,447.000846 L382,447.000846 L382,451.000846 L385,451.000846 L385,447.000846 Z M385,455.000846 L382,455.000846 L382,459.000846 L385,459.000846 L385,455.000846 Z M385,463.000846 L382,463.000846 L382,467.000846 L385,467.000846 L385,463.000846 Z M385,471.000846 L382,471.000846 L382,475.000846 L385,475.000846 L385,471.000846 Z M385,479.000846 L382,479.000846 L382,483.000846 L385,483.000846 L385,479.000846 Z M385,487.000846 L382,487.000846 L382,491.000846 L385,491.000846 L385,487.000846 Z M385,495.000846 L382,495.000846 L382,499.000846 L385,499.000846 L385,495.000846 Z M385,503.000846 L382,503.000846 L382,507.000846 L385,507.000846 L385,503.000846 Z M385,511.000846 L382,511.000846 L382,515.000846 L385,515.000846 L385,511.000846 Z M385,519.000846 L382,519.000846 L382,523.000846 L385,523.000846 L385,519.000846 Z M385,527.000846 L382,527.000846 L382,531.000846 L385,531.000846 L385,527.000846 Z M385,535.000846 L382,535.000846 L382,539.000846 L385,539.000846 L385,535.000846 Z M385,543.000846 L382,543.000846 L382,547.000846 L385,547.000846 L385,543.000846 Z M385,551.000846 L382,551.000846 L382,555.000846 L385,555.000846 L385,551.000846 Z M385,559.000846 L382,559.000846 L382,563.000846 L385,563.000846 L385,559.000846 Z M385,567.000846 L382,567.000846 L382,571.000846 L385,571.000846 L385,567.000846 Z M385,575.000846 L382,575.000846 L382,579.000846 L385,579.000846 L385,575.000846 Z M385,583.000846 L382,583.000846 L382,587.000846 L385,587.000846 L385,583.000846 Z"
      fill="url(#linearGradient-2)" fill-rule="nonzero"></path>
    <circle stroke="#8D8DA6" stroke-width="3" fill-opacity="0.25" fill="#8D8DA6" cx="184.5" cy="422"
            r="22.5"></circle>
    <circle stroke="#8D8DA6" stroke-width="3" fill-opacity="0.25" fill="#8D8DA6" cx="405.5" cy="422"
            r="22.5"></circle>
    <circle stroke="#8D8DA6" stroke-width="3" fill-opacity="0.25" fill="#8D8DA6" cx="184.5" cy="169"
            r="22.5"></circle>
    <circle stroke="#8D8DA6" stroke-width="3" fill-opacity="0.25" fill="#8D8DA6" cx="405.5" cy="169"
            r="22.5"></circle>
  </g>
</svg>
