<?xml version="1.0" encoding="UTF-8"?>
<svg width="592px" height="621px" viewBox="0 0 592 621" version="1.1" xmlns="http://www.w3.org/2000/svg" xmlns:xlink="http://www.w3.org/1999/xlink">
    <!-- Generator: Sketch 60.1 (88133) - https://sketch.com -->
    <title>font-variants</title>
    <desc>Created with Sketch.</desc>
    <defs>
        <linearGradient x1="100%" y1="50%" x2="0%" y2="50%" id="linearGradient-1">
            <stop stop-color="#8D8DA6" stop-opacity="0" offset="0%"></stop>
            <stop stop-color="#C1C1D2" offset="51.8607475%"></stop>
            <stop stop-color="#C1C1D2" stop-opacity="0" offset="100%"></stop>
        </linearGradient>
        <linearGradient x1="50%" y1="100%" x2="50%" y2="3.061617e-15%" id="linearGradient-2">
            <stop stop-color="#8D8DA6" stop-opacity="0" offset="0%"></stop>
            <stop stop-color="#C1C1D2" offset="51.8607475%"></stop>
            <stop stop-color="#C1C1D2" stop-opacity="0" offset="100%"></stop>
        </linearGradient>
    </defs>
    <g id="font-variants" stroke="none" stroke-width="1" fill="none" fill-rule="evenodd">
        <path d="M-1.01791531,206 L-1.01791531,209 L2.98208469,209 L2.98208469,206 L-1.01791531,206 Z M6.98208469,206 L6.98208469,209 L10.9820847,209 L10.9820847,206 L6.98208469,206 Z M14.9820847,206 L14.9820847,209 L18.9820847,209 L18.9820847,206 L14.9820847,206 Z M22.9820847,206 L22.9820847,209 L26.9820847,209 L26.9820847,206 L22.9820847,206 Z M30.9820847,206 L30.9820847,209 L34.9820847,209 L34.9820847,206 L30.9820847,206 Z M38.9820847,206 L38.9820847,209 L42.9820847,209 L42.9820847,206 L38.9820847,206 Z M46.9820847,206 L46.9820847,209 L50.9820847,209 L50.9820847,206 L46.9820847,206 Z M54.9820847,206 L54.9820847,209 L58.9820847,209 L58.9820847,206 L54.9820847,206 Z M62.9820847,206 L62.9820847,209 L66.9820847,209 L66.9820847,206 L62.9820847,206 Z M70.9820847,206 L70.9820847,209 L74.9820847,209 L74.9820847,206 L70.9820847,206 Z M78.9820847,206 L78.9820847,209 L82.9820847,209 L82.9820847,206 L78.9820847,206 Z M86.9820847,206 L86.9820847,209 L90.9820847,209 L90.9820847,206 L86.9820847,206 Z M94.9820847,206 L94.9820847,209 L98.9820847,209 L98.9820847,206 L94.9820847,206 Z M102.982085,206 L102.982085,209 L106.982085,209 L106.982085,206 L102.982085,206 Z M110.982085,206 L110.982085,209 L114.982085,209 L114.982085,206 L110.982085,206 Z M118.982085,206 L118.982085,209 L122.982085,209 L122.982085,206 L118.982085,206 Z M126.982085,206 L126.982085,209 L130.982085,209 L130.982085,206 L126.982085,206 Z M134.982085,206 L134.982085,209 L138.982085,209 L138.982085,206 L134.982085,206 Z M142.982085,206 L142.982085,209 L146.982085,209 L146.982085,206 L142.982085,206 Z M150.982085,206 L150.982085,209 L154.982085,209 L154.982085,206 L150.982085,206 Z M158.982085,206 L158.982085,209 L162.982085,209 L162.982085,206 L158.982085,206 Z M166.982085,206 L166.982085,209 L170.982085,209 L170.982085,206 L166.982085,206 Z M174.982085,206 L174.982085,209 L178.982085,209 L178.982085,206 L174.982085,206 Z M182.982085,206 L182.982085,209 L186.982085,209 L186.982085,206 L182.982085,206 Z M190.982085,206 L190.982085,209 L194.982085,209 L194.982085,206 L190.982085,206 Z M198.982085,206 L198.982085,209 L202.982085,209 L202.982085,206 L198.982085,206 Z M206.982085,206 L206.982085,209 L210.982085,209 L210.982085,206 L206.982085,206 Z M214.982085,206 L214.982085,209 L218.982085,209 L218.982085,206 L214.982085,206 Z M222.982085,206 L222.982085,209 L226.982085,209 L226.982085,206 L222.982085,206 Z M230.982085,206 L230.982085,209 L234.982085,209 L234.982085,206 L230.982085,206 Z M238.982085,206 L238.982085,209 L242.982085,209 L242.982085,206 L238.982085,206 Z M246.982085,206 L246.982085,209 L250.982085,209 L250.982085,206 L246.982085,206 Z M254.982085,206 L254.982085,209 L258.982085,209 L258.982085,206 L254.982085,206 Z M262.982085,206 L262.982085,209 L266.982085,209 L266.982085,206 L262.982085,206 Z M270.982085,206 L270.982085,209 L274.982085,209 L274.982085,206 L270.982085,206 Z M278.982085,206 L278.982085,209 L282.982085,209 L282.982085,206 L278.982085,206 Z M286.982085,206 L286.982085,209 L290.982085,209 L290.982085,206 L286.982085,206 Z M294.982085,206 L294.982085,209 L298.982085,209 L298.982085,206 L294.982085,206 Z M302.982085,206 L302.982085,209 L306.982085,209 L306.982085,206 L302.982085,206 Z M310.982085,206 L310.982085,209 L314.982085,209 L314.982085,206 L310.982085,206 Z M318.982085,206 L318.982085,209 L322.982085,209 L322.982085,206 L318.982085,206 Z M326.982085,206 L326.982085,209 L330.982085,209 L330.982085,206 L326.982085,206 Z M334.982085,206 L334.982085,209 L338.982085,209 L338.982085,206 L334.982085,206 Z M342.982085,206 L342.982085,209 L346.982085,209 L346.982085,206 L342.982085,206 Z M350.982085,206 L350.982085,209 L354.982085,209 L354.982085,206 L350.982085,206 Z M358.982085,206 L358.982085,209 L362.982085,209 L362.982085,206 L358.982085,206 Z M366.982085,206 L366.982085,209 L370.982085,209 L370.982085,206 L366.982085,206 Z M374.982085,206 L374.982085,209 L378.982085,209 L378.982085,206 L374.982085,206 Z M382.982085,206 L382.982085,209 L386.982085,209 L386.982085,206 L382.982085,206 Z M390.982085,206 L390.982085,209 L394.982085,209 L394.982085,206 L390.982085,206 Z M398.982085,206 L398.982085,209 L402.982085,209 L402.982085,206 L398.982085,206 Z M406.982085,206 L406.982085,209 L410.982085,209 L410.982085,206 L406.982085,206 Z M414.982085,206 L414.982085,209 L418.982085,209 L418.982085,206 L414.982085,206 Z M422.982085,206 L422.982085,209 L426.982085,209 L426.982085,206 L422.982085,206 Z M430.982085,206 L430.982085,209 L434.982085,209 L434.982085,206 L430.982085,206 Z M438.982085,206 L438.982085,209 L442.982085,209 L442.982085,206 L438.982085,206 Z M446.982085,206 L446.982085,209 L450.982085,209 L450.982085,206 L446.982085,206 Z M454.982085,206 L454.982085,209 L458.982085,209 L458.982085,206 L454.982085,206 Z M462.982085,206 L462.982085,209 L466.982085,209 L466.982085,206 L462.982085,206 Z M470.982085,206 L470.982085,209 L474.982085,209 L474.982085,206 L470.982085,206 Z M478.982085,206 L478.982085,209 L482.982085,209 L482.982085,206 L478.982085,206 Z M486.982085,206 L486.982085,209 L490.982085,209 L490.982085,206 L486.982085,206 Z M494.982085,206 L494.982085,209 L498.982085,209 L498.982085,206 L494.982085,206 Z M502.982085,206 L502.982085,209 L506.982085,209 L506.982085,206 L502.982085,206 Z M510.982085,206 L510.982085,209 L514.982085,209 L514.982085,206 L510.982085,206 Z M518.982085,206 L518.982085,209 L522.982085,209 L522.982085,206 L518.982085,206 Z M526.982085,206 L526.982085,209 L530.982085,209 L530.982085,206 L526.982085,206 Z M534.982085,206 L534.982085,209 L538.982085,209 L538.982085,206 L534.982085,206 Z M542.982085,206 L542.982085,209 L546.982085,209 L546.982085,206 L542.982085,206 Z M550.982085,206 L550.982085,209 L554.982085,209 L554.982085,206 L550.982085,206 Z M558.982085,206 L558.982085,209 L562.982085,209 L562.982085,206 L558.982085,206 Z M566.982085,206 L566.982085,209 L570.982085,209 L570.982085,206 L566.982085,206 Z M574.982085,206 L574.982085,209 L578.982085,209 L578.982085,206 L574.982085,206 Z M582.982085,206 L582.982085,209 L586.982085,209 L586.982085,206 L582.982085,206 Z" id="Line-4" fill="url(#linearGradient-1)" fill-rule="nonzero"></path>
        <path d="M-1.01791531,412 L-1.01791531,415 L2.98208469,415 L2.98208469,412 L-1.01791531,412 Z M6.98208469,412 L6.98208469,415 L10.9820847,415 L10.9820847,412 L6.98208469,412 Z M14.9820847,412 L14.9820847,415 L18.9820847,415 L18.9820847,412 L14.9820847,412 Z M22.9820847,412 L22.9820847,415 L26.9820847,415 L26.9820847,412 L22.9820847,412 Z M30.9820847,412 L30.9820847,415 L34.9820847,415 L34.9820847,412 L30.9820847,412 Z M38.9820847,412 L38.9820847,415 L42.9820847,415 L42.9820847,412 L38.9820847,412 Z M46.9820847,412 L46.9820847,415 L50.9820847,415 L50.9820847,412 L46.9820847,412 Z M54.9820847,412 L54.9820847,415 L58.9820847,415 L58.9820847,412 L54.9820847,412 Z M62.9820847,412 L62.9820847,415 L66.9820847,415 L66.9820847,412 L62.9820847,412 Z M70.9820847,412 L70.9820847,415 L74.9820847,415 L74.9820847,412 L70.9820847,412 Z M78.9820847,412 L78.9820847,415 L82.9820847,415 L82.9820847,412 L78.9820847,412 Z M86.9820847,412 L86.9820847,415 L90.9820847,415 L90.9820847,412 L86.9820847,412 Z M94.9820847,412 L94.9820847,415 L98.9820847,415 L98.9820847,412 L94.9820847,412 Z M102.982085,412 L102.982085,415 L106.982085,415 L106.982085,412 L102.982085,412 Z M110.982085,412 L110.982085,415 L114.982085,415 L114.982085,412 L110.982085,412 Z M118.982085,412 L118.982085,415 L122.982085,415 L122.982085,412 L118.982085,412 Z M126.982085,412 L126.982085,415 L130.982085,415 L130.982085,412 L126.982085,412 Z M134.982085,412 L134.982085,415 L138.982085,415 L138.982085,412 L134.982085,412 Z M142.982085,412 L142.982085,415 L146.982085,415 L146.982085,412 L142.982085,412 Z M150.982085,412 L150.982085,415 L154.982085,415 L154.982085,412 L150.982085,412 Z M158.982085,412 L158.982085,415 L162.982085,415 L162.982085,412 L158.982085,412 Z M166.982085,412 L166.982085,415 L170.982085,415 L170.982085,412 L166.982085,412 Z M174.982085,412 L174.982085,415 L178.982085,415 L178.982085,412 L174.982085,412 Z M182.982085,412 L182.982085,415 L186.982085,415 L186.982085,412 L182.982085,412 Z M190.982085,412 L190.982085,415 L194.982085,415 L194.982085,412 L190.982085,412 Z M198.982085,412 L198.982085,415 L202.982085,415 L202.982085,412 L198.982085,412 Z M206.982085,412 L206.982085,415 L210.982085,415 L210.982085,412 L206.982085,412 Z M214.982085,412 L214.982085,415 L218.982085,415 L218.982085,412 L214.982085,412 Z M222.982085,412 L222.982085,415 L226.982085,415 L226.982085,412 L222.982085,412 Z M230.982085,412 L230.982085,415 L234.982085,415 L234.982085,412 L230.982085,412 Z M238.982085,412 L238.982085,415 L242.982085,415 L242.982085,412 L238.982085,412 Z M246.982085,412 L246.982085,415 L250.982085,415 L250.982085,412 L246.982085,412 Z M254.982085,412 L254.982085,415 L258.982085,415 L258.982085,412 L254.982085,412 Z M262.982085,412 L262.982085,415 L266.982085,415 L266.982085,412 L262.982085,412 Z M270.982085,412 L270.982085,415 L274.982085,415 L274.982085,412 L270.982085,412 Z M278.982085,412 L278.982085,415 L282.982085,415 L282.982085,412 L278.982085,412 Z M286.982085,412 L286.982085,415 L290.982085,415 L290.982085,412 L286.982085,412 Z M294.982085,412 L294.982085,415 L298.982085,415 L298.982085,412 L294.982085,412 Z M302.982085,412 L302.982085,415 L306.982085,415 L306.982085,412 L302.982085,412 Z M310.982085,412 L310.982085,415 L314.982085,415 L314.982085,412 L310.982085,412 Z M318.982085,412 L318.982085,415 L322.982085,415 L322.982085,412 L318.982085,412 Z M326.982085,412 L326.982085,415 L330.982085,415 L330.982085,412 L326.982085,412 Z M334.982085,412 L334.982085,415 L338.982085,415 L338.982085,412 L334.982085,412 Z M342.982085,412 L342.982085,415 L346.982085,415 L346.982085,412 L342.982085,412 Z M350.982085,412 L350.982085,415 L354.982085,415 L354.982085,412 L350.982085,412 Z M358.982085,412 L358.982085,415 L362.982085,415 L362.982085,412 L358.982085,412 Z M366.982085,412 L366.982085,415 L370.982085,415 L370.982085,412 L366.982085,412 Z M374.982085,412 L374.982085,415 L378.982085,415 L378.982085,412 L374.982085,412 Z M382.982085,412 L382.982085,415 L386.982085,415 L386.982085,412 L382.982085,412 Z M390.982085,412 L390.982085,415 L394.982085,415 L394.982085,412 L390.982085,412 Z M398.982085,412 L398.982085,415 L402.982085,415 L402.982085,412 L398.982085,412 Z M406.982085,412 L406.982085,415 L410.982085,415 L410.982085,412 L406.982085,412 Z M414.982085,412 L414.982085,415 L418.982085,415 L418.982085,412 L414.982085,412 Z M422.982085,412 L422.982085,415 L426.982085,415 L426.982085,412 L422.982085,412 Z M430.982085,412 L430.982085,415 L434.982085,415 L434.982085,412 L430.982085,412 Z M438.982085,412 L438.982085,415 L442.982085,415 L442.982085,412 L438.982085,412 Z M446.982085,412 L446.982085,415 L450.982085,415 L450.982085,412 L446.982085,412 Z M454.982085,412 L454.982085,415 L458.982085,415 L458.982085,412 L454.982085,412 Z M462.982085,412 L462.982085,415 L466.982085,415 L466.982085,412 L462.982085,412 Z M470.982085,412 L470.982085,415 L474.982085,415 L474.982085,412 L470.982085,412 Z M478.982085,412 L478.982085,415 L482.982085,415 L482.982085,412 L478.982085,412 Z M486.982085,412 L486.982085,415 L490.982085,415 L490.982085,412 L486.982085,412 Z M494.982085,412 L494.982085,415 L498.982085,415 L498.982085,412 L494.982085,412 Z M502.982085,412 L502.982085,415 L506.982085,415 L506.982085,412 L502.982085,412 Z M510.982085,412 L510.982085,415 L514.982085,415 L514.982085,412 L510.982085,412 Z M518.982085,412 L518.982085,415 L522.982085,415 L522.982085,412 L518.982085,412 Z M526.982085,412 L526.982085,415 L530.982085,415 L530.982085,412 L526.982085,412 Z M534.982085,412 L534.982085,415 L538.982085,415 L538.982085,412 L534.982085,412 Z M542.982085,412 L542.982085,415 L546.982085,415 L546.982085,412 L542.982085,412 Z M550.982085,412 L550.982085,415 L554.982085,415 L554.982085,412 L550.982085,412 Z M558.982085,412 L558.982085,415 L562.982085,415 L562.982085,412 L558.982085,412 Z M566.982085,412 L566.982085,415 L570.982085,415 L570.982085,412 L566.982085,412 Z M574.982085,412 L574.982085,415 L578.982085,415 L578.982085,412 L574.982085,412 Z M582.982085,412 L582.982085,415 L586.982085,415 L586.982085,412 L582.982085,412 Z" id="Line-4" fill="url(#linearGradient-1)" fill-rule="nonzero"></path>
        <path d="M207.5,622.5 L210.5,622.5 L210.5,618.5 L207.5,618.5 L207.5,622.5 Z M207.5,614.5 L210.5,614.5 L210.5,610.5 L207.5,610.5 L207.5,614.5 Z M207.5,606.5 L210.5,606.5 L210.5,602.5 L207.5,602.5 L207.5,606.5 Z M207.5,598.5 L210.5,598.5 L210.5,594.5 L207.5,594.5 L207.5,598.5 Z M207.5,590.5 L210.5,590.5 L210.5,586.5 L207.5,586.5 L207.5,590.5 Z M207.5,582.5 L210.5,582.5 L210.5,578.5 L207.5,578.5 L207.5,582.5 Z M207.5,574.5 L210.5,574.5 L210.5,570.5 L207.5,570.5 L207.5,574.5 Z M207.5,566.5 L210.5,566.5 L210.5,562.5 L207.5,562.5 L207.5,566.5 Z M207.5,558.5 L210.5,558.5 L210.5,554.5 L207.5,554.5 L207.5,558.5 Z M207.5,550.5 L210.5,550.5 L210.5,546.5 L207.5,546.5 L207.5,550.5 Z M207.5,542.5 L210.5,542.5 L210.5,538.5 L207.5,538.5 L207.5,542.5 Z M207.5,534.5 L210.5,534.5 L210.5,530.5 L207.5,530.5 L207.5,534.5 Z M207.5,526.5 L210.5,526.5 L210.5,522.5 L207.5,522.5 L207.5,526.5 Z M207.5,518.5 L210.5,518.5 L210.5,514.5 L207.5,514.5 L207.5,518.5 Z M207.5,510.5 L210.5,510.5 L210.5,506.5 L207.5,506.5 L207.5,510.5 Z M207.5,502.5 L210.5,502.5 L210.5,498.5 L207.5,498.5 L207.5,502.5 Z M207.5,494.5 L210.5,494.5 L210.5,490.5 L207.5,490.5 L207.5,494.5 Z M207.5,486.5 L210.5,486.5 L210.5,482.5 L207.5,482.5 L207.5,486.5 Z M207.5,478.5 L210.5,478.5 L210.5,474.5 L207.5,474.5 L207.5,478.5 Z M207.5,470.5 L210.5,470.5 L210.5,466.5 L207.5,466.5 L207.5,470.5 Z M207.5,462.5 L210.5,462.5 L210.5,458.5 L207.5,458.5 L207.5,462.5 Z M207.5,454.5 L210.5,454.5 L210.5,450.5 L207.5,450.5 L207.5,454.5 Z M207.5,446.5 L210.5,446.5 L210.5,442.5 L207.5,442.5 L207.5,446.5 Z M207.5,438.5 L210.5,438.5 L210.5,434.5 L207.5,434.5 L207.5,438.5 Z M207.5,430.5 L210.5,430.5 L210.5,426.5 L207.5,426.5 L207.5,430.5 Z M207.5,422.5 L210.5,422.5 L210.5,418.5 L207.5,418.5 L207.5,422.5 Z M207.5,414.5 L210.5,414.5 L210.5,410.5 L207.5,410.5 L207.5,414.5 Z M207.5,406.5 L210.5,406.5 L210.5,402.5 L207.5,402.5 L207.5,406.5 Z M207.5,398.5 L210.5,398.5 L210.5,394.5 L207.5,394.5 L207.5,398.5 Z M207.5,390.5 L210.5,390.5 L210.5,386.5 L207.5,386.5 L207.5,390.5 Z M207.5,382.5 L210.5,382.5 L210.5,378.5 L207.5,378.5 L207.5,382.5 Z M207.5,374.5 L210.5,374.5 L210.5,370.5 L207.5,370.5 L207.5,374.5 Z M207.5,366.5 L210.5,366.5 L210.5,362.5 L207.5,362.5 L207.5,366.5 Z M207.5,358.5 L210.5,358.5 L210.5,354.5 L207.5,354.5 L207.5,358.5 Z M207.5,350.5 L210.5,350.5 L210.5,346.5 L207.5,346.5 L207.5,350.5 Z M207.5,342.5 L210.5,342.5 L210.5,338.5 L207.5,338.5 L207.5,342.5 Z M207.5,334.5 L210.5,334.5 L210.5,330.5 L207.5,330.5 L207.5,334.5 Z M207.5,326.5 L210.5,326.5 L210.5,322.5 L207.5,322.5 L207.5,326.5 Z M207.5,318.5 L210.5,318.5 L210.5,314.5 L207.5,314.5 L207.5,318.5 Z M207.5,310.5 L210.5,310.5 L210.5,306.5 L207.5,306.5 L207.5,310.5 Z M207.5,302.5 L210.5,302.5 L210.5,298.5 L207.5,298.5 L207.5,302.5 Z M207.5,294.5 L210.5,294.5 L210.5,290.5 L207.5,290.5 L207.5,294.5 Z M207.5,286.5 L210.5,286.5 L210.5,282.5 L207.5,282.5 L207.5,286.5 Z M207.5,278.5 L210.5,278.5 L210.5,274.5 L207.5,274.5 L207.5,278.5 Z M207.5,270.5 L210.5,270.5 L210.5,266.5 L207.5,266.5 L207.5,270.5 Z M207.5,262.5 L210.5,262.5 L210.5,258.5 L207.5,258.5 L207.5,262.5 Z M207.5,254.5 L210.5,254.5 L210.5,250.5 L207.5,250.5 L207.5,254.5 Z M207.5,246.5 L210.5,246.5 L210.5,242.5 L207.5,242.5 L207.5,246.5 Z M207.5,238.5 L210.5,238.5 L210.5,234.5 L207.5,234.5 L207.5,238.5 Z M207.5,230.5 L210.5,230.5 L210.5,226.5 L207.5,226.5 L207.5,230.5 Z M207.5,222.5 L210.5,222.5 L210.5,218.5 L207.5,218.5 L207.5,222.5 Z M207.5,214.5 L210.5,214.5 L210.5,210.5 L207.5,210.5 L207.5,214.5 Z M207.5,206.5 L210.5,206.5 L210.5,202.5 L207.5,202.5 L207.5,206.5 Z M207.5,198.5 L210.5,198.5 L210.5,194.5 L207.5,194.5 L207.5,198.5 Z M207.5,190.5 L210.5,190.5 L210.5,186.5 L207.5,186.5 L207.5,190.5 Z M207.5,182.5 L210.5,182.5 L210.5,178.5 L207.5,178.5 L207.5,182.5 Z M207.5,174.5 L210.5,174.5 L210.5,170.5 L207.5,170.5 L207.5,174.5 Z M207.5,166.5 L210.5,166.5 L210.5,162.5 L207.5,162.5 L207.5,166.5 Z M207.5,158.5 L210.5,158.5 L210.5,154.5 L207.5,154.5 L207.5,158.5 Z M207.5,150.5 L210.5,150.5 L210.5,146.5 L207.5,146.5 L207.5,150.5 Z M207.5,142.5 L210.5,142.5 L210.5,138.5 L207.5,138.5 L207.5,142.5 Z M207.5,134.5 L210.5,134.5 L210.5,130.5 L207.5,130.5 L207.5,134.5 Z M207.5,126.5 L210.5,126.5 L210.5,122.5 L207.5,122.5 L207.5,126.5 Z M207.5,118.5 L210.5,118.5 L210.5,114.5 L207.5,114.5 L207.5,118.5 Z M207.5,110.5 L210.5,110.5 L210.5,106.5 L207.5,106.5 L207.5,110.5 Z M207.5,102.5 L210.5,102.5 L210.5,98.5 L207.5,98.5 L207.5,102.5 Z M207.5,94.5 L210.5,94.5 L210.5,90.5 L207.5,90.5 L207.5,94.5 Z M207.5,86.5 L210.5,86.5 L210.5,82.5 L207.5,82.5 L207.5,86.5 Z M207.5,78.5 L210.5,78.5 L210.5,74.5 L207.5,74.5 L207.5,78.5 Z M207.5,70.5 L210.5,70.5 L210.5,66.5 L207.5,66.5 L207.5,70.5 Z M207.5,62.5 L210.5,62.5 L210.5,58.5 L207.5,58.5 L207.5,62.5 Z M207.5,54.5 L210.5,54.5 L210.5,50.5 L207.5,50.5 L207.5,54.5 Z M207.5,46.5 L210.5,46.5 L210.5,42.5 L207.5,42.5 L207.5,46.5 Z M207.5,38.5 L210.5,38.5 L210.5,34.5 L207.5,34.5 L207.5,38.5 Z M207.5,30.5 L210.5,30.5 L210.5,26.5 L207.5,26.5 L207.5,30.5 Z M207.5,22.5 L210.5,22.5 L210.5,18.5 L207.5,18.5 L207.5,22.5 Z M207.5,14.5 L210.5,14.5 L210.5,10.5 L207.5,10.5 L207.5,14.5 Z M207.5,6.5 L210.5,6.5 L210.5,2.5 L207.5,2.5 L207.5,6.5 Z" id="Line-4" fill="url(#linearGradient-2)" fill-rule="nonzero"></path>
        <path d="M379.5,622.5 L382.5,622.5 L382.5,618.5 L379.5,618.5 L379.5,622.5 Z M379.5,614.5 L382.5,614.5 L382.5,610.5 L379.5,610.5 L379.5,614.5 Z M379.5,606.5 L382.5,606.5 L382.5,602.5 L379.5,602.5 L379.5,606.5 Z M379.5,598.5 L382.5,598.5 L382.5,594.5 L379.5,594.5 L379.5,598.5 Z M379.5,590.5 L382.5,590.5 L382.5,586.5 L379.5,586.5 L379.5,590.5 Z M379.5,582.5 L382.5,582.5 L382.5,578.5 L379.5,578.5 L379.5,582.5 Z M379.5,574.5 L382.5,574.5 L382.5,570.5 L379.5,570.5 L379.5,574.5 Z M379.5,566.5 L382.5,566.5 L382.5,562.5 L379.5,562.5 L379.5,566.5 Z M379.5,558.5 L382.5,558.5 L382.5,554.5 L379.5,554.5 L379.5,558.5 Z M379.5,550.5 L382.5,550.5 L382.5,546.5 L379.5,546.5 L379.5,550.5 Z M379.5,542.5 L382.5,542.5 L382.5,538.5 L379.5,538.5 L379.5,542.5 Z M379.5,534.5 L382.5,534.5 L382.5,530.5 L379.5,530.5 L379.5,534.5 Z M379.5,526.5 L382.5,526.5 L382.5,522.5 L379.5,522.5 L379.5,526.5 Z M379.5,518.5 L382.5,518.5 L382.5,514.5 L379.5,514.5 L379.5,518.5 Z M379.5,510.5 L382.5,510.5 L382.5,506.5 L379.5,506.5 L379.5,510.5 Z M379.5,502.5 L382.5,502.5 L382.5,498.5 L379.5,498.5 L379.5,502.5 Z M379.5,494.5 L382.5,494.5 L382.5,490.5 L379.5,490.5 L379.5,494.5 Z M379.5,486.5 L382.5,486.5 L382.5,482.5 L379.5,482.5 L379.5,486.5 Z M379.5,478.5 L382.5,478.5 L382.5,474.5 L379.5,474.5 L379.5,478.5 Z M379.5,470.5 L382.5,470.5 L382.5,466.5 L379.5,466.5 L379.5,470.5 Z M379.5,462.5 L382.5,462.5 L382.5,458.5 L379.5,458.5 L379.5,462.5 Z M379.5,454.5 L382.5,454.5 L382.5,450.5 L379.5,450.5 L379.5,454.5 Z M379.5,446.5 L382.5,446.5 L382.5,442.5 L379.5,442.5 L379.5,446.5 Z M379.5,438.5 L382.5,438.5 L382.5,434.5 L379.5,434.5 L379.5,438.5 Z M379.5,430.5 L382.5,430.5 L382.5,426.5 L379.5,426.5 L379.5,430.5 Z M379.5,422.5 L382.5,422.5 L382.5,418.5 L379.5,418.5 L379.5,422.5 Z M379.5,414.5 L382.5,414.5 L382.5,410.5 L379.5,410.5 L379.5,414.5 Z M379.5,406.5 L382.5,406.5 L382.5,402.5 L379.5,402.5 L379.5,406.5 Z M379.5,398.5 L382.5,398.5 L382.5,394.5 L379.5,394.5 L379.5,398.5 Z M379.5,390.5 L382.5,390.5 L382.5,386.5 L379.5,386.5 L379.5,390.5 Z M379.5,382.5 L382.5,382.5 L382.5,378.5 L379.5,378.5 L379.5,382.5 Z M379.5,374.5 L382.5,374.5 L382.5,370.5 L379.5,370.5 L379.5,374.5 Z M379.5,366.5 L382.5,366.5 L382.5,362.5 L379.5,362.5 L379.5,366.5 Z M379.5,358.5 L382.5,358.5 L382.5,354.5 L379.5,354.5 L379.5,358.5 Z M379.5,350.5 L382.5,350.5 L382.5,346.5 L379.5,346.5 L379.5,350.5 Z M379.5,342.5 L382.5,342.5 L382.5,338.5 L379.5,338.5 L379.5,342.5 Z M379.5,334.5 L382.5,334.5 L382.5,330.5 L379.5,330.5 L379.5,334.5 Z M379.5,326.5 L382.5,326.5 L382.5,322.5 L379.5,322.5 L379.5,326.5 Z M379.5,318.5 L382.5,318.5 L382.5,314.5 L379.5,314.5 L379.5,318.5 Z M379.5,310.5 L382.5,310.5 L382.5,306.5 L379.5,306.5 L379.5,310.5 Z M379.5,302.5 L382.5,302.5 L382.5,298.5 L379.5,298.5 L379.5,302.5 Z M379.5,294.5 L382.5,294.5 L382.5,290.5 L379.5,290.5 L379.5,294.5 Z M379.5,286.5 L382.5,286.5 L382.5,282.5 L379.5,282.5 L379.5,286.5 Z M379.5,278.5 L382.5,278.5 L382.5,274.5 L379.5,274.5 L379.5,278.5 Z M379.5,270.5 L382.5,270.5 L382.5,266.5 L379.5,266.5 L379.5,270.5 Z M379.5,262.5 L382.5,262.5 L382.5,258.5 L379.5,258.5 L379.5,262.5 Z M379.5,254.5 L382.5,254.5 L382.5,250.5 L379.5,250.5 L379.5,254.5 Z M379.5,246.5 L382.5,246.5 L382.5,242.5 L379.5,242.5 L379.5,246.5 Z M379.5,238.5 L382.5,238.5 L382.5,234.5 L379.5,234.5 L379.5,238.5 Z M379.5,230.5 L382.5,230.5 L382.5,226.5 L379.5,226.5 L379.5,230.5 Z M379.5,222.5 L382.5,222.5 L382.5,218.5 L379.5,218.5 L379.5,222.5 Z M379.5,214.5 L382.5,214.5 L382.5,210.5 L379.5,210.5 L379.5,214.5 Z M379.5,206.5 L382.5,206.5 L382.5,202.5 L379.5,202.5 L379.5,206.5 Z M379.5,198.5 L382.5,198.5 L382.5,194.5 L379.5,194.5 L379.5,198.5 Z M379.5,190.5 L382.5,190.5 L382.5,186.5 L379.5,186.5 L379.5,190.5 Z M379.5,182.5 L382.5,182.5 L382.5,178.5 L379.5,178.5 L379.5,182.5 Z M379.5,174.5 L382.5,174.5 L382.5,170.5 L379.5,170.5 L379.5,174.5 Z M379.5,166.5 L382.5,166.5 L382.5,162.5 L379.5,162.5 L379.5,166.5 Z M379.5,158.5 L382.5,158.5 L382.5,154.5 L379.5,154.5 L379.5,158.5 Z M379.5,150.5 L382.5,150.5 L382.5,146.5 L379.5,146.5 L379.5,150.5 Z M379.5,142.5 L382.5,142.5 L382.5,138.5 L379.5,138.5 L379.5,142.5 Z M379.5,134.5 L382.5,134.5 L382.5,130.5 L379.5,130.5 L379.5,134.5 Z M379.5,126.5 L382.5,126.5 L382.5,122.5 L379.5,122.5 L379.5,126.5 Z M379.5,118.5 L382.5,118.5 L382.5,114.5 L379.5,114.5 L379.5,118.5 Z M379.5,110.5 L382.5,110.5 L382.5,106.5 L379.5,106.5 L379.5,110.5 Z M379.5,102.5 L382.5,102.5 L382.5,98.5 L379.5,98.5 L379.5,102.5 Z M379.5,94.5 L382.5,94.5 L382.5,90.5 L379.5,90.5 L379.5,94.5 Z M379.5,86.5 L382.5,86.5 L382.5,82.5 L379.5,82.5 L379.5,86.5 Z M379.5,78.5 L382.5,78.5 L382.5,74.5 L379.5,74.5 L379.5,78.5 Z M379.5,70.5 L382.5,70.5 L382.5,66.5 L379.5,66.5 L379.5,70.5 Z M379.5,62.5 L382.5,62.5 L382.5,58.5 L379.5,58.5 L379.5,62.5 Z M379.5,54.5 L382.5,54.5 L382.5,50.5 L379.5,50.5 L379.5,54.5 Z M379.5,46.5 L382.5,46.5 L382.5,42.5 L379.5,42.5 L379.5,46.5 Z M379.5,38.5 L382.5,38.5 L382.5,34.5 L379.5,34.5 L379.5,38.5 Z M379.5,30.5 L382.5,30.5 L382.5,26.5 L379.5,26.5 L379.5,30.5 Z M379.5,22.5 L382.5,22.5 L382.5,18.5 L379.5,18.5 L379.5,22.5 Z M379.5,14.5 L382.5,14.5 L382.5,10.5 L379.5,10.5 L379.5,14.5 Z M379.5,6.5 L382.5,6.5 L382.5,2.5 L379.5,2.5 L379.5,6.5 Z" id="Line-4" fill="url(#linearGradient-2)" fill-rule="nonzero"></path>
        <circle id="Oval-5" stroke="#C9C9D6" stroke-width="3" cx="294.5" cy="313.5" r="134.5"></circle>
        <circle id="Oval-5" stroke="#D4D4DD" stroke-width="3" cx="295" cy="314" r="192.5"></circle>
        <circle id="Oval-5" stroke="#8D8DA6" stroke-width="3" fill-opacity="0.25" fill="#8D8DA6" cx="185" cy="187" r="22.5"></circle>
        <circle id="Oval-5" stroke="#8D8DA6" stroke-width="3" fill-opacity="0.25" fill="#8D8DA6" cx="405" cy="187" r="22.5"></circle>
        <circle id="Oval-5" stroke="#8D8DA6" stroke-width="3" fill-opacity="0.25" fill="#8D8DA6" cx="185" cy="440" r="22.5"></circle>
        <circle id="Oval-5" stroke="#8D8DA6" stroke-width="3" fill-opacity="0.25" fill="#8D8DA6" cx="405" cy="440" r="22.5"></circle>
        <polyline id="Path-2" stroke="#8D8DA6" stroke-width="8" points="213.974969 413.615905 294.504355 220 374.310151 413.615905"></polyline>
        <line x1="250.483696" y1="340.5" x2="338.516304" y2="340.5" id="Line-5" stroke="#8D8DA6" stroke-width="7" stroke-linecap="square"></line>
    </g>
</svg>