<?xml version="1.0" encoding="UTF-8"?>
<svg width="592px" height="592px" viewBox="0 0 592 592" version="1.1" xmlns="http://www.w3.org/2000/svg" xmlns:xlink="http://www.w3.org/1999/xlink">
    <!-- Generator: Sketch 60.1 (88133) - https://sketch.com -->
    <title>font-variants</title>
    <desc>Created with Sketch.</desc>
    <defs>
        <linearGradient x1="-1.11022302e-14%" y1="50%" x2="100%" y2="50%" id="linearGradient-1">
            <stop stop-color="#8D8DA6" stop-opacity="0" offset="0%"></stop>
            <stop stop-color="#C1C1D2" offset="51.8607475%"></stop>
            <stop stop-color="#C1C1D2" stop-opacity="0" offset="100%"></stop>
        </linearGradient>
        <linearGradient x1="50%" y1="100%" x2="50%" y2="3.061617e-15%" id="linearGradient-2">
            <stop stop-color="#8D8DA6" stop-opacity="0" offset="0%"></stop>
            <stop stop-color="#C1C1D2" offset="51.8607475%"></stop>
            <stop stop-color="#C1C1D2" stop-opacity="0" offset="100%"></stop>
        </linearGradient>
    </defs>
    <g id="font-variants" stroke="none" stroke-width="1" fill="none" fill-rule="evenodd">
        <circle id="Oval-5" stroke="#8D8DA6" stroke-width="3" cx="294.5" cy="313.5" r="134.5"></circle>
        <circle id="Oval-5" stroke="#C9C9D6" stroke-width="3" cx="295" cy="314" r="192.5"></circle>
        <polyline id="Path-2" stroke="#8D8DA6" stroke-width="8" points="213.974969 413.615905 294.504355 220 374.310151 413.615905"></polyline>
        <line x1="250.483696" y1="340.5" x2="338.516304" y2="340.5" id="Line-5" stroke="#8D8DA6" stroke-width="7" stroke-linecap="square"></line>
        <path d="M593.5,210.5 L593.5,207.5 L589.5,207.5 L589.5,210.5 L593.5,210.5 Z M585.5,210.5 L585.5,207.5 L581.5,207.5 L581.5,210.5 L585.5,210.5 Z M577.5,210.5 L577.5,207.5 L573.5,207.5 L573.5,210.5 L577.5,210.5 Z M569.5,210.5 L569.5,207.5 L565.5,207.5 L565.5,210.5 L569.5,210.5 Z M561.5,210.5 L561.5,207.5 L557.5,207.5 L557.5,210.5 L561.5,210.5 Z M553.5,210.5 L553.5,207.5 L549.5,207.5 L549.5,210.5 L553.5,210.5 Z M545.5,210.5 L545.5,207.5 L541.5,207.5 L541.5,210.5 L545.5,210.5 Z M537.5,210.5 L537.5,207.5 L533.5,207.5 L533.5,210.5 L537.5,210.5 Z M529.5,210.5 L529.5,207.5 L525.5,207.5 L525.5,210.5 L529.5,210.5 Z M521.5,210.5 L521.5,207.5 L517.5,207.5 L517.5,210.5 L521.5,210.5 Z M513.5,210.5 L513.5,207.5 L509.5,207.5 L509.5,210.5 L513.5,210.5 Z M505.5,210.5 L505.5,207.5 L501.5,207.5 L501.5,210.5 L505.5,210.5 Z M497.5,210.5 L497.5,207.5 L493.5,207.5 L493.5,210.5 L497.5,210.5 Z M489.5,210.5 L489.5,207.5 L485.5,207.5 L485.5,210.5 L489.5,210.5 Z M481.5,210.5 L481.5,207.5 L477.5,207.5 L477.5,210.5 L481.5,210.5 Z M473.5,210.5 L473.5,207.5 L469.5,207.5 L469.5,210.5 L473.5,210.5 Z M465.5,210.5 L465.5,207.5 L461.5,207.5 L461.5,210.5 L465.5,210.5 Z M457.5,210.5 L457.5,207.5 L453.5,207.5 L453.5,210.5 L457.5,210.5 Z M449.5,210.5 L449.5,207.5 L445.5,207.5 L445.5,210.5 L449.5,210.5 Z M441.5,210.5 L441.5,207.5 L437.5,207.5 L437.5,210.5 L441.5,210.5 Z M433.5,210.5 L433.5,207.5 L429.5,207.5 L429.5,210.5 L433.5,210.5 Z M425.5,210.5 L425.5,207.5 L421.5,207.5 L421.5,210.5 L425.5,210.5 Z M417.5,210.5 L417.5,207.5 L413.5,207.5 L413.5,210.5 L417.5,210.5 Z M409.5,210.5 L409.5,207.5 L405.5,207.5 L405.5,210.5 L409.5,210.5 Z M401.5,210.5 L401.5,207.5 L397.5,207.5 L397.5,210.5 L401.5,210.5 Z M393.5,210.5 L393.5,207.5 L389.5,207.5 L389.5,210.5 L393.5,210.5 Z M385.5,210.5 L385.5,207.5 L381.5,207.5 L381.5,210.5 L385.5,210.5 Z M377.5,210.5 L377.5,207.5 L373.5,207.5 L373.5,210.5 L377.5,210.5 Z M369.5,210.5 L369.5,207.5 L365.5,207.5 L365.5,210.5 L369.5,210.5 Z M361.5,210.5 L361.5,207.5 L357.5,207.5 L357.5,210.5 L361.5,210.5 Z M353.5,210.5 L353.5,207.5 L349.5,207.5 L349.5,210.5 L353.5,210.5 Z M345.5,210.5 L345.5,207.5 L341.5,207.5 L341.5,210.5 L345.5,210.5 Z M337.5,210.5 L337.5,207.5 L333.5,207.5 L333.5,210.5 L337.5,210.5 Z M329.5,210.5 L329.5,207.5 L325.5,207.5 L325.5,210.5 L329.5,210.5 Z M321.5,210.5 L321.5,207.5 L317.5,207.5 L317.5,210.5 L321.5,210.5 Z M313.5,210.5 L313.5,207.5 L309.5,207.5 L309.5,210.5 L313.5,210.5 Z M305.5,210.5 L305.5,207.5 L301.5,207.5 L301.5,210.5 L305.5,210.5 Z M297.5,210.5 L297.5,207.5 L293.5,207.5 L293.5,210.5 L297.5,210.5 Z M289.5,210.5 L289.5,207.5 L285.5,207.5 L285.5,210.5 L289.5,210.5 Z M281.5,210.5 L281.5,207.5 L277.5,207.5 L277.5,210.5 L281.5,210.5 Z M273.5,210.5 L273.5,207.5 L269.5,207.5 L269.5,210.5 L273.5,210.5 Z M265.5,210.5 L265.5,207.5 L261.5,207.5 L261.5,210.5 L265.5,210.5 Z M257.5,210.5 L257.5,207.5 L253.5,207.5 L253.5,210.5 L257.5,210.5 Z M249.5,210.5 L249.5,207.5 L245.5,207.5 L245.5,210.5 L249.5,210.5 Z M241.5,210.5 L241.5,207.5 L237.5,207.5 L237.5,210.5 L241.5,210.5 Z M233.5,210.5 L233.5,207.5 L229.5,207.5 L229.5,210.5 L233.5,210.5 Z M225.5,210.5 L225.5,207.5 L221.5,207.5 L221.5,210.5 L225.5,210.5 Z M217.5,210.5 L217.5,207.5 L213.5,207.5 L213.5,210.5 L217.5,210.5 Z M209.5,210.5 L209.5,207.5 L205.5,207.5 L205.5,210.5 L209.5,210.5 Z M201.5,210.5 L201.5,207.5 L197.5,207.5 L197.5,210.5 L201.5,210.5 Z M193.5,210.5 L193.5,207.5 L189.5,207.5 L189.5,210.5 L193.5,210.5 Z M185.5,210.5 L185.5,207.5 L181.5,207.5 L181.5,210.5 L185.5,210.5 Z M177.5,210.5 L177.5,207.5 L173.5,207.5 L173.5,210.5 L177.5,210.5 Z M169.5,210.5 L169.5,207.5 L165.5,207.5 L165.5,210.5 L169.5,210.5 Z M161.5,210.5 L161.5,207.5 L157.5,207.5 L157.5,210.5 L161.5,210.5 Z M153.5,210.5 L153.5,207.5 L149.5,207.5 L149.5,210.5 L153.5,210.5 Z M145.5,210.5 L145.5,207.5 L141.5,207.5 L141.5,210.5 L145.5,210.5 Z M137.5,210.5 L137.5,207.5 L133.5,207.5 L133.5,210.5 L137.5,210.5 Z M129.5,210.5 L129.5,207.5 L125.5,207.5 L125.5,210.5 L129.5,210.5 Z M121.5,210.5 L121.5,207.5 L117.5,207.5 L117.5,210.5 L121.5,210.5 Z M113.5,210.5 L113.5,207.5 L109.5,207.5 L109.5,210.5 L113.5,210.5 Z M105.5,210.5 L105.5,207.5 L101.5,207.5 L101.5,210.5 L105.5,210.5 Z M97.5,210.5 L97.5,207.5 L93.5,207.5 L93.5,210.5 L97.5,210.5 Z M89.5,210.5 L89.5,207.5 L85.5,207.5 L85.5,210.5 L89.5,210.5 Z M81.5,210.5 L81.5,207.5 L77.5,207.5 L77.5,210.5 L81.5,210.5 Z M73.5,210.5 L73.5,207.5 L69.5,207.5 L69.5,210.5 L73.5,210.5 Z M65.5,210.5 L65.5,207.5 L61.5,207.5 L61.5,210.5 L65.5,210.5 Z M57.5,210.5 L57.5,207.5 L53.5,207.5 L53.5,210.5 L57.5,210.5 Z M49.5,210.5 L49.5,207.5 L45.5,207.5 L45.5,210.5 L49.5,210.5 Z M41.5,210.5 L41.5,207.5 L37.5,207.5 L37.5,210.5 L41.5,210.5 Z M33.5,210.5 L33.5,207.5 L29.5,207.5 L29.5,210.5 L33.5,210.5 Z M25.5,210.5 L25.5,207.5 L21.5,207.5 L21.5,210.5 L25.5,210.5 Z M17.5,210.5 L17.5,207.5 L13.5,207.5 L13.5,210.5 L17.5,210.5 Z M9.5,210.5 L9.5,207.5 L5.5,207.5 L5.5,210.5 L9.5,210.5 Z M1.5,210.5 L1.5,207.5 L-2.5,207.5 L-2.5,210.5 L1.5,210.5 Z" id="Line-8" fill="url(#linearGradient-1)" fill-rule="nonzero"></path>
        <path d="M209,-0.999153976 L206,-0.999153976 L206,3.00084602 L209,3.00084602 L209,-0.999153976 Z M209,7.00084602 L206,7.00084602 L206,11.000846 L209,11.000846 L209,7.00084602 Z M209,15.000846 L206,15.000846 L206,19.000846 L209,19.000846 L209,15.000846 Z M209,23.000846 L206,23.000846 L206,27.000846 L209,27.000846 L209,23.000846 Z M209,31.000846 L206,31.000846 L206,35.000846 L209,35.000846 L209,31.000846 Z M209,39.000846 L206,39.000846 L206,43.000846 L209,43.000846 L209,39.000846 Z M209,47.000846 L206,47.000846 L206,51.000846 L209,51.000846 L209,47.000846 Z M209,55.000846 L206,55.000846 L206,59.000846 L209,59.000846 L209,55.000846 Z M209,63.000846 L206,63.000846 L206,67.000846 L209,67.000846 L209,63.000846 Z M209,71.000846 L206,71.000846 L206,75.000846 L209,75.000846 L209,71.000846 Z M209,79.000846 L206,79.000846 L206,83.000846 L209,83.000846 L209,79.000846 Z M209,87.000846 L206,87.000846 L206,91.000846 L209,91.000846 L209,87.000846 Z M209,95.000846 L206,95.000846 L206,99.000846 L209,99.000846 L209,95.000846 Z M209,103.000846 L206,103.000846 L206,107.000846 L209,107.000846 L209,103.000846 Z M209,111.000846 L206,111.000846 L206,115.000846 L209,115.000846 L209,111.000846 Z M209,119.000846 L206,119.000846 L206,123.000846 L209,123.000846 L209,119.000846 Z M209,127.000846 L206,127.000846 L206,131.000846 L209,131.000846 L209,127.000846 Z M209,135.000846 L206,135.000846 L206,139.000846 L209,139.000846 L209,135.000846 Z M209,143.000846 L206,143.000846 L206,147.000846 L209,147.000846 L209,143.000846 Z M209,151.000846 L206,151.000846 L206,155.000846 L209,155.000846 L209,151.000846 Z M209,159.000846 L206,159.000846 L206,163.000846 L209,163.000846 L209,159.000846 Z M209,167.000846 L206,167.000846 L206,171.000846 L209,171.000846 L209,167.000846 Z M209,175.000846 L206,175.000846 L206,179.000846 L209,179.000846 L209,175.000846 Z M209,183.000846 L206,183.000846 L206,187.000846 L209,187.000846 L209,183.000846 Z M209,191.000846 L206,191.000846 L206,195.000846 L209,195.000846 L209,191.000846 Z M209,199.000846 L206,199.000846 L206,203.000846 L209,203.000846 L209,199.000846 Z M209,207.000846 L206,207.000846 L206,211.000846 L209,211.000846 L209,207.000846 Z M209,215.000846 L206,215.000846 L206,219.000846 L209,219.000846 L209,215.000846 Z M209,223.000846 L206,223.000846 L206,227.000846 L209,227.000846 L209,223.000846 Z M209,231.000846 L206,231.000846 L206,235.000846 L209,235.000846 L209,231.000846 Z M209,239.000846 L206,239.000846 L206,243.000846 L209,243.000846 L209,239.000846 Z M209,247.000846 L206,247.000846 L206,251.000846 L209,251.000846 L209,247.000846 Z M209,255.000846 L206,255.000846 L206,259.000846 L209,259.000846 L209,255.000846 Z M209,263.000846 L206,263.000846 L206,267.000846 L209,267.000846 L209,263.000846 Z M209,271.000846 L206,271.000846 L206,275.000846 L209,275.000846 L209,271.000846 Z M209,279.000846 L206,279.000846 L206,283.000846 L209,283.000846 L209,279.000846 Z M209,287.000846 L206,287.000846 L206,291.000846 L209,291.000846 L209,287.000846 Z M209,295.000846 L206,295.000846 L206,299.000846 L209,299.000846 L209,295.000846 Z M209,303.000846 L206,303.000846 L206,307.000846 L209,307.000846 L209,303.000846 Z M209,311.000846 L206,311.000846 L206,315.000846 L209,315.000846 L209,311.000846 Z M209,319.000846 L206,319.000846 L206,323.000846 L209,323.000846 L209,319.000846 Z M209,327.000846 L206,327.000846 L206,331.000846 L209,331.000846 L209,327.000846 Z M209,335.000846 L206,335.000846 L206,339.000846 L209,339.000846 L209,335.000846 Z M209,343.000846 L206,343.000846 L206,347.000846 L209,347.000846 L209,343.000846 Z M209,351.000846 L206,351.000846 L206,355.000846 L209,355.000846 L209,351.000846 Z M209,359.000846 L206,359.000846 L206,363.000846 L209,363.000846 L209,359.000846 Z M209,367.000846 L206,367.000846 L206,371.000846 L209,371.000846 L209,367.000846 Z M209,375.000846 L206,375.000846 L206,379.000846 L209,379.000846 L209,375.000846 Z M209,383.000846 L206,383.000846 L206,387.000846 L209,387.000846 L209,383.000846 Z M209,391.000846 L206,391.000846 L206,395.000846 L209,395.000846 L209,391.000846 Z M209,399.000846 L206,399.000846 L206,403.000846 L209,403.000846 L209,399.000846 Z M209,407.000846 L206,407.000846 L206,411.000846 L209,411.000846 L209,407.000846 Z M209,415.000846 L206,415.000846 L206,419.000846 L209,419.000846 L209,415.000846 Z M209,423.000846 L206,423.000846 L206,427.000846 L209,427.000846 L209,423.000846 Z M209,431.000846 L206,431.000846 L206,435.000846 L209,435.000846 L209,431.000846 Z M209,439.000846 L206,439.000846 L206,443.000846 L209,443.000846 L209,439.000846 Z M209,447.000846 L206,447.000846 L206,451.000846 L209,451.000846 L209,447.000846 Z M209,455.000846 L206,455.000846 L206,459.000846 L209,459.000846 L209,455.000846 Z M209,463.000846 L206,463.000846 L206,467.000846 L209,467.000846 L209,463.000846 Z M209,471.000846 L206,471.000846 L206,475.000846 L209,475.000846 L209,471.000846 Z M209,479.000846 L206,479.000846 L206,483.000846 L209,483.000846 L209,479.000846 Z M209,487.000846 L206,487.000846 L206,491.000846 L209,491.000846 L209,487.000846 Z M209,495.000846 L206,495.000846 L206,499.000846 L209,499.000846 L209,495.000846 Z M209,503.000846 L206,503.000846 L206,507.000846 L209,507.000846 L209,503.000846 Z M209,511.000846 L206,511.000846 L206,515.000846 L209,515.000846 L209,511.000846 Z M209,519.000846 L206,519.000846 L206,523.000846 L209,523.000846 L209,519.000846 Z M209,527.000846 L206,527.000846 L206,531.000846 L209,531.000846 L209,527.000846 Z M209,535.000846 L206,535.000846 L206,539.000846 L209,539.000846 L209,535.000846 Z M209,543.000846 L206,543.000846 L206,547.000846 L209,547.000846 L209,543.000846 Z M209,551.000846 L206,551.000846 L206,555.000846 L209,555.000846 L209,551.000846 Z M209,559.000846 L206,559.000846 L206,563.000846 L209,563.000846 L209,559.000846 Z M209,567.000846 L206,567.000846 L206,571.000846 L209,571.000846 L209,567.000846 Z M209,575.000846 L206,575.000846 L206,579.000846 L209,579.000846 L209,575.000846 Z M209,583.000846 L206,583.000846 L206,587.000846 L209,587.000846 L209,583.000846 Z" id="Line-8" fill="url(#linearGradient-2)" fill-rule="nonzero"></path>
        <path d="M385,-0.999153976 L382,-0.999153976 L382,3.00084602 L385,3.00084602 L385,-0.999153976 Z M385,7.00084602 L382,7.00084602 L382,11.000846 L385,11.000846 L385,7.00084602 Z M385,15.000846 L382,15.000846 L382,19.000846 L385,19.000846 L385,15.000846 Z M385,23.000846 L382,23.000846 L382,27.000846 L385,27.000846 L385,23.000846 Z M385,31.000846 L382,31.000846 L382,35.000846 L385,35.000846 L385,31.000846 Z M385,39.000846 L382,39.000846 L382,43.000846 L385,43.000846 L385,39.000846 Z M385,47.000846 L382,47.000846 L382,51.000846 L385,51.000846 L385,47.000846 Z M385,55.000846 L382,55.000846 L382,59.000846 L385,59.000846 L385,55.000846 Z M385,63.000846 L382,63.000846 L382,67.000846 L385,67.000846 L385,63.000846 Z M385,71.000846 L382,71.000846 L382,75.000846 L385,75.000846 L385,71.000846 Z M385,79.000846 L382,79.000846 L382,83.000846 L385,83.000846 L385,79.000846 Z M385,87.000846 L382,87.000846 L382,91.000846 L385,91.000846 L385,87.000846 Z M385,95.000846 L382,95.000846 L382,99.000846 L385,99.000846 L385,95.000846 Z M385,103.000846 L382,103.000846 L382,107.000846 L385,107.000846 L385,103.000846 Z M385,111.000846 L382,111.000846 L382,115.000846 L385,115.000846 L385,111.000846 Z M385,119.000846 L382,119.000846 L382,123.000846 L385,123.000846 L385,119.000846 Z M385,127.000846 L382,127.000846 L382,131.000846 L385,131.000846 L385,127.000846 Z M385,135.000846 L382,135.000846 L382,139.000846 L385,139.000846 L385,135.000846 Z M385,143.000846 L382,143.000846 L382,147.000846 L385,147.000846 L385,143.000846 Z M385,151.000846 L382,151.000846 L382,155.000846 L385,155.000846 L385,151.000846 Z M385,159.000846 L382,159.000846 L382,163.000846 L385,163.000846 L385,159.000846 Z M385,167.000846 L382,167.000846 L382,171.000846 L385,171.000846 L385,167.000846 Z M385,175.000846 L382,175.000846 L382,179.000846 L385,179.000846 L385,175.000846 Z M385,183.000846 L382,183.000846 L382,187.000846 L385,187.000846 L385,183.000846 Z M385,191.000846 L382,191.000846 L382,195.000846 L385,195.000846 L385,191.000846 Z M385,199.000846 L382,199.000846 L382,203.000846 L385,203.000846 L385,199.000846 Z M385,207.000846 L382,207.000846 L382,211.000846 L385,211.000846 L385,207.000846 Z M385,215.000846 L382,215.000846 L382,219.000846 L385,219.000846 L385,215.000846 Z M385,223.000846 L382,223.000846 L382,227.000846 L385,227.000846 L385,223.000846 Z M385,231.000846 L382,231.000846 L382,235.000846 L385,235.000846 L385,231.000846 Z M385,239.000846 L382,239.000846 L382,243.000846 L385,243.000846 L385,239.000846 Z M385,247.000846 L382,247.000846 L382,251.000846 L385,251.000846 L385,247.000846 Z M385,255.000846 L382,255.000846 L382,259.000846 L385,259.000846 L385,255.000846 Z M385,263.000846 L382,263.000846 L382,267.000846 L385,267.000846 L385,263.000846 Z M385,271.000846 L382,271.000846 L382,275.000846 L385,275.000846 L385,271.000846 Z M385,279.000846 L382,279.000846 L382,283.000846 L385,283.000846 L385,279.000846 Z M385,287.000846 L382,287.000846 L382,291.000846 L385,291.000846 L385,287.000846 Z M385,295.000846 L382,295.000846 L382,299.000846 L385,299.000846 L385,295.000846 Z M385,303.000846 L382,303.000846 L382,307.000846 L385,307.000846 L385,303.000846 Z M385,311.000846 L382,311.000846 L382,315.000846 L385,315.000846 L385,311.000846 Z M385,319.000846 L382,319.000846 L382,323.000846 L385,323.000846 L385,319.000846 Z M385,327.000846 L382,327.000846 L382,331.000846 L385,331.000846 L385,327.000846 Z M385,335.000846 L382,335.000846 L382,339.000846 L385,339.000846 L385,335.000846 Z M385,343.000846 L382,343.000846 L382,347.000846 L385,347.000846 L385,343.000846 Z M385,351.000846 L382,351.000846 L382,355.000846 L385,355.000846 L385,351.000846 Z M385,359.000846 L382,359.000846 L382,363.000846 L385,363.000846 L385,359.000846 Z M385,367.000846 L382,367.000846 L382,371.000846 L385,371.000846 L385,367.000846 Z M385,375.000846 L382,375.000846 L382,379.000846 L385,379.000846 L385,375.000846 Z M385,383.000846 L382,383.000846 L382,387.000846 L385,387.000846 L385,383.000846 Z M385,391.000846 L382,391.000846 L382,395.000846 L385,395.000846 L385,391.000846 Z M385,399.000846 L382,399.000846 L382,403.000846 L385,403.000846 L385,399.000846 Z M385,407.000846 L382,407.000846 L382,411.000846 L385,411.000846 L385,407.000846 Z M385,415.000846 L382,415.000846 L382,419.000846 L385,419.000846 L385,415.000846 Z M385,423.000846 L382,423.000846 L382,427.000846 L385,427.000846 L385,423.000846 Z M385,431.000846 L382,431.000846 L382,435.000846 L385,435.000846 L385,431.000846 Z M385,439.000846 L382,439.000846 L382,443.000846 L385,443.000846 L385,439.000846 Z M385,447.000846 L382,447.000846 L382,451.000846 L385,451.000846 L385,447.000846 Z M385,455.000846 L382,455.000846 L382,459.000846 L385,459.000846 L385,455.000846 Z M385,463.000846 L382,463.000846 L382,467.000846 L385,467.000846 L385,463.000846 Z M385,471.000846 L382,471.000846 L382,475.000846 L385,475.000846 L385,471.000846 Z M385,479.000846 L382,479.000846 L382,483.000846 L385,483.000846 L385,479.000846 Z M385,487.000846 L382,487.000846 L382,491.000846 L385,491.000846 L385,487.000846 Z M385,495.000846 L382,495.000846 L382,499.000846 L385,499.000846 L385,495.000846 Z M385,503.000846 L382,503.000846 L382,507.000846 L385,507.000846 L385,503.000846 Z M385,511.000846 L382,511.000846 L382,515.000846 L385,515.000846 L385,511.000846 Z M385,519.000846 L382,519.000846 L382,523.000846 L385,523.000846 L385,519.000846 Z M385,527.000846 L382,527.000846 L382,531.000846 L385,531.000846 L385,527.000846 Z M385,535.000846 L382,535.000846 L382,539.000846 L385,539.000846 L385,535.000846 Z M385,543.000846 L382,543.000846 L382,547.000846 L385,547.000846 L385,543.000846 Z M385,551.000846 L382,551.000846 L382,555.000846 L385,555.000846 L385,551.000846 Z M385,559.000846 L382,559.000846 L382,563.000846 L385,563.000846 L385,559.000846 Z M385,567.000846 L382,567.000846 L382,571.000846 L385,571.000846 L385,567.000846 Z M385,575.000846 L382,575.000846 L382,579.000846 L385,579.000846 L385,575.000846 Z M385,583.000846 L382,583.000846 L382,587.000846 L385,587.000846 L385,583.000846 Z" id="Line-8" fill="url(#linearGradient-2)" fill-rule="nonzero"></path>
        <path d="M593.5,419.5 L593.5,416.5 L589.5,416.5 L589.5,419.5 L593.5,419.5 Z M585.5,419.5 L585.5,416.5 L581.5,416.5 L581.5,419.5 L585.5,419.5 Z M577.5,419.5 L577.5,416.5 L573.5,416.5 L573.5,419.5 L577.5,419.5 Z M569.5,419.5 L569.5,416.5 L565.5,416.5 L565.5,419.5 L569.5,419.5 Z M561.5,419.5 L561.5,416.5 L557.5,416.5 L557.5,419.5 L561.5,419.5 Z M553.5,419.5 L553.5,416.5 L549.5,416.5 L549.5,419.5 L553.5,419.5 Z M545.5,419.5 L545.5,416.5 L541.5,416.5 L541.5,419.5 L545.5,419.5 Z M537.5,419.5 L537.5,416.5 L533.5,416.5 L533.5,419.5 L537.5,419.5 Z M529.5,419.5 L529.5,416.5 L525.5,416.5 L525.5,419.5 L529.5,419.5 Z M521.5,419.5 L521.5,416.5 L517.5,416.5 L517.5,419.5 L521.5,419.5 Z M513.5,419.5 L513.5,416.5 L509.5,416.5 L509.5,419.5 L513.5,419.5 Z M505.5,419.5 L505.5,416.5 L501.5,416.5 L501.5,419.5 L505.5,419.5 Z M497.5,419.5 L497.5,416.5 L493.5,416.5 L493.5,419.5 L497.5,419.5 Z M489.5,419.5 L489.5,416.5 L485.5,416.5 L485.5,419.5 L489.5,419.5 Z M481.5,419.5 L481.5,416.5 L477.5,416.5 L477.5,419.5 L481.5,419.5 Z M473.5,419.5 L473.5,416.5 L469.5,416.5 L469.5,419.5 L473.5,419.5 Z M465.5,419.5 L465.5,416.5 L461.5,416.5 L461.5,419.5 L465.5,419.5 Z M457.5,419.5 L457.5,416.5 L453.5,416.5 L453.5,419.5 L457.5,419.5 Z M449.5,419.5 L449.5,416.5 L445.5,416.5 L445.5,419.5 L449.5,419.5 Z M441.5,419.5 L441.5,416.5 L437.5,416.5 L437.5,419.5 L441.5,419.5 Z M433.5,419.5 L433.5,416.5 L429.5,416.5 L429.5,419.5 L433.5,419.5 Z M425.5,419.5 L425.5,416.5 L421.5,416.5 L421.5,419.5 L425.5,419.5 Z M417.5,419.5 L417.5,416.5 L413.5,416.5 L413.5,419.5 L417.5,419.5 Z M409.5,419.5 L409.5,416.5 L405.5,416.5 L405.5,419.5 L409.5,419.5 Z M401.5,419.5 L401.5,416.5 L397.5,416.5 L397.5,419.5 L401.5,419.5 Z M393.5,419.5 L393.5,416.5 L389.5,416.5 L389.5,419.5 L393.5,419.5 Z M385.5,419.5 L385.5,416.5 L381.5,416.5 L381.5,419.5 L385.5,419.5 Z M377.5,419.5 L377.5,416.5 L373.5,416.5 L373.5,419.5 L377.5,419.5 Z M369.5,419.5 L369.5,416.5 L365.5,416.5 L365.5,419.5 L369.5,419.5 Z M361.5,419.5 L361.5,416.5 L357.5,416.5 L357.5,419.5 L361.5,419.5 Z M353.5,419.5 L353.5,416.5 L349.5,416.5 L349.5,419.5 L353.5,419.5 Z M345.5,419.5 L345.5,416.5 L341.5,416.5 L341.5,419.5 L345.5,419.5 Z M337.5,419.5 L337.5,416.5 L333.5,416.5 L333.5,419.5 L337.5,419.5 Z M329.5,419.5 L329.5,416.5 L325.5,416.5 L325.5,419.5 L329.5,419.5 Z M321.5,419.5 L321.5,416.5 L317.5,416.5 L317.5,419.5 L321.5,419.5 Z M313.5,419.5 L313.5,416.5 L309.5,416.5 L309.5,419.5 L313.5,419.5 Z M305.5,419.5 L305.5,416.5 L301.5,416.5 L301.5,419.5 L305.5,419.5 Z M297.5,419.5 L297.5,416.5 L293.5,416.5 L293.5,419.5 L297.5,419.5 Z M289.5,419.5 L289.5,416.5 L285.5,416.5 L285.5,419.5 L289.5,419.5 Z M281.5,419.5 L281.5,416.5 L277.5,416.5 L277.5,419.5 L281.5,419.5 Z M273.5,419.5 L273.5,416.5 L269.5,416.5 L269.5,419.5 L273.5,419.5 Z M265.5,419.5 L265.5,416.5 L261.5,416.5 L261.5,419.5 L265.5,419.5 Z M257.5,419.5 L257.5,416.5 L253.5,416.5 L253.5,419.5 L257.5,419.5 Z M249.5,419.5 L249.5,416.5 L245.5,416.5 L245.5,419.5 L249.5,419.5 Z M241.5,419.5 L241.5,416.5 L237.5,416.5 L237.5,419.5 L241.5,419.5 Z M233.5,419.5 L233.5,416.5 L229.5,416.5 L229.5,419.5 L233.5,419.5 Z M225.5,419.5 L225.5,416.5 L221.5,416.5 L221.5,419.5 L225.5,419.5 Z M217.5,419.5 L217.5,416.5 L213.5,416.5 L213.5,419.5 L217.5,419.5 Z M209.5,419.5 L209.5,416.5 L205.5,416.5 L205.5,419.5 L209.5,419.5 Z M201.5,419.5 L201.5,416.5 L197.5,416.5 L197.5,419.5 L201.5,419.5 Z M193.5,419.5 L193.5,416.5 L189.5,416.5 L189.5,419.5 L193.5,419.5 Z M185.5,419.5 L185.5,416.5 L181.5,416.5 L181.5,419.5 L185.5,419.5 Z M177.5,419.5 L177.5,416.5 L173.5,416.5 L173.5,419.5 L177.5,419.5 Z M169.5,419.5 L169.5,416.5 L165.5,416.5 L165.5,419.5 L169.5,419.5 Z M161.5,419.5 L161.5,416.5 L157.5,416.5 L157.5,419.5 L161.5,419.5 Z M153.5,419.5 L153.5,416.5 L149.5,416.5 L149.5,419.5 L153.5,419.5 Z M145.5,419.5 L145.5,416.5 L141.5,416.5 L141.5,419.5 L145.5,419.5 Z M137.5,419.5 L137.5,416.5 L133.5,416.5 L133.5,419.5 L137.5,419.5 Z M129.5,419.5 L129.5,416.5 L125.5,416.5 L125.5,419.5 L129.5,419.5 Z M121.5,419.5 L121.5,416.5 L117.5,416.5 L117.5,419.5 L121.5,419.5 Z M113.5,419.5 L113.5,416.5 L109.5,416.5 L109.5,419.5 L113.5,419.5 Z M105.5,419.5 L105.5,416.5 L101.5,416.5 L101.5,419.5 L105.5,419.5 Z M97.5,419.5 L97.5,416.5 L93.5,416.5 L93.5,419.5 L97.5,419.5 Z M89.5,419.5 L89.5,416.5 L85.5,416.5 L85.5,419.5 L89.5,419.5 Z M81.5,419.5 L81.5,416.5 L77.5,416.5 L77.5,419.5 L81.5,419.5 Z M73.5,419.5 L73.5,416.5 L69.5,416.5 L69.5,419.5 L73.5,419.5 Z M65.5,419.5 L65.5,416.5 L61.5,416.5 L61.5,419.5 L65.5,419.5 Z M57.5,419.5 L57.5,416.5 L53.5,416.5 L53.5,419.5 L57.5,419.5 Z M49.5,419.5 L49.5,416.5 L45.5,416.5 L45.5,419.5 L49.5,419.5 Z M41.5,419.5 L41.5,416.5 L37.5,416.5 L37.5,419.5 L41.5,419.5 Z M33.5,419.5 L33.5,416.5 L29.5,416.5 L29.5,419.5 L33.5,419.5 Z M25.5,419.5 L25.5,416.5 L21.5,416.5 L21.5,419.5 L25.5,419.5 Z M17.5,419.5 L17.5,416.5 L13.5,416.5 L13.5,419.5 L17.5,419.5 Z M9.5,419.5 L9.5,416.5 L5.5,416.5 L5.5,419.5 L9.5,419.5 Z M1.5,419.5 L1.5,416.5 L-2.5,416.5 L-2.5,419.5 L1.5,419.5 Z" id="Line-8-Copy" fill="url(#linearGradient-1)" fill-rule="nonzero"></path>
        <circle id="Oval-5" stroke="#8D8DA6" stroke-width="3" fill-opacity="0.25" fill="#8D8DA6" cx="185" cy="440" r="22.5"></circle>
        <circle id="Oval-5" stroke="#8D8DA6" stroke-width="3" fill-opacity="0.25" fill="#8D8DA6" cx="405" cy="440" r="22.5"></circle>
        <circle id="Oval-5" stroke="#8D8DA6" stroke-width="3" fill-opacity="0.25" fill="#8D8DA6" cx="185" cy="187" r="22.5"></circle>
        <circle id="Oval-5" stroke="#8D8DA6" stroke-width="3" fill-opacity="0.25" fill="#8D8DA6" cx="405" cy="187" r="22.5"></circle>
    </g>
</svg>