<svg width="1200px" height="328px" viewBox="0 0 1200 328" version="1.1" xmlns="http://www.w3.org/2000/svg">
  <g stroke="none" stroke-width="1" fill="none" fill-rule="evenodd">
    <rect fill="#F9F9FB" x="0" y="0" width="1200" height="328"></rect>
    <path
      d="M383.64,246.04 C394.52,246.04 403.8,242.72 411.48,236.08 C419.16,229.44 423,221.24 423,211.48 C423,206.04 421.12,201.16 417.36,196.84 C413.6,192.52 405.8,187.4 393.96,181.48 C384.04,176.52 377.6,172.48 374.64,169.36 C371.68,166.24 370.2,162.84 370.2,159.16 C370.2,148.28 376.44,142.84 388.92,142.84 C393.8,142.84 398,144.66 401.52,148.3 C405.04,151.94 407.24,156.68 408.12,162.52 C408.36,163.8 409.48,164.44 411.48,164.44 C413.8,164.44 414.96,163.84 414.96,162.64 C414.16,156 413.64,147.96 413.4,138.52 C412.12,138.52 409.4,138.12 405.24,137.32 C397.72,135.88 391.88,135.16 387.72,135.16 C377.8,135.16 369.2,138.18 361.92,144.22 C354.64,150.26 351,157.48 351,165.88 C351,172.68 352.94,178.52 356.82,183.4 C360.7,188.28 368.68,193.48 380.76,199 C389.96,203.24 395.94,206.8 398.7,209.68 C401.46,212.56 402.84,215.88 402.84,219.64 C402.84,225.56 401.18,230.16 397.86,233.44 C394.54,236.72 389.88,238.36 383.88,238.36 C378.12,238.36 372.52,236.16 367.08,231.76 C361.64,227.36 358,222.2 356.16,216.28 C355.76,215 354.6,214.36 352.68,214.36 C350.36,214.36 349.2,214.96 349.2,216.16 C351.52,227.6 353,236.12 353.64,241.72 C355.8,241.72 359.88,242.32 365.88,243.52 C373.88,245.2 379.8,246.04 383.64,246.04 Z M450.84,247 C452.44,247 453.44,246.52 453.84,245.56 C455.76,240.44 459.72,237.88 465.72,237.88 C469.48,237.88 473.8,239 478.68,241.24 C485.8,244.44 493.16,246.04 500.76,246.04 C514.44,246.04 526.48,240.4 536.88,229.12 C547.28,217.84 552.48,204.84 552.48,190.12 C552.48,173.32 547.44,160 537.36,150.16 C527.28,140.32 514.12,135.4 497.88,135.4 C487,135.4 477.8,139.16 470.28,146.68 L470.28,146.68 L470.280768,110.162272 C470.305856,99.678624 470.9456,85.8912 472.2,68.8 C472.2,67.52 471.08,66.88 468.84,66.88 C468.04,66.88 467.04,67.36 465.84,68.32 C459.84,73.12 449.72,77.36 435.48,81.04 C434.2,81.04 433.56,82.16 433.56,84.4 C433.56,86.32 434.2,87.28 435.48,87.28 C441,87.84 444.58,89.12 446.22,91.12 C447.86,93.12 448.68,97.36 448.68,103.84 L448.68,103.84 L448.68,220.84 C448.68,230.28 448.36,238.36 447.72,245.08 C447.72,246.36 448.76,247 450.84,247 Z M497.88,238.12 C492.36,238.12 486.38,235.94 479.94,231.58 C473.5,227.22 470.28,222.92 470.28,218.68 L470.28,218.68 L470.28,163.24 C470.28,159 472.98,154.74 478.38,150.46 C483.78,146.18 489.32,144.04 495,144.04 C505.56,144.04 513.76,148.2 519.6,156.52 C525.44,164.84 528.36,176.36 528.36,191.08 C528.36,205.32 525.68,216.72 520.32,225.28 C514.96,233.84 507.48,238.12 497.88,238.12 Z"
      fill="#C9C9D6" fill-rule="nonzero"></path>
    <path
      d="M749.96,247 C751.56,247 752.56,246.52 752.96,245.56 C755.04,240.6 759.04,238.12 764.96,238.12 C768.64,238.12 772.96,239.2 777.92,241.36 C784.96,244.48 792.24,246.04 799.76,246.04 C813.6,246.04 825.74,240.42 836.18,229.18 C846.62,217.94 851.84,204.92 851.84,190.12 C851.84,173.32 846.78,160 836.66,150.16 C826.54,140.32 813.28,135.4 796.88,135.4 C786.16,135.4 777.04,139.16 769.52,146.68 L769.52,146.68 L769.52,110.8 C769.52,96.08 770.16,82.16 771.44,69.04 C771.44,67.76 770.32,67.12 768.08,67.12 C767.28,67.12 766.32,67.56 765.2,68.44 C763.44,69.8 761.32,71.2 758.84,72.64 C753.72,69.6 747.48,68.08 740.12,68.08 C728.52,68.08 717.86,71.4 708.14,78.04 C698.42,84.68 690.6,93.86 684.68,105.58 C678.76,117.3 675.8,129.24 675.8,141.4 C675.8,143.16 670.68,145.4 660.44,148.12 C659,148.52 658.28,149.72 658.28,151.72 C658.28,153.8 659.08,154.84 660.68,154.84 L660.68,154.84 L672.92,154.84 C674.84,154.84 675.8,155.96 675.8,158.2 L675.8,158.2 L675.8,215.32 C675.8,223.32 674.82,228.52 672.86,230.92 C670.9,233.32 666.44,234.92 659.48,235.72 C658.2,235.72 657.56,236.84 657.56,239.08 C657.56,241.32 658.2,242.44 659.48,242.44 C662.84,242.44 667.08,242.2 672.2,241.72 C677.88,241.24 682.68,241 686.6,241 C690.52,241 695.12,241.24 700.4,241.72 C705.2,242.2 709.24,242.44 712.52,242.44 C713.8,242.44 714.44,241.32 714.44,239.08 C714.44,236.84 713.8,235.72 712.52,235.72 C705.8,234.92 701.6,233.34 699.92,230.98 C698.24,228.62 697.4,223.4 697.4,215.32 L697.4,215.32 L697.4,118.48 C697.4,94.48 706.76,82.48 725.48,82.48 C740.52,82.48 748.04,89.6 748.04,103.84 L748.04,103.84 L748.04,220.84 C748.04,230.28 747.72,238.36 747.08,245.08 C747.08,246.36 748.04,247 749.96,247 Z M797.12,238.12 C791.52,238.12 785.52,235.96 779.12,231.64 C772.72,227.32 769.52,223 769.52,218.68 L769.52,218.68 L769.52,163.24 C769.52,159.08 772.22,154.84 777.62,150.52 C783.02,146.2 788.48,144.04 794,144.04 C804.64,144.04 812.86,148.18 818.66,156.46 C824.46,164.74 827.36,176.28 827.36,191.08 C827.36,205.48 824.72,216.92 819.44,225.4 C814.16,233.88 806.72,238.12 797.12,238.12 Z"
      fill="#2E3138" fill-rule="nonzero"></path>
  </g>
</svg>
