<svg width="1200px" height="328px" viewBox="0 0 1200 328" version="1.1" xmlns="http://www.w3.org/2000/svg">
  <g stroke="none" stroke-width="1" fill="none" fill-rule="evenodd">
    <rect fill="#F9F9FB" x="0" y="0" width="1200" height="328"></rect>
    <line x1="0" y1="85.5" x2="1200.5" y2="86" stroke="#DEDEE6" stroke-width="2"></line>
    <line x1="0" y1="242.5" x2="1200.5" y2="243" stroke="#DEDEE6" stroke-width="2"></line>
    <path
      d="M516.96,242.44 C518.24,242.44 518.88,241.32 518.88,239.08 C518.88,237.08 518.24,236 516.96,235.84 C510.32,235.04 505.22,233.98 501.66,232.66 C498.1,231.34 495.62,229.54 494.22,227.26 C492.82,224.98 492.12,221.08 492.12,215.56 L492.12,215.56 L492.12,93.76 C492.12,90.24 492.84,87.84 494.28,86.56 C495.72,85.28 498.4,84.64 502.32,84.64 L502.32,84.64 L513.6,84.64 C526.16,84.64 535.64,86.98 542.04,91.66 C548.44,96.34 553.36,104.32 556.8,115.6 C557.12,116.72 557.92,117.28 559.2,117.28 C562.08,117.28 563.52,116.52 563.52,115 C559.84,97.8 557.44,84 556.32,73.6 C545.44,75.84 520.04,76.96 480.12,76.96 L478.9578,76.959664 C440.7438,76.937488 416.2512,75.8176 405.48,73.6 C401.48,88.88 397.24,102.56 392.76,114.64 C392.76,116.4 394.12,117.28 396.84,117.28 C398.2,117.28 399.08,116.68 399.48,115.48 C402.28,106.36 408.28,98.94 417.48,93.22 C426.68,87.5 436.92,84.64 448.2,84.64 L448.2,84.64 L457.56,84.64 C461.56,84.64 464.28,85.28 465.72,86.56 C467.16,87.84 467.88,90.24 467.88,93.76 L467.88,93.76 L467.88,215.56 C467.88,223 466.14,227.96 462.66,230.44 C459.18,232.92 452.6,234.72 442.92,235.84 C441.64,236 441,237.08 441,239.08 C441,241.32 441.64,242.44 442.92,242.44 C448.28,242.44 454.68,242.2 462.12,241.72 C469.24,241.24 475.24,241 480.12,241 C484.84,241 490.72,241.24 497.76,241.72 C505.2,242.2 511.6,242.44 516.96,242.44 Z M693.6,242.44 C694.88,242.44 695.52,241.32 695.52,239.08 C695.52,237.08 694.88,236 693.6,235.84 C686.8,235.04 682.38,233.42 680.34,230.98 C678.3,228.54 677.28,223.4 677.28,215.56 L677.28,215.56 L677.28,169.72 C677.28,159.16 674.02,150.76 667.5,144.52 C660.98,138.28 652.04,135.16 640.68,135.16 C629.56,135.16 618.28,140.6 606.84,151.48 L606.84,151.48 L606.84,110.8 C606.84,96.08 607.48,82.16 608.76,69.04 C608.76,67.76 607.64,67.12 605.4,67.12 C604.6,67.12 603.6,67.6 602.4,68.56 C595.84,73.84 585.72,78.08 572.04,81.28 C570.76,81.28 570.12,82.32 570.12,84.4 C570.12,86.24 570.76,87.24 572.04,87.4 C577.72,88.04 581.34,89.36 582.9,91.36 C584.46,93.36 585.24,97.6 585.24,104.08 L585.24,104.08 L585.24,215.56 C585.24,223.48 584.24,228.66 582.24,231.1 C580.24,233.54 575.88,235.12 569.16,235.84 C567.88,236 567.24,237.08 567.24,239.08 C567.24,241.32 567.88,242.44 569.16,242.44 C572.44,242.44 576.36,242.2 580.92,241.72 C586.04,241.24 590.6,241 594.6,241 C598.52,241 603.44,241.24 609.36,241.72 C614.64,242.2 618.92,242.44 622.2,242.44 C623.48,242.44 624.12,241.32 624.12,239.08 C624.12,237.08 623.48,236 622.2,235.84 C616.12,235.12 612.04,233.36 609.96,230.56 C607.88,227.76 606.84,222.76 606.84,215.56 L606.84,215.56 L606.84,161.56 C614.04,153.56 622.6,149.56 632.52,149.56 C648.2,149.56 656.04,158.2 656.04,175.48 L656.04,175.48 L656.04,215.56 C656.04,223.48 655.18,228.68 653.46,231.16 C651.74,233.64 648.12,235.2 642.6,235.84 C641.32,236 640.68,237.08 640.68,239.08 C640.68,241.32 641.32,242.44 642.6,242.44 C645.8,242.44 649.76,242.2 654.48,241.72 C659.68,241.24 664.28,241 668.28,241 C672.12,241 676.6,241.24 681.72,241.72 C686.44,242.2 690.4,242.44 693.6,242.44 Z M756.12,246.04 C762.68,246.04 768.96,244.64 774.96,241.84 C780.96,239.04 786.52,234.98 791.64,229.66 C796.76,224.34 799.32,220.84 799.32,219.16 C799.32,217.96 798.98,216.92 798.3,216.04 C797.62,215.16 796.92,214.72 796.2,214.72 L796.2,214.72 L795.6,214.96 C792.08,219.68 787.44,223.56 781.68,226.6 C775.92,229.64 770.2,231.16 764.52,231.16 C753.24,231.16 744.54,227.7 738.42,220.78 C732.3,213.86 729.24,203.96 729.24,191.08 C729.24,186.44 729.48,181.96 729.96,177.64 L729.96,177.64 L795.72,177.64 C798.6,177.64 800.04,176.52 800.04,174.28 C800.04,164.44 795.82,155.46 787.38,147.34 C778.94,139.22 768.52,135.16 756.12,135.16 C741.32,135.16 729.1,140.6 719.46,151.48 C709.82,162.36 705,175.64 705,191.32 C705,206.68 709.92,219.64 719.76,230.2 C729.6,240.76 741.72,246.04 756.12,246.04 Z M730.92,170.92 C732.52,162.52 735.58,155.74 740.1,150.58 C744.62,145.42 749.96,142.84 756.12,142.84 C762.6,142.84 767.9,144.82 772.02,148.78 C776.14,152.74 778.2,157.72 778.2,163.72 C778.2,166.04 777.14,167.64 775.02,168.52 C772.9,169.4 769.32,169.88 764.28,169.96 L764.28,169.96 L730.92,170.92 Z"
      fill="#C9C9D6" fill-rule="nonzero"></path>
    <path
      d="M869.4,242.44 C870.68,242.44 871.32,241.32 871.32,239.08 C871.32,237.08 870.68,236 869.4,235.84 C862.52,234.96 858.12,233.32 856.2,230.92 C854.28,228.52 853.32,223.4 853.32,215.56 L853.32,215.56 L853.32,115.36 C853.32,105.04 855.26,96.86 859.14,90.82 C863.02,84.78 867.72,81.76 873.24,81.76 C875.8,81.76 878.72,83 882,85.48 C885.92,88.44 889.8,89.92 893.64,89.92 C897.96,89.92 901.36,89 903.84,87.16 C906.32,85.32 907.56,82.8 907.56,79.6 C907.56,71.92 901.8,68.08 890.28,68.08 C874.84,68.08 861.22,75.46 849.42,90.22 C837.62,104.98 831.72,122.04 831.72,141.4 C831.72,143.56 826.6,145.8 816.36,148.12 C814.92,148.44 814.2,149.64 814.2,151.72 C814.2,153.8 815,154.84 816.6,154.84 L816.6,154.84 L828.84,154.84 C830.76,154.84 831.72,155.96 831.72,158.2 L831.72,158.2 L831.72,215.56 C831.72,223.4 830.74,228.52 828.78,230.92 C826.82,233.32 822.44,234.96 815.64,235.84 C814.36,236 813.72,237.08 813.72,239.08 C813.72,241.32 814.36,242.44 815.64,242.44 C818.92,242.44 823.08,242.2 828.12,241.72 C833.72,241.24 838.52,241 842.52,241 C846.44,241 851.24,241.24 856.92,241.72 C861.96,242.2 866.12,242.44 869.4,242.44 Z"
      fill="#2E3138" fill-rule="nonzero"></path>
    <path
      d="M935.64,246.04 C942.2,246.04 948.48,244.64 954.48,241.84 C960.48,239.04 966.04,234.98 971.16,229.66 C976.28,224.34 978.84,220.84 978.84,219.16 C978.84,217.96 978.5,216.92 977.82,216.04 C977.14,215.16 976.44,214.72 975.72,214.72 L975.72,214.72 L975.12,214.96 C971.6,219.68 966.96,223.56 961.2,226.6 C955.44,229.64 949.72,231.16 944.04,231.16 C932.76,231.16 924.06,227.7 917.94,220.78 C911.82,213.86 908.76,203.96 908.76,191.08 C908.76,186.44 909,181.96 909.48,177.64 L909.48,177.64 L975.24,177.64 C978.12,177.64 979.56,176.52 979.56,174.28 C979.56,164.44 975.34,155.46 966.9,147.34 C958.46,139.22 948.04,135.16 935.64,135.16 C920.84,135.16 908.62,140.6 898.98,151.48 C889.34,162.36 884.52,175.64 884.52,191.32 C884.52,206.68 889.44,219.64 899.28,230.2 C909.12,240.76 921.24,246.04 935.64,246.04 Z M910.44,170.92 C912.04,162.52 915.1,155.74 919.62,150.58 C924.14,145.42 929.48,142.84 935.64,142.84 C942.12,142.84 947.42,144.82 951.54,148.78 C955.66,152.74 957.72,157.72 957.72,163.72 C957.72,166.04 956.66,167.64 954.54,168.52 C952.42,169.4 948.84,169.88 943.8,169.96 L943.8,169.96 L910.44,170.92 Z"
      fill="#C9C9D6" fill-rule="nonzero"></path>
    <path
      d="M255.64,246.04 C266.52,246.04 275.8,242.72 283.48,236.08 C291.16,229.44 295,221.24 295,211.48 C295,206.04 293.12,201.16 289.36,196.84 C285.6,192.52 277.8,187.4 265.96,181.48 C256.04,176.52 249.6,172.48 246.64,169.36 C243.68,166.24 242.2,162.84 242.2,159.16 C242.2,148.28 248.44,142.84 260.92,142.84 C265.8,142.84 270,144.66 273.52,148.3 C277.04,151.94 279.24,156.68 280.12,162.52 C280.36,163.8 281.48,164.44 283.48,164.44 C285.8,164.44 286.96,163.84 286.96,162.64 C286.16,156 285.64,147.96 285.4,138.52 C284.12,138.52 281.4,138.12 277.24,137.32 C269.72,135.88 263.88,135.16 259.72,135.16 C249.8,135.16 241.2,138.18 233.92,144.22 C226.64,150.26 223,157.48 223,165.88 C223,172.68 224.94,178.52 228.82,183.4 C232.7,188.28 240.68,193.48 252.76,199 C261.96,203.24 267.94,206.8 270.7,209.68 C273.46,212.56 274.84,215.88 274.84,219.64 C274.84,225.56 273.18,230.16 269.86,233.44 C266.54,236.72 261.88,238.36 255.88,238.36 C250.12,238.36 244.52,236.16 239.08,231.76 C233.64,227.36 230,222.2 228.16,216.28 C227.76,215 226.6,214.36 224.68,214.36 C222.36,214.36 221.2,214.96 221.2,216.16 C223.52,227.6 225,236.12 225.64,241.72 C227.8,241.72 231.88,242.32 237.88,243.52 C245.88,245.2 251.8,246.04 255.64,246.04 Z"
      fill="#C9C9D6" fill-rule="nonzero"></path>
  </g>
</svg>
