<?xml version="1.0" encoding="UTF-8"?>
<svg width="1200px" height="600px" viewBox="0 0 1200 600" version="1.1" xmlns="http://www.w3.org/2000/svg" xmlns:xlink="http://www.w3.org/1999/xlink">
    <!-- Generator: Sketch 60.1 (88133) - https://sketch.com -->
    <title>implicit-state-sharing copy</title>
    <desc>Created with Sketch.</desc>
    <defs>
        <linearGradient x1="50%" y1="0%" x2="50%" y2="100%" id="linearGradient-1">
            <stop stop-color="#FFFFFF" offset="0%"></stop>
            <stop stop-color="#FCF4F2" offset="100%"></stop>
        </linearGradient>
        <linearGradient x1="100%" y1="100%" x2="0%" y2="0%" id="linearGradient-2">
            <stop stop-color="#FFEAE6" offset="0%"></stop>
            <stop stop-color="#FFFFFF" offset="100%"></stop>
        </linearGradient>
        <linearGradient x1="12.0248655%" y1="9.646%" x2="109.007916%" y2="94.052%" id="linearGradient-3">
            <stop stop-color="#FC9988" offset="0%"></stop>
            <stop stop-color="#FA2500" offset="100%"></stop>
        </linearGradient>
        <linearGradient x1="4.4408921e-14%" y1="29.937%" x2="100%" y2="72.182%" id="linearGradient-4">
            <stop stop-color="#FF9C8B" offset="0%"></stop>
            <stop stop-color="#F52602" offset="100%"></stop>
        </linearGradient>
        <linearGradient x1="5.55111512e-15%" y1="29.937%" x2="100%" y2="72.182%" id="linearGradient-5">
            <stop stop-color="#EBA99D" offset="0%"></stop>
            <stop stop-color="#D75037" offset="100%"></stop>
        </linearGradient>
        <linearGradient x1="5.55111512e-15%" y1="29.937%" x2="100%" y2="72.182%" id="linearGradient-6">
            <stop stop-color="#F59A8A" offset="0%"></stop>
            <stop stop-color="#FB3713" offset="100%"></stop>
        </linearGradient>
    </defs>
    <g id="implicit-state-sharing-copy" stroke="none" stroke-width="1" fill="none" fill-rule="evenodd">
        <rect fill="#F9F9FB" x="0" y="0" width="1200" height="600"></rect>
        <g id="Group-5" transform="translate(181.000000, -98.000000)">
            <path d="M430.746113,792.164212 C649.3602,792.164212 826.582141,614.942271 826.582141,396.328185 C826.582141,177.714098 649.3602,0.492156892 430.746113,0.492156892 C212.132027,0.492156892 34.9100857,177.714098 34.9100857,396.328185 C34.9100857,614.942271 212.132027,792.164212 430.746113,792.164212 L430.746113,792.164212 Z" id="Path" stroke="#F8D0C9" stroke-width="2.56500007" fill="url(#linearGradient-1)" fill-rule="nonzero" stroke-linecap="round" stroke-linejoin="round" stroke-dasharray="0.855000023245811"></path>
            <path d="M386.923739,595.267851 C331.406704,581.812469 281.563101,545.445985 253.935007,497.450052" id="Path" stroke="#F8D0C9" stroke-width="2.56500007" stroke-linecap="round" stroke-dasharray="0"></path>
            <path d="M443.44069,194.258349 C538.558718,200.16437 616.80861,271.347469 631.663873,365.482972" id="Path" stroke="#F8D0C9" stroke-width="2.56500007" stroke-linecap="round" stroke-dasharray="1.710000046491622"></path>
            <path d="M704.027307,354.223056 C705.418494,368.091447 706.201036,385.850811 706.201036,397.219413 C706.201036,479.821111 674.029849,550.880307 616.77383,601.223868" id="Path" stroke="#F8D0C9" stroke-width="2.56500007" stroke-linecap="round" stroke-dasharray="0"></path>
            <path d="M540.780269,652.915141 C505.506743,665.648401 468.333037,672.321735 430.833063,672.652599 C278.752469,672.591734 155.482479,549.321744 155.421614,397.241151 C155.290639,378.455327 157.237083,359.712607 161.22547,341.354581 C169.45648,305.368998 184.605888,271.327127 205.830387,241.123943" id="Path" stroke="#F8D0C9" stroke-width="2.56500007" stroke-linecap="round"></path>
            <path d="M694.158578,301.097123 C697.616068,301.097123 700.418917,303.899972 700.418917,307.357462 C700.418917,310.814952 697.616068,313.617801 694.158578,313.617801 C690.701088,313.617801 687.898239,310.814952 687.898239,307.357462 C687.781012,305.663891 688.402839,304.002524 689.603239,302.802123 C690.80364,301.601722 692.465007,300.979896 694.158578,301.097123 M400.161748,188.758815 C402.693819,188.758815 404.976566,190.284097 405.945547,192.623426 C406.914529,194.962754 406.378921,197.655438 404.588476,199.445882 C402.798032,201.236326 400.105349,201.771934 397.76602,200.802953 C395.426692,199.833971 393.901409,197.551225 393.901409,195.019154 C393.859189,193.346222 394.505191,191.729232 395.688509,190.545914 C396.871826,189.362597 398.488817,188.716594 400.161748,188.758815" id="Shape" fill="#D75037" fill-rule="nonzero"></path>
            <g id="Group" transform="translate(19.563560, 229.269875)">
                <path d="M330.406789,519.391501 L330.406789,363.093874 M17.389831,414.469956 L17.389831,327.244738 M573.751388,258.441871 L573.751388,0.468076284 M729.286037,363.093874 L729.286037,309.502763" id="Shape" stroke="#D75037" stroke-width="2.56500007" stroke-linecap="round" stroke-linejoin="round" stroke-dasharray="0.855000023245811"></path>
                <circle id="Oval" fill="url(#linearGradient-2)" fill-rule="nonzero" cx="573.751388" cy="282.352889" r="17.389831"></circle>
                <circle id="Oval" fill="#A23420" fill-rule="nonzero" cx="573.751388" cy="282.352889" r="8.69491549"></circle>
                <circle id="Oval" fill="url(#linearGradient-2)" fill-rule="nonzero" cx="17.389831" cy="456.251199" r="17.389831"></circle>
                <circle id="Oval" fill="#A23420" fill-rule="nonzero" cx="17.389831" cy="456.251199" r="8.69491549"></circle>
                <circle id="Oval" fill="url(#linearGradient-2)" fill-rule="nonzero" cx="728.199172" cy="401.907977" r="17.389831"></circle>
                <circle id="Oval" fill="#A23420" fill-rule="nonzero" cx="728.199172" cy="401.907977" r="8.69491549"></circle>
            </g>
            <path d="M659.059378,307.024157 C659.059378,304.902597 660.348399,303.926593 661.935221,304.843907 L832.588154,405.510015 C835.805273,407.370727 838.413747,412.372477 838.413747,416.669939 L838.413747,556.823282 C838.413747,561.120744 835.805273,563.098837 832.588154,561.235952 L664.884971,464.161568 C661.667853,462.300856 659.059378,457.299106 659.059378,453.003818 L659.059378,307.024157 Z" id="Path" fill="url(#linearGradient-3)" fill-rule="nonzero" transform="translate(748.736563, 433.218057) scale(-1, 1) translate(-748.736563, -433.218057) "></path>
            <path d="M-9.02389274e-13,383.038006 C-9.02389274e-13,379.666553 1.99765683,378.11451 4.45614419,379.573082 L84.6667396,427.177745 C87.1252269,428.638491 89.1228838,432.562071 89.1228838,435.931351 L89.1228838,557.605825 C89.1228838,560.977278 87.1252269,562.52932 84.6667396,561.068575 L4.45614419,513.463912 C1.99765683,512.00534 -9.02389274e-13,508.083933 -9.02389274e-13,504.71248 L-9.02389274e-13,383.038006 Z" id="Path" fill="url(#linearGradient-4)" fill-rule="nonzero"></path>
            <path d="M547.388405,50.9651764 C547.388405,47.5937229 549.386062,46.0416805 551.844549,47.5002526 L632.055144,95.1049149 C634.513632,96.5656607 636.511288,100.489241 636.511288,103.858521 L636.511288,225.532995 C636.511288,228.904448 634.513632,230.456491 632.055144,228.995745 L551.844549,181.391082 C549.386062,179.93251 547.388405,176.011104 547.388405,172.63965 L547.388405,50.9651764 Z" id="Path-Copy" fill="url(#linearGradient-4)" fill-rule="nonzero"></path>
            <path d="M573.994846,101.502491 C573.994846,100.05009 574.838085,99.3814807 575.875846,100.009824 L609.733847,120.517602 C610.771609,121.146882 611.614847,122.837135 611.614847,124.288599 L611.614847,176.705169 C611.614847,178.15757 610.771609,178.826179 609.733847,178.1969 L575.875846,157.689121 C574.838085,157.060778 573.994846,155.371461 573.994846,153.919061 L573.994846,101.502491 Z" id="Path-Copy" stroke="#FFFFFF" stroke-width="3.42000009" fill-rule="nonzero"></path>
            <path d="M536.737133,296.241012 L250.735278,131.118046 C242.518583,126.37497 235.849583,131.418021 235.849583,142.37144 L235.849583,401.312545 C235.849583,412.268138 242.520757,425.010537 250.735278,429.753613 L536.737133,594.87658 C544.951655,599.619656 551.622829,594.578779 551.622829,583.623185 L551.622829,324.682081 C551.622829,313.728661 544.951655,300.984089 536.737133,296.241012 Z" id="Path" fill-opacity="0.2" fill="url(#linearGradient-5)" fill-rule="nonzero"></path>
            <path d="M525.538082,344.245641 C525.538082,333.292221 518.866908,320.547649 510.652387,315.804572 L224.650532,150.681606 C216.433836,145.938529 209.764836,150.98158 209.764836,161.935 L209.764836,420.876105 C209.764836,431.831698 216.43601,444.574097 224.650532,449.317173 L510.652387,614.44014 C518.866908,619.183216 525.538082,614.142339 525.538082,603.186745 L525.538082,344.245641 L525.538082,344.245641 Z" id="Path" fill-opacity="0.4" fill="url(#linearGradient-5)" fill-rule="nonzero"></path>
            <g id="Group-4" transform="translate(179.738395, 165.796992)">
                <path d="M315.773246,218.432727 C315.773246,207.479307 309.102072,194.734735 300.887551,189.991659 L14.8856953,24.8686922 C6.66900018,20.1256158 -4.54747351e-13,25.1686667 -4.54747351e-13,36.1220865 L-4.54747351e-13,295.063191 C-4.54747351e-13,306.018785 6.67117391,318.761183 14.8856953,323.50426 L300.887551,488.627226 C309.102072,493.370302 315.773246,488.329425 315.773246,477.373832 L315.773246,218.432727 L315.773246,218.432727 Z" id="Path-Copy-2" fill="url(#linearGradient-6)" fill-rule="nonzero"></path>
                <path d="M72.9785994,107.900406 C72.9785994,103.276885 70.1636206,97.8990794 66.696523,95.8970752 L39.6270773,80.2679646 C36.1599798,78.2659603 33.3450009,80.3940408 33.3450009,85.0175621 C33.3450009,89.6410835 36.1599798,95.0188887 39.6270773,97.020893 L66.696523,112.650004 C70.1636206,114.649834 72.9785994,112.521754 72.9785994,107.900406 Z" id="Path-Copy-3" fill="#A23420" fill-rule="nonzero"></path>
                <path d="M72.9785994,170.315408 C72.9785994,165.691886 70.1636206,160.314081 66.696523,158.312077 L39.6270773,142.682966 C36.1599798,140.680962 33.3450009,142.809043 33.3450009,147.432564 C33.3450009,152.056085 36.1599798,157.43389 39.6270773,159.435895 L66.696523,175.065005 C70.1636206,177.064836 72.9785994,174.936755 72.9785994,170.315408 Z" id="Path-Copy-3" fill="#F8D0C9" fill-rule="nonzero"></path>
                <path d="M205.503603,183.995408 C205.503603,179.371887 202.688624,173.994082 199.221527,171.992077 L172.152081,156.362967 C168.684983,154.360962 165.870005,156.489043 165.870005,161.112564 C165.870005,165.736086 168.684983,171.113891 172.152081,173.115895 L199.221527,188.745006 C202.688624,190.744836 205.503603,188.616756 205.503603,183.995408 Z" id="Path-Copy-4" fill="#A23420" fill-rule="nonzero"></path>
                <path d="M205.503603,245.55541 C205.503603,240.931888 202.688624,235.554083 199.221527,233.552079 L172.152081,217.922968 C168.684983,215.920964 165.870005,218.049045 165.870005,222.672566 C165.870005,227.296087 168.684983,232.673892 172.152081,234.675897 L199.221527,250.305007 C202.688624,252.304838 205.503603,250.176757 205.503603,245.55541 Z" id="Path-Copy-4" fill="#F8D0C9" fill-rule="nonzero"></path>
                <path d="M72.9785994,288.305411 C72.9785994,283.68189 70.1636206,278.304084 66.696523,276.30208 L39.6270773,260.672969 C36.1599798,258.670965 33.3450009,260.799046 33.3450009,265.422567 C33.3450009,270.046088 36.1599798,275.423894 39.6270773,277.425898 L66.696523,293.055008 C70.1636206,295.054839 72.9785994,292.926758 72.9785994,288.305411 Z" id="Path-Copy-3" fill="#F8D0C9" fill-rule="nonzero"></path>
                <path d="M205.503603,363.545413 C205.503603,358.921892 202.688624,353.544086 199.221527,351.542082 L172.152081,335.912972 C168.684983,333.910967 165.870005,336.039048 165.870005,340.662569 C165.870005,345.28609 168.684983,350.663896 172.152081,352.6659 L199.221527,368.295011 C202.688624,370.294841 205.503603,368.166761 205.503603,363.545413 Z" id="Path-Copy-4" fill="#F8D0C9" fill-rule="nonzero"></path>
                <path d="M72.9785994,225.890409 C72.9785994,221.266888 70.1636206,215.889083 66.696523,213.887078 L39.6270773,198.257968 C36.1599798,196.255963 33.3450009,198.384044 33.3450009,203.007565 C33.3450009,207.631087 36.1599798,213.008892 39.6270773,215.010896 L66.696523,230.640007 C70.1636206,232.639837 72.9785994,230.511757 72.9785994,225.890409 Z" id="Path-Copy-3" fill="#A23420" fill-rule="nonzero"></path>
                <path d="M205.503603,301.985411 C205.503603,297.36189 202.688624,291.984085 199.221527,289.98208 L172.152081,274.35297 C168.684983,272.350966 165.870005,274.479046 165.870005,279.102567 C165.870005,283.726089 168.684983,289.103894 172.152081,291.105898 L199.221527,306.735009 C202.688624,308.734839 205.503603,306.606759 205.503603,301.985411 Z" id="Path-Copy-4" fill="#A23420" fill-rule="nonzero"></path>
                <path d="M43.7861994,110.163402 L135.763805,161.726605 C142.212108,165.341563 146.205004,172.157541 146.205004,179.550005 C146.205004,183.422733 143.065537,186.5622 139.192809,186.5622 C137.991978,186.5622 136.811267,186.253819 135.763805,185.666606 L43.7861994,134.103403 C37.3378974,130.488445 33.3450009,123.672467 33.3450009,116.280003 C33.3450009,112.407275 36.4844675,109.267808 40.3571957,109.267808 C41.5580267,109.267808 42.7387379,109.576189 43.7861994,110.163402 Z" id="Rectangle" fill="#FFFFFF"></path>
                <path d="M176.311203,186.258404 L268.288809,237.821607 C274.737111,241.436565 278.730008,248.252544 278.730008,255.645007 C278.730008,259.517735 275.590541,262.657202 271.717813,262.657202 C270.516982,262.657202 269.336271,262.348821 268.288809,261.761608 L176.311203,210.198405 C169.862901,206.583448 165.870005,199.767469 165.870005,192.375005 C165.870005,188.502277 169.009471,185.36281 172.882199,185.36281 C174.08303,185.36281 175.263741,185.671191 176.311203,186.258404 Z" id="Rectangle-Copy-11" fill="#FFFFFF"></path>
                <path d="M43.7861994,228.153405 L135.763805,279.716609 C142.212108,283.331566 146.205004,290.147545 146.205004,297.540008 C146.205004,301.412736 143.065537,304.552203 139.192809,304.552203 C137.991978,304.552203 136.811267,304.243823 135.763805,303.656609 L43.7861994,252.093406 C37.3378974,248.478449 33.3450009,241.66247 33.3450009,234.270006 C33.3450009,230.397278 36.4844675,227.257812 40.3571957,227.257812 C41.5580267,227.257812 42.7387379,227.566192 43.7861994,228.153405 Z" id="Rectangle" fill="#FFFFFF"></path>
                <path d="M176.311203,304.248407 L268.288809,355.811611 C274.737111,359.426568 278.730008,366.242547 278.730008,373.63501 C278.730008,377.507738 275.590541,380.647205 271.717813,380.647205 C270.516982,380.647205 269.336271,380.338825 268.288809,379.751611 L176.311203,328.188408 C169.862901,324.573451 165.870005,317.757472 165.870005,310.365008 C165.870005,306.49228 169.009471,303.352814 172.882199,303.352814 C174.08303,303.352814 175.263741,303.661194 176.311203,304.248407 Z" id="Rectangle-Copy-11" fill="#FFFFFF"></path>
                <path d="M315.773246,195.347726 C315.773246,184.394307 309.102072,171.649734 300.887551,166.906658 L14.8856953,1.78369154 C6.66900018,-2.95938486 -3.12638804e-13,2.08366612 -3.12638804e-13,13.0370859 L-3.12638804e-13,31.0181711 L315.773246,213.328812 L315.773246,195.347726 Z" id="Path-Copy-5" fill="#F8D0C9" fill-rule="nonzero"></path>
                <path d="M20.7337506,17.6368484 C23.2118015,19.067162 25.220327,22.9103146 25.220327,26.2122088 C25.220327,29.514103 23.2096277,31.0357132 20.7337506,29.6053996 C18.2556996,28.175086 16.2450004,24.334107 16.2450004,21.0300392 C16.2450004,17.728145 18.2556996,16.2087085 20.7337506,17.6368484 Z" id="Path-Copy-6" fill="#D75037" fill-rule="nonzero"></path>
                <path d="M39.5582426,28.5054928 C42.0362935,29.9358064 44.0469927,33.778959 44.0469927,37.0808532 C44.0469927,40.3827473 42.0362935,41.9043575 39.5582426,40.4740439 C37.0801917,39.0437303 35.0716662,35.2027514 35.0716662,31.8986835 C35.0716662,28.5967894 37.0823654,27.0773529 39.5582426,28.5054928 Z M58.3827346,39.3741371 C60.8607856,40.8044507 62.8714848,44.6476034 62.8714848,47.9494975 C62.8714848,51.2513917 60.8607856,52.7730019 58.3827346,51.3426883 C55.9046837,49.9123747 53.8961582,46.0713958 53.8961582,42.7673279 C53.8961582,39.4654337 55.9068575,37.9459973 58.3827346,39.3741371 Z" id="Shape-Copy" fill="#D75037" fill-rule="nonzero"></path>
            </g>
            <path d="M703.561718,422.266105 L798.195103,364.157888 C802.067508,361.780096 807.134294,362.991719 809.512086,366.864123 C810.307405,368.159357 810.728412,369.649576 810.728412,371.169497 C810.728412,380.30807 805.982732,388.791012 798.195103,393.572889 L703.561718,451.681108 C699.689313,454.058901 694.622527,452.847278 692.244734,448.974873 C691.449415,447.679639 691.028409,446.18942 691.028409,444.669498 C691.028409,435.530925 695.774089,427.047983 703.561718,422.266105 Z" id="Rectangle" stroke="#FFFFFF" stroke-width="3.42000009"></path>
            <path d="M703.561718,468.436107 L798.195103,410.327889 C802.067508,407.950097 807.134294,409.16172 809.512086,413.034125 C810.307405,414.329358 810.728412,415.819577 810.728412,417.339499 C810.728412,426.478071 805.982732,434.961013 798.195103,439.74289 L703.561718,497.851109 C699.689313,500.228902 694.622527,499.017279 692.244734,495.144874 C691.449415,493.84964 691.028409,492.359422 691.028409,490.8395 C691.028409,481.700927 695.774089,473.217984 703.561718,468.436107 Z" id="Rectangle" stroke="#FFFFFF" stroke-width="3.42000009"></path>
            <path d="M50.4350653,446.004832 C51.3761332,446.555149 51.7990972,448.002494 51.3797818,449.237567 C50.9604665,450.47264 49.8576581,451.027746 48.9165902,450.477429 C42.1249395,446.505815 34.1517761,448.870044 29.3208786,456.288014 C24.4899811,463.705983 23.9521494,474.410611 27.9990451,482.596867 C32.0459408,490.783124 39.7135262,494.500908 46.843735,491.734097 C53.8813436,489.003218 58.7407402,480.597173 58.8698588,470.99765 L58.8724929,470.618112 L58.8724929,468.365724 C58.8724929,467.013595 59.707683,465.917477 60.7379422,465.917477 C61.7269911,465.917477 62.5362642,466.927659 62.5994236,468.204752 L62.6033915,468.365724 L62.6033915,470.619512 C62.5981952,482.546282 56.6162752,493.04799 47.9015756,496.429649 C39.186876,499.811307 29.8153827,495.267349 24.8691768,485.261924 C19.922971,475.256499 20.5803208,462.173065 26.4847511,453.106658 C32.3891814,444.040251 42.134159,441.150638 50.4350653,446.004832 Z M62.9067945,448.655087 C63.6097837,449.558795 63.640893,451.000282 62.9997232,451.951579 L62.9081239,452.078167 L44.0981234,476.307202 C43.3955883,477.212132 42.2749033,477.251828 41.5356859,476.426031 L41.4373231,476.308057 L35.7943229,469.046608 C35.0597467,468.101351 35.0597467,466.568786 35.7943229,465.623528 C36.4969611,464.719369 37.6171815,464.680058 38.3561311,465.505595 L38.4544587,465.623528 L42.7666386,471.172986 L60.2466591,448.656798 C60.9808681,447.711068 62.1718513,447.710303 62.9067945,448.655087 Z" id="Shape" fill="#FFFFFF" fill-rule="nonzero"></path>
            <line x1="585.863406" y1="147.841991" x2="600.398406" y2="131.596991" id="Line-2" stroke="#FFFFFF" stroke-width="3.42000009" stroke-linecap="round"></line>
            <line x1="585.863406" y1="157.117156" x2="600.398406" y2="121.706626" id="Line-2" stroke="#FFFFFF" stroke-width="3.42000009" stroke-linecap="round" transform="translate(593.130906, 139.411891) scale(-1, 1) translate(-593.130906, -139.411891) "></line>
            <polygon id="Triangle" fill="#FFFFFF" transform="translate(796.820130, 379.150616) rotate(-180.000000) translate(-796.820130, -379.150616) " points="796.82013 374.416998 800.866848 379.06244 792.773411 383.884235"></polygon>
        </g>
    </g>
</svg>