<?xml version="1.0" encoding="UTF-8"?>
<svg width="592px" height="592px" viewBox="0 0 592 592" version="1.1" xmlns="http://www.w3.org/2000/svg">
  <defs>
    <linearGradient x1="100%" y1="50%" x2="0%" y2="50%" id="linearGradient-1">
      <stop stop-color="#8D8DA6" stop-opacity="0" offset="0%"></stop>
      <stop stop-color="#C1C1D2" offset="51.8607475%"></stop>
      <stop stop-color="#C1C1D2" stop-opacity="0" offset="100%"></stop>
    </linearGradient>
  </defs>
  <g stroke="none" stroke-width="1" fill="none" fill-rule="evenodd">
    <rect stroke="#C9C9D6" stroke-width="3" x="81.5" y="81.5" width="117" height="117" rx="8"></rect>
    <rect stroke="#DEDEE6" stroke-width="3" x="81.5" y="-74.5" width="117" height="117"
          rx="8"></rect>
    <rect stroke="#DEDEE6" stroke-width="3" x="81.5" y="544.5" width="117" height="117"
          rx="8"></rect>
    <rect stroke="#C9C9D6" stroke-width="3" x="81.5" y="388.5" width="117" height="117"
          rx="8"></rect>
    <rect stroke="#C9C9D6" stroke-width="3" x="237.5" y="81.5" width="117" height="117"
          rx="8"></rect>
    <rect stroke="#DEDEE6" stroke-width="3" x="237.5" y="-74.5" width="117" height="117"
          rx="8"></rect>
    <rect stroke="#DEDEE6" stroke-width="3" x="237.5" y="544.5" width="117" height="117"
          rx="8"></rect>
    <rect stroke="#C9C9D6" stroke-width="3" x="237.5" y="388.5" width="117" height="117"
          rx="8"></rect>
    <rect stroke="#C9C9D6" stroke-width="3" x="393.5" y="81.5" width="117" height="117"
          rx="8"></rect>
    <rect stroke="#DEDEE6" stroke-width="3" x="393.5" y="-74.5" width="117" height="117"
          rx="8"></rect>
    <rect stroke="#DEDEE6" stroke-width="3" x="393.5" y="544.5" width="117" height="117"
          rx="8"></rect>
    <rect stroke="#C9C9D6" stroke-width="3" x="393.5" y="388.5" width="117" height="117"
          rx="8"></rect>
    <rect stroke="#8D8DA6" stroke-width="3" fill-opacity="0.25" fill="#8D8DA6" x="81.5"
          y="237.5" width="117" height="117" rx="8"></rect>
    <rect stroke="#8D8DA6" stroke-width="3" fill-opacity="0.25" fill="#8D8DA6" x="237.5"
          y="237.5" width="117" height="117" rx="8"></rect>
    <rect stroke="#8D8DA6" stroke-width="3" fill-opacity="0.25" fill="#8D8DA6" x="393.5"
          y="237.5" width="117" height="117" rx="8"></rect>
    <path
      d="M-0.950651769,370 L-0.950651769,373 L6.04934823,373 L6.04934823,370 L-0.950651769,370 Z M10.0493482,370 L10.0493482,373 L17.0493482,373 L17.0493482,370 L10.0493482,370 Z M21.0493482,370 L21.0493482,373 L28.0493482,373 L28.0493482,370 L21.0493482,370 Z M32.0493482,370 L32.0493482,373 L39.0493482,373 L39.0493482,370 L32.0493482,370 Z M43.0493482,370 L43.0493482,373 L50.0493482,373 L50.0493482,370 L43.0493482,370 Z M54.0493482,370 L54.0493482,373 L61.0493482,373 L61.0493482,370 L54.0493482,370 Z M65.0493482,370 L65.0493482,373 L72.0493482,373 L72.0493482,370 L65.0493482,370 Z M76.0493482,370 L76.0493482,373 L83.0493482,373 L83.0493482,370 L76.0493482,370 Z M87.0493482,370 L87.0493482,373 L94.0493482,373 L94.0493482,370 L87.0493482,370 Z M98.0493482,370 L98.0493482,373 L105.049348,373 L105.049348,370 L98.0493482,370 Z M109.049348,370 L109.049348,373 L116.049348,373 L116.049348,370 L109.049348,370 Z M120.049348,370 L120.049348,373 L127.049348,373 L127.049348,370 L120.049348,370 Z M131.049348,370 L131.049348,373 L138.049348,373 L138.049348,370 L131.049348,370 Z M142.049348,370 L142.049348,373 L149.049348,373 L149.049348,370 L142.049348,370 Z M153.049348,370 L153.049348,373 L160.049348,373 L160.049348,370 L153.049348,370 Z M164.049348,370 L164.049348,373 L171.049348,373 L171.049348,370 L164.049348,370 Z M175.049348,370 L175.049348,373 L182.049348,373 L182.049348,370 L175.049348,370 Z M186.049348,370 L186.049348,373 L193.049348,373 L193.049348,370 L186.049348,370 Z M197.049348,370 L197.049348,373 L204.049348,373 L204.049348,370 L197.049348,370 Z M208.049348,370 L208.049348,373 L215.049348,373 L215.049348,370 L208.049348,370 Z M219.049348,370 L219.049348,373 L226.049348,373 L226.049348,370 L219.049348,370 Z M230.049348,370 L230.049348,373 L237.049348,373 L237.049348,370 L230.049348,370 Z M241.049348,370 L241.049348,373 L248.049348,373 L248.049348,370 L241.049348,370 Z M252.049348,370 L252.049348,373 L259.049348,373 L259.049348,370 L252.049348,370 Z M263.049348,370 L263.049348,373 L270.049348,373 L270.049348,370 L263.049348,370 Z M274.049348,370 L274.049348,373 L281.049348,373 L281.049348,370 L274.049348,370 Z M285.049348,370 L285.049348,373 L292.049348,373 L292.049348,370 L285.049348,370 Z M296.049348,370 L296.049348,373 L303.049348,373 L303.049348,370 L296.049348,370 Z M307.049348,370 L307.049348,373 L314.049348,373 L314.049348,370 L307.049348,370 Z M318.049348,370 L318.049348,373 L325.049348,373 L325.049348,370 L318.049348,370 Z M329.049348,370 L329.049348,373 L336.049348,373 L336.049348,370 L329.049348,370 Z M340.049348,370 L340.049348,373 L347.049348,373 L347.049348,370 L340.049348,370 Z M351.049348,370 L351.049348,373 L358.049348,373 L358.049348,370 L351.049348,370 Z M362.049348,370 L362.049348,373 L369.049348,373 L369.049348,370 L362.049348,370 Z M373.049348,370 L373.049348,373 L380.049348,373 L380.049348,370 L373.049348,370 Z M384.049348,370 L384.049348,373 L391.049348,373 L391.049348,370 L384.049348,370 Z M395.049348,370 L395.049348,373 L402.049348,373 L402.049348,370 L395.049348,370 Z M406.049348,370 L406.049348,373 L413.049348,373 L413.049348,370 L406.049348,370 Z M417.049348,370 L417.049348,373 L424.049348,373 L424.049348,370 L417.049348,370 Z M428.049348,370 L428.049348,373 L435.049348,373 L435.049348,370 L428.049348,370 Z M439.049348,370 L439.049348,373 L446.049348,373 L446.049348,370 L439.049348,370 Z M450.049348,370 L450.049348,373 L457.049348,373 L457.049348,370 L450.049348,370 Z M461.049348,370 L461.049348,373 L468.049348,373 L468.049348,370 L461.049348,370 Z M472.049348,370 L472.049348,373 L479.049348,373 L479.049348,370 L472.049348,370 Z M483.049348,370 L483.049348,373 L490.049348,373 L490.049348,370 L483.049348,370 Z M494.049348,370 L494.049348,373 L501.049348,373 L501.049348,370 L494.049348,370 Z M505.049348,370 L505.049348,373 L512.049348,373 L512.049348,370 L505.049348,370 Z M516.049348,370 L516.049348,373 L523.049348,373 L523.049348,370 L516.049348,370 Z M527.049348,370 L527.049348,373 L534.049348,373 L534.049348,370 L527.049348,370 Z M538.049348,370 L538.049348,373 L545.049348,373 L545.049348,370 L538.049348,370 Z M549.049348,370 L549.049348,373 L556.049348,373 L556.049348,370 L549.049348,370 Z M560.049348,370 L560.049348,373 L567.049348,373 L567.049348,370 L560.049348,370 Z M571.049348,370 L571.049348,373 L578.049348,373 L578.049348,370 L571.049348,370 Z M582.049348,370 L582.049348,373 L589.049348,373 L589.049348,370 L582.049348,370 Z"
      fill="url(#linearGradient-1)" fill-rule="nonzero"></path>
    <path
      d="M-0.950651769,220 L-0.950651769,223 L6.04934823,223 L6.04934823,220 L-0.950651769,220 Z M10.0493482,220 L10.0493482,223 L17.0493482,223 L17.0493482,220 L10.0493482,220 Z M21.0493482,220 L21.0493482,223 L28.0493482,223 L28.0493482,220 L21.0493482,220 Z M32.0493482,220 L32.0493482,223 L39.0493482,223 L39.0493482,220 L32.0493482,220 Z M43.0493482,220 L43.0493482,223 L50.0493482,223 L50.0493482,220 L43.0493482,220 Z M54.0493482,220 L54.0493482,223 L61.0493482,223 L61.0493482,220 L54.0493482,220 Z M65.0493482,220 L65.0493482,223 L72.0493482,223 L72.0493482,220 L65.0493482,220 Z M76.0493482,220 L76.0493482,223 L83.0493482,223 L83.0493482,220 L76.0493482,220 Z M87.0493482,220 L87.0493482,223 L94.0493482,223 L94.0493482,220 L87.0493482,220 Z M98.0493482,220 L98.0493482,223 L105.049348,223 L105.049348,220 L98.0493482,220 Z M109.049348,220 L109.049348,223 L116.049348,223 L116.049348,220 L109.049348,220 Z M120.049348,220 L120.049348,223 L127.049348,223 L127.049348,220 L120.049348,220 Z M131.049348,220 L131.049348,223 L138.049348,223 L138.049348,220 L131.049348,220 Z M142.049348,220 L142.049348,223 L149.049348,223 L149.049348,220 L142.049348,220 Z M153.049348,220 L153.049348,223 L160.049348,223 L160.049348,220 L153.049348,220 Z M164.049348,220 L164.049348,223 L171.049348,223 L171.049348,220 L164.049348,220 Z M175.049348,220 L175.049348,223 L182.049348,223 L182.049348,220 L175.049348,220 Z M186.049348,220 L186.049348,223 L193.049348,223 L193.049348,220 L186.049348,220 Z M197.049348,220 L197.049348,223 L204.049348,223 L204.049348,220 L197.049348,220 Z M208.049348,220 L208.049348,223 L215.049348,223 L215.049348,220 L208.049348,220 Z M219.049348,220 L219.049348,223 L226.049348,223 L226.049348,220 L219.049348,220 Z M230.049348,220 L230.049348,223 L237.049348,223 L237.049348,220 L230.049348,220 Z M241.049348,220 L241.049348,223 L248.049348,223 L248.049348,220 L241.049348,220 Z M252.049348,220 L252.049348,223 L259.049348,223 L259.049348,220 L252.049348,220 Z M263.049348,220 L263.049348,223 L270.049348,223 L270.049348,220 L263.049348,220 Z M274.049348,220 L274.049348,223 L281.049348,223 L281.049348,220 L274.049348,220 Z M285.049348,220 L285.049348,223 L292.049348,223 L292.049348,220 L285.049348,220 Z M296.049348,220 L296.049348,223 L303.049348,223 L303.049348,220 L296.049348,220 Z M307.049348,220 L307.049348,223 L314.049348,223 L314.049348,220 L307.049348,220 Z M318.049348,220 L318.049348,223 L325.049348,223 L325.049348,220 L318.049348,220 Z M329.049348,220 L329.049348,223 L336.049348,223 L336.049348,220 L329.049348,220 Z M340.049348,220 L340.049348,223 L347.049348,223 L347.049348,220 L340.049348,220 Z M351.049348,220 L351.049348,223 L358.049348,223 L358.049348,220 L351.049348,220 Z M362.049348,220 L362.049348,223 L369.049348,223 L369.049348,220 L362.049348,220 Z M373.049348,220 L373.049348,223 L380.049348,223 L380.049348,220 L373.049348,220 Z M384.049348,220 L384.049348,223 L391.049348,223 L391.049348,220 L384.049348,220 Z M395.049348,220 L395.049348,223 L402.049348,223 L402.049348,220 L395.049348,220 Z M406.049348,220 L406.049348,223 L413.049348,223 L413.049348,220 L406.049348,220 Z M417.049348,220 L417.049348,223 L424.049348,223 L424.049348,220 L417.049348,220 Z M428.049348,220 L428.049348,223 L435.049348,223 L435.049348,220 L428.049348,220 Z M439.049348,220 L439.049348,223 L446.049348,223 L446.049348,220 L439.049348,220 Z M450.049348,220 L450.049348,223 L457.049348,223 L457.049348,220 L450.049348,220 Z M461.049348,220 L461.049348,223 L468.049348,223 L468.049348,220 L461.049348,220 Z M472.049348,220 L472.049348,223 L479.049348,223 L479.049348,220 L472.049348,220 Z M483.049348,220 L483.049348,223 L490.049348,223 L490.049348,220 L483.049348,220 Z M494.049348,220 L494.049348,223 L501.049348,223 L501.049348,220 L494.049348,220 Z M505.049348,220 L505.049348,223 L512.049348,223 L512.049348,220 L505.049348,220 Z M516.049348,220 L516.049348,223 L523.049348,223 L523.049348,220 L516.049348,220 Z M527.049348,220 L527.049348,223 L534.049348,223 L534.049348,220 L527.049348,220 Z M538.049348,220 L538.049348,223 L545.049348,223 L545.049348,220 L538.049348,220 Z M549.049348,220 L549.049348,223 L556.049348,223 L556.049348,220 L549.049348,220 Z M560.049348,220 L560.049348,223 L567.049348,223 L567.049348,220 L560.049348,220 Z M571.049348,220 L571.049348,223 L578.049348,223 L578.049348,220 L571.049348,220 Z M582.049348,220 L582.049348,223 L589.049348,223 L589.049348,220 L582.049348,220 Z"
      fill="url(#linearGradient-1)" fill-rule="nonzero"></path>
  </g>
</svg>
