<?xml version="1.0" encoding="UTF-8"?>
<svg width="592px" height="592px" viewBox="0 0 592 592" version="1.1" xmlns="http://www.w3.org/2000/svg" xmlns:xlink="http://www.w3.org/1999/xlink">
    <!-- Generator: Sketch 60.1 (88133) - https://sketch.com -->
    <title>intersection-observer</title>
    <desc>Created with Sketch.</desc>
    <defs>
        <linearGradient x1="100%" y1="50%" x2="0%" y2="50%" id="linearGradient-1">
            <stop stop-color="#8D8DA6" stop-opacity="0" offset="0%"></stop>
            <stop stop-color="#C1C1D2" offset="51.8607475%"></stop>
            <stop stop-color="#C1C1D2" stop-opacity="0" offset="100%"></stop>
        </linearGradient>
    </defs>
    <g id="intersection-observer" stroke="none" stroke-width="1" fill="none" fill-rule="evenodd">
        <rect id="Rectangle-13" stroke="#C9C9D6" stroke-width="3" x="3.5" y="81.5" width="117" height="117" rx="8"></rect>
        <rect id="Rectangle-13-Copy-9" stroke="#DEDEE6" stroke-width="3" x="3.5" y="-74.5" width="117" height="117" rx="8"></rect>
        <rect id="Rectangle-13-Copy-12" stroke="#DEDEE6" stroke-width="3" x="3.5" y="544.5" width="117" height="117" rx="8"></rect>
        <rect id="Rectangle-13-Copy-3" stroke="#8D8DA6" stroke-width="3" fill-opacity="0.25" fill="#8D8DA6" x="3.5" y="237.5" width="117" height="117" rx="8"></rect>
        <rect id="Rectangle-13-Copy-6" stroke="#C9C9D6" stroke-width="3" x="3.5" y="388.5" width="117" height="117" rx="8"></rect>
        <rect id="Rectangle-13-Copy" stroke="#C9C9D6" stroke-width="3" x="159.5" y="81.5" width="117" height="117" rx="8"></rect>
        <rect id="Rectangle-13-Copy-10" stroke="#DEDEE6" stroke-width="3" x="159.5" y="-74.5" width="117" height="117" rx="8"></rect>
        <rect id="Rectangle-13-Copy-13" stroke="#DEDEE6" stroke-width="3" x="159.5" y="544.5" width="117" height="117" rx="8"></rect>
        <rect id="Rectangle-13-Copy-4" stroke="#8D8DA6" stroke-width="3" fill-opacity="0.25" fill="#8D8DA6" x="159.5" y="237.5" width="117" height="117" rx="8"></rect>
        <rect id="Rectangle-13-Copy-7" stroke="#C9C9D6" stroke-width="3" x="159.5" y="388.5" width="117" height="117" rx="8"></rect>
        <rect id="Rectangle-13-Copy-2" stroke="#C9C9D6" stroke-width="3" x="315.5" y="81.5" width="117" height="117" rx="8"></rect>
        <rect id="Rectangle-13-Copy-11" stroke="#DEDEE6" stroke-width="3" x="315.5" y="-74.5" width="117" height="117" rx="8"></rect>
        <rect id="Rectangle-13-Copy-14" stroke="#DEDEE6" stroke-width="3" x="315.5" y="544.5" width="117" height="117" rx="8"></rect>
        <rect id="Rectangle-13-Copy-5" stroke="#8D8DA6" stroke-width="3" fill-opacity="0.25" fill="#8D8DA6" x="315.5" y="237.5" width="117" height="117" rx="8"></rect>
        <rect id="Rectangle-13-Copy-8" stroke="#C9C9D6" stroke-width="3" x="315.5" y="388.5" width="117" height="117" rx="8"></rect>
        <rect id="Rectangle-13-Copy-15" stroke="#C9C9D6" stroke-width="3" x="471.5" y="81.5" width="117" height="117" rx="8"></rect>
        <rect id="Rectangle-13-Copy-16" stroke="#DEDEE6" stroke-width="3" x="471.5" y="-74.5" width="117" height="117" rx="8"></rect>
        <rect id="Rectangle-13-Copy-17" stroke="#DEDEE6" stroke-width="3" x="471.5" y="544.5" width="117" height="117" rx="8"></rect>
        <rect id="Rectangle-13-Copy-18" stroke="#8D8DA6" stroke-width="3" fill-opacity="0.25" fill="#8D8DA6" x="471.5" y="237.5" width="117" height="117" rx="8"></rect>
        <rect id="Rectangle-13-Copy-19" stroke="#C9C9D6" stroke-width="3" x="471.5" y="388.5" width="117" height="117" rx="8"></rect>
        <line x1="0.549348231" y1="371.5" x2="589.450652" y2="371.5" id="Line-7" stroke="url(#linearGradient-1)" stroke-width="3" stroke-linecap="square" stroke-dasharray="4,7"></line>
        <line x1="0.549348231" y1="221.5" x2="589.450652" y2="221.5" id="Line-7" stroke="url(#linearGradient-1)" stroke-width="3" stroke-linecap="square" stroke-dasharray="4,7"></line>
    </g>
</svg>