<?xml version="1.0" encoding="UTF-8"?>
<svg width="1200px" height="328px" viewBox="0 0 1200 328" version="1.1" xmlns="http://www.w3.org/2000/svg" xmlns:xlink="http://www.w3.org/1999/xlink">
    <!-- Generator: Sketch 60.1 (88133) - https://sketch.com -->
    <title>lining-nums copy</title>
    <desc>Created with Sketch.</desc>
    <g id="lining-nums-copy" stroke="none" stroke-width="1" fill="none" fill-rule="evenodd">
        <rect fill="#F9F9FB" x="0" y="0" width="1200" height="328"></rect>
        <line x1="0" y1="80.5" x2="1200.5" y2="81" id="ascender-height" stroke="#DEDEE6" stroke-width="2" stroke-linecap="square"></line>
        <line x1="0" y1="137" x2="1200.5" y2="137.5" id="ascender-height" stroke="#DEDEE6" stroke-width="2" stroke-linecap="square"></line>
        <line x1="0" y1="246.5" x2="1200.5" y2="247" id="ascender-height" stroke="#DEDEE6" stroke-width="2" stroke-linecap="square"></line>
        <path d="M303.08,247.44 L315.08,246 C312.92,241.68 304.28,222.72 295.88,204 L238.04,73.44 L234.44,74.16 C229.88,86.64 223.64,100.56 212.6,126.24 L159.8,246 L172.52,246 C174.2,241.68 182.84,219.36 190.52,201.84 L197.24,185.76 L275.96,185.76 L303.08,247.44 Z M271.64,176.16 L201.56,176.16 L236.6,94.8 L271.64,176.16 Z M363.56,248.64 C381.08,248.64 396.2,238.08 401.96,223.68 C401,243.36 408.44,247.68 416.36,247.68 C420.92,247.68 424.76,246.24 427.64,244.32 L428.36,236.4 C425.72,237.84 422.36,239.28 419.24,239.28 C413.72,239.28 410.84,236.16 411.08,224.88 L412.52,177.36 C413.24,149.52 398.36,135.84 375.08,135.84 C362.36,135.84 350.84,139.68 339.56,146.16 L342.2,155.76 C350.84,150 362.36,145.2 373.88,145.2 C393.08,145.2 402.68,156.48 402.2,179.52 L401.96,185.28 C396.68,184.8 391.4,184.32 384.92,184.32 C345.32,184.32 330.92,200.4 330.92,218.88 C330.92,235.44 342.2,248.64 363.56,248.64 Z M365.72,239.76 C348.68,239.76 341.48,229.68 341.48,218.16 C341.48,204.96 351.08,192 384.68,192 C389.96,192 395.96,192.24 401.72,192.96 L401.24,203.52 C400.52,224.4 384.92,239.76 365.72,239.76 Z" id="Aa" fill="#C9C9D6" fill-rule="nonzero"></path>
        <path d="M557.12,246.96 C559.28,241.2 565.76,227.76 571.52,215.76 L621.44,110.88 C625.76,101.76 629.84,92.4 632.96,86.64 L629.36,81.12 C615.031111,81.5822222 599.366914,81.821893 582.796025,81.8390123 L580.88,81.84 C563.6,81.84 547.76,81.6 533.36,81.12 C533.12,84.48 532.64,89.04 531.92,91.92 C544.88,91.68 562.4,91.68 579.44,91.68 C592.64,91.68 607.52,91.68 619.04,91.92 L566.24,202.56 C559.76,216.24 549.44,236.64 544.64,245.28 L557.12,246.96 Z M704,250.32 C735.44,250.32 757.28,230.16 757.28,204.24 C757.28,184.32 741.2,169.44 716.48,159.84 C738.56,151.68 753.2,139.2 753.2,118.8 C753.2,96.24 734,77.04 706.4,77.04 C677.84,77.04 658.4,96.72 658.4,119.76 C658.4,140.64 674.48,152.88 693.92,160.56 C668.48,168.96 652.4,183.36 652.4,207.12 C652.4,231.6 674,250.32 704,250.32 Z M706.4,155.52 C684.56,148.32 669.2,138.24 669.2,119.28 C669.2,101.52 683.36,86.64 705.68,86.64 C727.04,86.64 742.16,101.28 742.16,119.52 C742.16,137.04 728.24,149.04 706.4,155.52 Z M704.72,240.96 C680.96,240.96 663.2,226.08 663.2,206.4 C663.2,184.8 679.52,172.32 704.96,164.88 C730.64,173.28 746.48,186.24 746.48,204.72 C746.48,224.88 729.68,240.96 704.72,240.96 Z M797.12,251.52 C852.56,240.72 887.6,194.88 887.6,139.92 C887.6,101.28 866.48,77.28 835.28,77.28 C803.84,77.28 782.24,102.48 782.24,133.68 C782.24,161.76 802.64,183.36 830.72,183.36 C850.16,183.36 867.92,172.8 876.56,155.04 C870.8,198.48 841.04,233.04 794.72,242.16 L797.12,251.52 Z M833.12,173.76 C808.88,173.76 793.04,156.24 793.04,133.2 C793.04,107.52 809.84,87.12 834.8,87.12 C860,87.12 875.36,107.76 875.36,129.36 C875.36,152.64 857.36,173.76 833.12,173.76 Z M972.32,250.32 C1009.04,250.32 1031.36,213.12 1031.36,161.52 C1031.36,115.2 1011.2,77.04 974.24,77.04 C937.76,77.04 915.2,114.48 915.2,165.84 C915.2,212.16 935.6,250.32 972.32,250.32 Z M973.28,240.72 C943.28,240.72 926.24,208.32 926.24,164.16 C926.24,121.2 944.24,86.88 973.52,86.88 C1003.52,86.88 1020.56,119.04 1020.56,163.2 C1020.56,206.16 1002.56,240.72 973.28,240.72 Z" id="7890" fill="#2E3138" fill-rule="nonzero"></path>
    </g>
</svg>