<?xml version="1.0" encoding="UTF-8"?>
<svg width="592px" height="592px" viewBox="0 0 592 592" version="1.1" xmlns="http://www.w3.org/2000/svg" xmlns:xlink="http://www.w3.org/1999/xlink">
    <!-- Generator: Sketch 60.1 (88133) - https://sketch.com -->
    <title>live-theming</title>
    <desc>Created with Sketch.</desc>
    <g id="live-theming" stroke="none" stroke-width="1" fill="none" fill-rule="evenodd">
        <circle id="Oval-2-Copy-2" stroke="#DEDEE6" stroke-width="3" cx="189.5" cy="201.5" r="168"></circle>
        <circle id="Oval-2-Copy-3" stroke="#DEDEE6" stroke-width="3" cx="317.5" cy="402.5" r="147"></circle>
        <circle id="Oval-2" stroke="#8D8DA6" stroke-width="3" fill-opacity="0.25" fill="#8D8DA6" cx="244.5" cy="285.5" r="68"></circle>
        <circle id="Oval-2-Copy-4" stroke="#C9C9D6" stroke-width="3" cx="361.5" cy="247.5" r="210"></circle>
        <path id="Line-4" d="M134.316505,114.076499 L136.668753,115.332701 L152.861825,123.980498 L154.184965,124.687111 L152.771738,127.33339 L151.448599,126.626777 L140.306,120.675 L145.793525,129.276568 L419.764551,558.694335 L420.571342,559.958886 L418.04224,561.572468 L417.235449,560.307917 L143.264423,130.890149 L137.777,122.289 L138.478292,134.901907 L138.561511,136.399597 L135.566132,136.566035 L135.482913,135.068345 L134.46445,116.739059 L134.316505,114.076499 Z" fill="#8D8DA6" fill-rule="nonzero"></path>
        <path id="Line-5" d="M415.893609,213.269187 L414.66819,215.637616 L406.232299,231.942086 L405.543001,233.274328 L402.878518,231.895731 L403.567816,230.56349 L409.372,219.345 L400.857556,224.934883 L151.323213,388.756796 L150.069291,389.580009 L148.422865,387.072164 L149.676787,386.248952 L399.21113,222.427039 L407.725,216.837 L395.124245,217.702201 L393.627768,217.804944 L393.422282,214.81199 L394.918759,214.709247 L413.233205,213.451841 L415.893609,213.269187 Z" fill="#8D8DA6" fill-rule="nonzero"></path>
        <polygon id="Line-6" fill="#C9C9D6" fill-rule="nonzero" transform="translate(507.000000, 1.500000) rotate(-360.000000) translate(-507.000000, -1.500000) " points="592 -4.4408921e-16 592 3 422 3 422 -4.4408921e-16"></polygon>
        <circle id="Oval-2-Copy" stroke="#8D8DA6" stroke-width="3" cx="245.5" cy="289.5" r="109"></circle>
    </g>
</svg>