<?xml version="1.0" encoding="UTF-8"?>
<svg width="592px" height="592px" viewBox="0 0 592 592" version="1.1" xmlns="http://www.w3.org/2000/svg" xmlns:xlink="http://www.w3.org/1999/xlink">
    <!-- Generator: Sketch 60.1 (88133) - https://sketch.com -->
    <title>margin-collapse</title>
    <desc>Created with Sketch.</desc>
    <g id="margin-collapse" stroke="none" stroke-width="1" fill="none" fill-rule="evenodd">
        <rect id="Rectangle-Copy-14" stroke="#C9C9D6" stroke-width="3" x="119.749169" y="67.5" width="356.900332" height="153.462585"></rect>
        <rect id="Rectangle-Copy-15" stroke="#C9C9D6" stroke-width="3" x="119.749169" y="371.037415" width="356.900332" height="153.462585"></rect>
        <line x1="514.921927" y1="225.591837" x2="514.921927" y2="366.918115" id="Line-11" stroke="#8D8DA6" stroke-width="3.1292517" stroke-linecap="square"></line>
        <line x1="514.921927" y1="208.379291" x2="514.921927" y2="241.239756" id="Line-11" stroke="#8D8DA6" stroke-width="3.1292517" stroke-linecap="square" transform="translate(514.921927, 224.809524) rotate(-90.000000) translate(-514.921927, -224.809524) "></line>
        <line x1="514.921927" y1="352.324869" x2="514.921927" y2="385.185335" id="Line-11" stroke="#8D8DA6" stroke-width="3.1292517" stroke-linecap="square" transform="translate(514.921927, 368.755102) rotate(-90.000000) translate(-514.921927, -368.755102) "></line>
        <line x1="76.782392" y1="225.591837" x2="76.782392" y2="366.918115" id="Line-11" stroke="#8D8DA6" stroke-width="3.1292517" stroke-linecap="square"></line>
        <line x1="76.782392" y1="208.379291" x2="76.782392" y2="241.239756" id="Line-11" stroke="#8D8DA6" stroke-width="3.1292517" stroke-linecap="square" transform="translate(76.782392, 224.809524) rotate(-90.000000) translate(-76.782392, -224.809524) "></line>
        <line x1="76.782392" y1="352.324869" x2="76.782392" y2="385.185335" id="Line-11" stroke="#8D8DA6" stroke-width="3.1292517" stroke-linecap="square" transform="translate(76.782392, 368.755102) rotate(-90.000000) translate(-76.782392, -368.755102) "></line>
        <rect id="Rectangle-Copy-13" stroke="#8D8DA6" stroke-width="3" fill-opacity="0.25" fill="#8D8DA6" x="119.749169" y="294.962585" width="356.900332" height="73.0748299"></rect>
        <rect id="Rectangle-Copy-13" stroke="#8D8DA6" stroke-width="3" fill-opacity="0.25" fill="#8D8DA6" x="119.749169" y="223.962585" width="356.900332" height="70.537415"></rect>
    </g>
</svg>