<?xml version="1.0" encoding="UTF-8"?>
<svg width="1200px" height="328px" viewBox="0 0 1200 328" version="1.1" xmlns="http://www.w3.org/2000/svg">
  <g stroke="none" stroke-width="1" fill="none" fill-rule="evenodd">
    <rect fill="#F9F9FB" x="0" y="0" width="1200" height="328"></rect>
    <line x1="0" y1="80.5" x2="1200.5" y2="81" stroke="#DEDEE6" stroke-width="2"></line>
    <line x1="0" y1="137" x2="1200.5" y2="137.5" stroke="#DEDEE6" stroke-width="2"></line>
    <line x1="0" y1="246.5" x2="1200.5" y2="247" stroke="#DEDEE6" stroke-width="2"></line>
    <path
      d="M321.08,247.44 L333.08,246 C330.92,241.68 322.28,222.72 313.88,204 L256.04,73.44 L252.44,74.16 C247.88,86.64 241.64,100.56 230.6,126.24 L177.8,246 L190.52,246 C192.2,241.68 200.84,219.36 208.52,201.84 L215.24,185.76 L293.96,185.76 L321.08,247.44 Z M289.64,176.16 L219.56,176.16 L254.6,94.8 L289.64,176.16 Z M381.56,248.64 C399.08,248.64 414.2,238.08 419.96,223.68 C419,243.36 426.44,247.68 434.36,247.68 C438.92,247.68 442.76,246.24 445.64,244.32 L446.36,236.4 C443.72,237.84 440.36,239.28 437.24,239.28 C431.72,239.28 428.84,236.16 429.08,224.88 L430.52,177.36 C431.24,149.52 416.36,135.84 393.08,135.84 C380.36,135.84 368.84,139.68 357.56,146.16 L360.2,155.76 C368.84,150 380.36,145.2 391.88,145.2 C411.08,145.2 420.68,156.48 420.2,179.52 L419.96,185.28 C414.68,184.8 409.4,184.32 402.92,184.32 C363.32,184.32 348.92,200.4 348.92,218.88 C348.92,235.44 360.2,248.64 381.56,248.64 Z M383.72,239.76 C366.68,239.76 359.48,229.68 359.48,218.16 C359.48,204.96 369.08,192 402.68,192 C407.96,192 413.96,192.24 419.72,192.96 L419.24,203.52 C418.52,224.4 402.92,239.76 383.72,239.76 Z"
      fill="#C9C9D6" fill-rule="nonzero"></path>
    <path
      d="M571.04,285.84 C572.72,281.04 579.2,267.6 584.24,257.28 L631.76,158.64 C635.6,150.48 639.68,141.6 642.8,136.08 L639.68,131.28 C625.76,131.76 610.64,132 594.56,132 C578.48,132 563.84,131.76 549.92,131.28 C549.92,134.4 549.44,138.48 548.72,141.6 C560.96,141.36 577.04,141.36 593.12,141.36 C605.6,141.36 618.32,141.36 628.88,141.6 L581.12,241.2 C575.36,253.2 565.28,272.88 560.72,280.56 L571.04,285.84 Z M708.32,249.6 C737.12,249.6 757.52,230.4 757.52,205.44 C757.52,187.44 742.64,172.56 720.8,164.16 C740.24,156.48 753.2,144.96 753.2,125.52 C753.2,104.16 735.44,86.16 710.72,86.16 C684.8,86.16 666.8,104.64 666.8,126.48 C666.8,146.16 680.96,157.92 698.24,165.12 C675.68,172.8 661.04,186.96 661.04,208.8 C661.04,232.08 681.2,249.6 708.32,249.6 Z M710.48,160.32 C690.8,153.12 677.12,143.76 677.12,126.24 C677.12,108.96 690.08,95.28 710.24,95.28 C729.2,95.28 742.88,108.72 742.88,126 C742.88,142.8 730.4,153.84 710.48,160.32 Z M709.04,240.24 C687.92,240.24 671.6,227.04 671.6,208.08 C671.6,188.16 686,176.16 709.28,169.2 C732.56,176.4 746.72,189.36 746.72,206.4 C746.72,225.36 731.84,240.24 709.04,240.24 Z M794.72,286.32 C847.04,274.32 879.44,236.88 879.44,186.96 C879.44,153.12 861.68,128.64 830,128.64 C800.48,128.64 779.6,152.4 779.6,180.72 C779.6,206.4 798.56,227.28 825.2,227.28 C840.32,227.28 854.48,221.04 866,212.16 C857.12,245.04 829.76,268.8 791.12,277.44 L794.72,286.32 Z M827.84,217.92 C805.28,217.92 790.4,201.12 790.4,180 C790.4,157.44 806.24,138.24 829.52,138.24 C856.64,138.24 869.12,160.32 869.12,187.44 C869.12,192.24 868.64,196.8 868.16,201.36 C856.88,211.44 841.76,217.92 827.84,217.92 Z M958.16,249.6 C992.96,249.6 1015.04,221.52 1015.04,186 C1015.04,154.8 994.88,128.64 961.52,128.64 C926.72,128.64 904.64,156.48 904.64,192 C904.64,223.2 924.8,249.6 958.16,249.6 Z M958.88,240 C931.52,240 915.44,218.88 915.44,190.56 C915.44,162.24 932.72,138.24 961.04,138.24 C988.16,138.24 1004.24,159.36 1004.24,187.68 C1004.24,216 986.96,240 958.88,240 Z"
      fill="#2E3138" fill-rule="nonzero"></path>
  </g>
</svg>
