<?xml version="1.0" encoding="UTF-8"?>
<svg width="1200px" height="328px" viewBox="0 0 1200 328" version="1.1" xmlns="http://www.w3.org/2000/svg">
  <g stroke="none" stroke-width="1" fill="none" fill-rule="evenodd">
    <rect fill="#F9F9FB" x="0" y="0" width="1200" height="328"></rect>
    <line x1="0" y1="79.5" x2="1200.5" y2="80" stroke="#DEDEE6" stroke-width="2"></line>
    <polygon fill="#DEDEE6" fill-rule="nonzero"
             points="-1.00041641 248.499583 -0.99958342 246.499584 1201.50042 247.000417 1201.49958 249.000416"></polygon>
    <polygon fill="#DEDEE6" fill-rule="nonzero"
             points="-1.00041641 148.499583 -0.99958342 146.499584 1201.50042 147.000417 1201.49958 149.000416"></polygon>
    <path
      d="M148,248 L148,78.32 L100.96,79.76 L100.96,90.08 L134.8,90.08 L134.8,248 L148,248 Z M221.44,250.64 C242.8,250.64 268.24,242.96 268.24,214.16 C268.24,171.92 202.72,181.52 202.72,147.2 C202.72,134.96 212.08,125.12 229.36,125.12 C244,125.12 253.84,128.72 257.92,129.92 L260.56,118.64 C257.92,117.92 246.16,113.6 232,113.6 C207.28,113.6 190,125.84 190,148.16 C190,192.32 256,181.76 256,216.08 C256,230.72 240.88,239.36 220.48,239.36 C207.76,239.36 195.04,235.28 188.56,233.36 L185.68,245.12 C191.68,247.04 204.16,250.64 221.44,250.64 Z M351.04,250.64 C358.96,250.64 369.04,247.52 372.16,246.32 L368.8,234.56 C365.2,235.76 357.28,238.4 350.32,238.4 C328.24,238.4 322.48,234.32 322.48,212.48 L322.48,129.44 L363.52,129.44 L363.52,116.96 L322.24,116.96 L322.24,90.08 L309.52,90.08 L309.52,116.96 L290.32,116.96 L290.32,129.44 L309.52,129.44 L309.52,212.72 C309.52,249.44 327.04,250.64 351.04,250.64 Z"
      fill="#C9C9D6" fill-rule="nonzero"></path>
    <path
      d="M516,248 L516,78.32 L468.96,79.76 L468.96,90.08 L502.8,90.08 L502.8,248 L516,248 Z M577.68,149.84 C591.84,149.84 611.76,144.32 611.76,124.4 C611.76,96.32 563.52,103.28 563.52,82.16 C563.52,74.72 570.96,69.92 581.76,69.92 C591.6,69.92 600.48,72.08 604.08,73.04 L606.48,63.2 C603.84,62.24 593.04,59.84 583.2,59.84 C566.64,59.84 551.52,68 551.52,84.08 C551.52,114.32 599.76,105.2 599.76,126.08 C599.76,134.48 588.96,139.04 575.52,139.04 C569.04,139.04 555.12,136.64 550.56,135.44 L548.64,146 C551.04,147.2 566.16,149.84 577.68,149.84 Z M667.92,149.84 C673.44,149.84 680.88,147.92 683.04,147.2 L680.88,137.36 C679.68,137.6 678.24,138.08 676.8,138.32 C674.16,139.04 671.28,139.28 667.68,139.28 C654.24,139.28 650.88,137.36 650.88,124.4 L650.88,72.08 L677.76,72.08 L677.76,61.76 L650.88,61.76 L650.88,44 L638.88,44 L638.88,61.76 L626.16,61.76 L626.16,72.08 L638.88,72.08 L638.88,124.64 C638.88,149.84 651.84,149.84 667.92,149.84 Z"
      fill="#2E3138" fill-rule="nonzero"></path>
    <path
      d="M891.44,248 L891.44,235.52 L801.68,235.52 C844.64,195.92 879.68,159.92 879.68,122.96 C879.68,101.12 872,76.4 833.84,76.4 C810.8,76.4 795.92,85.76 790.4,90.08 L796.4,99.92 C799.04,98 812.72,88.88 832.64,88.88 C854.48,88.88 866,97.28 866,125.12 C866,165.68 786.56,232.4 784.4,235.52 L784.4,248 L891.44,248 Z M924.32,148.16 L924.32,81.68 C928.16,79.04 943.52,70.16 953.84,70.16 C969.5216,70.16 971.795432,80.980304 971.83934,94.4704004 L971.84,148.16 L983.84,148.16 L983.84,92.24 C983.84,77.84 982.4,59.36 956.72,59.36 C941.36,59.36 931.28,66.8 924.32,71.12 L924.32,61.76 L912.08,61.76 L912.08,148.16 L924.32,148.16 Z M1046.72,149.36 C1055.6,149.36 1065.68,145.04 1071.44,140.24 L1071.44,148.16 L1083.68,148.16 L1083.68,28.64 L1071.44,28.64 L1071.44,63.2 C1064.96,61.52 1060.88,60.8 1051.52,60.8 C1029.2,60.8 1008.32,76.16 1008.32,105.2 C1008.32,144.08 1031.36,149.36 1046.72,149.36 Z M1047.44,139.04 C1033.04,139.04 1020.32,129.2 1020.32,105.68 C1020.32,87.44 1030.16,71.6 1051.04,71.6 C1059.68,71.6 1067.36,72.08 1071.44,73.28 L1071.44,128.96 C1067.6,131.6 1056.56,139.04 1047.44,139.04 Z"
      fill="#2E3138" fill-rule="nonzero"></path>
  </g>
</svg>
