<?xml version="1.0" encoding="UTF-8"?>
<svg width="1200px" height="328px" viewBox="0 0 1200 328" version="1.1" xmlns="http://www.w3.org/2000/svg" xmlns:xlink="http://www.w3.org/1999/xlink">
    <!-- Generator: Sketch 60.1 (88133) - https://sketch.com -->
    <title>ornaments copy</title>
    <desc>Created with Sketch.</desc>
    <g id="ornaments-copy" stroke="none" stroke-width="1" fill="none" fill-rule="evenodd">
        <rect fill="#F9F9FB" x="0" y="0" width="1200" height="328"></rect>
        <line x1="0" y1="76.5" x2="1200.5" y2="77" id="ascender-height" stroke="#DEDEE6" stroke-width="2" stroke-linecap="square"></line>
        <line x1="0" y1="251.5" x2="1200.5" y2="252" id="ascender-height" stroke="#DEDEE6" stroke-width="2" stroke-linecap="square"></line>
        <path d="M530.32,232.8 C523.6,232.8 516.58,230.72 509.26,226.56 C501.94,222.4 490.96,213.44 476.32,199.68 C458.72,183.2 444.9,172.32 434.86,167.04 C424.82,161.76 414.88,159.12 405.04,159.12 C401.44,154.16 397.86,146.98 394.3,137.58 C390.74,128.18 388.96,120.76 388.96,115.32 C388.96,106.68 391.94,99.44 397.9,93.6 C403.86,87.76 411.12,84.84 419.68,84.84 C428.56,84.84 435.66,87.6 440.98,93.12 C446.3,98.64 448.96,105.64 448.96,114.12 C448.96,121.16 447.16,128.4 443.56,135.84 C443.32,136.4 443.2,136.96 443.2,137.52 C443.2,140.08 444.48,141.36 447.04,141.36 C448.08,141.36 449.84,141.2 452.32,140.88 C454.56,140.56 456.16,140.4 457.12,140.4 C464.24,140.4 470.76,142.86 476.68,147.78 C482.6,152.7 490.16,163.28 499.36,179.52 C507.52,194 514.26,204.14 519.58,209.94 C524.9,215.74 530.56,220.04 536.56,222.84 C542.56,225.64 549.12,227.04 556.24,227.04 C550.8,230.88 542.16,232.8 530.32,232.8 Z M422.56,196.921 L422.907461,197.644764 C430.853791,214.023037 443.597971,227.021449 461.14,236.64 C478.94,246.4 498.24,251.28 519.04,251.28 C536.16,251.28 552,247.64 566.56,240.36 C581.12,233.08 592.62,223.14 601.06,210.54 C609.5,197.94 613.72,184.32 613.72,169.68 C613.72,157.28 610.38,147.2 603.7,139.44 C597.02,131.68 588.2,127.8 577.24,127.8 C571.32,127.8 566.22,129.74 561.94,133.62 C557.66,137.5 555.52,142.16 555.52,147.6 C555.52,152.56 557.06,156.6 560.14,159.72 C563.22,162.84 567.32,164.4 572.44,164.4 C571.8,162.32 571.48,160.08 571.48,157.68 C571.48,153.92 572.72,150.82 575.2,148.38 C577.68,145.94 580.84,144.72 584.68,144.72 C590.76,144.72 595.76,147.04 599.68,151.68 C603.6,156.32 605.56,162.32 605.56,169.68 C605.56,176.96 603.22,184.74 598.54,193.02 C593.86,201.3 587.86,207.72 580.54,212.28 C573.22,216.84 565.12,219.12 556.24,219.12 C547.44,219.12 539.48,216.34 532.36,210.78 C525.24,205.22 516.68,193.56 506.68,175.8 C496.52,157.88 487.94,146.2 480.94,140.76 C473.94,135.32 466,132.6 457.12,132.6 C456.32,132.6 454.32,133.08 451.12,134.04 C454.96,127.88 456.88,121.24 456.88,114.12 C456.88,103.88 453.24,95.12 445.96,87.84 C438.68,80.56 429.92,76.92 419.68,76.92 C409.44,76.92 400.48,80.76 392.8,88.44 C385.12,96.12 381.28,105.08 381.28,115.32 C381.28,120.36 382.56,126.56 385.12,133.92 C387.68,141.28 390.64,147.6 394,152.88 C387.52,148.56 378.06,144.74 365.62,141.42 C353.18,138.1 342.92,136.44 334.84,136.44 C320.6,136.44 307.02,139.96 294.1,147 C281.18,154.04 270.9,163.46 263.26,175.26 C255.62,187.06 251.8,199.6 251.8,212.88 C251.8,224.56 254.5,233.88 259.9,240.84 C265.3,247.8 272.12,251.28 280.36,251.28 C287.08,251.28 292.84,248.84 297.64,243.96 C302.44,239.08 304.84,233.28 304.84,226.56 C304.84,219.84 302.44,214.08 297.64,209.28 C292.84,204.48 287.08,202.08 280.36,202.08 C276.12,202.08 272.52,202.88 269.56,204.48 C269.56,187.36 276.02,173.04 288.94,161.52 C301.86,150 317.16,144.24 334.84,144.24 C343.64,144.24 353.36,145.94 364,149.34 C374.64,152.74 383.52,156.96 390.64,162 C377.36,166 367.2,172.24 360.16,180.72 C353.12,189.2 349.6,199.52 349.6,211.68 C349.6,222.56 353.46,231.88 361.18,239.64 C368.9,247.4 378.24,251.28 389.2,251.28 C399.44,251.28 408.2,247.64 415.48,240.36 C422.76,233.08 426.4,224.32 426.4,214.08 C426.4,208.08 425.12,202.36 422.56,196.92 L422.56,196.921 Z M760,264.48 C774.08,264.48 785.84,260.7 795.28,253.14 C804.72,245.58 809.44,236.64 809.44,226.32 C809.44,215.44 805.78,207.04 798.46,201.12 C791.14,195.2 780.72,192.24 767.2,192.24 C752.96,192.24 738.28,194.88 723.16,200.16 C720.04,201.28 717.72,202.08 716.2,202.56 C717.72,187.92 724.4,176.34 736.24,167.82 C748.08,159.3 763.68,155.04 783.04,155.04 C796.64,155.04 809.16,157.14 820.6,161.34 C832.04,165.54 841.36,171.38 848.56,178.86 C855.76,186.34 859.36,193.6 859.36,200.64 C859.36,210.08 854.96,214.8 846.16,214.8 C839.84,214.8 834,211.2 828.64,204 C828.16,206.88 827.92,209.68 827.92,212.4 C827.92,221.36 830.82,228.84 836.62,234.84 C842.42,240.84 849.36,243.84 857.44,243.84 C865.76,243.84 872.84,240.94 878.68,235.14 C884.52,229.34 887.44,222.24 887.44,213.84 C887.44,203.76 884.48,195.76 878.56,189.84 C886.8,192.08 895.12,193.2 903.52,193.2 C911.92,193.2 923.24,191.6 937.48,188.4 C946.84,186.24 953.56,185.04 957.64,184.8 C954.52,182.48 949.72,178 943.24,171.36 C933,160.88 924.3,153.28 917.14,148.56 C909.98,143.84 902.32,140.16 894.16,137.52 C903.44,135.84 910.84,131.86 916.36,125.58 C921.88,119.3 924.64,111.96 924.64,103.56 C924.64,95.32 921.86,88.46 916.3,82.98 C910.74,77.5 903.76,74.76 895.36,74.76 C884.24,74.76 874.48,81.96 866.08,96.36 C869.92,95.08 873.36,94.44 876.4,94.44 C881.12,94.44 884.94,95.66 887.86,98.1 C890.78,100.54 892.24,103.88 892.24,108.12 C892.24,118.2 884.72,123.24 869.68,123.24 C865.44,123.24 857.68,122.64 846.4,121.44 C827.04,119.44 810.96,118.44 798.16,118.44 C781.36,118.44 765.34,122.38 750.1,130.26 C734.86,138.14 722.96,148.76 714.4,162.12 C705.84,175.48 701.56,190.24 701.56,206.4 C697.88,207.52 693.88,208.08 689.56,208.08 C666.52,208.08 655,200.16 655,184.32 C655,172.4 665.4,165.44 686.2,163.44 C688.12,163.28 689.08,160.56 689.08,155.28 C689.08,150 688.1,144.86 686.14,139.86 C684.18,134.86 681.96,132.36 679.48,132.36 C676.68,132.36 671.88,135.04 665.08,140.4 C658.28,145.76 653.06,151.92 649.42,158.88 C645.78,165.84 643.96,173.2 643.96,180.96 C643.96,204.16 659.16,215.76 689.56,215.76 C694.68,215.76 698.84,215.44 702.04,214.8 C703.72,230.56 709.62,242.78 719.74,251.46 C729.86,260.14 743.28,264.48 760,264.48 Z M887.2,132.12 C895.68,127.32 899.92,119.32 899.92,108.12 C899.92,102.92 898.06,98.34 894.34,94.38 C890.62,90.42 886.24,88.44 881.2,88.44 C885.44,84.44 890.16,82.44 895.36,82.44 C901.76,82.44 906.96,84.38 910.96,88.26 C914.96,92.14 916.96,97.24 916.96,103.56 C916.96,119.56 907.04,129.08 887.2,132.12 Z M903.52,185.52 L899.2,185.52 C903.28,183.52 906.58,180.5 909.1,176.46 C911.62,172.42 912.88,168.24 912.88,163.92 C912.88,158.96 911.28,154.88 908.08,151.68 C916.32,156.4 927.28,165.76 940.96,179.76 C925.2,183.6 912.72,185.52 903.52,185.52 L903.52,185.52 Z M857.44,236.16 C852.48,236.16 848.06,234.62 844.18,231.54 C840.3,228.46 837.76,224.48 836.56,219.6 C839.68,221.68 842.88,222.72 846.16,222.72 C852.96,222.72 858.54,220.4 862.9,215.76 C867.26,211.12 869.44,204.88 869.44,197.04 C869.44,195.76 869.28,193.52 868.96,190.32 C876.16,195.76 879.76,203.6 879.76,213.84 C879.76,220.24 877.62,225.56 873.34,229.8 C869.06,234.04 863.76,236.16 857.44,236.16 Z M760,256.8 C731.12,256.8 716.44,241.52 715.96,210.96 C718.28,210.4 721.92,209.28 726.88,207.6 C742.08,202.48 755.52,199.92 767.2,199.92 C778,199.92 786.3,202.24 792.1,206.88 C797.9,211.52 800.8,218 800.8,226.32 C800.8,234.4 796.92,241.5 789.16,247.62 C781.4,253.74 771.68,256.8 760,256.8 Z" id="" fill="#2E3138" fill-rule="nonzero"></path>
    </g>
</svg>