<?xml version="1.0" encoding="UTF-8"?>
<svg width="1200px" height="345px" viewBox="0 0 1200 345" version="1.1" xmlns="http://www.w3.org/2000/svg">
  <g stroke="none" stroke-width="1" fill="none" fill-rule="evenodd">
    <rect fill="#F9F9FB" x="0" y="0" width="1200" height="345"></rect>
    <path
      d="M545,151 L543,151 L543,146 L545,146 L545,151 Z M545,161 L543,161 L543,156 L545,156 L545,161 Z M545,171 L543,171 L543,166 L545,166 L545,171 Z M545,181 L543,181 L543,176 L545,176 L545,181 Z M545,191 L543,191 L543,186 L545,186 L545,191 Z M542,200 L542,198 L544,198 L543,199 L543,196 L545,196 L545,200 L542,200 Z M532,200 L532,198 L537,198 L537,200 L532,200 Z M522,200 L522,198 L527,198 L527,200 L522,200 Z M512,200 L512,198 L517,198 L517,200 L512,200 Z M502,200 L502,198 L507,198 L507,200 L502,200 Z M492,200 L492,198 L497,198 L497,200 L492,200 Z M482,200 L482,198 L487,198 L487,200 L482,200 Z M472,200 L472,198 L477,198 L477,200 L472,200 Z M462,200 L462,198 L467,198 L467,200 L462,200 Z M452,200 L452,198 L457,198 L457,200 L452,200 Z M442,200 L442,198 L447,198 L447,200 L442,200 Z M432,200 L432,198 L437,198 L437,200 L432,200 Z M422,200 L422,198 L427,198 L427,200 L422,200 Z M412,200 L412,198 L417,198 L417,200 L412,200 Z M402,200 L402,198 L407,198 L407,200 L402,200 Z M392,200 L392,198 L397,198 L397,200 L392,200 Z M382,200 L382,198 L387,198 L387,200 L382,200 Z M372,200 L372,198 L377,198 L377,200 L372,200 Z M362,200 L362,198 L367,198 L367,200 L362,200 Z M352,200 L352,198 L357,198 L357,200 L352,200 Z M342,200 L342,198 L347,198 L347,200 L342,200 Z M332,200 L332,198 L337,198 L337,200 L332,200 Z M322,200 L322,198 L327,198 L327,200 L322,200 Z M312,200 L312,198 L317,198 L317,200 L312,200 Z M302,200 L302,198 L307,198 L307,200 L302,200 Z M292,200 L292,198 L297,198 L297,200 L292,200 Z M282,200 L282,198 L287,198 L287,200 L282,200 Z M272,200 L272,198 L277,198 L277,200 L272,200 Z M262,200 L262,198 L267,198 L267,200 L262,200 Z M252,200 L252,198 L257,198 L257,200 L252,200 Z M242,200 L242,198 L247,198 L247,200 L242,200 Z M232,200 L232,198 L237,198 L237,200 L232,200 Z M222,200 L222,198 L227,198 L227,200 L222,200 Z M212,200 L212,198 L217,198 L217,200 L212,200 Z M202,200 L202,198 L207,198 L207,200 L202,200 Z M192,200 L192,198 L197,198 L197,200 L192,200 Z M182,200 L182,198 L187,198 L187,200 L182,200 Z M172,200 L172,198 L177,198 L177,200 L172,200 Z M162,200 L162,198 L167,198 L167,200 L162,200 Z M152,200 L152,198 L157,198 L157,200 L152,200 Z M142,200 L142,198 L147,198 L147,200 L142,200 Z M132,200 L132,198 L137,198 L137,200 L132,200 Z M122,200 L122,198 L127,198 L127,200 L122,200 Z M115,195 L117,195 L117,199 L116,198 L117,198 L117,200 L115,200 L115,195 Z M115,185 L117,185 L117,190 L115,190 L115,185 Z M115,175 L117,175 L117,180 L115,180 L115,175 Z M115,165 L117,165 L117,170 L115,170 L115,165 Z M115,155 L117,155 L117,160 L115,160 L115,155 Z M117,145 L117,147 L116,147 L117,146 L117,150 L115,150 L115,145 L117,145 Z M127,145 L127,147 L122,147 L122,145 L127,145 Z M137,145 L137,147 L132,147 L132,145 L137,145 Z M147,145 L147,147 L142,147 L142,145 L147,145 Z M157,145 L157,147 L152,147 L152,145 L157,145 Z M167,145 L167,147 L162,147 L162,145 L167,145 Z M177,145 L177,147 L172,147 L172,145 L177,145 Z M187,145 L187,147 L182,147 L182,145 L187,145 Z M197,145 L197,147 L192,147 L192,145 L197,145 Z M207,145 L207,147 L202,147 L202,145 L207,145 Z M217,145 L217,147 L212,147 L212,145 L217,145 Z M227,145 L227,147 L222,147 L222,145 L227,145 Z M237,145 L237,147 L232,147 L232,145 L237,145 Z M247,145 L247,147 L242,147 L242,145 L247,145 Z M257,145 L257,147 L252,147 L252,145 L257,145 Z M267,145 L267,147 L262,147 L262,145 L267,145 Z M277,145 L277,147 L272,147 L272,145 L277,145 Z M287,145 L287,147 L282,147 L282,145 L287,145 Z M297,145 L297,147 L292,147 L292,145 L297,145 Z M307,145 L307,147 L302,147 L302,145 L307,145 Z M317,145 L317,147 L312,147 L312,145 L317,145 Z M327,145 L327,147 L322,147 L322,145 L327,145 Z M337,145 L337,147 L332,147 L332,145 L337,145 Z M347,145 L347,147 L342,147 L342,145 L347,145 Z M357,145 L357,147 L352,147 L352,145 L357,145 Z M367,145 L367,147 L362,147 L362,145 L367,145 Z M377,145 L377,147 L372,147 L372,145 L377,145 Z M387,145 L387,147 L382,147 L382,145 L387,145 Z M397,145 L397,147 L392,147 L392,145 L397,145 Z M407,145 L407,147 L402,147 L402,145 L407,145 Z M417,145 L417,147 L412,147 L412,145 L417,145 Z M427,145 L427,147 L422,147 L422,145 L427,145 Z M437,145 L437,147 L432,147 L432,145 L437,145 Z M447,145 L447,147 L442,147 L442,145 L447,145 Z M457,145 L457,147 L452,147 L452,145 L457,145 Z M467,145 L467,147 L462,147 L462,145 L467,145 Z M477,145 L477,147 L472,147 L472,145 L477,145 Z M487,145 L487,147 L482,147 L482,145 L487,145 Z M497,145 L497,147 L492,147 L492,145 L497,145 Z M507,145 L507,147 L502,147 L502,145 L507,145 Z M517,145 L517,147 L512,147 L512,145 L517,145 Z M527,145 L527,147 L522,147 L522,145 L527,145 Z M537,145 L537,147 L532,147 L532,145 L537,145 Z M544,145 L544,147 L542,147 L542,145 L544,145 Z"
      fill="#C9C9D6" fill-rule="nonzero"
      transform="translate(330.000000, 172.500000) scale(1, -1) translate(-330.000000, -172.500000) "></path>
    <path
      d="M1085,151 L1083,151 L1083,146 L1085,146 L1085,151 Z M1085,161 L1083,161 L1083,156 L1085,156 L1085,161 Z M1085,171 L1083,171 L1083,166 L1085,166 L1085,171 Z M1085,181 L1083,181 L1083,176 L1085,176 L1085,181 Z M1085,191 L1083,191 L1083,186 L1085,186 L1085,191 Z M1082,200 L1082,198 L1084,198 L1083,199 L1083,196 L1085,196 L1085,200 L1082,200 Z M1072,200 L1072,198 L1077,198 L1077,200 L1072,200 Z M1062,200 L1062,198 L1067,198 L1067,200 L1062,200 Z M1052,200 L1052,198 L1057,198 L1057,200 L1052,200 Z M1042,200 L1042,198 L1047,198 L1047,200 L1042,200 Z M1032,200 L1032,198 L1037,198 L1037,200 L1032,200 Z M1022,200 L1022,198 L1027,198 L1027,200 L1022,200 Z M1012,200 L1012,198 L1017,198 L1017,200 L1012,200 Z M1002,200 L1002,198 L1007,198 L1007,200 L1002,200 Z M992,200 L992,198 L997,198 L997,200 L992,200 Z M982,200 L982,198 L987,198 L987,200 L982,200 Z M972,200 L972,198 L977,198 L977,200 L972,200 Z M962,200 L962,198 L967,198 L967,200 L962,200 Z M952,200 L952,198 L957,198 L957,200 L952,200 Z M942,200 L942,198 L947,198 L947,200 L942,200 Z M932,200 L932,198 L937,198 L937,200 L932,200 Z M922,200 L922,198 L927,198 L927,200 L922,200 Z M912,200 L912,198 L917,198 L917,200 L912,200 Z M902,200 L902,198 L907,198 L907,200 L902,200 Z M892,200 L892,198 L897,198 L897,200 L892,200 Z M882,200 L882,198 L887,198 L887,200 L882,200 Z M872,200 L872,198 L877,198 L877,200 L872,200 Z M862,200 L862,198 L867,198 L867,200 L862,200 Z M852,200 L852,198 L857,198 L857,200 L852,200 Z M842,200 L842,198 L847,198 L847,200 L842,200 Z M832,200 L832,198 L837,198 L837,200 L832,200 Z M822,200 L822,198 L827,198 L827,200 L822,200 Z M812,200 L812,198 L817,198 L817,200 L812,200 Z M802,200 L802,198 L807,198 L807,200 L802,200 Z M792,200 L792,198 L797,198 L797,200 L792,200 Z M782,200 L782,198 L787,198 L787,200 L782,200 Z M772,200 L772,198 L777,198 L777,200 L772,200 Z M762,200 L762,198 L767,198 L767,200 L762,200 Z M752,200 L752,198 L757,198 L757,200 L752,200 Z M742,200 L742,198 L747,198 L747,200 L742,200 Z M732,200 L732,198 L737,198 L737,200 L732,200 Z M722,200 L722,198 L727,198 L727,200 L722,200 Z M712,200 L712,198 L717,198 L717,200 L712,200 Z M702,200 L702,198 L707,198 L707,200 L702,200 Z M692,200 L692,198 L697,198 L697,200 L692,200 Z M682,200 L682,198 L687,198 L687,200 L682,200 Z M672,200 L672,198 L677,198 L677,200 L672,200 Z M662,200 L662,198 L667,198 L667,200 L662,200 Z M655,195 L657,195 L657,199 L656,198 L657,198 L657,200 L655,200 L655,195 Z M655,185 L657,185 L657,190 L655,190 L655,185 Z M655,175 L657,175 L657,180 L655,180 L655,175 Z M655,165 L657,165 L657,170 L655,170 L655,165 Z M655,155 L657,155 L657,160 L655,160 L655,155 Z M657,145 L657,147 L656,147 L657,146 L657,150 L655,150 L655,145 L657,145 Z M667,145 L667,147 L662,147 L662,145 L667,145 Z M677,145 L677,147 L672,147 L672,145 L677,145 Z M687,145 L687,147 L682,147 L682,145 L687,145 Z M697,145 L697,147 L692,147 L692,145 L697,145 Z M707,145 L707,147 L702,147 L702,145 L707,145 Z M717,145 L717,147 L712,147 L712,145 L717,145 Z M727,145 L727,147 L722,147 L722,145 L727,145 Z M737,145 L737,147 L732,147 L732,145 L737,145 Z M747,145 L747,147 L742,147 L742,145 L747,145 Z M757,145 L757,147 L752,147 L752,145 L757,145 Z M767,145 L767,147 L762,147 L762,145 L767,145 Z M777,145 L777,147 L772,147 L772,145 L777,145 Z M787,145 L787,147 L782,147 L782,145 L787,145 Z M797,145 L797,147 L792,147 L792,145 L797,145 Z M807,145 L807,147 L802,147 L802,145 L807,145 Z M817,145 L817,147 L812,147 L812,145 L817,145 Z M827,145 L827,147 L822,147 L822,145 L827,145 Z M837,145 L837,147 L832,147 L832,145 L837,145 Z M847,145 L847,147 L842,147 L842,145 L847,145 Z M857,145 L857,147 L852,147 L852,145 L857,145 Z M867,145 L867,147 L862,147 L862,145 L867,145 Z M877,145 L877,147 L872,147 L872,145 L877,145 Z M887,145 L887,147 L882,147 L882,145 L887,145 Z M897,145 L897,147 L892,147 L892,145 L897,145 Z M907,145 L907,147 L902,147 L902,145 L907,145 Z M917,145 L917,147 L912,147 L912,145 L917,145 Z M927,145 L927,147 L922,147 L922,145 L927,145 Z M937,145 L937,147 L932,147 L932,145 L937,145 Z M947,145 L947,147 L942,147 L942,145 L947,145 Z M957,145 L957,147 L952,147 L952,145 L957,145 Z M967,145 L967,147 L962,147 L962,145 L967,145 Z M977,145 L977,147 L972,147 L972,145 L977,145 Z M987,145 L987,147 L982,147 L982,145 L987,145 Z M997,145 L997,147 L992,147 L992,145 L997,145 Z M1007,145 L1007,147 L1002,147 L1002,145 L1007,145 Z M1017,145 L1017,147 L1012,147 L1012,145 L1017,145 Z M1027,145 L1027,147 L1022,147 L1022,145 L1027,145 Z M1037,145 L1037,147 L1032,147 L1032,145 L1037,145 Z M1047,145 L1047,147 L1042,147 L1042,145 L1047,145 Z M1057,145 L1057,147 L1052,147 L1052,145 L1057,145 Z M1067,145 L1067,147 L1062,147 L1062,145 L1067,145 Z M1077,145 L1077,147 L1072,147 L1072,145 L1077,145 Z M1084,145 L1084,147 L1082,147 L1082,145 L1084,145 Z"
      fill="#C9C9D6" fill-rule="nonzero"
      transform="translate(870.000000, 172.500000) scale(1, -1) translate(-870.000000, -172.500000) "></path>
    <rect fill-opacity="0.1" fill="#8D8DA6"
          transform="translate(330.000000, 117.500000) scale(1, -1) translate(-330.000000, -117.500000) " x="115" y="90"
          width="430" height="55"></rect>
    <rect fill-opacity="0.1" fill="#8D8DA6"
          transform="translate(330.000000, 227.500000) scale(1, -1) translate(-330.000000, -227.500000) " x="115"
          y="200" width="430" height="55"></rect>
    <polygon fill="#8D8DA6" fill-rule="nonzero"
             points="323 147 323 145 329 145 329 92 323 92 323 90 337 90 337 92 331 92 331 145 337 145 337 147"></polygon>
    <polygon fill="#8D8DA6" fill-rule="nonzero"
             points="323 255 323 253 329 253 329 200 323 200 323 198 337 198 337 200 331 200 331 253 337 253 337 255"></polygon>
    <line x1="656" y1="145" x2="656" y2="200" stroke="#8D8DA6" stroke-width="2"
          transform="translate(656.000000, 172.500000) scale(1, -1) translate(-656.000000, -172.500000) "></line>
    <line x1="1084" y1="145" x2="1084" y2="200" stroke="#8D8DA6" stroke-width="2"></line>
    <polygon fill="#8D8DA6" fill-rule="nonzero"
             points="323 200 323 198 329 198 329 147 323 147 323 145 337 145 337 147 331 147 331 198 337 198 337 200"></polygon>
    <polygon fill="#8D8DA6" fill-rule="nonzero"
             points="863 200 863 198 869 198 869 147 863 147 863 145 877 145 877 147 871 147 871 198 877 198 877 200"></polygon>
    <g
      transform="translate(298.000000, 117.000000) scale(1, -1) translate(-298.000000, -117.000000) translate(278.000000, 105.000000)">
      <rect fill="#8D8DA6" x="0" y="0" width="40" height="24" rx="12"></rect>
      <text transform="translate(21.000000, 12.500000) scale(1, -1) translate(-21.000000, -12.500000) "
            font-family="Menlo-Bold, Menlo" font-size="16" font-weight="bold" fill="#F9FAFA">
        <tspan x="11" y="18">30</tspan>
      </text>
    </g>
    <g
      transform="translate(298.000000, 171.000000) scale(1, -1) translate(-298.000000, -171.000000) translate(278.000000, 159.000000)">
      <rect fill="#8D8DA6" x="0" y="0" width="40" height="24" rx="12"></rect>
      <text transform="translate(20.500000, 12.500000) scale(1, -1) translate(-20.500000, -12.500000) "
            font-family="Menlo-Bold, Menlo" font-size="16" font-weight="bold" fill="#F9FAFA">
        <tspan x="15.5" y="18">0</tspan>
      </text>
    </g>
    <g
      transform="translate(838.000000, 171.000000) scale(1, -1) translate(-838.000000, -171.000000) translate(818.000000, 159.000000)">
      <rect fill="#8D8DA6" x="0" y="0" width="40" height="24" rx="12"></rect>
      <text transform="translate(20.500000, 12.500000) scale(1, -1) translate(-20.500000, -12.500000) "
            font-family="Menlo-Bold, Menlo" font-size="16" font-weight="bold" fill="#F9FAFA">
        <tspan x="15.5" y="18">0</tspan>
      </text>
    </g>
    <g
      transform="translate(298.000000, 227.000000) scale(1, -1) translate(-298.000000, -227.000000) translate(278.000000, 215.000000)">
      <rect fill="#8D8DA6" x="0" y="0" width="40" height="24" rx="12"></rect>
      <text transform="translate(21.000000, 12.500000) scale(1, -1) translate(-21.000000, -12.500000) "
            font-family="Menlo-Bold, Menlo" font-size="16" font-weight="bold" fill="#F9FAFA">
        <tspan x="11" y="18">30</tspan>
      </text>
    </g>
  </g>
</svg>
