<?xml version="1.0" encoding="UTF-8"?>
<svg width="1200px" height="345px" viewBox="0 0 1200 345" version="1.1" xmlns="http://www.w3.org/2000/svg" xmlns:xlink="http://www.w3.org/1999/xlink">
    <!-- Generator: Sketch 60.1 (88133) - https://sketch.com -->
    <title>own-margins</title>
    <desc>Created with Sketch.</desc>
    <defs>
        <rect id="path-1" x="115" y="145" width="430" height="55"></rect>
        <mask id="mask-2" maskContentUnits="userSpaceOnUse" maskUnits="objectBoundingBox" x="0" y="0" width="430" height="55" fill="white">
            <use xlink:href="#path-1"></use>
        </mask>
        <rect id="path-3" x="655" y="145" width="430" height="55"></rect>
        <mask id="mask-4" maskContentUnits="userSpaceOnUse" maskUnits="objectBoundingBox" x="0" y="0" width="430" height="55" fill="white">
            <use xlink:href="#path-3"></use>
        </mask>
    </defs>
    <g id="own-margins" stroke="none" stroke-width="1" fill="none" fill-rule="evenodd">
        <rect fill="#F9F9FB" x="0" y="0" width="1200" height="345"></rect>
        <use id="rectangle" stroke="#C9C9D6" mask="url(#mask-2)" stroke-width="4" stroke-dasharray="5" transform="translate(330.000000, 172.500000) scale(1, -1) translate(-330.000000, -172.500000) " xlink:href="#path-1"></use>
        <use id="rectangle" stroke="#C9C9D6" mask="url(#mask-4)" stroke-width="4" stroke-dasharray="5" transform="translate(870.000000, 172.500000) scale(1, -1) translate(-870.000000, -172.500000) " xlink:href="#path-3"></use>
        <rect id="margin-fill" fill-opacity="0.1" fill="#8D8DA6" transform="translate(330.000000, 117.500000) scale(1, -1) translate(-330.000000, -117.500000) " x="115" y="90" width="430" height="55"></rect>
        <rect id="margin-fill" fill-opacity="0.1" fill="#8D8DA6" transform="translate(330.000000, 227.500000) scale(1, -1) translate(-330.000000, -227.500000) " x="115" y="200" width="430" height="55"></rect>
        <path id="line" d="M323,147 L323,145 L329,145 L329,92 L323,92 L323,90 L337,90 L337,92 L331,92 L331,145 L337,145 L337,147 L323,147 Z" fill="#8D8DA6" fill-rule="nonzero"></path>
        <path id="line" d="M323,255 L323,253 L329,253 L329,200 L323,200 L323,198 L337,198 L337,200 L331,200 L331,253 L337,253 L337,255 L323,255 Z" fill="#8D8DA6" fill-rule="nonzero"></path>
        <line x1="656" y1="145" x2="656" y2="200" id="line" stroke="#8D8DA6" stroke-width="2" stroke-linecap="square" transform="translate(656.000000, 172.500000) scale(1, -1) translate(-656.000000, -172.500000) "></line>
        <line x1="1084" y1="145" x2="1084" y2="200" id="line" stroke="#8D8DA6" stroke-width="2" stroke-linecap="square"></line>
        <path id="line" d="M323,200 L323,198 L329,198 L329,147 L323,147 L323,145 L337,145 L337,147 L331,147 L331,198 L337,198 L337,200 L323,200 Z" fill="#8D8DA6" fill-rule="nonzero"></path>
        <path id="line" d="M863,200 L863,198 L869,198 L869,147 L863,147 L863,145 L877,145 L877,147 L871,147 L871,198 L877,198 L877,200 L863,200 Z" fill="#8D8DA6" fill-rule="nonzero"></path>
        <g id="margin-value" transform="translate(298.000000, 117.000000) scale(1, -1) translate(-298.000000, -117.000000) translate(278.000000, 105.000000)">
            <rect id="pill" fill="#8D8DA6" x="0" y="0" width="40" height="24" rx="12"></rect>
            <text id="30" transform="translate(21.000000, 12.500000) scale(1, -1) translate(-21.000000, -12.500000) " font-family="Menlo-Bold, Menlo" font-size="16" font-weight="bold" fill="#F9FAFA">
                <tspan x="11" y="18">30</tspan>
            </text>
        </g>
        <g id="margin-value" transform="translate(298.000000, 171.000000) scale(1, -1) translate(-298.000000, -171.000000) translate(278.000000, 159.000000)">
            <rect id="pill" fill="#8D8DA6" x="0" y="0" width="40" height="24" rx="12"></rect>
            <text id="0" transform="translate(20.500000, 12.500000) scale(1, -1) translate(-20.500000, -12.500000) " font-family="Menlo-Bold, Menlo" font-size="16" font-weight="bold" fill="#F9FAFA">
                <tspan x="15.5" y="18">0</tspan>
            </text>
        </g>
        <g id="margin-value" transform="translate(838.000000, 171.000000) scale(1, -1) translate(-838.000000, -171.000000) translate(818.000000, 159.000000)">
            <rect id="pill" fill="#8D8DA6" x="0" y="0" width="40" height="24" rx="12"></rect>
            <text id="0" transform="translate(20.500000, 12.500000) scale(1, -1) translate(-20.500000, -12.500000) " font-family="Menlo-Bold, Menlo" font-size="16" font-weight="bold" fill="#F9FAFA">
                <tspan x="15.5" y="18">0</tspan>
            </text>
        </g>
        <g id="margin-value" transform="translate(298.000000, 227.000000) scale(1, -1) translate(-298.000000, -227.000000) translate(278.000000, 215.000000)">
            <rect id="pill" fill="#8D8DA6" x="0" y="0" width="40" height="24" rx="12"></rect>
            <text id="30" transform="translate(21.000000, 12.500000) scale(1, -1) translate(-21.000000, -12.500000) " font-family="Menlo-Bold, Menlo" font-size="16" font-weight="bold" fill="#F9FAFA">
                <tspan x="11" y="18">30</tspan>
            </text>
        </g>
    </g>
</svg>