<?xml version="1.0" encoding="UTF-8"?>
<svg width="1200px" height="595px" viewBox="0 0 1200 595" version="1.1" xmlns="http://www.w3.org/2000/svg" xmlns:xlink="http://www.w3.org/1999/xlink">
    <!-- Generator: Sketch 60.1 (88133) - https://sketch.com -->
    <title>parent-border-padding-bottom</title>
    <desc>Created with Sketch.</desc>
    <g id="parent-border-padding-bottom" stroke="none" stroke-width="1" fill="none" fill-rule="evenodd">
        <rect fill="#F9F9FB" x="0" y="0" width="1200" height="595"></rect>
        <rect id="margin-fill" fill-opacity="0.1" fill="#D75037" transform="translate(330.000000, 477.500000) scale(1, -1) translate(-330.000000, -477.500000) " x="115" y="450" width="430" height="55"></rect>
        <rect id="margin-fill" fill-opacity="0.1" fill="#D75037" transform="translate(870.000000, 477.500000) scale(1, -1) translate(-870.000000, -477.500000) " x="655" y="450" width="430" height="55"></rect>
        <rect id="parent" fill="#FFFFFF" transform="translate(330.000000, 270.000000) scale(1, -1) translate(-330.000000, -270.000000) " x="115" y="90" width="430" height="360"></rect>
        <rect id="parent" fill="#FFFFFF" transform="translate(870.000000, 270.000000) scale(1, -1) translate(-870.000000, -270.000000) " x="655" y="90" width="430" height="360"></rect>
        <rect id="margin-fill" fill-opacity="0.1" fill="#D75037" transform="translate(222.500000, 424.500000) scale(1, -1) translate(-222.500000, -424.500000) " x="115" y="397" width="215" height="55"></rect>
        <rect id="margin-fill" fill-opacity="0.1" fill="#D75037" transform="translate(762.500000, 367.500000) scale(1, -1) translate(-762.500000, -367.500000) " x="655" y="340" width="215" height="55"></rect>
        <rect id="margin-fill" fill-opacity="0.1" fill="#8D8DA6" transform="translate(870.000000, 422.500000) scale(1, -1) translate(-870.000000, -422.500000) " x="655" y="395" width="430" height="55"></rect>
        <rect id="child" stroke="#DEDEE6" stroke-width="2" fill="#FFFFFF" transform="translate(222.500000, 307.000000) scale(1, -1) translate(-222.500000, -307.000000) " x="116" y="218" width="213" height="178"></rect>
        <rect id="child" stroke="#DEDEE6" stroke-width="2" fill="#FFFFFF" transform="translate(762.500000, 250.000000) scale(1, -1) translate(-762.500000, -250.000000) " x="656" y="161" width="213" height="178"></rect>
        <polygon id="line" fill="#D75037" fill-rule="nonzero" points="323 505 323 503 329 503 329 452 323 452 323 450 337 450 337 452 331 452 331 503 337 503 337 505"></polygon>
        <path d="M871,182 L869,182 L869,189 L871,189 L871,182 Z M871,192 L869,192 L869,199 L871,199 L871,192 Z M871,202 L869,202 L869,209 L871,209 L871,202 Z M871,212 L869,212 L869,219 L871,219 L871,212 Z M871,222 L869,222 L869,229 L871,229 L871,222 Z M871,232 L869,232 L869,239 L871,239 L871,232 Z M871,242 L869,242 L869,249 L871,249 L871,242 Z M871,252 L869,252 L869,259 L871,259 L871,252 Z M871,262 L869,262 L869,269 L871,269 L871,262 Z M871,272 L869,272 L869,279 L871,279 L871,272 Z M871,282 L869,282 L869,289 L871,289 L871,282 Z M871,292 L869,292 L869,299 L871,299 L871,292 Z M871,302 L869,302 L869,309 L871,309 L871,302 Z M871,312 L869,312 L869,319 L871,319 L871,312 Z M871,322 L869,322 L869,329 L871,329 L871,322 Z M871,332 L869,332 L869,339 L871,339 L871,332 Z M871,342 L869,342 L869,349 L871,349 L871,342 Z M871,352 L869,352 L869,359 L871,359 L871,352 Z M871,362 L869,362 L869,369 L871,369 L871,362 Z M871,372 L869,372 L869,379 L871,379 L871,372 Z M871,382 L869,382 L869,389 L871,389 L871,382 Z M871,392 L869,392 L869,399 L871,399 L871,392 Z M871,402 L869,402 L869,409 L871,409 L871,402 Z M871,412 L869,412 L869,419 L871,419 L871,412 Z M871,422 L869,422 L869,429 L871,429 L871,422 Z M871,432 L869,432 L869,439 L871,439 L871,432 Z M871,442 L869,442 L869,449 L871,449 L871,442 Z M871,452 L869,452 L869,459 L871,459 L871,452 Z M871,462 L869,462 L869,469 L871,469 L871,462 Z M871,472 L869,472 L869,479 L871,479 L871,472 Z M871,482 L869,482 L869,489 L871,489 L871,482 Z M871,492 L869,492 L869,499 L871,499 L871,492 Z M871,502 L869,502 L869,509 L871,509 L871,502 Z M871,512 L869,512 L869,519 L871,519 L871,512 Z M871,522 L869,522 L869,529 L871,529 L871,522 Z M871,532 L869,532 L869,539 L871,539 L871,532 Z M871,542 L869,542 L869,549 L871,549 L871,542 Z M871,552 L869,552 L869,559 L871,559 L871,552 Z M871,562 L869,562 L869,569 L871,569 L871,562 Z M871,572 L869,572 L869,579 L871,579 L871,572 Z M871,582 L869,582 L869,589 L871,589 L871,582 Z M871,592 L869,592 L869,599 L871,599 L871,592 Z M871,602 L869,602 L869,609 L871,609 L871,602 Z" id="line" fill="#8D8DA6" fill-rule="nonzero" transform="translate(870.000000, 395.500000) rotate(-270.000000) translate(-870.000000, -395.500000) "></path>
        <path d="M871,235 L869,235 L869,242 L871,242 L871,235 Z M871,245 L869,245 L869,252 L871,252 L871,245 Z M871,255 L869,255 L869,262 L871,262 L871,255 Z M871,265 L869,265 L869,272 L871,272 L871,265 Z M871,275 L869,275 L869,282 L871,282 L871,275 Z M871,285 L869,285 L869,292 L871,292 L871,285 Z M871,295 L869,295 L869,302 L871,302 L871,295 Z M871,305 L869,305 L869,312 L871,312 L871,305 Z M871,315 L869,315 L869,322 L871,322 L871,315 Z M871,325 L869,325 L869,332 L871,332 L871,325 Z M871,335 L869,335 L869,342 L871,342 L871,335 Z M871,345 L869,345 L869,352 L871,352 L871,345 Z M871,355 L869,355 L869,362 L871,362 L871,355 Z M871,365 L869,365 L869,372 L871,372 L871,365 Z M871,375 L869,375 L869,382 L871,382 L871,375 Z M871,385 L869,385 L869,392 L871,392 L871,385 Z M871,395 L869,395 L869,402 L871,402 L871,395 Z M871,405 L869,405 L869,412 L871,412 L871,405 Z M871,415 L869,415 L869,422 L871,422 L871,415 Z M871,425 L869,425 L869,432 L871,432 L871,425 Z M871,435 L869,435 L869,442 L871,442 L871,435 Z M871,445 L869,445 L869,452 L871,452 L871,445 Z M871,455 L869,455 L869,462 L871,462 L871,455 Z M871,465 L869,465 L869,472 L871,472 L871,465 Z M871,475 L869,475 L869,482 L871,482 L871,475 Z M871,485 L869,485 L869,492 L871,492 L871,485 Z M871,495 L869,495 L869,502 L871,502 L871,495 Z M871,505 L869,505 L869,512 L871,512 L871,505 Z M871,515 L869,515 L869,522 L871,522 L871,515 Z M871,525 L869,525 L869,532 L871,532 L871,525 Z M871,535 L869,535 L869,542 L871,542 L871,535 Z M871,545 L869,545 L869,552 L871,552 L871,545 Z M871,555 L869,555 L869,562 L871,562 L871,555 Z M871,565 L869,565 L869,572 L871,572 L871,565 Z M871,575 L869,575 L869,582 L871,582 L871,575 Z M871,585 L869,585 L869,592 L871,592 L871,585 Z M871,595 L869,595 L869,602 L871,602 L871,595 Z M871,605 L869,605 L869,612 L871,612 L871,605 Z M871,615 L869,615 L869,622 L871,622 L871,615 Z M871,625 L869,625 L869,632 L871,632 L871,625 Z M871,635 L869,635 L869,642 L871,642 L871,635 Z M871,645 L869,645 L869,652 L871,652 L871,645 Z M871,655 L869,655 L869,662 L871,662 L871,655 Z" id="line" fill="#8D8DA6" fill-rule="nonzero" transform="translate(870.000000, 448.500000) rotate(-270.000000) translate(-870.000000, -448.500000) "></path>
        <polygon id="line" fill="#D75037" fill-rule="nonzero" points="756 395 756 393 762 393 762 342 756 342 756 340 770 340 770 342 764 342 764 393 770 393 770 395"></polygon>
        <polygon id="line" fill="#D75037" fill-rule="nonzero" points="863 505 863 503 869 503 869 452 863 452 863 450 877 450 877 452 871 452 871 503 877 503 877 505"></polygon>
        <g id="margin-value" transform="translate(298.000000, 477.000000) scale(1, -1) translate(-298.000000, -477.000000) translate(278.000000, 465.000000)">
            <rect id="pill" fill="#D75037" x="0" y="0" width="40" height="24" rx="12"></rect>
            <text id="30" transform="translate(21.000000, 12.500000) scale(1, -1) translate(-21.000000, -12.500000) " font-family="Menlo-Bold, Menlo" font-size="16" font-weight="bold" fill="#F9FAFA">
                <tspan x="11" y="18">30</tspan>
            </text>
        </g>
        <g id="margin-value" transform="translate(838.000000, 477.000000) scale(1, -1) translate(-838.000000, -477.000000) translate(818.000000, 465.000000)">
            <rect id="pill" fill="#D75037" x="0" y="0" width="40" height="24" rx="12"></rect>
            <text id="30" transform="translate(21.000000, 12.500000) scale(1, -1) translate(-21.000000, -12.500000) " font-family="Menlo-Bold, Menlo" font-size="16" font-weight="bold" fill="#F9FAFA">
                <tspan x="11" y="18">30</tspan>
            </text>
        </g>
        <g id="margin-value" transform="translate(191.000000, 424.000000) scale(1, -1) translate(-191.000000, -424.000000) translate(171.000000, 412.000000)">
            <rect id="pill" fill="#D75037" x="0" y="0" width="40" height="24" rx="12"></rect>
            <text id="30" transform="translate(21.000000, 12.500000) scale(1, -1) translate(-21.000000, -12.500000) " font-family="Menlo-Bold, Menlo" font-size="16" font-weight="bold" fill="#F9FAFA">
                <tspan x="11" y="18">30</tspan>
            </text>
        </g>
        <g id="margin-value" transform="translate(731.000000, 367.000000) scale(1, -1) translate(-731.000000, -367.000000) translate(711.000000, 355.000000)">
            <rect id="pill" fill="#D75037" x="0" y="0" width="40" height="24" rx="12"></rect>
            <text id="30" transform="translate(21.000000, 12.500000) scale(1, -1) translate(-21.000000, -12.500000) " font-family="Menlo-Bold, Menlo" font-size="16" font-weight="bold" fill="#F9FAFA">
                <tspan x="11" y="18">30</tspan>
            </text>
        </g>
        <polygon id="line" fill="#D75037" fill-rule="nonzero" points="216 452 216 450 222 450 222 399 216 399 216 397 230 397 230 399 224 399 224 450 230 450 230 452"></polygon>
        <line x1="330.5" y1="237" x2="330.5" y2="665" id="line" stroke="#8D8DA6" stroke-width="2" stroke-linecap="square" transform="translate(330.500000, 451.000000) rotate(-90.000000) translate(-330.500000, -451.000000) "></line>
    </g>
</svg>