<?xml version="1.0" encoding="UTF-8"?>
<svg width="1200px" height="595px" viewBox="0 0 1200 595" version="1.1" xmlns="http://www.w3.org/2000/svg" xmlns:xlink="http://www.w3.org/1999/xlink">
    <!-- Generator: Sketch 60.1 (88133) - https://sketch.com -->
    <title>parent-border-padding-bottom</title>
    <desc>Created with Sketch.</desc>
    <g id="parent-border-padding-bottom" stroke="none" stroke-width="1" fill="none" fill-rule="evenodd">
        <rect fill="#F9F9FB" x="0" y="0" width="1200" height="595"></rect>
        <rect id="margin-fill" fill-opacity="0.1" fill="#D75037" transform="translate(330.000000, 477.500000) scale(1, -1) translate(-330.000000, -477.500000) " x="115" y="450" width="430" height="55"></rect>
        <rect id="margin-fill" fill-opacity="0.1" fill="#D75037" transform="translate(870.000000, 477.500000) scale(1, -1) translate(-870.000000, -477.500000) " x="655" y="450" width="430" height="55"></rect>
        <rect id="parent" fill="#FFFFFF" transform="translate(330.000000, 270.000000) scale(1, -1) translate(-330.000000, -270.000000) " x="115" y="90" width="430" height="360"></rect>
        <rect id="parent" fill="#FFFFFF" transform="translate(870.000000, 270.000000) scale(1, -1) translate(-870.000000, -270.000000) " x="655" y="90" width="430" height="360"></rect>
        <rect id="margin-fill" fill-opacity="0.1" fill="#D75037" transform="translate(222.500000, 424.500000) scale(1, -1) translate(-222.500000, -424.500000) " x="115" y="397" width="215" height="55"></rect>
        <rect id="margin-fill" fill-opacity="0.1" fill="#D75037" transform="translate(762.500000, 367.500000) scale(1, -1) translate(-762.500000, -367.500000) " x="655" y="340" width="215" height="55"></rect>
        <rect id="margin-fill" fill-opacity="0.1" fill="#8D8DA6" transform="translate(870.000000, 422.500000) scale(1, -1) translate(-870.000000, -422.500000) " x="655" y="395" width="430" height="55"></rect>
        <rect id="child" stroke="#DEDEE6" stroke-width="2" fill="#FFFFFF" transform="translate(222.500000, 307.000000) scale(1, -1) translate(-222.500000, -307.000000) " x="116" y="218" width="213" height="178"></rect>
        <rect id="child" stroke="#DEDEE6" stroke-width="2" fill="#FFFFFF" transform="translate(762.500000, 250.000000) scale(1, -1) translate(-762.500000, -250.000000) " x="656" y="161" width="213" height="178"></rect>
        <path d="M871,182.5 L869,182.5 L869,189.5 L871,189.5 L871,182.5 Z M871,192.5 L869,192.5 L869,199.5 L871,199.5 L871,192.5 Z M871,202.5 L869,202.5 L869,209.5 L871,209.5 L871,202.5 Z M871,212.5 L869,212.5 L869,219.5 L871,219.5 L871,212.5 Z M871,222.5 L869,222.5 L869,229.5 L871,229.5 L871,222.5 Z M871,232.5 L869,232.5 L869,239.5 L871,239.5 L871,232.5 Z M871,242.5 L869,242.5 L869,249.5 L871,249.5 L871,242.5 Z M871,252.5 L869,252.5 L869,259.5 L871,259.5 L871,252.5 Z M871,262.5 L869,262.5 L869,269.5 L871,269.5 L871,262.5 Z M871,272.5 L869,272.5 L869,279.5 L871,279.5 L871,272.5 Z M871,282.5 L869,282.5 L869,289.5 L871,289.5 L871,282.5 Z M871,292.5 L869,292.5 L869,299.5 L871,299.5 L871,292.5 Z M871,302.5 L869,302.5 L869,309.5 L871,309.5 L871,302.5 Z M871,312.5 L869,312.5 L869,319.5 L871,319.5 L871,312.5 Z M871,322.5 L869,322.5 L869,329.5 L871,329.5 L871,322.5 Z M871,332.5 L869,332.5 L869,339.5 L871,339.5 L871,332.5 Z M871,342.5 L869,342.5 L869,349.5 L871,349.5 L871,342.5 Z M871,352.5 L869,352.5 L869,359.5 L871,359.5 L871,352.5 Z M871,362.5 L869,362.5 L869,369.5 L871,369.5 L871,362.5 Z M871,372.5 L869,372.5 L869,379.5 L871,379.5 L871,372.5 Z M871,382.5 L869,382.5 L869,389.5 L871,389.5 L871,382.5 Z M871,392.5 L869,392.5 L869,399.5 L871,399.5 L871,392.5 Z M871,402.5 L869,402.5 L869,409.5 L871,409.5 L871,402.5 Z M871,412.5 L869,412.5 L869,419.5 L871,419.5 L871,412.5 Z M871,422.5 L869,422.5 L869,429.5 L871,429.5 L871,422.5 Z M871,432.5 L869,432.5 L869,439.5 L871,439.5 L871,432.5 Z M871,442.5 L869,442.5 L869,449.5 L871,449.5 L871,442.5 Z M871,452.5 L869,452.5 L869,459.5 L871,459.5 L871,452.5 Z M871,462.5 L869,462.5 L869,469.5 L871,469.5 L871,462.5 Z M871,472.5 L869,472.5 L869,479.5 L871,479.5 L871,472.5 Z M871,482.5 L869,482.5 L869,489.5 L871,489.5 L871,482.5 Z M871,492.5 L869,492.5 L869,499.5 L871,499.5 L871,492.5 Z M871,502.5 L869,502.5 L869,509.5 L871,509.5 L871,502.5 Z M871,512.5 L869,512.5 L869,519.5 L871,519.5 L871,512.5 Z M871,522.5 L869,522.5 L869,529.5 L871,529.5 L871,522.5 Z M871,532.5 L869,532.5 L869,539.5 L871,539.5 L871,532.5 Z M871,542.5 L869,542.5 L869,549.5 L871,549.5 L871,542.5 Z M871,552.5 L869,552.5 L869,559.5 L871,559.5 L871,552.5 Z M871,562.5 L869,562.5 L869,569.5 L871,569.5 L871,562.5 Z M871,572.5 L869,572.5 L869,579.5 L871,579.5 L871,572.5 Z M871,582.5 L869,582.5 L869,589.5 L871,589.5 L871,582.5 Z M871,592.5 L869,592.5 L869,599.5 L871,599.5 L871,592.5 Z M871,602.5 L869,602.5 L869,609.5 L871,609.5 L871,602.5 Z" id="line" fill="#8D8DA6" fill-rule="nonzero" transform="translate(870.000000, 396.000000) rotate(-270.000000) translate(-870.000000, -396.000000) "></path>
        <path d="M871,235.5 L869,235.5 L869,242.5 L871,242.5 L871,235.5 Z M871,245.5 L869,245.5 L869,252.5 L871,252.5 L871,245.5 Z M871,255.5 L869,255.5 L869,262.5 L871,262.5 L871,255.5 Z M871,265.5 L869,265.5 L869,272.5 L871,272.5 L871,265.5 Z M871,275.5 L869,275.5 L869,282.5 L871,282.5 L871,275.5 Z M871,285.5 L869,285.5 L869,292.5 L871,292.5 L871,285.5 Z M871,295.5 L869,295.5 L869,302.5 L871,302.5 L871,295.5 Z M871,305.5 L869,305.5 L869,312.5 L871,312.5 L871,305.5 Z M871,315.5 L869,315.5 L869,322.5 L871,322.5 L871,315.5 Z M871,325.5 L869,325.5 L869,332.5 L871,332.5 L871,325.5 Z M871,335.5 L869,335.5 L869,342.5 L871,342.5 L871,335.5 Z M871,345.5 L869,345.5 L869,352.5 L871,352.5 L871,345.5 Z M871,355.5 L869,355.5 L869,362.5 L871,362.5 L871,355.5 Z M871,365.5 L869,365.5 L869,372.5 L871,372.5 L871,365.5 Z M871,375.5 L869,375.5 L869,382.5 L871,382.5 L871,375.5 Z M871,385.5 L869,385.5 L869,392.5 L871,392.5 L871,385.5 Z M871,395.5 L869,395.5 L869,402.5 L871,402.5 L871,395.5 Z M871,405.5 L869,405.5 L869,412.5 L871,412.5 L871,405.5 Z M871,415.5 L869,415.5 L869,422.5 L871,422.5 L871,415.5 Z M871,425.5 L869,425.5 L869,432.5 L871,432.5 L871,425.5 Z M871,435.5 L869,435.5 L869,442.5 L871,442.5 L871,435.5 Z M871,445.5 L869,445.5 L869,452.5 L871,452.5 L871,445.5 Z M871,455.5 L869,455.5 L869,462.5 L871,462.5 L871,455.5 Z M871,465.5 L869,465.5 L869,472.5 L871,472.5 L871,465.5 Z M871,475.5 L869,475.5 L869,482.5 L871,482.5 L871,475.5 Z M871,485.5 L869,485.5 L869,492.5 L871,492.5 L871,485.5 Z M871,495.5 L869,495.5 L869,502.5 L871,502.5 L871,495.5 Z M871,505.5 L869,505.5 L869,512.5 L871,512.5 L871,505.5 Z M871,515.5 L869,515.5 L869,522.5 L871,522.5 L871,515.5 Z M871,525.5 L869,525.5 L869,532.5 L871,532.5 L871,525.5 Z M871,535.5 L869,535.5 L869,542.5 L871,542.5 L871,535.5 Z M871,545.5 L869,545.5 L869,552.5 L871,552.5 L871,545.5 Z M871,555.5 L869,555.5 L869,562.5 L871,562.5 L871,555.5 Z M871,565.5 L869,565.5 L869,572.5 L871,572.5 L871,565.5 Z M871,575.5 L869,575.5 L869,582.5 L871,582.5 L871,575.5 Z M871,585.5 L869,585.5 L869,592.5 L871,592.5 L871,585.5 Z M871,595.5 L869,595.5 L869,602.5 L871,602.5 L871,595.5 Z M871,605.5 L869,605.5 L869,612.5 L871,612.5 L871,605.5 Z M871,615.5 L869,615.5 L869,622.5 L871,622.5 L871,615.5 Z M871,625.5 L869,625.5 L869,632.5 L871,632.5 L871,625.5 Z M871,635.5 L869,635.5 L869,642.5 L871,642.5 L871,635.5 Z M871,645.5 L869,645.5 L869,652.5 L871,652.5 L871,645.5 Z M871,655.5 L869,655.5 L869,662.5 L871,662.5 L871,655.5 Z" id="line" fill="#8D8DA6" fill-rule="nonzero" transform="translate(870.000000, 449.000000) rotate(-270.000000) translate(-870.000000, -449.000000) "></path>
        <g id="margin-value" transform="translate(298.000000, 477.000000) scale(1, -1) translate(-298.000000, -477.000000) translate(278.000000, 465.000000)">
            <rect id="pill" fill="#D75037" x="0" y="0" width="40" height="24" rx="12"></rect>
            <text id="30" transform="translate(21.000000, 12.500000) scale(1, -1) translate(-21.000000, -12.500000) " font-family="Menlo-Bold, Menlo" font-size="16" font-weight="bold" fill="#F9FAFA">
                <tspan x="11" y="18">30</tspan>
            </text>
        </g>
        <g id="margin-value" transform="translate(838.000000, 477.000000) scale(1, -1) translate(-838.000000, -477.000000) translate(818.000000, 465.000000)">
            <rect id="pill" fill="#D75037" x="0" y="0" width="40" height="24" rx="12"></rect>
            <text id="30" transform="translate(21.000000, 12.500000) scale(1, -1) translate(-21.000000, -12.500000) " font-family="Menlo-Bold, Menlo" font-size="16" font-weight="bold" fill="#F9FAFA">
                <tspan x="11" y="18">30</tspan>
            </text>
        </g>
        <g id="margin-value" transform="translate(191.000000, 424.000000) scale(1, -1) translate(-191.000000, -424.000000) translate(171.000000, 412.000000)">
            <rect id="pill" fill="#D75037" x="0" y="0" width="40" height="24" rx="12"></rect>
            <text id="30" transform="translate(21.000000, 12.500000) scale(1, -1) translate(-21.000000, -12.500000) " font-family="Menlo-Bold, Menlo" font-size="16" font-weight="bold" fill="#F9FAFA">
                <tspan x="11" y="18">30</tspan>
            </text>
        </g>
        <g id="margin-value" transform="translate(731.000000, 367.000000) scale(1, -1) translate(-731.000000, -367.000000) translate(711.000000, 355.000000)">
            <rect id="pill" fill="#D75037" x="0" y="0" width="40" height="24" rx="12"></rect>
            <text id="30" transform="translate(21.000000, 12.500000) scale(1, -1) translate(-21.000000, -12.500000) " font-family="Menlo-Bold, Menlo" font-size="16" font-weight="bold" fill="#F9FAFA">
                <tspan x="11" y="18">30</tspan>
            </text>
        </g>
        <line x1="330.5" y1="237" x2="330.5" y2="665" id="line" stroke="#8D8DA6" stroke-width="2" stroke-linecap="square" transform="translate(330.500000, 451.000000) rotate(-90.000000) translate(-330.500000, -451.000000) "></line>
        <polygon id="line" fill="#D75037" fill-rule="nonzero" points="216 452 216 450 222 450 222 397 216 397 216 395 230 395 230 397 224 397 224 450 230 450 230 452"></polygon>
        <polygon id="line" fill="#D75037" fill-rule="nonzero" points="323 505 323 503 329 503 329 452 323 452 323 450 337 450 337 452 331 452 331 503 337 503 337 505"></polygon>
        <polygon id="line" fill="#D75037" fill-rule="nonzero" points="756 397 756 395 762 395 762 340 756 340 756 338 770 338 770 340 764 340 764 395 770 395 770 397"></polygon>
        <polygon id="line" fill="#D75037" fill-rule="nonzero" points="863 505 863 503 869 503 869 450 863 450 863 448 877 448 877 450 871 450 871 503 877 503 877 505"></polygon>
    </g>
</svg>