<?xml version="1.0" encoding="UTF-8"?>
<svg width="1200px" height="595px" viewBox="0 0 1200 595" version="1.1" xmlns="http://www.w3.org/2000/svg" xmlns:xlink="http://www.w3.org/1999/xlink">
    <!-- Generator: Sketch 60.1 (88133) - https://sketch.com -->
    <title>parent-border-padding-top</title>
    <desc>Created with Sketch.</desc>
    <g id="parent-border-padding-top" stroke="none" stroke-width="1" fill="none" fill-rule="evenodd">
        <rect fill="#F9F9FB" x="0" y="0" width="1200" height="595"></rect>
        <rect id="margin-fill" fill-opacity="0.1" fill="#D75037" x="655" y="90" width="430" height="55"></rect>
        <rect id="parent" fill="#FFFFFF" x="655" y="145" width="430" height="360"></rect>
        <rect id="margin-fill" fill-opacity="0.1" fill="#D75037" x="655" y="200" width="215" height="55"></rect>
        <rect id="margin-fill" fill-opacity="0.1" fill="#8D8DA6" x="655" y="145" width="430" height="55"></rect>
        <rect id="child" stroke="#DEDEE6" stroke-width="2" fill="#FFFFFF" x="656" y="256" width="213" height="178"></rect>
        <line x1="870" y1="-15" x2="870" y2="413" id="line" stroke="#8D8DA6" stroke-width="2" stroke-linecap="square" stroke-dasharray="5" transform="translate(870.000000, 199.000000) scale(1, -1) rotate(-270.000000) translate(-870.000000, -199.000000) "></line>
        <line x1="870" y1="-68" x2="870" y2="360" id="line" stroke="#8D8DA6" stroke-width="2" stroke-linecap="square" stroke-dasharray="5" transform="translate(870.000000, 146.000000) scale(1, -1) rotate(-270.000000) translate(-870.000000, -146.000000) "></line>
        <g id="margin-value" transform="translate(818.000000, 106.000000)">
            <rect id="pill" fill="#D75037" x="0" y="0" width="40" height="24" rx="12"></rect>
            <text id="30" font-family="Menlo-Bold, Menlo" font-size="16" font-weight="bold" fill="#F9FAFA">
                <tspan x="11" y="17">30</tspan>
            </text>
        </g>
        <g id="margin-value" transform="translate(711.000000, 216.000000)">
            <rect id="pill" fill="#D75037" x="0" y="0" width="40" height="24" rx="12"></rect>
            <text id="30" font-family="Menlo-Bold, Menlo" font-size="16" font-weight="bold" fill="#F9FAFA">
                <tspan x="11" y="17">30</tspan>
            </text>
        </g>
        <rect id="margin-fill" fill-opacity="0.1" fill="#D75037" x="115" y="90" width="430" height="55"></rect>
        <rect id="parent" fill="#FFFFFF" x="115" y="145" width="430" height="360"></rect>
        <rect id="margin-fill" fill-opacity="0.1" fill="#D75037" x="115" y="145" width="215" height="55"></rect>
        <rect id="child" stroke="#DEDEE6" stroke-width="2" fill="#FFFFFF" x="116" y="201" width="213" height="178"></rect>
        <path id="line" d="M323,145 L323,143 L329,143 L329,92 L323,92 L323,90 L337,90 L337,92 L331,92 L331,143 L337,143 L337,145 L323,145 Z" fill="#D75037" fill-rule="nonzero"></path>
        <path id="line" d="M216,200 L216,198 L222,198 L222,145 L216,145 L216,143 L230,143 L230,145 L224,145 L224,198 L230,198 L230,200 L216,200 Z" fill="#D75037" fill-rule="nonzero"></path>
        <line x1="330.5" y1="-70" x2="330.5" y2="358" id="line" stroke="#8D8DA6" stroke-width="2" stroke-linecap="square" transform="translate(330.500000, 144.000000) rotate(-90.000000) translate(-330.500000, -144.000000) "></line>
        <g id="margin-value" transform="translate(278.000000, 106.000000)">
            <rect id="pill" fill="#D75037" x="0" y="0" width="40" height="24" rx="12"></rect>
            <text id="30" font-family="Menlo-Bold, Menlo" font-size="16" font-weight="bold" fill="#F9FAFA">
                <tspan x="11" y="17">30</tspan>
            </text>
        </g>
        <g id="margin-value" transform="translate(171.000000, 161.000000)">
            <rect id="pill" fill="#D75037" x="0" y="0" width="40" height="24" rx="12"></rect>
            <text id="30" font-family="Menlo-Bold, Menlo" font-size="16" font-weight="bold" fill="#F9FAFA">
                <tspan x="11" y="17">30</tspan>
            </text>
        </g>
        <path id="line" d="M756,255 L756,253 L762,253 L762,202 L756,202 L756,200 L770,200 L770,202 L764,202 L764,253 L770,253 L770,255 L756,255 Z" fill="#D75037" fill-rule="nonzero"></path>
        <path id="line" d="M863,145 L863,143 L869,143 L869,92 L863,92 L863,90 L877,90 L877,92 L871,92 L871,143 L877,143 L877,145 L863,145 Z" fill="#D75037" fill-rule="nonzero"></path>
    </g>
</svg>