<?xml version="1.0" encoding="UTF-8"?>
<svg width="1200px" height="595px" viewBox="0 0 1200 595" version="1.1" xmlns="http://www.w3.org/2000/svg" xmlns:xlink="http://www.w3.org/1999/xlink">
    <!-- Generator: Sketch 60.1 (88133) - https://sketch.com -->
    <title>parent-border-padding-top</title>
    <desc>Created with Sketch.</desc>
    <g id="parent-border-padding-top" stroke="none" stroke-width="1" fill="none" fill-rule="evenodd">
        <rect fill="#F9F9FB" x="0" y="0" width="1200" height="595"></rect>
        <rect id="margin-fill" fill-opacity="0.1" fill="#D75037" x="655" y="90" width="430" height="55"></rect>
        <rect id="parent" fill="#FFFFFF" x="655" y="145" width="430" height="360"></rect>
        <rect id="margin-fill" fill-opacity="0.1" fill="#D75037" x="655" y="200" width="215" height="55"></rect>
        <rect id="margin-fill" fill-opacity="0.1" fill="#8D8DA6" x="655" y="145" width="430" height="55"></rect>
        <rect id="child" stroke="#DEDEE6" stroke-width="2" fill="#FFFFFF" x="656" y="256" width="213" height="178"></rect>
        <path d="M871,-14.5 L869,-14.5 L869,-7.5 L871,-7.5 L871,-14.5 Z M871,-4.5 L869,-4.5 L869,2.5 L871,2.5 L871,-4.5 Z M871,5.5 L869,5.5 L869,12.5 L871,12.5 L871,5.5 Z M871,15.5 L869,15.5 L869,22.5 L871,22.5 L871,15.5 Z M871,25.5 L869,25.5 L869,32.5 L871,32.5 L871,25.5 Z M871,35.5 L869,35.5 L869,42.5 L871,42.5 L871,35.5 Z M871,45.5 L869,45.5 L869,52.5 L871,52.5 L871,45.5 Z M871,55.5 L869,55.5 L869,62.5 L871,62.5 L871,55.5 Z M871,65.5 L869,65.5 L869,72.5 L871,72.5 L871,65.5 Z M871,75.5 L869,75.5 L869,82.5 L871,82.5 L871,75.5 Z M871,85.5 L869,85.5 L869,92.5 L871,92.5 L871,85.5 Z M871,95.5 L869,95.5 L869,102.5 L871,102.5 L871,95.5 Z M871,105.5 L869,105.5 L869,112.5 L871,112.5 L871,105.5 Z M871,115.5 L869,115.5 L869,122.5 L871,122.5 L871,115.5 Z M871,125.5 L869,125.5 L869,132.5 L871,132.5 L871,125.5 Z M871,135.5 L869,135.5 L869,142.5 L871,142.5 L871,135.5 Z M871,145.5 L869,145.5 L869,152.5 L871,152.5 L871,145.5 Z M871,155.5 L869,155.5 L869,162.5 L871,162.5 L871,155.5 Z M871,165.5 L869,165.5 L869,172.5 L871,172.5 L871,165.5 Z M871,175.5 L869,175.5 L869,182.5 L871,182.5 L871,175.5 Z M871,185.5 L869,185.5 L869,192.5 L871,192.5 L871,185.5 Z M871,195.5 L869,195.5 L869,202.5 L871,202.5 L871,195.5 Z M871,205.5 L869,205.5 L869,212.5 L871,212.5 L871,205.5 Z M871,215.5 L869,215.5 L869,222.5 L871,222.5 L871,215.5 Z M871,225.5 L869,225.5 L869,232.5 L871,232.5 L871,225.5 Z M871,235.5 L869,235.5 L869,242.5 L871,242.5 L871,235.5 Z M871,245.5 L869,245.5 L869,252.5 L871,252.5 L871,245.5 Z M871,255.5 L869,255.5 L869,262.5 L871,262.5 L871,255.5 Z M871,265.5 L869,265.5 L869,272.5 L871,272.5 L871,265.5 Z M871,275.5 L869,275.5 L869,282.5 L871,282.5 L871,275.5 Z M871,285.5 L869,285.5 L869,292.5 L871,292.5 L871,285.5 Z M871,295.5 L869,295.5 L869,302.5 L871,302.5 L871,295.5 Z M871,305.5 L869,305.5 L869,312.5 L871,312.5 L871,305.5 Z M871,315.5 L869,315.5 L869,322.5 L871,322.5 L871,315.5 Z M871,325.5 L869,325.5 L869,332.5 L871,332.5 L871,325.5 Z M871,335.5 L869,335.5 L869,342.5 L871,342.5 L871,335.5 Z M871,345.5 L869,345.5 L869,352.5 L871,352.5 L871,345.5 Z M871,355.5 L869,355.5 L869,362.5 L871,362.5 L871,355.5 Z M871,365.5 L869,365.5 L869,372.5 L871,372.5 L871,365.5 Z M871,375.5 L869,375.5 L869,382.5 L871,382.5 L871,375.5 Z M871,385.5 L869,385.5 L869,392.5 L871,392.5 L871,385.5 Z M871,395.5 L869,395.5 L869,402.5 L871,402.5 L871,395.5 Z M871,405.5 L869,405.5 L869,412.5 L871,412.5 L871,405.5 Z" id="line" fill="#8D8DA6" fill-rule="nonzero" transform="translate(870.000000, 199.000000) scale(1, -1) rotate(-270.000000) translate(-870.000000, -199.000000) "></path>
        <path d="M871,-67.5 L869,-67.5 L869,-60.5 L871,-60.5 L871,-67.5 Z M871,-57.5 L869,-57.5 L869,-50.5 L871,-50.5 L871,-57.5 Z M871,-47.5 L869,-47.5 L869,-40.5 L871,-40.5 L871,-47.5 Z M871,-37.5 L869,-37.5 L869,-30.5 L871,-30.5 L871,-37.5 Z M871,-27.5 L869,-27.5 L869,-20.5 L871,-20.5 L871,-27.5 Z M871,-17.5 L869,-17.5 L869,-10.5 L871,-10.5 L871,-17.5 Z M871,-7.5 L869,-7.5 L869,-0.5 L871,-0.5 L871,-7.5 Z M871,2.5 L869,2.5 L869,9.5 L871,9.5 L871,2.5 Z M871,12.5 L869,12.5 L869,19.5 L871,19.5 L871,12.5 Z M871,22.5 L869,22.5 L869,29.5 L871,29.5 L871,22.5 Z M871,32.5 L869,32.5 L869,39.5 L871,39.5 L871,32.5 Z M871,42.5 L869,42.5 L869,49.5 L871,49.5 L871,42.5 Z M871,52.5 L869,52.5 L869,59.5 L871,59.5 L871,52.5 Z M871,62.5 L869,62.5 L869,69.5 L871,69.5 L871,62.5 Z M871,72.5 L869,72.5 L869,79.5 L871,79.5 L871,72.5 Z M871,82.5 L869,82.5 L869,89.5 L871,89.5 L871,82.5 Z M871,92.5 L869,92.5 L869,99.5 L871,99.5 L871,92.5 Z M871,102.5 L869,102.5 L869,109.5 L871,109.5 L871,102.5 Z M871,112.5 L869,112.5 L869,119.5 L871,119.5 L871,112.5 Z M871,122.5 L869,122.5 L869,129.5 L871,129.5 L871,122.5 Z M871,132.5 L869,132.5 L869,139.5 L871,139.5 L871,132.5 Z M871,142.5 L869,142.5 L869,149.5 L871,149.5 L871,142.5 Z M871,152.5 L869,152.5 L869,159.5 L871,159.5 L871,152.5 Z M871,162.5 L869,162.5 L869,169.5 L871,169.5 L871,162.5 Z M871,172.5 L869,172.5 L869,179.5 L871,179.5 L871,172.5 Z M871,182.5 L869,182.5 L869,189.5 L871,189.5 L871,182.5 Z M871,192.5 L869,192.5 L869,199.5 L871,199.5 L871,192.5 Z M871,202.5 L869,202.5 L869,209.5 L871,209.5 L871,202.5 Z M871,212.5 L869,212.5 L869,219.5 L871,219.5 L871,212.5 Z M871,222.5 L869,222.5 L869,229.5 L871,229.5 L871,222.5 Z M871,232.5 L869,232.5 L869,239.5 L871,239.5 L871,232.5 Z M871,242.5 L869,242.5 L869,249.5 L871,249.5 L871,242.5 Z M871,252.5 L869,252.5 L869,259.5 L871,259.5 L871,252.5 Z M871,262.5 L869,262.5 L869,269.5 L871,269.5 L871,262.5 Z M871,272.5 L869,272.5 L869,279.5 L871,279.5 L871,272.5 Z M871,282.5 L869,282.5 L869,289.5 L871,289.5 L871,282.5 Z M871,292.5 L869,292.5 L869,299.5 L871,299.5 L871,292.5 Z M871,302.5 L869,302.5 L869,309.5 L871,309.5 L871,302.5 Z M871,312.5 L869,312.5 L869,319.5 L871,319.5 L871,312.5 Z M871,322.5 L869,322.5 L869,329.5 L871,329.5 L871,322.5 Z M871,332.5 L869,332.5 L869,339.5 L871,339.5 L871,332.5 Z M871,342.5 L869,342.5 L869,349.5 L871,349.5 L871,342.5 Z M871,352.5 L869,352.5 L869,359.5 L871,359.5 L871,352.5 Z" id="line" fill="#8D8DA6" fill-rule="nonzero" transform="translate(870.000000, 146.000000) scale(1, -1) rotate(-270.000000) translate(-870.000000, -146.000000) "></path>
        <g id="margin-value" transform="translate(818.000000, 106.000000)">
            <rect id="pill" fill="#D75037" x="0" y="0" width="40" height="24" rx="12"></rect>
            <text id="30" font-family="Menlo-Bold, Menlo" font-size="16" font-weight="bold" fill="#F9FAFA">
                <tspan x="11" y="17">30</tspan>
            </text>
        </g>
        <g id="margin-value" transform="translate(711.000000, 216.000000)">
            <rect id="pill" fill="#D75037" x="0" y="0" width="40" height="24" rx="12"></rect>
            <text id="30" font-family="Menlo-Bold, Menlo" font-size="16" font-weight="bold" fill="#F9FAFA">
                <tspan x="11" y="17">30</tspan>
            </text>
        </g>
        <rect id="margin-fill" fill-opacity="0.1" fill="#D75037" x="115" y="90" width="430" height="55"></rect>
        <rect id="parent" fill="#FFFFFF" x="115" y="145" width="430" height="360"></rect>
        <rect id="margin-fill" fill-opacity="0.1" fill="#D75037" x="115" y="145" width="215" height="55"></rect>
        <rect id="child" stroke="#DEDEE6" stroke-width="2" fill="#FFFFFF" x="116" y="201" width="213" height="178"></rect>
        <line x1="330.5" y1="-70" x2="330.5" y2="358" id="line" stroke="#8D8DA6" stroke-width="2" stroke-linecap="square" transform="translate(330.500000, 144.000000) rotate(-90.000000) translate(-330.500000, -144.000000) "></line>
        <g id="margin-value" transform="translate(278.000000, 106.000000)">
            <rect id="pill" fill="#D75037" x="0" y="0" width="40" height="24" rx="12"></rect>
            <text id="30" font-family="Menlo-Bold, Menlo" font-size="16" font-weight="bold" fill="#F9FAFA">
                <tspan x="11" y="17">30</tspan>
            </text>
        </g>
        <g id="margin-value" transform="translate(171.000000, 161.000000)">
            <rect id="pill" fill="#D75037" x="0" y="0" width="40" height="24" rx="12"></rect>
            <text id="30" font-family="Menlo-Bold, Menlo" font-size="16" font-weight="bold" fill="#F9FAFA">
                <tspan x="11" y="17">30</tspan>
            </text>
        </g>
        <polygon id="line" fill="#D75037" fill-rule="nonzero" points="863 147 863 145 869 145 869 92 863 92 863 90 877 90 877 92 871 92 871 145 877 145 877 147"></polygon>
        <polygon id="line" fill="#D75037" fill-rule="nonzero" points="216 202 216 200 222 200 222 145 216 145 216 143 230 143 230 145 224 145 224 200 230 200 230 202"></polygon>
        <polygon id="line" fill="#D75037" fill-rule="nonzero" points="323 145 323 143 329 143 329 92 323 92 323 90 337 90 337 92 331 92 331 143 337 143 337 145"></polygon>
        <polygon id="line" fill="#D75037" fill-rule="nonzero" points="756 257 756 255 762 255 762 200 756 200 756 198 770 198 770 200 764 200 764 255 770 255 770 257"></polygon>
    </g>
</svg>