<?xml version="1.0" encoding="UTF-8"?>
<svg width="1200px" height="328px" viewBox="0 0 1200 328" version="1.1" xmlns="http://www.w3.org/2000/svg" xmlns:xlink="http://www.w3.org/1999/xlink">
    <!-- Generator: Sketch 60.1 (88133) - https://sketch.com -->
    <title>petite-caps copy</title>
    <desc>Created with Sketch.</desc>
    <g id="petite-caps-copy" stroke="none" stroke-width="1" fill="none" fill-rule="evenodd">
        <rect fill="#F9F9FB" x="0" y="0" width="1200" height="328"></rect>
        <line x1="0" y1="94" x2="1200.5" y2="94.5" id="ascender-height" stroke="#DEDEE6" stroke-width="2" stroke-linecap="square"></line>
        <line x1="0" y1="139.5" x2="1200.5" y2="140" id="ascender-height" stroke="#DEDEE6" stroke-width="2" stroke-linecap="square"></line>
        <line x1="0" y1="248" x2="1200.5" y2="248.5" id="ascender-height" stroke="#DEDEE6" stroke-width="2" stroke-linecap="square"></line>
        <path d="M189.52,250.2 C196.08,250.2 201.6,249.96 206.08,249.48 C211.84,249.16 216.72,249 220.72,249 C226.8,249 232,249.24 236.32,249.72 L236.32,249.72 L243.52,249.96 C259.84,249.96 273.44,247.24 284.32,241.8 C288.96,239.4 293,236.88 296.44,234.24 C299.88,231.6 302.88,227.68 305.44,222.48 C308,217.28 309.28,210.6 309.28,202.44 C309.28,193.8 307.56,186.88 304.12,181.68 C300.68,176.48 296.68,172.6 292.12,170.04 C287.56,167.48 281.92,165.08 275.2,162.84 C274.56,162.68 274.24,162.32 274.24,161.76 C274.24,161.2 274.56,160.76 275.2,160.44 C279.04,158.84 282.04,157.36 284.2,156 C286.36,154.64 288.72,152.68 291.28,150.12 C293.36,148.04 295.24,144.92 296.92,140.76 C298.6,136.6 299.44,132.04 299.44,127.08 C299.44,114.28 294.96,105.12 286,99.6 C277.04,94.08 262.96,91.32 243.76,91.32 C241.04,91.32 235.6,91.56 227.44,92.04 C222.96,92.36 219.52,92.52 217.12,92.52 L206.56,92.52 C204.16,92.36 199.36,92.28 192.16,92.28 C187.52,92.28 185.2,93.16 185.2,94.92 C185.2,96.04 185.88,97.08 187.24,98.04 C188.6,99 190.56,99.56 193.12,99.72 C198.88,100.2 203,101.8 205.48,104.52 C207.96,107.24 209.2,111.48 209.2,117.24 L209.2,117.24 L209.2,225.24 C209.2,230.68 207.68,234.76 204.64,237.48 C201.6,240.2 196.88,242.12 190.48,243.24 C187.76,243.72 185.76,244.28 184.48,244.92 C183.2,245.56 182.56,246.44 182.56,247.56 C182.56,249.32 184.88,250.2 189.52,250.2 Z M238.96,159.96 C231.6,159.96 227.92,157 227.92,151.08 L227.92,151.08 L227.92,109.32 C227.92,105.48 229,102.72 231.16,101.04 C233.32,99.36 237.52,98.52 243.76,98.52 C257.04,98.52 266.2,101.64 271.24,107.88 C276.28,114.12 278.8,121.56 278.8,130.2 C278.8,136.28 277.64,141.24 275.32,145.08 C273,148.92 270.56,151.56 268,153 C259.68,157.64 250,159.96 238.96,159.96 Z M246.88,240.12 C240.32,240.12 235.52,238.88 232.48,236.4 C229.44,233.92 227.92,229.48 227.92,223.08 L227.92,223.08 L227.92,175.32 C227.92,173.24 229.04,171.28 231.28,169.44 C233.52,167.6 236.96,166.68 241.6,166.68 C252.64,166.68 261.76,168.68 268.96,172.68 C273.6,175.24 277.72,179 281.32,183.96 C284.92,188.92 286.72,195.48 286.72,203.64 C286.72,210.36 284.88,216.52 281.2,222.12 C277.52,227.72 272.64,232.12 266.56,235.32 C260.48,238.52 253.92,240.12 246.88,240.12 Z M440.32,249.72 C441.28,249.72 442.32,249.44 443.44,248.88 C444.56,248.32 445.12,247.64 445.12,246.84 C445.12,245.72 444.56,244.8 443.44,244.08 C442.32,243.36 441.04,242.84 439.6,242.52 C435.28,241.72 431.96,239.68 429.64,236.4 C427.32,233.12 425.12,228.76 423.04,223.32 L423.04,223.32 L390.64,140.04 C390.48,139.4 390.28,138.88 390.04,138.48 C389.8,138.08 389.44,137.88 388.96,137.88 C388.16,137.88 386.88,138.84 385.12,140.76 L385.12,140.76 L375.76,150.6 C375.6,150.76 375.44,151.92 375.28,154.08 C375.12,156.24 374.32,159.08 372.88,162.6 L372.88,162.6 L345.04,226.92 C343.28,231.08 341.4,234.2 339.4,236.28 C337.4,238.36 335.48,239.76 333.64,240.48 C331.8,241.2 329.12,241.96 325.6,242.76 C321.92,243.72 320.08,245.08 320.08,246.84 C320.08,247.64 320.64,248.32 321.76,248.88 C322.88,249.44 323.92,249.72 324.88,249.72 C328.88,249.72 332.08,249.48 334.48,249 C337.68,248.68 340.56,248.52 343.12,248.52 C345.84,248.52 348.8,248.68 352,249 C354.72,249.48 358.16,249.72 362.32,249.72 C363.28,249.72 364.32,249.44 365.44,248.88 C366.56,248.32 367.12,247.64 367.12,246.84 C367.12,245.72 366.68,244.88 365.8,244.32 C364.92,243.76 363.52,243.16 361.6,242.52 C358.4,241.4 356.12,240.28 354.76,239.16 C353.4,238.04 352.72,236.12 352.72,233.4 C352.72,231.48 353.04,229.6 353.68,227.76 C354.32,225.92 355.6,222.84 357.52,218.52 C358,217.4 358.52,216.64 359.08,216.24 C359.64,215.84 360.4,215.64 361.36,215.64 L361.36,215.64 L397.36,215.64 C399.12,215.64 400.28,215.76 400.84,216 C401.4,216.24 401.76,216.68 401.92,217.32 L401.92,217.32 L406,230.28 C406.64,232.04 406.96,233.64 406.96,235.08 C406.96,237 406.28,238.48 404.92,239.52 C403.56,240.56 401.12,241.56 397.6,242.52 C393.92,243.48 392.08,244.92 392.08,246.84 C392.08,247.64 392.64,248.32 393.76,248.88 C394.88,249.44 395.92,249.72 396.88,249.72 C401.36,249.72 405.28,249.48 408.64,249 C413.12,248.68 416.64,248.52 419.2,248.52 C421.92,248.52 425.2,248.68 429.04,249 C432.4,249.48 436.16,249.72 440.32,249.72 Z M395.2,207 L366.4,207 C364.16,207 363.04,206.6 363.04,205.8 C363.04,205.32 363.12,204.92 363.28,204.6 L363.28,204.6 L371.44,185.4 L379.12,166.68 C379.76,164.92 380.32,164.04 380.8,164.04 C381.28,164.04 381.84,164.92 382.48,166.68 L382.48,166.68 L386.08,175.8 C392.8,192.28 396.48,201.88 397.12,204.6 C397.44,205.72 397.52,206.4 397.36,206.64 C397.2,206.88 396.48,207 395.2,207 L395.2,207 Z M531.4,249.36 C540.6,249.6 548.16,249.64 554.08,249.48 C554.88,249.48 555.72,249.16 556.6,248.52 C557.48,247.88 558,247.24 558.16,246.6 L558.16,246.6 L559.6,241.8 C559.76,241 560.36,238.84 561.4,235.32 C562.44,231.8 563.12,228.68 563.44,225.96 C563.44,224.68 563.28,223.4 562.96,222.12 C562.64,220.84 562,220.2 561.04,220.2 C559.76,220.2 558.72,221.08 557.92,222.84 C557.12,224.6 556.72,225.56 556.72,225.72 C554.96,229.72 552.32,233.24 548.8,236.28 C545.28,239.32 541.28,240.84 536.8,240.84 L536.8,240.84 L496,240.84 C495.04,240.84 493.8,240.88 492.28,240.96 C490.76,241.04 489.52,240.96 488.56,240.72 C487.6,240.48 487.12,239.96 487.12,239.16 C487.12,238.36 487.84,236.92 489.28,234.84 L489.28,234.84 L549.28,152.04 C550.4,150.28 551.52,148.84 552.64,147.72 C553.44,146.76 554.04,145.92 554.44,145.2 C554.84,144.48 555.04,143.72 555.04,142.92 C555.04,141.32 554.16,140.52 552.4,140.52 L552.4,140.52 L543.04,140.76 C527.84,141.24 517.84,141.4 513.04,141.24 L513.04,141.24 L484.48,141 C480.8,141 477.52,140.28 474.64,138.84 C474.16,138.68 473.52,138.4 472.72,138 C471.92,137.6 471.2,137.4 470.56,137.4 C468.96,137.4 467.68,138.36 466.72,140.28 C465.44,143 463.84,147.36 461.92,153.36 C460,159.36 459.04,163.08 459.04,164.52 C459.04,165.96 459.2,166.96 459.52,167.52 C459.84,168.08 460.64,168.36 461.92,168.36 C462.88,168.36 464.08,167.32 465.52,165.24 C466.96,163.16 468.16,161.24 469.12,159.48 C470.4,156.76 472.88,154.28 476.56,152.04 C480.24,149.8 483.52,148.68 486.4,148.68 C503.04,148.68 514.72,148.84 521.44,149.16 C524.32,149.32 525.76,149.72 525.76,150.36 L525.76,150.36 L525.76,150.6 C525.76,150.76 525.68,150.92 525.52,151.08 L525.52,151.08 L467.44,231.24 C462,238.6 459.28,243.56 459.28,246.12 C459.28,247.08 459.8,247.88 460.84,248.52 C461.88,249.16 463.04,249.48 464.32,249.48 L464.32,249.48 L472.48,249.24 C477.28,248.92 482.24,248.76 487.36,248.76 L487.36,248.76 L512.32,249 C515.84,249 522.2,249.12 531.4,249.36 Z" id="BAZ" fill="#C9C9D6" fill-rule="nonzero"></path>
        <path d="M673.52,250.2 C680.08,250.2 685.6,249.96 690.08,249.48 C695.84,249.16 700.72,249 704.72,249 C710.8,249 716,249.24 720.32,249.72 L720.32,249.72 L727.52,249.96 C743.84,249.96 757.44,247.24 768.32,241.8 C772.96,239.4 777,236.88 780.44,234.24 C783.88,231.6 786.88,227.68 789.44,222.48 C792,217.28 793.28,210.6 793.28,202.44 C793.28,193.8 791.56,186.88 788.12,181.68 C784.68,176.48 780.68,172.6 776.12,170.04 C771.56,167.48 765.92,165.08 759.2,162.84 C758.56,162.68 758.24,162.32 758.24,161.76 C758.24,161.2 758.56,160.76 759.2,160.44 C763.04,158.84 766.04,157.36 768.2,156 C770.36,154.64 772.72,152.68 775.28,150.12 C777.36,148.04 779.24,144.92 780.92,140.76 C782.6,136.6 783.44,132.04 783.44,127.08 C783.44,114.28 778.96,105.12 770,99.6 C761.04,94.08 746.96,91.32 727.76,91.32 C725.04,91.32 719.6,91.56 711.44,92.04 C706.96,92.36 703.52,92.52 701.12,92.52 L690.56,92.52 C688.16,92.36 683.36,92.28 676.16,92.28 C671.52,92.28 669.2,93.16 669.2,94.92 C669.2,96.04 669.88,97.08 671.24,98.04 C672.6,99 674.56,99.56 677.12,99.72 C682.88,100.2 687,101.8 689.48,104.52 C691.96,107.24 693.2,111.48 693.2,117.24 L693.2,117.24 L693.2,225.24 C693.2,230.68 691.68,234.76 688.64,237.48 C685.6,240.2 680.88,242.12 674.48,243.24 C671.76,243.72 669.76,244.28 668.48,244.92 C667.2,245.56 666.56,246.44 666.56,247.56 C666.56,249.32 668.88,250.2 673.52,250.2 Z M722.96,159.96 C715.6,159.96 711.92,157 711.92,151.08 L711.92,151.08 L711.92,109.32 C711.92,105.48 713,102.72 715.16,101.04 C717.32,99.36 721.52,98.52 727.76,98.52 C741.04,98.52 750.2,101.64 755.24,107.88 C760.28,114.12 762.8,121.56 762.8,130.2 C762.8,136.28 761.64,141.24 759.32,145.08 C757,148.92 754.56,151.56 752,153 C743.68,157.64 734,159.96 722.96,159.96 Z M730.88,240.12 C724.32,240.12 719.52,238.88 716.48,236.4 C713.44,233.92 711.92,229.48 711.92,223.08 L711.92,223.08 L711.92,175.32 C711.92,173.24 713.04,171.28 715.28,169.44 C717.52,167.6 720.96,166.68 725.6,166.68 C736.64,166.68 745.76,168.68 752.96,172.68 C757.6,175.24 761.72,179 765.32,183.96 C768.92,188.92 770.72,195.48 770.72,203.64 C770.72,210.36 768.88,216.52 765.2,222.12 C761.52,227.72 756.64,232.12 750.56,235.32 C744.48,238.52 737.92,240.12 730.88,240.12 Z M906.8,249.72 C910,249.72 911.6,249 911.6,247.56 C911.6,245.64 909.76,244.2 906.08,243.24 C901.76,242.12 898.56,240 896.48,236.88 C894.4,233.76 892.24,229.24 890,223.32 L890,223.32 L863.84,150.84 C863.36,149.72 862.88,149.16 862.4,149.16 C861.6,149.16 860.4,150.12 858.8,152.04 C854.8,156.68 852.08,159.16 850.64,159.48 C849.68,165.88 848.72,170.52 847.76,173.4 L847.76,173.4 L826.4,228.6 C824.48,233.24 822.56,236.44 820.64,238.2 C818.72,239.96 815.04,241.64 809.6,243.24 C807.68,243.88 806.28,244.48 805.4,245.04 C804.52,245.6 804.08,246.44 804.08,247.56 C804.08,249 805.68,249.72 808.88,249.72 C813.36,249.72 817.04,249.48 819.92,249 C823.12,248.68 825.92,248.52 828.32,248.52 C830.56,248.52 833.44,248.68 836.96,249 C839.68,249.48 843.28,249.72 847.76,249.72 C850.96,249.72 852.56,249 852.56,247.56 C852.56,246.44 852.12,245.6 851.24,245.04 C850.36,244.48 848.96,243.88 847.04,243.24 C843.04,241.96 840,240.68 837.92,239.4 C835.84,238.12 834.8,236.04 834.8,233.16 C834.8,232.52 835.12,231.08 835.76,228.84 L835.76,228.84 L839.12,219.72 L871.28,219.72 L875.6,233.16 C876.24,234.92 876.56,236.52 876.56,237.96 C876.56,239.4 876.12,240.52 875.24,241.32 C874.36,242.12 873.04,242.76 871.28,243.24 C867.6,244.2 865.76,245.64 865.76,247.56 C865.76,249 867.36,249.72 870.56,249.72 C874.88,249.72 878.08,249.48 880.16,249 C882.72,248.68 885.2,248.52 887.6,248.52 C890,248.52 892.96,248.68 896.48,249 C898.88,249.48 902.32,249.72 906.8,249.72 Z M868.4,210.36 L842.48,210.36 L854.72,176.76 C855.36,175 855.84,174.12 856.16,174.12 C856.64,174.12 857.12,175 857.6,176.76 L857.6,176.76 L868.4,210.36 Z M1007.6,249.48 C1008.4,249.48 1009.2,249.2 1010,248.64 C1010.8,248.08 1011.28,247.48 1011.44,246.84 C1011.76,245.72 1012.6,242.84 1013.96,238.2 C1015.32,233.56 1016,229.72 1016,226.68 C1016,223.32 1015.36,221.64 1014.08,221.64 C1013.28,221.64 1012.4,222.2 1011.44,223.32 C1010.48,224.44 1009.84,225.48 1009.52,226.44 C1007.92,230.6 1005.52,234.2 1002.32,237.24 C999.12,240.28 995.44,241.8 991.28,241.8 L991.28,241.8 L955.52,241.8 C954.72,241.8 953.64,241.84 952.28,241.92 C950.92,242 949.8,241.96 948.92,241.8 C948.04,241.64 947.6,241.16 947.6,240.36 C947.6,239.4 948.24,238.04 949.52,236.28 L949.52,236.28 L1003.28,162.12 C1004.4,160.68 1005.36,159.44 1006.16,158.4 C1006.96,157.36 1007.56,156.52 1007.96,155.88 C1008.36,155.24 1008.56,154.6 1008.56,153.96 C1008.56,152.52 1007.76,151.8 1006.16,151.8 C1001.04,151.8 997.12,151.88 994.4,152.04 C985.44,152.36 978,152.44 972.08,152.28 L972.08,152.28 L946.4,152.28 C943.36,152.28 940.4,151.56 937.52,150.12 C937.04,149.96 936.44,149.72 935.72,149.4 C935,149.08 934.4,148.92 933.92,148.92 C932.48,148.92 931.36,149.8 930.56,151.56 C929.6,153.8 928.2,158.08 926.36,164.4 C924.52,170.72 923.6,174.52 923.6,175.8 C923.6,177.08 923.76,178 924.08,178.56 C924.4,179.12 925.12,179.4 926.24,179.4 C927.2,179.4 928.44,178.52 929.96,176.76 C931.48,175 932.64,173.48 933.44,172.2 C935.2,169.16 937.68,166.32 940.88,163.68 C944.08,161.04 947.28,159.72 950.48,159.72 L950.48,159.72 L979.28,159.72 C982,159.72 983.36,160.04 983.36,160.68 C983.36,161 983.28,161.24 983.12,161.4 L983.12,161.4 L931.04,233.16 C926.24,239.88 923.84,244.36 923.84,246.6 C923.84,247.4 924.32,248.08 925.28,248.64 C926.24,249.2 927.28,249.48 928.4,249.48 L928.4,249.48 L935.12,249.24 C938.96,248.92 943.2,248.76 947.84,248.76 L947.84,248.76 L974.24,249 C989.051429,249.308571 999.920306,249.468367 1006.84663,249.48 L1007.6,249.48 Z" id="BAZ" fill="#2E3138" fill-rule="nonzero"></path>
    </g>
</svg>