<?xml version="1.0" encoding="UTF-8"?>
<svg width="1200px" height="562px" viewBox="0 0 1200 562" version="1.1" xmlns="http://www.w3.org/2000/svg" xmlns:xlink="http://www.w3.org/1999/xlink">
    <!-- Generator: Sketch 60.1 (88133) - https://sketch.com -->
    <title>root-margin</title>
    <desc>Created with Sketch.</desc>
    <g id="root-margin" stroke="none" stroke-width="1" fill="none" fill-rule="evenodd">
        <rect fill="#F9F9FB" x="0" y="0" width="1200" height="562"></rect>
        <g>
            <path d="M1200,0 L1200,562 L0,562 L0,0 L1200,0 Z M1165,35 L35,35 L35,527 L1165,527 L1165,35 Z" id="overlay" fill-opacity="0.1" fill="#D75037"></path>
            <rect id="border" stroke="#D75037" stroke-width="2" x="36" y="34" width="1128" height="492"></rect>
        </g>
        <g id="margin-value" transform="translate(1094.000000, 22.000000)">
            <rect id="pill" fill="#D75037" x="0" y="0" width="44" height="24" rx="12"></rect>
            <text id="100" font-family="Menlo-Bold, Menlo" font-size="15" font-weight="bold" fill="#F9FAFA">
                <tspan x="8.45385742" y="17">100</tspan>
            </text>
        </g>
        <g id="margin-value" transform="translate(1141.000000, 60.000000)">
            <rect id="pill" fill="#D75037" x="0" y="0" width="44" height="24" rx="12"></rect>
            <text id="100" font-family="Menlo-Bold, Menlo" font-size="15" font-weight="bold" fill="#F9FAFA">
                <tspan x="8.45385742" y="17">100</tspan>
            </text>
        </g>
        <g id="root-margin-label" transform="translate(62.000000, 479.000000)">
            <rect id="pill" fill="#D75037" x="0" y="0" width="119" height="24" rx="12"></rect>
            <text id="root-margin" font-family="Menlo-Bold, Menlo" font-size="15" font-weight="bold" fill="#F9FAFA">
                <tspan x="9.33081055" y="16">root margin</tspan>
            </text>
        </g>
        <path id="margin-measure" d="M1199.77273,47 L1197.77273,47 L1197.772,41 L1165,41 L1165,47 L1163,47 L1163,33 L1165,33 L1165,39 L1197.772,39 L1197.77273,33 L1199.77273,33 L1199.77273,47 Z" fill="#D75037" fill-rule="nonzero"></path>
        <path id="margin-measure" d="M1151,35 L1151,33 L1157,33 L1157,2 L1151,2 L1151,1.47289588e-14 L1165,1.36927506e-14 L1165,2 L1159,2 L1159,33 L1165,33 L1165,35 L1151,35 Z" fill="#D75037" fill-rule="nonzero"></path>
        <line x1="123" y1="503" x2="123" y2="542.564896" id="root-margin-pointer" stroke="#D75037" stroke-width="2" fill="#D8D8D8" stroke-linecap="square"></line>
    </g>
</svg>