<?xml version="1.0" encoding="UTF-8"?>
<svg width="16px" height="16px" viewBox="0 0 16 16" version="1.1" xmlns="http://www.w3.org/2000/svg" xmlns:xlink="http://www.w3.org/1999/xlink">
    <!-- Generator: Sketch 60.1 (88133) - https://sketch.com -->
    <title>safari-pinned-tab</title>
    <desc>Created with Sketch.</desc>
    <g id="safari-pinned-tab" stroke="none" stroke-width="1" fill="none" fill-rule="evenodd">
        <rect fill="#000000" x="0" y="0" width="16" height="16"></rect>
        <path d="M4.771875,7.075625 C4.771875,6.535625 4.755,5.4471875 4.7128125,5.0421875 C5.0503125,5.0421875 5.8940625,5.03375 6.1640625,5 C6.1471875,5.2446875 6.13875,5.9196875 6.13875,6.24875 L6.13875,9.033125 C6.13875,10.4675 5.6578125,11.125625 4.3246875,11.125625 C3.945,11.125625 3.3796875,11.0328125 3,10.8809375 L3.0675,9.725 C3.3965625,9.8515625 3.7425,9.9528125 4.08,9.9528125 C4.58625,9.9528125 4.771875,9.6575 4.771875,9.15125 L4.771875,7.075625 Z M12.7875,10.97375 L11.33625,10.97375 C11.3784375,10.56875 11.3953125,9.5646875 11.3953125,9.01625 L11.3953125,8.4425 L8.9146875,8.4425 L8.9146875,9.75875 C8.9146875,10.079375 8.923125,10.7375 8.94,10.97375 L7.4971875,10.97375 C7.539375,10.56875 7.55625,9.48875 7.55625,8.9403125 L7.55625,7.075625 C7.55625,6.535625 7.539375,5.4471875 7.4971875,5.0421875 C7.82625,5.0421875 8.67,5.03375 8.94,5 C8.923125,5.2446875 8.9146875,5.9196875 8.9146875,6.24875 L8.9146875,7.4046875 L11.3953125,7.4046875 L11.3953125,7.075625 C11.3953125,6.535625 11.3784375,5.4471875 11.33625,5.0421875 C11.6653125,5.0421875 12.5090625,5.03375 12.7875,5 C12.7621875,5.2446875 12.75375,5.9196875 12.75375,6.24875 L12.75375,9.75875 C12.75375,10.079375 12.7621875,10.7375 12.7875,10.97375 Z" id="JH" fill="#FFFFFF" fill-rule="nonzero"></path>
    </g>
</svg>