<svg width="1200px" height="595px" viewBox="0 0 1200 595" version="1.1" xmlns="http://www.w3.org/2000/svg">
  <g stroke="none" stroke-width="1" fill="none" fill-rule="evenodd">
    <rect fill="#F9F9FB" x="0" y="0" width="1200" height="595"></rect>
    <rect fill-opacity="0.1" fill="#8D8DA6" x="115" y="230" width="430" height="55"></rect>
    <rect fill="#FFFFFF" x="655" y="90" width="430" height="180"></rect>
    <rect fill="#FFFFFF" x="115" y="90" width="430" height="140"></rect>
    <polygon fill="#8D8DA6" fill-rule="nonzero"
             points="323 285 323 283 329 283 329 232 323 232 323 230 337 230 337 232 331 232 331 283 337 283 337 285"></polygon>
    <rect fill="#8D8DA6" x="278" y="246" width="40" height="24" rx="12"></rect>
    <text font-family="Menlo-Bold, Menlo" font-size="16" font-weight="bold" fill="#F9FAFA">
      <tspan x="289" y="263">30</tspan>
    </text>
    <rect fill-opacity="0.1" fill="#8D8DA6" x="656" y="270" width="429" height="55"></rect>
    <polygon fill="#8D8DA6" fill-rule="nonzero"
             points="863 325 863 323 869 323 869 272 863 272 863 270 877 270 877 272 871 272 871 323 877 323 877 325"></polygon>
    <rect fill="#8D8DA6" x="818" y="286" width="40" height="24" rx="12"></rect>
    <text font-family="Menlo-Bold, Menlo" font-size="16" font-weight="bold" fill="#F9FAFA">
      <tspan x="829" y="303">30</tspan>
    </text>
    <rect fill-opacity="0.1" fill="#8D8DA6" x="115" y="310" width="430" height="55"></rect>
    <rect fill="#FFFFFF" x="655" y="325" width="430" height="180"></rect>
    <polygon fill="#8D8DA6" fill-rule="nonzero"
             points="323 365 323 363 329 363 329 312 323 312 323 310 337 310 337 312 331 312 331 363 337 363 337 365"></polygon>
    <rect fill="#8D8DA6" x="278" y="326" width="40" height="24" rx="12"></rect>
    <text font-family="Menlo-Bold, Menlo" font-size="16" font-weight="bold" fill="#F9FAFA">
      <tspan x="289" y="343">30</tspan>
    </text>
    <rect fill="#FFFFFF" x="115" y="365" width="430" height="140"></rect>
    <line x1="1086" y1="90" x2="1086" y2="505" stroke="#8D8DA6" stroke-width="2"></line>
    <line x1="655" y1="90" x2="655" y2="505" stroke="#8D8DA6" stroke-width="2"></line>
  </g>
</svg>
