<svg width="1200px" height="328px" viewBox="0 0 1200 328" version="1.1" xmlns="http://www.w3.org/2000/svg">
  <g stroke="none" stroke-width="1" fill="none" fill-rule="evenodd">
    <rect fill="#F9F9FB" x="0" y="0" width="1200" height="328"></rect>
    <line x1="0" y1="98.5" x2="1200.5" y2="99" stroke="#DEDEE6" stroke-width="2"></line>
    <polygon fill="#DEDEE6" fill-rule="nonzero"
             points="-1.00041641 250.499583 -0.99958342 248.499584 1201.50042 249.000417 1201.49958 251.000416"></polygon>
    <path
      d="M223.56,252.64 C255.48,252.64 275.88,221.2 275.88,173.68 C275.88,126.64 257.88,98.56 226.68,98.56 C194.76,98.56 174.36,129.76 174.36,177.52 C174.36,224.32 192.36,252.64 223.56,252.64 Z M224.76,243.28 C198.84,243.28 184.92,217.84 184.92,175.6 C184.92,133.12 199.32,107.92 225.72,107.92 C251.64,107.92 265.08,133.36 265.08,175.6 C265.08,218.08 251.4,243.28 224.76,243.28 Z M404.76,250 L405.72,240.64 L368.28,240.64 L368.28,95.44 L357.72,96.4 L357.72,112.96 L317.64,118.48 L317.88,126.16 L357.72,123.28 L357.72,240.64 L315.72,240.64 L315.72,250 L404.76,250 Z M537.72,250 L537.72,240.4 L455.16,240.4 C504.84,199.12 531.96,172.24 531.96,141.52 C531.96,117.28 513.72,98.56 448.2,99.28 L447.24,109.36 C505.8,109.36 521.64,123.28 521.64,143.44 C521.64,171.04 494.04,196.96 442.68,240.88 L443.64,250 L537.72,250 Z"
      fill="#C9C9D6" fill-rule="nonzero"></path>
    <path
      d="M709.56,252.64 C741.48,252.64 761.88,221.2 761.88,173.68 C761.88,126.64 743.88,98.56 712.68,98.56 C680.76,98.56 660.36,129.76 660.36,177.52 C660.36,224.32 678.36,252.64 709.56,252.64 Z M671.64,191.92 C671.16,186.88 670.92,181.36 670.92,175.6 C670.92,133.12 685.32,107.92 711.72,107.92 C732.36,107.92 744.84,124 749.4,151.6 L671.64,191.92 Z M710.76,243.28 C690.36,243.28 677.4,227.68 672.84,200.56 L750.36,160.24 C750.84,165.04 751.08,170.08 751.08,175.6 C751.08,218.08 737.4,243.28 710.76,243.28 Z M890.76,250 L891.72,240.64 L854.28,240.64 L854.28,95.44 L843.72,96.4 L843.72,112.96 L803.64,118.48 L803.88,126.16 L843.72,123.28 L843.72,240.64 L801.72,240.64 L801.72,250 L890.76,250 Z M1023.72,250 L1023.72,240.4 L941.16,240.4 C990.84,199.12 1017.96,172.24 1017.96,141.52 C1017.96,117.28 999.72,98.56 934.2,99.28 L933.24,109.36 C991.8,109.36 1007.64,123.28 1007.64,143.44 C1007.64,171.04 980.04,196.96 928.68,240.88 L929.64,250 L1023.72,250 Z"
      fill="#2E3138" fill-rule="nonzero"></path>
  </g>
</svg>
