<?xml version="1.0" encoding="UTF-8"?>
<svg width="1200px" height="328px" viewBox="0 0 1200 328" version="1.1" xmlns="http://www.w3.org/2000/svg">
  <g stroke="none" stroke-width="1" fill="none" fill-rule="evenodd">
    <rect fill="#F9F9FB" x="0" y="0" width="1200" height="328"></rect>
    <line x1="0" y1="77" x2="1200.5" y2="77.5" stroke="#DEDEE6" stroke-width="2"></line>
    <line x1="0" y1="139.5" x2="1200.5" y2="140" stroke="#DEDEE6" stroke-width="2"></line>
    <line x1="0" y1="241" x2="1200.5" y2="241.5" stroke="#DEDEE6" stroke-width="2"></line>
    <path
      d="M177.64,242.44 C183,242.44 189.96,242.2 198.52,241.72 C206.76,241.24 213.32,241 218.2,241 C223.08,241 230.2,241.24 239.56,241.72 C249.4,242.2 257,242.44 262.36,242.44 C278.76,242.44 291.92,237.98 301.84,229.06 C311.76,220.14 316.72,208.28 316.72,193.48 C316.72,183.16 312.52,174.24 304.12,166.72 C295.72,159.2 284.44,154.04 270.28,151.24 C280.28,149 288.68,144.34 295.48,137.26 C302.28,130.18 305.68,122.56 305.68,114.4 C305.68,102.72 301.08,93.32 291.88,86.2 C282.68,79.08 270.6,75.52 255.64,75.52 C250.28,75.52 243.4,75.76 235,76.24 C227.08,76.72 220.68,76.96 215.8,76.96 L215.25251,76.9590123 C210.461948,76.941893 204.484444,76.7022222 197.32,76.24 C189.56,75.76 183,75.52 177.64,75.52 C176.36,75.52 175.72,76.64 175.72,78.88 C175.72,81.12 176.36,82.24 177.64,82.24 C184.44,83.04 189.6,84.1 193.12,85.42 C196.64,86.74 199.1,88.54 200.5,90.82 C201.9,93.1 202.6,97.04 202.6,102.64 L202.6,102.64 L202.6,215.56 C202.6,223 200.86,227.96 197.38,230.44 C193.9,232.92 187.32,234.72 177.64,235.84 C176.36,236 175.72,237.08 175.72,239.08 C175.72,241.32 176.36,242.44 177.64,242.44 Z M244.36,148.84 L227.08,148.84 L227.08,96.64 C227.08,88 232.12,83.68 242.2,83.68 L242.2,83.68 L247,83.68 C257.96,83.68 266.04,86.16 271.24,91.12 C276.44,96.08 279.04,103.84 279.04,114.4 C279.04,126.56 276.3,135.34 270.82,140.74 C265.34,146.14 256.52,148.84 244.36,148.84 L244.36,148.84 Z M254.68,234.52 C244.6,234.52 237.48,233.18 233.32,230.5 C229.16,227.82 227.08,222.84 227.08,215.56 L227.08,215.56 L227.08,156.52 L253.24,156.52 C264.84,156.52 273.92,159.8 280.48,166.36 C287.04,172.92 290.32,181.96 290.32,193.48 C290.32,205.72 287,215.62 280.36,223.18 C273.72,230.74 265.16,234.52 254.68,234.52 Z M358.36,246.04 C372.2,246.04 383.4,241.64 391.96,232.84 C393.16,236.6 395.42,239.58 398.74,241.78 C402.06,243.98 405.96,245.08 410.44,245.08 C416.12,245.08 421.38,243.4 426.22,240.04 C431.06,236.68 433.48,233.84 433.48,231.52 C433.48,230.56 433.2,229.66 432.64,228.82 C432.08,227.98 431.48,227.56 430.84,227.56 L430.84,227.56 L430,227.8 C426.48,231 423.4,232.6 420.76,232.6 C415.32,232.6 412.6,228.4 412.6,220 L412.6,220 L412.6,219.16 L414.28,164.92 L414.28,163.48 C414.28,154.84 411.6,147.96 406.24,142.84 C400.88,137.72 393.88,135.16 385.24,135.16 C375.64,135.16 365.24,138.54 354.04,145.3 C342.84,152.06 337.24,158.52 337.24,164.68 C337.24,167.24 338.04,169.28 339.64,170.8 C341.24,172.32 343.32,173.08 345.88,173.08 C350.2,173.08 353.66,171.64 356.26,168.76 C358.86,165.88 360.2,161.88 360.28,156.76 C360.36,153.32 362.04,150.46 365.32,148.18 C368.6,145.9 372.6,144.76 377.32,144.76 C382.04,144.76 385.82,146.46 388.66,149.86 C391.5,153.26 392.92,157.84 392.92,163.6 L392.92,163.6 L392.92,164.2 L392.2,182.92 C353.32,193.08 333.88,206.36 333.88,222.76 C333.88,229.4 336.16,234.94 340.72,239.38 C345.28,243.82 351.16,246.04 358.36,246.04 Z M370.12,234.28 C361.32,234.28 356.92,228.6 356.92,217.24 C356.92,205.08 368.6,196.36 391.96,191.08 L391.96,191.08 L391,223.24 C389.56,226.36 386.78,228.98 382.66,231.1 C378.54,233.22 374.36,234.28 370.12,234.28 Z M526.36,242.44 C528.28,234.44 531.6,224.36 536.32,212.2 C536.32,210.92 535.32,210.28 533.32,210.28 C531.16,210.28 529.88,210.92 529.48,212.2 C527.8,217.8 524.64,222.48 520,226.24 C515.36,230 510.52,231.88 505.48,231.88 L505.48,231.88 L469.48,231.88 L534.52,141.64 L534.76,140.44 C534.76,138.68 534.12,137.8 532.84,137.8 C528.687423,138.740206 515.403375,139.220002 492.987858,139.239388 L490.193373,139.239239 C471.012504,139.217677 459.468046,138.737931 455.56,137.8 C454.2,144.04 450.88,154.04 445.6,167.8 C445.6,169.08 446.6,169.72 448.6,169.72 C450.68,169.72 451.92,169.08 452.32,167.8 C454.16,162.2 457.38,157.52 461.98,153.76 C466.58,150 471.4,148.12 476.44,148.12 L476.44,148.12 L505.48,148.12 L440.08,238.72 L439.72,239.8 C439.72,241.56 440.48,242.44 442,242.44 C446.72,241.48 460.92,241 484.6,241 C506.92,241 520.84,241.48 526.36,242.44 Z"
      fill="#C9C9D6" fill-rule="nonzero"></path>
    <path
      d="M640.64,243.44 C646,243.44 652.96,243.2 661.52,242.72 C669.76,242.24 676.32,242 681.2,242 C686.08,242 693.2,242.24 702.56,242.72 C712.4,243.2 720,243.44 725.36,243.44 C741.76,243.44 754.92,238.98 764.84,230.06 C774.76,221.14 779.72,209.28 779.72,194.48 C779.72,184.16 775.52,175.24 767.12,167.72 C758.72,160.2 747.44,155.04 733.28,152.24 C743.28,150 751.68,145.34 758.48,138.26 C765.28,131.18 768.68,123.56 768.68,115.4 C768.68,103.72 764.08,94.32 754.88,87.2 C745.68,80.08 733.6,76.52 718.64,76.52 C713.28,76.52 706.4,76.76 698,77.24 C690.08,77.72 683.68,77.96 678.8,77.96 L678.25251,77.9590123 C673.461948,77.941893 667.484444,77.7022222 660.32,77.24 C652.56,76.76 646,76.52 640.64,76.52 C639.36,76.52 638.72,77.64 638.72,79.88 C638.72,82.12 639.36,83.24 640.64,83.24 C647.44,84.04 652.6,85.1 656.12,86.42 C659.64,87.74 662.1,89.54 663.5,91.82 C664.9,94.1 665.6,98.04 665.6,103.64 L665.6,103.64 L665.6,216.56 C665.6,224 663.86,228.96 660.38,231.44 C656.9,233.92 650.32,235.72 640.64,236.84 C639.36,237 638.72,238.08 638.72,240.08 C638.72,242.32 639.36,243.44 640.64,243.44 Z M707.36,149.84 L690.08,149.84 L690.08,97.64 C690.08,89 695.12,84.68 705.2,84.68 L705.2,84.68 L710,84.68 C720.96,84.68 729.04,87.16 734.24,92.12 C739.44,97.08 742.04,104.84 742.04,115.4 C742.04,127.56 739.3,136.34 733.82,141.74 C728.34,147.14 719.52,149.84 707.36,149.84 L707.36,149.84 Z M717.68,235.52 C707.6,235.52 700.48,234.18 696.32,231.5 C692.16,228.82 690.08,223.84 690.08,216.56 L690.08,216.56 L690.08,157.52 L716.24,157.52 C727.84,157.52 736.92,160.8 743.48,167.36 C750.04,173.92 753.32,182.96 753.32,194.48 C753.32,206.72 750,216.62 743.36,224.18 C736.72,231.74 728.16,235.52 717.68,235.52 Z M788.96,243.44 C790.4,243.44 794.32,243.08 800.72,242.36 C802.88,242.12 805.28,242 807.92,242 C809.84,242 812.88,242.24 817.04,242.72 C821.2,243.2 825.04,243.44 828.56,243.44 C829.52,243.44 830,242.4 830,240.32 C830,238.4 829.68,237.44 829.04,237.44 C825.04,237.44 822.08,236.66 820.16,235.1 C818.24,233.54 817.28,230.88 817.28,227.12 C817.28,224.88 818.08,221.52 819.68,217.04 L819.68,217.04 L824.72,204.56 L858.56,204.56 L864.2,219.44 C865.56,222.88 866.24,225.92 866.24,228.56 C866.24,232 865.36,234.34 863.6,235.58 C861.84,236.82 859.04,237.44 855.2,237.44 C854.56,237.44 854.24,238.4 854.24,240.32 C854.24,242.4 854.64,243.44 855.44,243.44 C857.52,243.44 863.04,243.08 872,242.36 C874.96,242.12 878.32,242 882.08,242 C883.12,242 887.76,242.36 896,243.08 C898.72,243.32 902.08,243.44 906.08,243.44 C907.04,243.44 907.52,242.4 907.52,240.32 C907.52,238.4 906.96,237.44 905.84,237.44 C901.2,236.8 897.34,235.16 894.26,232.52 C891.18,229.88 888.08,224.4 884.96,216.08 L884.96,216.08 L852.2,131.12 C851.8,130 850.8,129.44 849.2,129.44 C847.52,129.44 846.56,130 846.32,131.12 L846.32,131.12 L809.48,216.08 C805.4,225.52 802.06,231.32 799.46,233.48 C796.86,235.64 793.6,236.96 789.68,237.44 C788.4,237.44 787.76,238.4 787.76,240.32 C787.76,242.4 788.16,243.44 788.96,243.44 Z M856.16,197.84 L827.6,197.84 L842.24,160.88 L856.16,197.84 Z M1016.12,244.16 C1017.08,236.56 1019.44,224.88 1023.2,209.12 L1023.2,209.12 L1023.32,208.52 C1023.32,207.16 1022.2,206.48 1019.96,206.48 C1018.6,206.48 1017.76,207.04 1017.44,208.16 C1011.92,226.56 999.48,235.76 980.12,235.76 L980.12,235.76 L947.24,235.28 L1021.28,137 L1021.88,135.68 C1021.88,133.2 1021,131.96 1019.24,131.96 C1013.91102,133.13551 999.216343,133.73526 975.155968,133.75925 L972.12128,133.759232 C947.51936,133.734144 932.9056,133.0944 928.28,131.84 C926.92,137.76 923.04,149.64 916.64,167.48 C916.64,168.84 917.8,169.52 920.12,169.52 C921,169.52 921.68,168.96 922.16,167.84 C926.48,158.24 931.84,151.24 938.24,146.84 C944.64,142.44 952.92,140.24 963.08,140.24 L963.08,140.24 L991.64,140.72 L917.12,238.76 C916.72,239.32 916.52,239.84 916.52,240.32 C916.52,241.36 916.82,242.26 917.42,243.02 C918.02,243.78 918.68,244.16 919.4,244.16 C924.6,242.72 940.52,242 967.16,242 C994.44,242 1010.76,242.72 1016.12,244.16 Z"
      fill="#2E3138" fill-rule="nonzero"></path>
  </g>
</svg>
