<?xml version="1.0" encoding="UTF-8"?>
<svg width="1200px" height="328px" viewBox="0 0 1200 328" version="1.1" xmlns="http://www.w3.org/2000/svg">
  <g stroke="none" stroke-width="1" fill="none" fill-rule="evenodd">
    <rect fill="#F9F9FB" x="0" y="0" width="1200" height="328"></rect>
    <line x1="0" y1="89.5" x2="1200.5" y2="90" stroke="#DEDEE6" stroke-width="2"></line>
    <polygon fill="#DEDEE6" fill-rule="nonzero"
             points="-1.00041641 239.499583 -0.99958342 237.499584 1201.50042 238.000417 1201.49958 240.000416"></polygon>
    <g transform="translate(184.120000, 37.880000)" fill-rule="nonzero">
      <path
        d="M87.84,99.12 L88.56,90.96 L59.76,90.96 L59.76,0 L50.64,0.72 L50.64,15.36 L19.68,19.92 L19.92,26.64 L50.64,24 L50.64,90.96 L18.48,90.96 L18.48,99.12 L87.84,99.12 Z M101.76,132 L101.76,124.08 L4.66116035e-12,124.08 L4.66116035e-12,132 L101.76,132 Z M85.92,251.52 L85.92,243.12 L29.04,243.12 C63.6,218.16 82.32,201.36 82.32,182.16 C82.32,166.56 68.64,154.32 20.88,154.8 L20.16,162.96 C61.68,163.44 73.2,171.6 73.2,184.32 C73.2,200.88 53.52,216.96 16.8,243.6 L17.76,251.52 L85.92,251.52 Z"
        fill="#2E3138"></path>
      <path
        d="M333.054545,201.12 L333.054545,191.52 L250.494545,191.52 C300.174545,150.24 327.294545,123.36 327.294545,92.64 C327.294545,68.4 309.054545,49.68 243.534545,50.4 L242.574545,60.48 C301.134545,60.48 316.974545,74.4 316.974545,94.56 C316.974545,122.16 289.374545,148.08 238.014545,192 L238.974545,201.12 L333.054545,201.12 Z"
        fill="#C9C9D6"></path>
      <path
        d="M460.930909,99.12 L461.650909,90.96 L432.850909,90.96 L432.850909,2.84217094e-14 L423.730909,0.72 L423.730909,15.36 L392.770909,19.92 L393.010909,26.64 L423.730909,24 L423.730909,90.96 L391.570909,90.96 L391.570909,99.12 L460.930909,99.12 Z M474.850909,132 L474.850909,124.08 L373.090909,124.08 L373.090909,132 L474.850909,132 Z M393.250909,253.92 C440.290909,252.24 458.050909,240.24 458.050909,224.88 C458.050909,213.36 446.770909,203.52 413.170909,198.96 L456.130909,164.64 L455.410909,156.72 L393.490909,156.72 L393.490909,165.12 L444.610909,164.88 L444.610909,165.36 L401.890909,199.68 L401.650909,204.72 C437.410909,208.32 449.170909,216.24 449.170909,225.6 C449.170909,235.92 434.050909,243.6 392.530909,245.04 L393.250909,253.92 Z"
        fill="#2E3138"></path>
      <path
        d="M615.425455,203.52 C679.025455,200.64 703.985455,182.88 703.985455,158.64 C703.985455,141.12 688.385455,125.52 639.905455,118.32 L701.585455,61.68 L700.865455,52.32 L615.665455,52.32 L615.665455,61.92 L689.585455,61.92 L626.945455,119.52 L626.945455,125.28 C677.825455,130.8 694.145455,144.24 694.145455,159.84 C694.145455,177.6 672.305455,190.56 614.465455,193.44 L615.425455,203.52 Z"
        fill="#C9C9D6"></path>
      <path
        d="M834.021818,99.12 L834.741818,90.96 L805.941818,90.96 L805.941818,0 L796.821818,0.72 L796.821818,15.36 L765.861818,19.92 L766.101818,26.64 L796.821818,24 L796.821818,90.96 L764.661818,90.96 L764.661818,99.12 L834.021818,99.12 Z M847.941818,132 L847.941818,124.08 L746.181818,124.08 L746.181818,132 L847.941818,132 Z M823.461818,251.52 L823.221818,230.16 L836.901818,230.4 L837.621818,222.24 L823.221818,222.24 L823.461818,187.2 L814.581818,187.92 L814.821818,222.24 L772.581818,222.24 C773.541818,210.24 781.461818,175.44 787.221818,155.76 L777.381818,154.8 C769.461818,184.08 764.901818,213.6 764.901818,230.4 L814.821818,230.16 L814.581818,251.52 L823.461818,251.52 Z"
        fill="#2E3138"></path>
    </g>
  </g>
</svg>
