<?xml version="1.0" encoding="UTF-8"?>
<svg width="1200px" height="328px" viewBox="0 0 1200 328" version="1.1" xmlns="http://www.w3.org/2000/svg" xmlns:xlink="http://www.w3.org/1999/xlink">
    <!-- Generator: Sketch 60.1 (88133) - https://sketch.com -->
    <title>styleset copy</title>
    <desc>Created with Sketch.</desc>
    <g id="styleset-copy" stroke="none" stroke-width="1" fill="none" fill-rule="evenodd">
        <rect fill="#F9F9FB" x="0" y="0" width="1200" height="328"></rect>
        <line x1="0" y1="99.5" x2="1200.5" y2="100" id="ascender-height" stroke="#DEDEE6" stroke-width="2" stroke-linecap="square"></line>
        <line x1="0" y1="228.5" x2="1200.5" y2="229" id="ascender-height" stroke="#DEDEE6" stroke-width="2" stroke-linecap="square"></line>
        <path d="M298.44,232.28 C308.84,232.28 319.46,227.54 330.3,218.06 C341.14,208.58 350.36,196.26 357.96,181.1 C365.56,165.94 369.36,152.36 369.36,140.36 C369.36,134.68 368.28,130.1 366.12,126.62 C363.96,123.14 361.12,121.4 357.6,121.4 C354,121.4 351.14,122.54 349.02,124.82 C346.9,127.1 345.84,130.04 345.84,133.64 C345.84,135.88 346.68,138.56 348.36,141.68 C350.84,146.4 352.08,151.24 352.08,156.2 C352.08,170.68 347.8,183.7 339.24,195.26 C330.68,206.82 320.56,212.6 308.88,212.6 C300.32,212.6 294.84,209 292.44,201.8 C313.16,179.32 323.52,158.2 323.52,138.44 C323.52,127.08 319.6,121.4 311.76,121.4 C302.72,121.4 294.24,129.34 286.32,145.22 C278.4,161.1 274.44,177.72 274.44,195.08 C274.44,198.92 274.68,202.52 275.16,205.88 C268.68,210.36 261.72,212.6 254.28,212.6 C245,212.6 240.36,207.08 240.36,196.04 C240.36,186.6 241.98,177.54 245.22,168.86 C248.46,160.18 254.48,150.24 263.28,139.04 C268,132.96 270.36,129 270.36,127.16 C270.36,126.2 269.94,125.28 269.1,124.4 C268.26,123.52 267.32,123.08 266.28,123.08 C265.72,123.08 264.68,123.32 263.16,123.8 C259.4,124.76 256.12,125.24 253.32,125.24 C251.08,125.24 247.88,124.68 243.72,123.56 C238.52,122.12 234.2,121.4 230.76,121.4 C224.36,121.4 217.32,125.52 209.64,133.76 C201.96,142 198.12,149.56 198.12,156.44 C198.12,160.44 199.1,163.6 201.06,165.92 C203.02,168.24 205.4,169.4 208.2,169.4 C213.8,169.4 216.6,166.68 216.6,161.24 C216.6,158.52 215.48,155.72 213.24,152.84 C211.64,150.76 210.84,149 210.84,147.56 C210.84,144.52 212.3,142.08 215.22,140.24 C218.14,138.4 222.2,137.48 227.4,137.48 C229.4,137.48 232.32,138.12 236.16,139.4 C240.48,140.68 243.88,141.32 246.36,141.32 C249.24,141.32 252.28,140.68 255.48,139.4 C246.6,147.32 238.54,157.98 231.3,171.38 C224.06,184.78 220.44,196.28 220.44,205.88 C220.44,213.88 222.54,220.28 226.74,225.08 C230.94,229.88 236.68,232.28 243.96,232.28 C252.92,232.28 264.2,226.68 277.8,215.48 C281.8,226.68 288.68,232.28 298.44,232.28 Z M290.28,192.44 C289.16,187.96 288.6,183 288.6,177.56 C288.6,165.48 290.64,155.46 294.72,147.5 C298.8,139.54 303.68,135.56 309.36,135.56 C312.72,135.56 314.4,137.72 314.4,142.04 C314.4,149.08 312.24,157.08 307.92,166.04 C303.6,175 297.72,183.8 290.28,192.44 Z M442.68,232.28 C446.52,232.28 451.12,230.56 456.48,227.12 C461.84,223.68 467.32,218.98 472.92,213.02 C478.52,207.06 481.32,203.4 481.32,202.04 C481.32,201.08 480.96,200.16 480.24,199.28 C479.52,198.4 478.68,197.96 477.72,197.96 C477.08,197.96 475.12,199.92 471.84,203.84 C464.56,212.56 459.48,216.92 456.6,216.92 C455.16,216.92 454.44,215.96 454.44,214.04 C454.44,212.76 455.8,208.84 458.52,202.28 L458.52,202.28 L477.48,157.16 C480.84,149.24 482.52,142.6 482.52,137.24 C482.52,132.6 481.04,128.8 478.08,125.84 C475.12,122.88 471.48,121.4 467.16,121.4 C459.8,121.4 451.66,125.62 442.74,134.06 C433.82,142.5 424.76,154.36 415.56,169.64 L415.56,169.64 L422.76,149.24 C425.16,142.28 426.36,136.6 426.36,132.2 C426.36,125 422.28,121.4 414.12,121.4 C410.52,121.4 406.26,123.14 401.34,126.62 C396.42,130.1 391.32,134.9 386.04,141.02 C380.76,147.14 378.12,150.76 378.12,151.88 C378.12,152.76 378.5,153.66 379.26,154.58 C380.02,155.5 380.92,155.96 381.96,155.96 C382.68,155.96 384.72,153.76 388.08,149.36 C394.56,140.96 399.08,136.76 401.64,136.76 C403.08,136.76 403.8,137.72 403.8,139.64 C403.8,141.96 402.76,145.88 400.68,151.4 L400.68,151.4 L375.72,225.32 L375.6,225.92 C375.6,226.88 376.56,227.7 378.48,228.38 C380.4,229.06 382.52,229.4 384.84,229.4 C387.32,229.4 389.84,229 392.4,228.2 C394.96,227.4 396.44,226.44 396.84,225.32 L396.84,225.32 L404.76,202.52 C415.56,182.84 425.34,167.2 434.1,155.6 C442.86,144 449.48,138.2 453.96,138.2 C457.64,138.2 459.48,140.44 459.48,144.92 C459.48,148.36 458.36,152.68 456.12,157.88 L456.12,157.88 L436.68,204.2 C433.16,212.44 431.4,218.84 431.4,223.4 C431.4,226.2 432.42,228.38 434.46,229.94 C436.5,231.5 439.24,232.28 442.68,232.28 Z" id="wn" fill="#C9C9D6" fill-rule="nonzero"></path>
        <path d="M735.36,232.28 C746.48,232.28 757.84,226.84 769.44,215.96 C779.92,206.12 788.66,193.92 795.66,179.36 C802.66,164.8 806.16,151.8 806.16,140.36 C806.16,134.36 805.1,129.74 802.98,126.5 C800.86,123.26 798,121.64 794.4,121.64 C790.56,121.64 787.64,122.78 785.64,125.06 C783.64,127.34 782.64,130.2 782.64,133.64 C782.64,134.36 784.16,138.24 787.2,145.28 C788.48,148.24 789.12,151.88 789.12,156.2 C789.12,170.28 785,183.04 776.76,194.48 C768.04,206.56 757.68,212.6 745.68,212.6 C741.6,212.6 738.12,211.68 735.24,209.84 C732.36,208 730.32,205.32 729.12,201.8 C738.64,191.56 746.08,181.28 751.44,170.96 C757.52,159.36 760.56,148.52 760.56,138.44 C760.56,132.92 759.48,128.74 757.32,125.9 C755.16,123.06 752.24,121.64 748.56,121.64 C739.36,121.64 730.82,129.58 722.94,145.46 C715.06,161.34 711.12,177.88 711.12,195.08 C711.12,196.92 711.2,198.84 711.36,200.84 C711.52,202.84 711.76,204.52 712.08,205.88 C709.04,207.96 705.72,209.6 702.12,210.8 C698.52,212 694.88,212.6 691.2,212.6 C686.64,212.6 683.14,211.18 680.7,208.34 C678.26,205.5 677.04,201.4 677.04,196.04 C677.04,184.12 679.64,172.76 684.84,161.96 C687.8,155.72 692.64,148.32 699.36,139.76 C704.48,133.2 707.04,129 707.04,127.16 C707.04,126.12 706.62,125.18 705.78,124.34 C704.94,123.5 704,123.08 702.96,123.08 C697.28,124.36 691.6,125.6 685.92,126.8 C679.52,127.84 672.96,128.36 666.24,128.36 C663.92,128.36 654.8,126.32 638.88,122.24 C631.68,120.4 625.36,119.48 619.92,119.48 C611.92,119.48 604.12,123.04 596.52,130.16 C588.92,137.28 585.12,145 585.12,153.32 C585.12,157.72 586.36,161.12 588.84,163.52 C590.76,165.36 592.96,166.28 595.44,166.28 C598,166.28 600,165.56 601.44,164.12 C602.88,162.68 603.6,160.6 603.6,157.88 C603.6,155.32 602.68,152.76 600.84,150.2 C599,147.64 598.08,145.72 598.08,144.44 C598.08,141.16 599.38,138.74 601.98,137.18 C604.58,135.62 608.4,134.84 613.44,134.84 C619.6,134.84 625.92,135.72 632.4,137.48 C637.52,139.16 642.78,140.86 648.18,142.58 C653.58,144.3 658.16,145.16 661.92,145.16 C668.4,145.16 673.92,144.7 678.48,143.78 C683.04,142.86 687.6,141.4 692.16,139.4 C683.68,146.92 675.88,157.12 668.76,170 C661,184 657.12,195.96 657.12,205.88 C657.12,213.64 659.08,219.88 663,224.6 C667.24,229.72 673.12,232.28 680.64,232.28 C685.12,232.28 690.28,230.8 696.12,227.84 C701.96,224.88 708.08,220.76 714.48,215.48 C716.48,220.84 719.22,224.98 722.7,227.9 C726.18,230.82 730.4,232.28 735.36,232.28 Z M726.96,192.44 C726.48,190.52 726.08,188.16 725.76,185.36 C725.44,182.56 725.28,179.96 725.28,177.56 C725.28,164.84 727.52,154.48 732,146.48 C736.08,139.2 740.8,135.56 746.16,135.56 C748,135.56 749.34,136.16 750.18,137.36 C751.02,138.56 751.44,140.2 751.44,142.28 C751.44,149.48 749.24,157.52 744.84,166.4 C740.44,175.28 734.48,183.96 726.96,192.44 Z M963.48,232.28 C971.48,232.28 979.28,228.68 986.88,221.48 C994.48,214.28 998.28,206.6 998.28,198.44 C998.28,193.88 997.04,190.44 994.56,188.12 C992.72,186.36 990.52,185.48 987.96,185.48 C985.72,185.48 983.8,186.24 982.2,187.76 C980.6,189.28 979.8,191.24 979.8,193.64 C979.8,196.28 980.72,198.88 982.56,201.44 C984.4,204 985.32,205.96 985.32,207.32 C985.32,210.52 983.84,213.12 980.88,215.12 C977.92,217.12 973.96,218.12 969,218.12 C961.32,218.12 952.32,216.88 942,214.4 C931.68,211.92 924.52,210.68 920.52,210.68 C914.28,210.68 908.88,211.14 904.32,212.06 C899.76,212.98 895.16,214.44 890.52,216.44 L890.52,216.44 L915,156.92 C918.2,148.76 919.8,142.12 919.8,137 C919.8,132.12 918.34,128.3 915.42,125.54 C912.5,122.78 908.92,121.4 904.68,121.4 C898.68,121.4 892.2,124.12 885.24,129.56 C879.4,134.12 873.4,140.4 867.24,148.4 C862.44,154.64 857.72,161.72 853.08,169.64 L853.08,169.64 L860.04,149 C862.6,141.56 863.88,135.88 863.88,131.96 C863.88,128.52 862.78,125.9 860.58,124.1 C858.38,122.3 855.4,121.4 851.64,121.4 C847.16,121.4 841.8,123.88 835.56,128.84 C830.76,132.6 826.04,137.32 821.4,143 C817.4,147.8 815.4,150.68 815.4,151.64 C815.4,152.36 815.82,153.22 816.66,154.22 C817.5,155.22 818.44,155.72 819.48,155.72 C823.24,151.32 827.04,146.92 830.88,142.52 C834.4,138.52 837.08,136.52 838.92,136.52 C840.52,136.52 841.32,137.48 841.32,139.4 C841.32,140.68 840.88,142.76 840,145.64 C839.68,146.68 839.08,148.52 838.2,151.16 L838.2,151.16 L813,225.32 C812.52,226.6 813.32,227.6 815.4,228.32 C817.48,229.04 819.72,229.4 822.12,229.4 C824.52,229.4 827.02,229.02 829.62,228.26 C832.22,227.5 833.72,226.52 834.12,225.32 L834.12,225.32 L842.04,202.52 C847.48,192.84 852.68,184 857.64,176 C864.6,164.88 870.68,156.16 875.88,149.84 C882.44,141.92 887.56,137.96 891.24,137.96 C895.08,137.96 897,140.2 897,144.68 C897,146.52 896.72,148.42 896.16,150.38 C895.6,152.34 894.68,154.76 893.4,157.64 L893.4,157.64 L868.44,219.32 C868.28,219.72 868.04,220.46 867.72,221.54 C867.4,222.62 867.24,223.48 867.24,224.12 C867.24,225.64 867.86,227.1 869.1,228.5 C870.34,229.9 871.96,230.6 873.96,230.6 C881.08,229.32 888.36,228.12 895.8,227 C903.24,225.88 910.36,225.32 917.16,225.32 C919.4,225.32 928.52,226.92 944.52,230.12 C951.72,231.56 958.04,232.28 963.48,232.28 Z" id="wn" fill="#2E3138" fill-rule="nonzero"></path>
    </g>
</svg>