<svg width="1200px" height="328px" viewBox="0 0 1200 328" version="1.1" xmlns="http://www.w3.org/2000/svg">
  <g stroke="none" stroke-width="1" fill="none" fill-rule="evenodd">
    <rect fill="#F9F9FB" x="0" y="0" width="1200" height="328"></rect>
    <line x1="0" y1="77.5" x2="1200.5" y2="78" stroke="#DEDEE6" stroke-width="2"></line>
    <line x1="0" y1="249.5" x2="1200.5" y2="250" stroke="#DEDEE6" stroke-width="2"></line>
    <path
      d="M287.84,254.32 C316.88,254.32 334.16,245.44 347.6,236.56 L347.600578,216.897136 C347.619488,201.1552 348.104,168.9328 349.28,159.76 C335.625714,160.454286 328.666327,160.702245 313.123123,160.719071 L311.36,160.72 C300.56,160.72 293.36,160.48 278.72,160 C279.2,165.76 279.2,173.44 278.72,181.6 C292.4,181.12 299.36,180.88 311.36,180.88 C318.8,180.88 316.88,180.88 324.08,181.12 C324.56,185.44 324.56,191.92 324.56,195.52 L324.56,225.52 C314.48,230.8 303.92,233.2 290.48,233.2 C254.96,233.2 225.2,208.72 225.2,166 C225.2,127.12 251.12,98.56 290,98.56 C306.32,98.56 326.96,104.32 338.96,113.92 L345.68,92.32 C332.48,83.68 310.4,77.2 292.4,77.2 C240.08,77.2 200.96,117.52 200.96,167.92 C200.96,216.16 238.64,254.32 287.84,254.32 Z"
      fill="#C9C9D6" fill-rule="nonzero"></path>
    <path
      d="M554.84,254.32 C583.88,254.32 601.16,245.44 614.6,236.56 L614.6,218.08 C614.6,202.48 616.04,164.56 616.04,164.56 L590.84,164.56 L590.840852,164.592707 C590.868512,165.6544 591.56,192.232 591.56,195.76 L591.56,225.52 C581.48,230.8 570.92,233.2 557.48,233.2 C521.96,233.2 492.2,208.72 492.2,166 C492.2,127.12 518.12,98.56 557,98.56 C573.32,98.56 593.96,104.32 605.96,113.92 L612.68,92.32 C599.48,83.68 577.4,77.2 559.4,77.2 C507.08,77.2 467.96,117.52 467.96,167.92 C467.96,216.16 505.64,254.32 554.84,254.32 Z"
      fill="#2E3138" fill-rule="nonzero"></path>
    <path
      d="M694.76,254.32 C729.08,254.32 751.4,226.96 751.4,192.4 C751.4,162.4 730.76,136.24 697.88,136.24 C663.8,136.24 641.48,163.6 641.48,198.16 C641.48,228.16 662.12,254.32 694.76,254.32 Z M695.96,234.88 C676.28,234.88 663.32,221.2 663.32,194.56 C663.32,172.96 676.52,155.68 696.92,155.68 C715.16,155.68 729.56,169.84 729.56,195.52 C729.56,217.36 717.08,234.88 695.96,234.88 Z M801.56,250 C800.861176,243.943529 800.614533,234.269619 800.600629,226.025396 L800.6,185.68 C800.6,171.28 817.64,155.68 833.48,155.68 C848.12,155.68 852.68,166.48 852.68,180.4 L852.68,209.2 C852.68,223.12 852.2,239.68 851,250 L875.72,250 C875.24,243.76 874.76,233.68 874.76,225.28 L874.76,176.08 C874.76,151.12 863.24,136.24 839.24,136.24 C825.8,136.24 809.48,144.88 800.36,159.76 L798.68,138.4 C791.48,139.12 785.48,139.6 777.08,139.6 C778.04,149.92 778.52,166.48 778.52,180.4 L778.52,209.2 C778.52,223.12 778.04,239.68 777.08,250 L801.56,250 Z M955.88,254.32 C971.72,254.32 984.92,249.28 997.16,241.12 L998.12,218.56 C987.32,227.44 974.84,234.88 958.04,234.88 C936.68,234.88 925.16,223.6 923.48,201.28 L989,199.36 L1003.4,190.72 C1003.4,160.72 989.96,136.24 957.32,136.24 C923.24,136.24 901.4,163.6 901.4,198.16 C901.4,228.16 918.92,254.32 955.88,254.32 Z M923.96,184.72 C927.08,167.68 938.36,154.72 956.12,154.72 C972.68,154.72 980.36,164.56 982.76,183.04 L923.96,184.72 Z"
      fill="#C9C9D6" fill-rule="nonzero"></path>
  </g>
</svg>
