<?xml version="1.0" encoding="UTF-8"?>
<svg width="1200px" height="328px" viewBox="0 0 1200 328" version="1.1" xmlns="http://www.w3.org/2000/svg">
  <g stroke="none" stroke-width="1" fill="none" fill-rule="evenodd">
    <rect fill="#F9F9FB" x="0" y="0" width="1200" height="328"></rect>
    <line x1="0" y1="91" x2="1200.5" y2="91.5" stroke="#DEDEE6" stroke-width="2"></line>
    <line x1="0" y1="216" x2="1200.5" y2="216.5" stroke="#DEDEE6" stroke-width="2"></line>
    <line x1="0" y1="253" x2="1200.5" y2="253.5" stroke="#DEDEE6" stroke-width="2"></line>
    <g transform="translate(306.160000, 87.400000)" fill-rule="nonzero">
      <path
        d="M62.1,132.84 C78.12,132.84 91.62,127.62 102.24,119.52 L102.6,109.98 C92.34,119.34 79.2,125.28 62.46,125.28 C29.52,125.28 8.46,99.72 8.46,66.42 C8.46,34.2 31.32,7.56 64.62,7.56 C77.94,7.56 89.46,11.52 98.64,18 L101.16,10.44 C91.44,3.96 78.66,-4.26325641e-14 65.16,-4.26325641e-14 C26.82,-4.26325641e-14 -4.34852154e-12,30.24 -4.34852154e-12,68.4 C-4.34852154e-12,102.78 24.3,132.84 62.1,132.84 Z"
        fill="#C9C9D6"></path>
      <path
        d="M168.48,166.86 C168.48,164.52 168.84,162.36 169.02,160.02 C156.78,160.38 141.84,160.56 129.24,160.56 C136.98,154.08 144.72,147.6 150.84,142.02 C161.64,131.76 167.04,125.46 167.04,116.1 C167.04,104.76 158.04,97.74 145.08,97.74 C136.08,97.74 127.8,101.7 121.5,107.28 L124.56,112.68 C131.22,106.92 137.52,104.04 144.72,104.04 C154.26,104.04 160.02,109.08 160.02,116.82 C160.02,123.12 156.42,128.88 146.7,138.06 C140.22,144.18 131.04,151.74 118.98,162 L120.06,166.86 C127.44,166.68 135.54,166.5 144.18,166.5 C153.54,166.5 160.92,166.68 168.48,166.86 Z"
        fill="#2E3138"></path>
      <path
        d="M207.54,129.6 C207.36,124.56 207.36,110.52 207.36,103.68 L207.36,67.32 L286.92,67.32 L286.92,86.22 C286.92,97.92 286.74,120.96 286.38,129.6 L295.38,129.6 C295.231765,125.449412 295.205606,115.195017 295.200989,107.884812 L295.200989,24.4998942 C295.205606,17.0414533 295.231765,6.63882353 295.38,2.34 C292.86,2.88 289.26,3.06 286.38,3.06 C286.74,11.7 286.92,34.92 286.92,46.44 L286.92,60.12 L207.36,60.12 L207.36,28.8 C207.36,21.78 207.36,7.56 207.54,2.34 C205.02,2.88 201.42,3.06 198.54,3.06 C198.889254,11.4420896 199.069093,33.5467231 199.079519,45.3777808 L199.079519,87.2973906 C199.069093,99.282691 198.889254,121.21791 198.54,129.6 L207.54,129.6 Z"
        fill="#C9C9D6"></path>
      <path
        d="M345.06,168.12 C361.26,168.12 372.96,160.02 372.96,148.86 C372.96,139.5 364.86,133.2 349.02,131.4 C363.24,128.16 371.52,122.22 371.52,113.4 C371.52,104.58 362.88,97.92 349.02,97.92 C340.02,97.92 332.1,100.8 325.8,104.22 L327.96,109.62 C333.9,106.2 341.1,104.04 348.48,104.04 C358.92,104.04 364.5,108.54 364.5,114.12 C364.5,121.5 356.22,127.44 336.6,130.32 L337.68,134.82 C355.68,135.36 365.94,139.86 365.94,148.86 C365.94,156.42 357.48,162 344.52,162 C337.32,162 330.84,160.56 324.72,158.4 L325.62,165.06 C332.1,167.04 338.4,168.12 345.06,168.12 Z"
        fill="#2E3138"></path>
      <path
        d="M455.04,132.84 C493.02,132.84 519.48,102.06 519.48,63.18 C519.48,29.16 494.82,-4.26325641e-14 458.64,-4.26325641e-14 C420.48,-4.26325641e-14 394.02,30.78 394.02,69.66 C394.02,103.5 418.86,132.84 455.04,132.84 Z M455.4,125.64 C424.08,125.64 402.48,100.26 402.48,68.22 C402.48,34.74 425.16,7.2 458.1,7.2 C489.42,7.2 511.02,32.4 511.02,64.62 C511.02,98.1 488.52,125.64 455.4,125.64 Z"
        fill="#C9C9D6"></path>
      <path
        d="M588.06,166.86 C588.06,164.52 588.42,162.36 588.6,160.02 C576.36,160.38 561.42,160.56 548.82,160.56 L550.605416,159.065025 C557.741183,153.088402 564.770769,147.170769 570.42,142.02 C581.22,131.76 586.62,125.46 586.62,116.1 C586.62,104.76 577.62,97.74 564.66,97.74 C555.66,97.74 547.38,101.7 541.08,107.28 L544.14,112.68 C550.8,106.92 557.1,104.04 564.3,104.04 C573.84,104.04 579.6,109.08 579.6,116.82 C579.6,123.12 576,128.88 566.28,138.06 C559.8,144.18 550.62,151.74 538.56,162 L539.64,166.86 C547.02,166.68 555.12,166.5 563.76,166.5 C573.12,166.5 580.5,166.68 588.06,166.86 Z"
        fill="#2E3138"></path>
    </g>
  </g>
</svg>
