<?xml version="1.0" encoding="UTF-8"?>
<svg width="1200px" height="328px" viewBox="0 0 1200 328" version="1.1" xmlns="http://www.w3.org/2000/svg" xmlns:xlink="http://www.w3.org/1999/xlink">
    <!-- Generator: Sketch 60.1 (88133) - https://sketch.com -->
    <title>superscript copy</title>
    <desc>Created with Sketch.</desc>
    <g id="superscript-copy" stroke="none" stroke-width="1" fill="none" fill-rule="evenodd">
        <rect fill="#F9F9FB" x="0" y="0" width="1200" height="328"></rect>
        <line x1="0" y1="71.5" x2="1200.5" y2="72" id="ascender-height" stroke="#DEDEE6" stroke-width="2" stroke-linecap="square"></line>
        <line x1="0" y1="140.5" x2="1200.5" y2="141" id="ascender-height" stroke="#DEDEE6" stroke-width="2" stroke-linecap="square"></line>
        <line x1="0" y1="219.5" x2="1200.5" y2="220" id="ascender-height" stroke="#DEDEE6" stroke-width="2" stroke-linecap="square"></line>
        <line x1="0" y1="256.5" x2="1200.5" y2="257" id="ascender-height" stroke="#DEDEE6" stroke-width="2" stroke-linecap="square"></line>
        <path d="M372.9,220.5 C372.578571,216.321429 372.544133,210.133929 372.540443,204.371788 L372.54,146.52 L396.3,146.52 C396.3,143.82 396.48,141.48 396.84,139.68 L372.54,139.68 L372.54,125.46 C372.54,108 378.12,97.92 390.18,97.92 C393.06,97.92 395.58,98.64 397.92,99.54 L397.2,91.98 C395.22,91.08 393.06,90.54 389.46,90.54 C373.26,90.54 364.8,103.86 364.8,126.18 L364.8,139.68 L352.92,139.68 L350.58,146.52 L364.8,146.52 L364.8,190.26 C364.8,200.7 364.62,212.76 364.08,220.5 L372.9,220.5 Z M465.06,261.36 L468.48,255.96 C442.56,242.46 418.98,212.94 418.98,176.22 C418.98,139.5 442.02,109.98 468.48,96.12 L465.06,90.54 C435.72,106.02 411.24,138.24 411.24,176.58 C411.24,214.74 436.44,246.42 465.06,261.36 Z M532.74,221.94 L541.02,220.14 C539.22,217.44 521.94,194.22 519.78,190.8 L510.6,178.38 L540.84,139.32 C538.32,139.5 534.72,139.68 531.66,139.5 L506.1,173.34 L481.62,138.96 L473.16,140.22 C474.96,142.92 493.68,167.94 495.84,171.54 L501.24,178.92 L468.12,220.5 L477.48,220.5 C478.56,218.88 499.8,191.16 505.74,183.78 L532.74,221.94 Z M546.42,261.36 C575.4,246.42 600.42,214.38 600.42,176.04 C600.42,137.88 575.76,105.84 546.42,90.54 L543.18,96.12 C569.46,109.8 592.68,139.32 592.68,176.22 C592.68,212.76 569.1,242.28 543.18,255.78 L546.42,261.36 Z M652.847403,161.460672 L666.48,161.46 C675.12,161.46 683.58,161.64 692.22,161.64 C692.4,159.3 692.58,156.42 692.94,154.44 C682.86,154.8 671.16,154.98 661.08,154.98 C647.94,154.98 638.4,154.62 629.58,154.44 C629.58,156.42 629.4,159.84 629.04,161.64 C636.503571,161.64 643.632398,161.472628 652.847403,161.460672 Z M653.88,190.62 L666.48,190.62 C675.12,190.62 683.58,190.8 692.22,190.8 C692.4,188.64 692.58,185.58 692.94,183.6 C682.86,183.96 671.16,184.14 661.08,184.14 C647.94,184.14 638.4,183.96 629.58,183.6 C629.58,185.76 629.4,189.18 629.04,190.8 C636.78,190.8 644.16,190.62 653.88,190.62 Z M714.54,221.04 C724.8,220.5 735.6,220.32 747.66,220.32 C759.72,220.32 769.98,220.5 780.06,220.86 C780.06,218.16 780.42,215.82 781.14,213.12 C762.96,213.66 742.26,213.48 725.7,213.48 L782.4,141.3 L780.96,139.32 C770.52,139.68 760.08,139.86 748.38,139.86 C737.22,139.86 728.04,139.68 718.68,139.32 C718.68,142.2 718.32,144.18 717.96,146.7 C735.24,146.34 751.98,146.52 769.62,146.52 L712.92,218.88 L714.54,221.04 Z" id="f(x)=z" fill="#C9C9D6" fill-rule="nonzero"></path>
        <path d="M844.86,139.32 C844.86,136.98 845.22,134.82 845.4,132.48 C833.16,132.84 818.22,133.02 805.62,133.02 C813.36,126.54 821.1,120.06 827.22,114.48 C838.02,104.22 843.42,97.92 843.42,88.56 C843.42,77.22 834.42,70.2 821.46,70.2 C812.46,70.2 804.18,74.16 797.88,79.74 L800.94,85.14 C807.6,79.38 813.9,76.5 821.1,76.5 C830.64,76.5 836.4,81.54 836.4,89.28 C836.4,95.58 832.8,101.34 823.08,110.52 C816.6,116.64 807.42,124.2 795.36,134.46 L796.44,139.32 C803.82,139.14 811.92,138.96 820.56,138.96 C829.92,138.96 837.3,139.14 844.86,139.32 Z" id="2" fill="#2E3138" fill-rule="nonzero"></path>
    </g>
</svg>