<svg width="1200px" height="328px" viewBox="0 0 1200 328" version="1.1" xmlns="http://www.w3.org/2000/svg">
  <g stroke="none" stroke-width="1" fill="none" fill-rule="evenodd">
    <rect fill="#F9F9FB" x="0" y="0" width="1200" height="328"></rect>
    <line x1="0" y1="81.5" x2="1200.5" y2="82" stroke="#DEDEE6" stroke-width="2"></line>
    <line x1="0" y1="245.5" x2="1200.5" y2="246" stroke="#DEDEE6" stroke-width="2"></line>
    <path
      d="M648.88,254.88 C668.48,254.88 687.72,247.84 706.6,233.76 C723.4,221.2 738.44,204.32 751.72,183.12 C764.04,163.36 772.72,143.2 777.76,122.64 L777.76,122.64 L790,249.12 C790.32,250.4 791.28,251.04 792.88,251.04 C794.64,251.04 795.92,250.4 796.72,249.12 L796.72,249.12 L843.76,170.4 C847.44,164.32 851.84,157.24 856.96,149.16 C861.84,141.48 866.82,133.84 871.9,126.24 C876.98,118.64 880.96,112.96 883.84,109.2 C882.64,113.12 881.62,117.18 880.78,121.38 C879.94,125.58 878.96,131.36 877.84,138.72 C877.36,142 876.24,149.52 874.48,161.28 L874.48,161.28 L866.08,220.32 C865.12,227.2 862.86,231.98 859.3,234.66 C855.74,237.34 848.8,239.28 838.48,240.48 C837.6,240.64 836.9,241.18 836.38,242.1 C835.86,243.02 835.6,244 835.6,245.04 C835.6,246.48 836,247.2 836.8,247.2 C842.16,247.2 848.56,247 856,246.6 C863.44,246.2 869.6,246 874.48,246 C879.2,246 885.2,246.2 892.48,246.6 C899.76,247 906.08,247.2 911.44,247.2 C912.32,247.2 913.02,246.74 913.54,245.82 C914.06,244.9 914.32,243.84 914.32,242.64 C914.32,241.44 913.92,240.72 913.12,240.48 C904.08,239.52 898.08,238.06 895.12,236.1 C892.16,234.14 890.68,231.16 890.68,227.16 L890.68,227.16 L890.68,225.42 C890.68,224.74 890.88,223.04 891.28,220.32 L891.28,220.32 L901.36,147.84 C905.76,115.44 910.8,93.6 916.48,82.32 C921.52,72.24 929.04,67.2 939.04,67.2 C945.92,67.2 951.28,71.2 955.12,79.2 C958.96,87.2 962.96,91.2 967.12,91.2 C971.2,91.2 974.26,90.18 976.3,88.14 C978.34,86.1 979.36,82.8 979.36,78.24 C979.36,72.88 976.02,67.94 969.34,63.42 C962.66,58.9 955.52,56.64 947.92,56.64 C935.52,56.64 923.88,60.2 913,67.32 C902.44,74.2 891.2,85.36 879.28,100.8 C868.8,114.4 855.84,133.92 840.4,159.36 L840.4,159.36 L808.48,210.96 L797.2,84.72 C797.2,82.96 796.88,81.72 796.24,81 C795.6,80.28 794.64,79.92 793.36,79.92 C792.4,79.92 788.28,80.28 781,81 C778.6,81.24 776.08,81.36 773.44,81.36 C768.72,81.36 761.88,80.56 752.92,78.96 C743.96,77.36 736.64,76.56 730.96,76.56 C714.32,76.56 700.68,81.08 690.04,90.12 C680.2,98.44 675.28,108.32 675.28,119.76 C675.28,126.16 676.96,131.36 680.32,135.36 C683.68,139.36 687.76,141.36 692.56,141.36 C697.04,141.36 700.4,140.22 702.64,137.94 C704.88,135.66 706,132.64 706,128.88 C706,125.52 702.6,121.68 695.8,117.36 C692.68,115.36 691.12,112.88 691.12,109.92 C691.12,102.72 694.6,97.36 701.56,93.84 C708.52,90.32 718.32,88.56 730.96,88.56 C734.72,88.56 743.2,89.84 756.4,92.4 C762.16,93.52 767.36,94.08 772,94.08 C772,114.32 766.28,135.9 754.84,158.82 C743.4,181.74 728.68,200.52 710.68,215.16 C690.76,231.4 670.16,239.52 648.88,239.52 C637.68,239.52 627.92,235.84 619.6,228.48 C611.28,221.12 607.12,212.08 607.12,201.36 C607.12,191.28 609.96,182.8 615.64,175.92 C620.92,169.52 627.04,166.32 634,166.32 C638.56,166.32 642.62,167.94 646.18,171.18 C649.74,174.42 651.52,178.16 651.52,182.4 C651.52,185.68 648.92,189.8 643.72,194.76 C638.52,199.72 635.92,204.56 635.92,209.28 C635.92,212.4 636.92,215.18 638.92,217.62 C640.92,220.06 643.68,221.28 647.2,221.28 C654.16,221.28 659.76,217.76 664,210.72 C667.52,204.88 669.28,198.4 669.28,191.28 C669.28,182.16 665.88,174.44 659.08,168.12 C652.28,161.8 643.92,158.64 634,158.64 C623.2,158.64 613.3,163.3 604.3,172.62 C595.3,181.94 590.8,192.24 590.8,203.52 C590.8,218.8 596.36,231.24 607.48,240.84 C618.36,250.2 632.16,254.88 648.88,254.88 Z"
      fill="#2E3138" fill-rule="nonzero"></path>
    <path
      d="M361.4,250.28 C363.16,250.28 364.44,249.64 365.24,248.36 L365.24,248.36 L445.28,104.48 L428.48,219.56 C427.52,226.68 425.18,231.54 421.46,234.14 C417.74,236.74 410.88,238.64 400.88,239.84 C400.16,239.92 399.5,240.42 398.9,241.34 C398.3,242.26 398,243.24 398,244.28 C398,245.72 398.48,246.44 399.44,246.44 C404.8,246.44 411.24,246.2 418.76,245.72 C425.96,245.24 432,245 436.88,245 C441.76,245 447.76,245.24 454.88,245.72 C462.32,246.2 468.72,246.44 474.08,246.44 C474.8,246.44 475.46,245.96 476.06,245 C476.66,244.04 476.96,243 476.96,241.88 C476.96,240.6 476.48,239.92 475.52,239.84 C467.2,238.88 461.42,237.46 458.18,235.58 C454.94,233.7 453.32,230.72 453.32,226.64 C453.32,225.12 453.52,222.76 453.92,219.56 L453.92,219.56 L469.52,106.64 C470.96,99.28 473.7,94.32 477.74,91.76 C481.78,89.2 488.8,87.36 498.8,86.24 C500.56,86.24 501.44,84.8 501.44,81.92 C501.44,80.32 501.04,79.52 500.24,79.52 C496.64,79.52 492.16,79.76 486.8,80.24 C481.68,80.72 477.52,80.96 474.32,80.96 C471.6,80.96 467.88,80.72 463.16,80.24 C457.96,79.76 453.76,79.52 450.56,79.52 L450.56,79.52 L376.88,210.2 L359.48,79.52 C356.52,79.52 352.4,79.76 347.12,80.24 C341.92,80.72 337.96,80.96 335.24,80.96 C332.92,80.96 328.76,80.72 322.76,80.24 C317.32,79.76 313.64,79.52 311.72,79.52 C310.92,79.52 310.24,80.02 309.68,81.02 C309.12,82.02 308.84,83.12 308.84,84.32 C308.84,85.6 309.24,86.24 310.04,86.24 C318.44,87.12 324.42,88.5 327.98,90.38 C331.54,92.26 333.32,95.08 333.32,98.84 C333.32,100.84 332.84,103.44 331.88,106.64 L331.88,106.64 L292.52,219.56 C290.12,226.76 286.74,231.64 282.38,234.2 C278.02,236.76 270.84,238.6 260.84,239.72 C258.92,239.96 257.96,241.48 257.96,244.28 C257.96,245.72 258.36,246.44 259.16,246.44 C262.76,246.44 267.96,246.2 274.76,245.72 C281.8,245.24 287.32,245 291.32,245 C295.08,245 300.28,245.24 306.92,245.72 C313.8,246.2 319.32,246.44 323.48,246.44 C324.2,246.44 324.86,245.96 325.46,245 C326.06,244.04 326.36,243 326.36,241.88 C326.36,240.68 325.96,240 325.16,239.84 C316.92,238.88 311.08,237.5 307.64,235.7 C304.2,233.9 302.48,231.28 302.48,227.84 C302.48,225.76 303.08,223 304.28,219.56 L304.28,219.56 L339.08,109.04 L358.52,248.36 C358.52,249.64 359.48,250.28 361.4,250.28 Z"
      fill="#C9C9D6" fill-rule="nonzero"></path>
  </g>
</svg>
