<?xml version="1.0" encoding="UTF-8"?>
<svg width="1200px" height="810px" viewBox="0 0 1200 810" version="1.1" xmlns="http://www.w3.org/2000/svg">
  <g stroke="none" stroke-width="1" fill="none" fill-rule="evenodd">
    <rect fill="#F9F9FB" x="0" y="0" width="1200" height="810"></rect>
    <line x1="599.75" y1="60" x2="600" y2="709" stroke="#DEDEE6" stroke-width="2"></line>
    <path
      d="M176.16,252 C175.928571,246.214286 175.697143,230.609388 175.680907,222.185565 L175.680866,114.12502 C175.696744,110.143094 175.928372,87.0530233 176.16,85.2 L174.24,84 L161.76,88.32 L130.8,97.92 L133.2,107.52 L165.12,97.44 L165.12,200.64 C165.12,214.32 165.12,241.68 164.64,252 L176.16,252 Z M224.88,255.6 C230.4,255.6 234.24,251.28 234.24,246 C234.24,241.68 230.64,237.6 225.36,237.6 C219.84,237.6 216.24,241.68 216.24,246.72 C216.24,251.28 219.84,255.6 224.88,255.6 Z M317.52,256.32 C354.24,256.32 376.56,219.12 376.56,167.52 C376.56,121.2 356.4,83.04 319.44,83.04 C282.96,83.04 260.4,120.48 260.4,171.84 C260.4,218.16 280.8,256.32 317.52,256.32 Z M318.48,246.72 C288.48,246.72 271.44,214.32 271.44,170.16 C271.44,127.2 289.44,92.88 318.72,92.88 C348.72,92.88 365.76,125.04 365.76,169.2 C365.76,212.16 347.76,246.72 318.48,246.72 Z M418.08,257.52 C473.52,246.72 508.56,200.88 508.56,145.92 C508.56,107.28 487.44,83.28 456.24,83.28 C424.8,83.28 403.2,108.48 403.2,139.68 C403.2,167.76 423.6,189.36 451.68,189.36 C471.12,189.36 488.88,178.8 497.52,161.04 C491.76,204.48 462,239.04 415.68,248.16 L418.08,257.52 Z M454.08,179.76 C429.84,179.76 414,162.24 414,139.2 C414,113.52 430.8,93.12 455.76,93.12 C480.96,93.12 496.32,113.76 496.32,135.36 C496.32,158.64 478.32,179.76 454.08,179.76 Z"
      fill="#C9C9D6" fill-rule="nonzero"></path>
    <path
      d="M784.88,252.48 C785.12,249.84 785.12,243.84 785.12,241.68 C777.493333,242.142222 766.973498,242.381893 758.489596,242.399012 L738.8,242.4 L738.8,114.48 C738.8,111.84 739.04,87.12 739.28,85.2 L737.36,84 L724.88,88.32 C716,90.96 689.84,100.8 678.08,104.16 L680.24,114 L728.24,97.44 L728.2393,205.610729 C728.235102,216.362449 728.205714,231.497143 728,242.4 L704.96,242.4 C693.68,242.4 688.16,242.16 677.36,241.68 C677.84,244.8 678.08,249.12 678.32,252.48 C691.28,252.24 701.36,252 715.04,252 L745.28,252 C759.2,252 773.84,252 784.88,252.48 Z M827.36,255.6 C833.12,255.6 836.96,251.04 836.96,245.76 C836.96,240.96 833.36,236.64 827.84,236.64 C822.08,236.64 818.24,240.96 818.24,246.24 C818.24,251.04 821.84,255.6 827.36,255.6 Z M927.44,256.32 C962.96,256.32 984.08,219.12 984.08,167.52 C984.08,121.2 965.12,83.04 929.36,83.04 C893.84,83.04 872.72,120.48 872.72,171.84 C872.72,218.16 891.92,256.32 927.44,256.32 Z M928.16,246.72 C899.84,246.72 883.76,214.32 883.76,170.16 C883.76,127.2 900.8,92.88 928.64,92.88 C956.96,92.88 973.04,125.04 973.04,169.2 C973.04,212.16 956,246.72 928.16,246.72 Z M1021.52,257.52 C1079.6,246.72 1116.32,200.88 1116.32,145.92 C1116.32,107.28 1094.72,83.28 1062.32,83.28 C1029.2,83.28 1006.4,108.48 1006.4,139.68 C1006.4,167.76 1028,189.36 1057.76,189.36 C1080.56,189.36 1098.32,175.92 1105.76,158.4 C1100.48,203.04 1069.04,238.8 1018.88,248.16 L1021.52,257.52 Z M1060.16,179.76 C1034.24,179.76 1017.44,162.24 1017.44,139.2 C1017.44,113.52 1035.2,93.12 1061.6,93.12 C1088,93.12 1104.08,113.76 1104.08,135.36 C1104.08,158.64 1085.6,179.76 1060.16,179.76 Z"
      fill="#2E3138" fill-rule="nonzero"></path>
    <path
      d="M289.92,480 C289.685106,474.12766 289.450213,461.358443 289.440324,452.942573 L289.44,429.12 C298.56,429.12 307.44,429.36 314.88,429.6 C315.12,425.52 315.36,423.36 316.32,419.28 C308.4,419.52 299.04,419.76 289.44,419.76 L289.440741,346.247108 C289.455484,342.329657 289.687742,315.290323 289.92,313.2 L282.48,312.24 C281.04,314.4 266.88,332.64 264.72,335.28 L196.32,422.64 L199.44,429.84 C215.52,429.12 237.84,428.88 256.32,428.88 L279.36,428.88 L279.36,435.36 C279.36,449.52 279.12,469.44 278.64,480 L289.92,480 Z M269.410146,419.9993 L261.308873,419.9993 C246.577715,419.994061 219.581124,419.962247 210.48,419.76 L279.12,331.92 L279.36,419.76 C276.068571,419.965714 272.248163,419.995102 269.410146,419.9993 Z M341.76,483.6 C347.28,483.6 351.12,479.28 351.12,474 C351.12,469.68 347.52,465.6 342.24,465.6 C336.72,465.6 333.12,469.68 333.12,474.72 C333.12,479.28 336.72,483.6 341.76,483.6 Z M414.48,480 C414.248571,474.214286 414.017143,458.609388 414.000907,450.185565 L414.000866,342.12502 C414.016744,338.143094 414.248372,315.053023 414.48,313.2 L412.56,312 L400.08,316.32 L369.12,325.92 L371.52,335.52 L403.44,325.44 L403.44,428.64 C403.44,442.32 403.44,469.68 402.96,480 L414.48,480 Z M493.92,480 C493.688571,474.214286 493.457143,458.609388 493.440907,450.185565 L493.440866,342.12502 C493.456744,338.143094 493.688372,315.053023 493.92,313.2 L492,312 L479.52,316.32 L448.56,325.92 L450.96,335.52 L482.88,325.44 L482.88,428.64 C482.88,442.32 482.88,469.68 482.4,480 L493.92,480 Z"
      fill="#C9C9D6" fill-rule="nonzero"></path>
    <path
      d="M759.68,480 C759.445106,474.12766 759.210213,461.358443 759.200324,452.942573 L759.2,436.56 C769.28,436.56 778.88,436.8 787.76,437.04 C788,432.96 788.24,431.04 789.2,426.72 C779.6,426.96 770,427.2 759.2,427.2 L759.200741,346.247108 C759.215484,342.329657 759.447742,315.290323 759.68,313.2 L752,312.24 C750.56,314.4 736.4,333.6 734.48,336 L665.36,430.32 L668.24,437.28 C685.52,436.56 708.8,436.56 728.72,436.56 L749.12,436.56 L749.12,443.76 C749.12,455.28 749.12,471.6 748.4,480 L759.68,480 Z M741.28568,427.43976 L733.144894,427.43976 C717.276444,427.434193 689.173333,427.402667 679.04,427.2 L749.12,331.44 L749.12,427.2 C746.528,427.416 743.7416,427.4376 741.28568,427.43976 Z M827.36,483.6 C833.12,483.6 836.96,479.04 836.96,473.76 C836.96,468.96 833.36,464.64 827.84,464.64 C822.08,464.64 818.24,468.96 818.24,474.24 C818.24,479.04 821.84,483.6 827.36,483.6 Z M986.48,480.48 C986.72,477.84 986.72,471.84 986.72,469.68 C979.093333,470.142222 968.573498,470.381893 960.089596,470.399012 L940.4,470.4 L940.400866,342.12502 C940.416744,338.143094 940.648372,315.053023 940.88,313.2 L938.96,312 L926.48,316.32 C917.6,318.96 891.44,328.8 879.68,332.16 L881.84,342 L929.84,325.44 L929.84,428.64 C929.84,439.2 929.84,457.68 929.6,470.4 L906.56,470.4 C895.28,470.4 889.76,470.16 878.96,469.68 C879.44,472.8 879.68,477.12 879.92,480.48 C892.88,480.24 902.96,480 916.64,480 L946.88,480 C960.8,480 975.44,480 986.48,480.48 Z M1120.88,480.48 C1121.12,477.84 1121.12,471.84 1121.12,469.68 C1113.49333,470.142222 1102.9735,470.381893 1094.4896,470.399012 L1074.8,470.4 L1074.80087,342.12502 C1074.81674,338.143094 1075.04837,315.053023 1075.28,313.2 L1073.36,312 L1060.88,316.32 C1052,318.96 1025.84,328.8 1014.08,332.16 L1016.24,342 L1064.24,325.44 L1064.24,428.64 C1064.24,439.2 1064.24,457.68 1064,470.4 L1040.96,470.4 C1029.68,470.4 1024.16,470.16 1013.36,469.68 C1013.84,472.8 1014.08,477.12 1014.32,480.48 C1027.28,480.24 1037.36,480 1051.04,480 L1081.28,480 C1095.2,480 1109.84,480 1120.88,480.48 Z"
      fill="#2E3138" fill-rule="nonzero"></path>
    <path
      d="M120,702.6 C154.32,702.6 178.32,683.88 178.32,655.8 C178.32,633.96 162.24,618.12 130.08,612.6 C154.32,606.36 174.72,592.68 174.72,567.96 C174.72,547.56 156.72,530.76 128.88,530.76 C114.24,530.76 98.16,536.28 84.72,545.88 L89.28,555 C101.04,546.12 115.92,540.84 128.16,540.84 C150.48,540.84 163.68,554.04 163.68,569.4 C163.68,591 140.16,605.88 102,611.64 L103.92,619.08 C143.76,619.32 167.28,633 167.28,656.52 C167.28,678.84 148.08,692.52 118.8,692.52 C105.84,692.52 92.88,689.64 79.92,684.84 L81.36,695.64 C94.32,700.44 106.8,702.6 120,702.6 Z M211.68,702.6 C217.2,702.6 221.04,698.28 221.04,693 C221.04,688.68 217.44,684.6 212.16,684.6 C206.64,684.6 203.04,688.68 203.04,693.72 C203.04,698.28 206.64,702.6 211.68,702.6 Z M304.32,703.32 C341.04,703.32 363.36,666.12 363.36,614.52 C363.36,568.2 343.2,530.04 306.24,530.04 C269.76,530.04 247.2,567.48 247.2,618.84 C247.2,665.16 267.6,703.32 304.32,703.32 Z M305.28,693.72 C275.28,693.72 258.24,661.32 258.24,617.16 C258.24,574.2 276.24,539.88 305.52,539.88 C335.52,539.88 352.56,572.04 352.56,616.2 C352.56,659.16 334.56,693.72 305.28,693.72 Z M448.8,703.32 C485.52,703.32 507.84,666.12 507.84,614.52 C507.84,568.2 487.68,530.04 450.72,530.04 C414.24,530.04 391.68,567.48 391.68,618.84 C391.68,665.16 412.08,703.32 448.8,703.32 Z M449.76,693.72 C419.76,693.72 402.72,661.32 402.72,617.16 C402.72,574.2 420.72,539.88 450,539.88 C480,539.88 497.04,572.04 497.04,616.2 C497.04,659.16 479.04,693.72 449.76,693.72 Z"
      fill="#C9C9D6" fill-rule="nonzero"></path>
    <path
      d="M716.48,702.6 C753.68,702.6 779.84,682.92 779.84,655.8 C779.84,632.52 759.2,616.68 722.96,613.08 C756.32,606.36 776.24,590.04 776.24,567.96 C776.24,547.32 756.32,530.76 726.08,530.76 C706.16,530.76 688.88,537.96 674.96,547.32 L679.52,556.2 C692.72,547.08 707.6,540.84 725.36,540.84 C750.32,540.84 765.2,553.32 765.2,568.92 C765.2,588.12 746,603.48 699.68,611.4 L701.36,619.32 C742.64,620.04 768.56,632.52 768.56,656.52 C768.56,677.4 748.16,692.52 716,692.52 C697.28,692.52 684.56,689.4 670.64,683.88 L672.08,694.92 C686.24,700.2 698.96,702.6 716.48,702.6 Z M827.36,702.6 C833.12,702.6 836.96,698.04 836.96,692.76 C836.96,687.96 833.36,683.64 827.84,683.64 C822.08,683.64 818.24,687.96 818.24,693.24 C818.24,698.04 821.84,702.6 827.36,702.6 Z M927.44,703.32 C962.96,703.32 984.08,666.12 984.08,614.52 C984.08,568.2 965.12,530.04 929.36,530.04 C893.84,530.04 872.72,567.48 872.72,618.84 C872.72,665.16 891.92,703.32 927.44,703.32 Z M928.16,693.72 C899.84,693.72 883.76,661.32 883.76,617.16 C883.76,574.2 900.8,539.88 928.64,539.88 C956.96,539.88 973.04,572.04 973.04,616.2 C973.04,659.16 956,693.72 928.16,693.72 Z M1061.84,703.32 C1097.36,703.32 1118.48,666.12 1118.48,614.52 C1118.48,568.2 1099.52,530.04 1063.76,530.04 C1028.24,530.04 1007.12,567.48 1007.12,618.84 C1007.12,665.16 1026.32,703.32 1061.84,703.32 Z M1062.56,693.72 C1034.24,693.72 1018.16,661.32 1018.16,617.16 C1018.16,574.2 1035.2,539.88 1063.04,539.88 C1091.36,539.88 1107.44,572.04 1107.44,616.2 C1107.44,659.16 1090.4,693.72 1062.56,693.72 Z"
      fill="#2E3138" fill-rule="nonzero"></path>
  </g>
</svg>
