<?xml version="1.0" encoding="UTF-8"?>
<svg width="1200px" height="1050px" viewBox="0 0 1200 1050" version="1.1" xmlns="http://www.w3.org/2000/svg" xmlns:xlink="http://www.w3.org/1999/xlink">
    <!-- Generator: Sketch 60.1 (88133) - https://sketch.com -->
    <title>thresholds</title>
    <desc>Created with Sketch.</desc>
    <g id="thresholds" stroke="none" stroke-width="1" fill="none" fill-rule="evenodd">
        <rect fill="#F9F9FB" x="0" y="0" width="1200" height="1050"></rect>
        <g id="root-margin">
            <path d="M1200,0 L1200,562 L0,562 L0,0 L1200,0 Z M1165,35 L35,35 L35,527 L1165,527 L1165,35 Z" id="overlay" fill-opacity="0.1" fill="#D75037"></path>
            <rect id="border" stroke="#D75037" stroke-width="2" x="36" y="34" width="1128" height="492"></rect>
        </g>
        <rect id="rectangle-copy-2" stroke="#DEDEE6" stroke-width="2" fill="#FFFFFF" x="86" y="681" width="298" height="298"></rect>
        <rect id="rectangle-copy-3" stroke="#DEDEE6" stroke-width="2" fill="#FFFFFF" x="451" y="376" width="298" height="298"></rect>
        <rect id="rectangle-copy-4" stroke="#DEDEE6" stroke-width="2" fill="#FFFFFF" x="816" y="71" width="298" height="298"></rect>
        <g id="Group" transform="translate(817.000000, 70.000000)" stroke="#D75037" stroke-dasharray="5" stroke-linecap="square" stroke-width="2">
            <line x1="149.5" y1="-148" x2="149.5" y2="150" id="0%-line-copy" transform="translate(149.500000, 1.000000) rotate(-90.000000) translate(-149.500000, -1.000000) "></line>
            <line x1="149.5" y1="2" x2="149.5" y2="300" id="0%-line-copy-3" transform="translate(149.500000, 151.000000) rotate(-90.000000) translate(-149.500000, -151.000000) "></line>
            <line x1="149.5" y1="150" x2="149.5" y2="448" id="0%-line-copy-2" transform="translate(149.500000, 299.000000) rotate(-90.000000) translate(-149.500000, -299.000000) "></line>
        </g>
        <g id="Group-Copy" transform="translate(452.000000, 375.000000)" stroke-dasharray="5" stroke-linecap="square" stroke-width="2">
            <line x1="149.5" y1="-148" x2="149.5" y2="150" id="0%-line-copy" stroke="#D75037" transform="translate(149.500000, 1.000000) rotate(-90.000000) translate(-149.500000, -1.000000) "></line>
            <line x1="149.5" y1="2" x2="149.5" y2="300" id="0%-line-copy-3" stroke="#D75037" transform="translate(149.500000, 151.000000) rotate(-90.000000) translate(-149.500000, -151.000000) "></line>
            <line x1="149.5" y1="150" x2="149.5" y2="448" id="0%-line-copy-2" stroke="#707073" transform="translate(149.500000, 299.000000) rotate(-90.000000) translate(-149.500000, -299.000000) "></line>
        </g>
        <g id="Group-Copy-2" transform="translate(87.000000, 680.000000)" stroke="#707073" stroke-dasharray="5" stroke-linecap="square" stroke-width="2">
            <line x1="149.5" y1="-148" x2="149.5" y2="150" id="0%-line-copy" transform="translate(149.500000, 1.000000) rotate(-90.000000) translate(-149.500000, -1.000000) "></line>
            <line x1="149.5" y1="2" x2="149.5" y2="300" id="0%-line-copy-3" transform="translate(149.500000, 151.000000) rotate(-90.000000) translate(-149.500000, -151.000000) "></line>
            <line x1="149.5" y1="150" x2="149.5" y2="448" id="0%-line-copy-2" transform="translate(149.500000, 299.000000) rotate(-90.000000) translate(-149.500000, -299.000000) "></line>
        </g>
        <g id="value-label" transform="translate(943.000000, 58.000000)">
            <g id="Group" transform="translate(4.500000, 0.000000)">
                <rect id="pill" fill="#D75037" x="0" y="0" width="35" height="24" rx="12"></rect>
                <text id="100" font-family="Menlo-Bold, Menlo" font-size="15" font-weight="bold" fill="#F9FAFA">
                    <tspan x="8.46923828" y="17">0%</tspan>
                </text>
            </g>
        </g>
        <g id="value-label" transform="translate(578.000000, 364.000000)">
            <g id="Group" transform="translate(4.500000, 0.000000)">
                <rect id="pill" fill="#D75037" x="0" y="0" width="35" height="24" rx="12"></rect>
                <text id="100" font-family="Menlo-Bold, Menlo" font-size="15" font-weight="bold" fill="#F9FAFA">
                    <tspan x="8.46923828" y="17">0%</tspan>
                </text>
            </g>
        </g>
        <g id="value-label-copy-7" transform="translate(217.000000, 669.000000)">
            <g id="Group" transform="translate(0.500000, 0.000000)">
                <rect id="pill" fill="#707073" x="0" y="0" width="35" height="24" rx="12"></rect>
                <text id="100" font-family="Menlo-Bold, Menlo" font-size="15" font-weight="bold" fill="#F9FAFA">
                    <tspan x="8.46923828" y="17">0%</tspan>
                </text>
            </g>
        </g>
        <g id="value-label" transform="translate(943.000000, 208.000000)">
            <g id="Group">
                <rect id="pill" fill="#D75037" x="0" y="0" width="44" height="24" rx="12"></rect>
                <text id="100" font-family="Menlo-Bold, Menlo" font-size="15" font-weight="bold" fill="#F9FAFA">
                    <tspan x="8.45385742" y="17">50%</tspan>
                </text>
            </g>
        </g>
        <g id="value-label" transform="translate(578.000000, 514.000000)">
            <g id="Group">
                <rect id="pill" fill="#D75037" x="0" y="0" width="44" height="24" rx="12"></rect>
                <text id="100" font-family="Menlo-Bold, Menlo" font-size="15" font-weight="bold" fill="#F9FAFA">
                    <tspan x="8.45385742" y="17">50%</tspan>
                </text>
            </g>
        </g>
        <g id="value-label-copy-8" transform="translate(213.000000, 819.000000)">
            <g id="Group">
                <rect id="pill" fill="#707073" x="0" y="0" width="44" height="24" rx="12"></rect>
                <text id="100" font-family="Menlo-Bold, Menlo" font-size="15" font-weight="bold" fill="#F9FAFA">
                    <tspan x="8.45385742" y="17">50%</tspan>
                </text>
            </g>
        </g>
        <g id="value-label" transform="translate(943.000000, 358.000000)">
            <g id="Group" transform="translate(-4.500000, 0.000000)">
                <rect id="pill" fill="#D75037" x="0" y="0" width="53" height="24" rx="12"></rect>
                <text id="100" font-family="Menlo-Bold, Menlo" font-size="15" font-weight="bold" fill="#F9FAFA">
                    <tspan x="8.43847656" y="17">100%</tspan>
                </text>
            </g>
        </g>
        <g id="value-label-copy-5" transform="translate(573.000000, 663.000000)">
            <g id="Group" transform="translate(0.500000, 0.000000)">
                <rect id="pill" fill="#707073" x="0" y="0" width="53" height="24" rx="12"></rect>
                <text id="100" font-family="Menlo-Bold, Menlo" font-size="15" font-weight="bold" fill="#F9FAFA">
                    <tspan x="8.43847656" y="17">100%</tspan>
                </text>
            </g>
        </g>
        <g id="value-label-copy-6" transform="translate(208.000000, 968.000000)">
            <g id="Group" transform="translate(0.500000, 0.000000)">
                <rect id="pill" fill="#707073" x="0" y="0" width="53" height="24" rx="12"></rect>
                <text id="100" font-family="Menlo-Bold, Menlo" font-size="15" font-weight="bold" fill="#F9FAFA">
                    <tspan x="8.43847656" y="17">100%</tspan>
                </text>
            </g>
        </g>
    </g>
</svg>