<?xml version="1.0" encoding="UTF-8"?>
<svg width="1200px" height="1050px" viewBox="0 0 1200 1050" version="1.1" xmlns="http://www.w3.org/2000/svg" xmlns:xlink="http://www.w3.org/1999/xlink">
    <!-- Generator: Sketch 60.1 (88133) - https://sketch.com -->
    <title>thresholds</title>
    <desc>Created with Sketch.</desc>
    <g id="thresholds" stroke="none" stroke-width="1" fill="none" fill-rule="evenodd">
        <rect fill="#F9F9FB" x="0" y="0" width="1200" height="1050"></rect>
        <path d="M1200,0 L1200,562 L0,562 L0,0 L1200,0 Z M1165,35 L35,35 L35,527 L1165,527 L1165,35 Z" id="overlay" fill-opacity="0.1" fill="#D75037"></path>
        <rect id="border" stroke="#D75037" stroke-width="2" x="36" y="34" width="1128" height="492"></rect>
        <rect id="rectangle-copy-2" stroke="#DEDEE6" stroke-width="2" fill="#FFFFFF" x="86" y="681" width="298" height="298"></rect>
        <rect id="rectangle-copy-3" stroke="#DEDEE6" stroke-width="2" fill="#FFFFFF" x="451" y="376" width="298" height="298"></rect>
        <rect id="rectangle-copy-4" stroke="#DEDEE6" stroke-width="2" fill="#FFFFFF" x="816" y="71" width="298" height="298"></rect>
        <path d="M966,-77 L964,-77 L964,-70 L966,-70 L966,-77 Z M966,-67 L964,-67 L964,-60 L966,-60 L966,-67 Z M966,-57 L964,-57 L964,-50 L966,-50 L966,-57 Z M966,-47 L964,-47 L964,-40 L966,-40 L966,-47 Z M966,-37 L964,-37 L964,-30 L966,-30 L966,-37 Z M966,-27 L964,-27 L964,-20 L966,-20 L966,-27 Z M966,-17 L964,-17 L964,-10 L966,-10 L966,-17 Z M966,-7 L964,-7 L964,0 L966,0 L966,-7 Z M966,3 L964,3 L964,10 L966,10 L966,3 Z M966,13 L964,13 L964,20 L966,20 L966,13 Z M966,23 L964,23 L964,30 L966,30 L966,23 Z M966,33 L964,33 L964,40 L966,40 L966,33 Z M966,43 L964,43 L964,50 L966,50 L966,43 Z M966,53 L964,53 L964,60 L966,60 L966,53 Z M966,63 L964,63 L964,70 L966,70 L966,63 Z M966,73 L964,73 L964,80 L966,80 L966,73 Z M966,83 L964,83 L964,90 L966,90 L966,83 Z M966,93 L964,93 L964,100 L966,100 L966,93 Z M966,103 L964,103 L964,110 L966,110 L966,103 Z M966,113 L964,113 L964,120 L966,120 L966,113 Z M966,123 L964,123 L964,130 L966,130 L966,123 Z M966,133 L964,133 L964,140 L966,140 L966,133 Z M966,143 L964,143 L964,150 L966,150 L966,143 Z M966,153 L964,153 L964,160 L966,160 L966,153 Z M966,163 L964,163 L964,170 L966,170 L966,163 Z M966,173 L964,173 L964,180 L966,180 L966,173 Z M966,183 L964,183 L964,190 L966,190 L966,183 Z M966,193 L964,193 L964,200 L966,200 L966,193 Z M966,203 L964,203 L964,210 L966,210 L966,203 Z M966,213 L964,213 L964,220 L966,220 L966,213 Z" id="0%-line-copy" fill="#D75037" fill-rule="nonzero" transform="translate(965.000000, 71.500000) rotate(-90.000000) translate(-965.000000, -71.500000) "></path>
        <path d="M966,72 L964,72 L964,79 L966,79 L966,72 Z M966,82 L964,82 L964,89 L966,89 L966,82 Z M966,92 L964,92 L964,99 L966,99 L966,92 Z M966,102 L964,102 L964,109 L966,109 L966,102 Z M966,112 L964,112 L964,119 L966,119 L966,112 Z M966,122 L964,122 L964,129 L966,129 L966,122 Z M966,132 L964,132 L964,139 L966,139 L966,132 Z M966,142 L964,142 L964,149 L966,149 L966,142 Z M966,152 L964,152 L964,159 L966,159 L966,152 Z M966,162 L964,162 L964,169 L966,169 L966,162 Z M966,172 L964,172 L964,179 L966,179 L966,172 Z M966,182 L964,182 L964,189 L966,189 L966,182 Z M966,192 L964,192 L964,199 L966,199 L966,192 Z M966,202 L964,202 L964,209 L966,209 L966,202 Z M966,212 L964,212 L964,219 L966,219 L966,212 Z M966,222 L964,222 L964,229 L966,229 L966,222 Z M966,232 L964,232 L964,239 L966,239 L966,232 Z M966,242 L964,242 L964,249 L966,249 L966,242 Z M966,252 L964,252 L964,259 L966,259 L966,252 Z M966,262 L964,262 L964,269 L966,269 L966,262 Z M966,272 L964,272 L964,279 L966,279 L966,272 Z M966,282 L964,282 L964,289 L966,289 L966,282 Z M966,292 L964,292 L964,299 L966,299 L966,292 Z M966,302 L964,302 L964,309 L966,309 L966,302 Z M966,312 L964,312 L964,319 L966,319 L966,312 Z M966,322 L964,322 L964,329 L966,329 L966,322 Z M966,332 L964,332 L964,339 L966,339 L966,332 Z M966,342 L964,342 L964,349 L966,349 L966,342 Z M966,352 L964,352 L964,359 L966,359 L966,352 Z M966,362 L964,362 L964,369 L966,369 L966,362 Z" id="0%-line-copy-3" fill="#D75037" fill-rule="nonzero" transform="translate(965.000000, 220.500000) rotate(-90.000000) translate(-965.000000, -220.500000) "></path>
        <path d="M966,220 L964,220 L964,227 L966,227 L966,220 Z M966,230 L964,230 L964,237 L966,237 L966,230 Z M966,240 L964,240 L964,247 L966,247 L966,240 Z M966,250 L964,250 L964,257 L966,257 L966,250 Z M966,260 L964,260 L964,267 L966,267 L966,260 Z M966,270 L964,270 L964,277 L966,277 L966,270 Z M966,280 L964,280 L964,287 L966,287 L966,280 Z M966,290 L964,290 L964,297 L966,297 L966,290 Z M966,300 L964,300 L964,307 L966,307 L966,300 Z M966,310 L964,310 L964,317 L966,317 L966,310 Z M966,320 L964,320 L964,327 L966,327 L966,320 Z M966,330 L964,330 L964,337 L966,337 L966,330 Z M966,340 L964,340 L964,347 L966,347 L966,340 Z M966,350 L964,350 L964,357 L966,357 L966,350 Z M966,360 L964,360 L964,367 L966,367 L966,360 Z M966,370 L964,370 L964,377 L966,377 L966,370 Z M966,380 L964,380 L964,387 L966,387 L966,380 Z M966,390 L964,390 L964,397 L966,397 L966,390 Z M966,400 L964,400 L964,407 L966,407 L966,400 Z M966,410 L964,410 L964,417 L966,417 L966,410 Z M966,420 L964,420 L964,427 L966,427 L966,420 Z M966,430 L964,430 L964,437 L966,437 L966,430 Z M966,440 L964,440 L964,447 L966,447 L966,440 Z M966,450 L964,450 L964,457 L966,457 L966,450 Z M966,460 L964,460 L964,467 L966,467 L966,460 Z M966,470 L964,470 L964,477 L966,477 L966,470 Z M966,480 L964,480 L964,487 L966,487 L966,480 Z M966,490 L964,490 L964,497 L966,497 L966,490 Z M966,500 L964,500 L964,507 L966,507 L966,500 Z M966,510 L964,510 L964,517 L966,517 L966,510 Z" id="0%-line-copy-2" fill="#D75037" fill-rule="nonzero" transform="translate(965.000000, 368.500000) rotate(-90.000000) translate(-965.000000, -368.500000) "></path>
        <path d="M600.5,227 L598.5,227 L598.5,234 L600.5,234 L600.5,227 Z M600.5,237 L598.5,237 L598.5,244 L600.5,244 L600.5,237 Z M600.5,247 L598.5,247 L598.5,254 L600.5,254 L600.5,247 Z M600.5,257 L598.5,257 L598.5,264 L600.5,264 L600.5,257 Z M600.5,267 L598.5,267 L598.5,274 L600.5,274 L600.5,267 Z M600.5,277 L598.5,277 L598.5,284 L600.5,284 L600.5,277 Z M600.5,287 L598.5,287 L598.5,294 L600.5,294 L600.5,287 Z M600.5,297 L598.5,297 L598.5,304 L600.5,304 L600.5,297 Z M600.5,307 L598.5,307 L598.5,314 L600.5,314 L600.5,307 Z M600.5,317 L598.5,317 L598.5,324 L600.5,324 L600.5,317 Z M600.5,327 L598.5,327 L598.5,334 L600.5,334 L600.5,327 Z M600.5,337 L598.5,337 L598.5,344 L600.5,344 L600.5,337 Z M600.5,347 L598.5,347 L598.5,354 L600.5,354 L600.5,347 Z M600.5,357 L598.5,357 L598.5,364 L600.5,364 L600.5,357 Z M600.5,367 L598.5,367 L598.5,374 L600.5,374 L600.5,367 Z M600.5,377 L598.5,377 L598.5,384 L600.5,384 L600.5,377 Z M600.5,387 L598.5,387 L598.5,394 L600.5,394 L600.5,387 Z M600.5,397 L598.5,397 L598.5,404 L600.5,404 L600.5,397 Z M600.5,407 L598.5,407 L598.5,414 L600.5,414 L600.5,407 Z M600.5,417 L598.5,417 L598.5,424 L600.5,424 L600.5,417 Z M600.5,427 L598.5,427 L598.5,434 L600.5,434 L600.5,427 Z M600.5,437 L598.5,437 L598.5,444 L600.5,444 L600.5,437 Z M600.5,447 L598.5,447 L598.5,454 L600.5,454 L600.5,447 Z M600.5,457 L598.5,457 L598.5,464 L600.5,464 L600.5,457 Z M600.5,467 L598.5,467 L598.5,474 L600.5,474 L600.5,467 Z M600.5,477 L598.5,477 L598.5,484 L600.5,484 L600.5,477 Z M600.5,487 L598.5,487 L598.5,494 L600.5,494 L600.5,487 Z M600.5,497 L598.5,497 L598.5,504 L600.5,504 L600.5,497 Z M600.5,507 L598.5,507 L598.5,514 L600.5,514 L600.5,507 Z M600.5,517 L598.5,517 L598.5,524 L600.5,524 L600.5,517 Z" id="0%-line-copy" fill="#D75037" fill-rule="nonzero" transform="translate(599.500000, 375.500000) rotate(-90.000000) translate(-599.500000, -375.500000) "></path>
        <path d="M600.5,377 L598.5,377 L598.5,384 L600.5,384 L600.5,377 Z M600.5,387 L598.5,387 L598.5,394 L600.5,394 L600.5,387 Z M600.5,397 L598.5,397 L598.5,404 L600.5,404 L600.5,397 Z M600.5,407 L598.5,407 L598.5,414 L600.5,414 L600.5,407 Z M600.5,417 L598.5,417 L598.5,424 L600.5,424 L600.5,417 Z M600.5,427 L598.5,427 L598.5,434 L600.5,434 L600.5,427 Z M600.5,437 L598.5,437 L598.5,444 L600.5,444 L600.5,437 Z M600.5,447 L598.5,447 L598.5,454 L600.5,454 L600.5,447 Z M600.5,457 L598.5,457 L598.5,464 L600.5,464 L600.5,457 Z M600.5,467 L598.5,467 L598.5,474 L600.5,474 L600.5,467 Z M600.5,477 L598.5,477 L598.5,484 L600.5,484 L600.5,477 Z M600.5,487 L598.5,487 L598.5,494 L600.5,494 L600.5,487 Z M600.5,497 L598.5,497 L598.5,504 L600.5,504 L600.5,497 Z M600.5,507 L598.5,507 L598.5,514 L600.5,514 L600.5,507 Z M600.5,517 L598.5,517 L598.5,524 L600.5,524 L600.5,517 Z M600.5,527 L598.5,527 L598.5,534 L600.5,534 L600.5,527 Z M600.5,537 L598.5,537 L598.5,544 L600.5,544 L600.5,537 Z M600.5,547 L598.5,547 L598.5,554 L600.5,554 L600.5,547 Z M600.5,557 L598.5,557 L598.5,564 L600.5,564 L600.5,557 Z M600.5,567 L598.5,567 L598.5,574 L600.5,574 L600.5,567 Z M600.5,577 L598.5,577 L598.5,584 L600.5,584 L600.5,577 Z M600.5,587 L598.5,587 L598.5,594 L600.5,594 L600.5,587 Z M600.5,597 L598.5,597 L598.5,604 L600.5,604 L600.5,597 Z M600.5,607 L598.5,607 L598.5,614 L600.5,614 L600.5,607 Z M600.5,617 L598.5,617 L598.5,624 L600.5,624 L600.5,617 Z M600.5,627 L598.5,627 L598.5,634 L600.5,634 L600.5,627 Z M600.5,637 L598.5,637 L598.5,644 L600.5,644 L600.5,637 Z M600.5,647 L598.5,647 L598.5,654 L600.5,654 L600.5,647 Z M600.5,657 L598.5,657 L598.5,664 L600.5,664 L600.5,657 Z M600.5,667 L598.5,667 L598.5,674 L600.5,674 L600.5,667 Z" id="0%-line-copy-3" fill="#D75037" fill-rule="nonzero" transform="translate(599.500000, 525.500000) rotate(-90.000000) translate(-599.500000, -525.500000) "></path>
        <path d="M600.5,525 L598.5,525 L598.5,532 L600.5,532 L600.5,525 Z M600.5,535 L598.5,535 L598.5,542 L600.5,542 L600.5,535 Z M600.5,545 L598.5,545 L598.5,552 L600.5,552 L600.5,545 Z M600.5,555 L598.5,555 L598.5,562 L600.5,562 L600.5,555 Z M600.5,565 L598.5,565 L598.5,572 L600.5,572 L600.5,565 Z M600.5,575 L598.5,575 L598.5,582 L600.5,582 L600.5,575 Z M600.5,585 L598.5,585 L598.5,592 L600.5,592 L600.5,585 Z M600.5,595 L598.5,595 L598.5,602 L600.5,602 L600.5,595 Z M600.5,605 L598.5,605 L598.5,612 L600.5,612 L600.5,605 Z M600.5,615 L598.5,615 L598.5,622 L600.5,622 L600.5,615 Z M600.5,625 L598.5,625 L598.5,632 L600.5,632 L600.5,625 Z M600.5,635 L598.5,635 L598.5,642 L600.5,642 L600.5,635 Z M600.5,645 L598.5,645 L598.5,652 L600.5,652 L600.5,645 Z M600.5,655 L598.5,655 L598.5,662 L600.5,662 L600.5,655 Z M600.5,665 L598.5,665 L598.5,672 L600.5,672 L600.5,665 Z M600.5,675 L598.5,675 L598.5,682 L600.5,682 L600.5,675 Z M600.5,685 L598.5,685 L598.5,692 L600.5,692 L600.5,685 Z M600.5,695 L598.5,695 L598.5,702 L600.5,702 L600.5,695 Z M600.5,705 L598.5,705 L598.5,712 L600.5,712 L600.5,705 Z M600.5,715 L598.5,715 L598.5,722 L600.5,722 L600.5,715 Z M600.5,725 L598.5,725 L598.5,732 L600.5,732 L600.5,725 Z M600.5,735 L598.5,735 L598.5,742 L600.5,742 L600.5,735 Z M600.5,745 L598.5,745 L598.5,752 L600.5,752 L600.5,745 Z M600.5,755 L598.5,755 L598.5,762 L600.5,762 L600.5,755 Z M600.5,765 L598.5,765 L598.5,772 L600.5,772 L600.5,765 Z M600.5,775 L598.5,775 L598.5,782 L600.5,782 L600.5,775 Z M600.5,785 L598.5,785 L598.5,792 L600.5,792 L600.5,785 Z M600.5,795 L598.5,795 L598.5,802 L600.5,802 L600.5,795 Z M600.5,805 L598.5,805 L598.5,812 L600.5,812 L600.5,805 Z M600.5,815 L598.5,815 L598.5,822 L600.5,822 L600.5,815 Z" id="0%-line-copy-2" fill="#707073" fill-rule="nonzero" transform="translate(599.500000, 673.500000) rotate(-90.000000) translate(-599.500000, -673.500000) "></path>
        <path d="M235.5,532 L233.5,532 L233.5,539 L235.5,539 L235.5,532 Z M235.5,542 L233.5,542 L233.5,549 L235.5,549 L235.5,542 Z M235.5,552 L233.5,552 L233.5,559 L235.5,559 L235.5,552 Z M235.5,562 L233.5,562 L233.5,569 L235.5,569 L235.5,562 Z M235.5,572 L233.5,572 L233.5,579 L235.5,579 L235.5,572 Z M235.5,582 L233.5,582 L233.5,589 L235.5,589 L235.5,582 Z M235.5,592 L233.5,592 L233.5,599 L235.5,599 L235.5,592 Z M235.5,602 L233.5,602 L233.5,609 L235.5,609 L235.5,602 Z M235.5,612 L233.5,612 L233.5,619 L235.5,619 L235.5,612 Z M235.5,622 L233.5,622 L233.5,629 L235.5,629 L235.5,622 Z M235.5,632 L233.5,632 L233.5,639 L235.5,639 L235.5,632 Z M235.5,642 L233.5,642 L233.5,649 L235.5,649 L235.5,642 Z M235.5,652 L233.5,652 L233.5,659 L235.5,659 L235.5,652 Z M235.5,662 L233.5,662 L233.5,669 L235.5,669 L235.5,662 Z M235.5,672 L233.5,672 L233.5,679 L235.5,679 L235.5,672 Z M235.5,682 L233.5,682 L233.5,689 L235.5,689 L235.5,682 Z M235.5,692 L233.5,692 L233.5,699 L235.5,699 L235.5,692 Z M235.5,702 L233.5,702 L233.5,709 L235.5,709 L235.5,702 Z M235.5,712 L233.5,712 L233.5,719 L235.5,719 L235.5,712 Z M235.5,722 L233.5,722 L233.5,729 L235.5,729 L235.5,722 Z M235.5,732 L233.5,732 L233.5,739 L235.5,739 L235.5,732 Z M235.5,742 L233.5,742 L233.5,749 L235.5,749 L235.5,742 Z M235.5,752 L233.5,752 L233.5,759 L235.5,759 L235.5,752 Z M235.5,762 L233.5,762 L233.5,769 L235.5,769 L235.5,762 Z M235.5,772 L233.5,772 L233.5,779 L235.5,779 L235.5,772 Z M235.5,782 L233.5,782 L233.5,789 L235.5,789 L235.5,782 Z M235.5,792 L233.5,792 L233.5,799 L235.5,799 L235.5,792 Z M235.5,802 L233.5,802 L233.5,809 L235.5,809 L235.5,802 Z M235.5,812 L233.5,812 L233.5,819 L235.5,819 L235.5,812 Z M235.5,822 L233.5,822 L233.5,829 L235.5,829 L235.5,822 Z" id="0%-line-copy" fill="#707073" fill-rule="nonzero" transform="translate(234.500000, 680.500000) rotate(-90.000000) translate(-234.500000, -680.500000) "></path>
        <path d="M236,682 L234,682 L234,689 L236,689 L236,682 Z M236,692 L234,692 L234,699 L236,699 L236,692 Z M236,702 L234,702 L234,709 L236,709 L236,702 Z M236,712 L234,712 L234,719 L236,719 L236,712 Z M236,722 L234,722 L234,729 L236,729 L236,722 Z M236,732 L234,732 L234,739 L236,739 L236,732 Z M236,742 L234,742 L234,749 L236,749 L236,742 Z M236,752 L234,752 L234,759 L236,759 L236,752 Z M236,762 L234,762 L234,769 L236,769 L236,762 Z M236,772 L234,772 L234,779 L236,779 L236,772 Z M236,782 L234,782 L234,789 L236,789 L236,782 Z M236,792 L234,792 L234,799 L236,799 L236,792 Z M236,802 L234,802 L234,809 L236,809 L236,802 Z M236,812 L234,812 L234,819 L236,819 L236,812 Z M236,822 L234,822 L234,829 L236,829 L236,822 Z M236,832 L234,832 L234,839 L236,839 L236,832 Z M236,842 L234,842 L234,849 L236,849 L236,842 Z M236,852 L234,852 L234,859 L236,859 L236,852 Z M236,862 L234,862 L234,869 L236,869 L236,862 Z M236,872 L234,872 L234,879 L236,879 L236,872 Z M236,882 L234,882 L234,889 L236,889 L236,882 Z M236,892 L234,892 L234,899 L236,899 L236,892 Z M236,902 L234,902 L234,909 L236,909 L236,902 Z M236,912 L234,912 L234,919 L236,919 L236,912 Z M236,922 L234,922 L234,929 L236,929 L236,922 Z M236,932 L234,932 L234,939 L236,939 L236,932 Z M236,942 L234,942 L234,949 L236,949 L236,942 Z M236,952 L234,952 L234,959 L236,959 L236,952 Z M236,962 L234,962 L234,969 L236,969 L236,962 Z M236,972 L234,972 L234,979 L236,979 L236,972 Z" id="0%-line-copy-3" fill="#707073" fill-rule="nonzero" transform="translate(235.000000, 830.500000) rotate(-90.000000) translate(-235.000000, -830.500000) "></path>
        <path d="M235.5,830 L233.5,830 L233.5,837 L235.5,837 L235.5,830 Z M235.5,840 L233.5,840 L233.5,847 L235.5,847 L235.5,840 Z M235.5,850 L233.5,850 L233.5,857 L235.5,857 L235.5,850 Z M235.5,860 L233.5,860 L233.5,867 L235.5,867 L235.5,860 Z M235.5,870 L233.5,870 L233.5,877 L235.5,877 L235.5,870 Z M235.5,880 L233.5,880 L233.5,887 L235.5,887 L235.5,880 Z M235.5,890 L233.5,890 L233.5,897 L235.5,897 L235.5,890 Z M235.5,900 L233.5,900 L233.5,907 L235.5,907 L235.5,900 Z M235.5,910 L233.5,910 L233.5,917 L235.5,917 L235.5,910 Z M235.5,920 L233.5,920 L233.5,927 L235.5,927 L235.5,920 Z M235.5,930 L233.5,930 L233.5,937 L235.5,937 L235.5,930 Z M235.5,940 L233.5,940 L233.5,947 L235.5,947 L235.5,940 Z M235.5,950 L233.5,950 L233.5,957 L235.5,957 L235.5,950 Z M235.5,960 L233.5,960 L233.5,967 L235.5,967 L235.5,960 Z M235.5,970 L233.5,970 L233.5,977 L235.5,977 L235.5,970 Z M235.5,980 L233.5,980 L233.5,987 L235.5,987 L235.5,980 Z M235.5,990 L233.5,990 L233.5,997 L235.5,997 L235.5,990 Z M235.5,1000 L233.5,1000 L233.5,1007 L235.5,1007 L235.5,1000 Z M235.5,1010 L233.5,1010 L233.5,1017 L235.5,1017 L235.5,1010 Z M235.5,1020 L233.5,1020 L233.5,1027 L235.5,1027 L235.5,1020 Z M235.5,1030 L233.5,1030 L233.5,1037 L235.5,1037 L235.5,1030 Z M235.5,1040 L233.5,1040 L233.5,1047 L235.5,1047 L235.5,1040 Z M235.5,1050 L233.5,1050 L233.5,1057 L235.5,1057 L235.5,1050 Z M235.5,1060 L233.5,1060 L233.5,1067 L235.5,1067 L235.5,1060 Z M235.5,1070 L233.5,1070 L233.5,1077 L235.5,1077 L235.5,1070 Z M235.5,1080 L233.5,1080 L233.5,1087 L235.5,1087 L235.5,1080 Z M235.5,1090 L233.5,1090 L233.5,1097 L235.5,1097 L235.5,1090 Z M235.5,1100 L233.5,1100 L233.5,1107 L235.5,1107 L235.5,1100 Z M235.5,1110 L233.5,1110 L233.5,1117 L235.5,1117 L235.5,1110 Z M235.5,1120 L233.5,1120 L233.5,1127 L235.5,1127 L235.5,1120 Z" id="0%-line-copy-2" fill="#707073" fill-rule="nonzero" transform="translate(234.500000, 978.500000) rotate(-90.000000) translate(-234.500000, -978.500000) "></path>
        <g id="value-label" transform="translate(943.000000, 58.000000)">
            <g id="Group" transform="translate(4.500000, 0.000000)">
                <rect id="pill" fill="#D75037" x="0" y="0" width="35" height="24" rx="12"></rect>
                <text id="100" font-family="Menlo-Bold, Menlo" font-size="15" font-weight="bold" fill="#F9FAFA">
                    <tspan x="8.46923828" y="17">0%</tspan>
                </text>
            </g>
        </g>
        <g id="value-label" transform="translate(578.000000, 364.000000)">
            <g id="Group" transform="translate(4.500000, 0.000000)">
                <rect id="pill" fill="#D75037" x="0" y="0" width="35" height="24" rx="12"></rect>
                <text id="100" font-family="Menlo-Bold, Menlo" font-size="15" font-weight="bold" fill="#F9FAFA">
                    <tspan x="8.46923828" y="17">0%</tspan>
                </text>
            </g>
        </g>
        <rect id="pill" fill="#707073" x="217.5" y="669" width="35" height="24" rx="12"></rect>
        <text id="100" font-family="Menlo-Bold, Menlo" font-size="15" font-weight="bold" fill="#F9FAFA">
            <tspan x="225.969238" y="686">0%</tspan>
        </text>
        <g id="value-label" transform="translate(943.000000, 208.000000)">
            <g id="Group">
                <rect id="pill" fill="#D75037" x="0" y="0" width="44" height="24" rx="12"></rect>
                <text id="100" font-family="Menlo-Bold, Menlo" font-size="15" font-weight="bold" fill="#F9FAFA">
                    <tspan x="8.45385742" y="17">50%</tspan>
                </text>
            </g>
        </g>
        <g id="value-label" transform="translate(578.000000, 514.000000)">
            <g id="Group">
                <rect id="pill" fill="#D75037" x="0" y="0" width="44" height="24" rx="12"></rect>
                <text id="100" font-family="Menlo-Bold, Menlo" font-size="15" font-weight="bold" fill="#F9FAFA">
                    <tspan x="8.45385742" y="17">50%</tspan>
                </text>
            </g>
        </g>
        <rect id="pill" fill="#707073" x="213" y="819" width="44" height="24" rx="12"></rect>
        <text id="100" font-family="Menlo-Bold, Menlo" font-size="15" font-weight="bold" fill="#F9FAFA">
            <tspan x="221.453857" y="836">50%</tspan>
        </text>
        <g id="value-label" transform="translate(943.000000, 358.000000)">
            <g id="Group" transform="translate(-4.500000, 0.000000)">
                <rect id="pill" fill="#D75037" x="0" y="0" width="53" height="24" rx="12"></rect>
                <text id="100" font-family="Menlo-Bold, Menlo" font-size="15" font-weight="bold" fill="#F9FAFA">
                    <tspan x="8.43847656" y="17">100%</tspan>
                </text>
            </g>
        </g>
        <rect id="pill" fill="#707073" x="573.5" y="663" width="53" height="24" rx="12"></rect>
        <text id="100" font-family="Menlo-Bold, Menlo" font-size="15" font-weight="bold" fill="#F9FAFA">
            <tspan x="581.938477" y="680">100%</tspan>
        </text>
        <rect id="pill" fill="#707073" x="208.5" y="968" width="53" height="24" rx="12"></rect>
        <text id="100" font-family="Menlo-Bold, Menlo" font-size="15" font-weight="bold" fill="#F9FAFA">
            <tspan x="216.938477" y="985">100%</tspan>
        </text>
    </g>
</svg>