<?xml version="1.0" encoding="UTF-8"?>
<svg width="1200px" height="328px" viewBox="0 0 1200 328" version="1.1" xmlns="http://www.w3.org/2000/svg" xmlns:xlink="http://www.w3.org/1999/xlink">
    <!-- Generator: Sketch 60.1 (88133) - https://sketch.com -->
    <title>titling-caps copy</title>
    <desc>Created with Sketch.</desc>
    <g id="titling-caps-copy" stroke="none" stroke-width="1" fill="none" fill-rule="evenodd">
        <rect fill="#F9F9FB" x="0" y="0" width="1200" height="328"></rect>
        <line x1="0" y1="77" x2="1200.5" y2="77.5" id="ascender-height" stroke="#DEDEE6" stroke-width="2" stroke-linecap="square"></line>
        <line x1="0" y1="241" x2="1200.5" y2="241.5" id="ascender-height" stroke="#DEDEE6" stroke-width="2" stroke-linecap="square"></line>
        <path d="M228.88,243.44 C230.16,243.44 230.8,242.32 230.8,240.08 C230.8,238.08 230,237 228.4,236.84 C220.4,235.88 214.02,233.56 209.26,229.88 C204.5,226.2 200.72,220.48 197.92,212.72 L197.92,212.72 L148.36,74.72 C147.88,73.52 146.68,72.92 144.76,72.92 C143,72.92 141.88,73.56 141.4,74.84 L141.4,74.84 L85.24,212.72 C81.08,222.08 77.06,228.28 73.18,231.32 C69.3,234.36 64.04,236.2 57.4,236.84 C55.56,237 54.64,238.2 54.64,240.44 C54.64,242.44 55.24,243.44 56.44,243.44 C60.28,243.44 64.92,243.2 70.36,242.72 C75.56,242.24 79.88,242 83.32,242 C87.64,242 92.56,242.24 98.08,242.72 C103.92,243.2 109.24,243.44 114.04,243.44 C115.32,243.44 115.96,242.32 115.96,240.08 C115.96,237.84 115.48,236.72 114.52,236.72 C101.56,236.08 95.08,232.24 95.08,225.2 C95.08,222.48 95.96,218.64 97.72,213.68 L97.72,213.68 L111.4,176.48 L160.84,176.48 L174.4,216.68 C176,221.24 176.8,224.56 176.8,226.64 C176.8,229.92 175.24,232.34 172.12,233.9 C169,235.46 163.88,236.4 156.76,236.72 C155.8,236.72 155.32,237.84 155.32,240.08 C155.32,242.32 155.96,243.44 157.24,243.44 C162.6,243.44 169.08,243.2 176.68,242.72 C183.88,242.24 189.92,242 194.8,242 C199.04,242 204.16,242.24 210.16,242.72 C217.12,243.2 223.36,243.44 228.88,243.44 Z M158.2,168.8 L114.28,168.8 L137.08,107.48 L158.2,168.8 Z M239.8,243.44 C245.16,243.44 252.12,243.2 260.68,242.72 C268.92,242.24 275.48,242 280.36,242 C285.24,242 292.36,242.24 301.72,242.72 C311.56,243.2 319.16,243.44 324.52,243.44 C340.92,243.44 354.08,238.98 364,230.06 C373.92,221.14 378.88,209.28 378.88,194.48 C378.88,184.16 374.68,175.24 366.28,167.72 C357.88,160.2 346.6,155.04 332.44,152.24 C342.44,150 350.84,145.34 357.64,138.26 C364.44,131.18 367.84,123.56 367.84,115.4 C367.84,103.72 363.24,94.32 354.04,87.2 C344.84,80.08 332.76,76.52 317.8,76.52 C312.44,76.52 305.56,76.76 297.16,77.24 C289.24,77.72 282.84,77.96 277.96,77.96 L277.41251,77.9590123 C272.621948,77.941893 266.644444,77.7022222 259.48,77.24 C251.72,76.76 245.16,76.52 239.8,76.52 C238.52,76.52 237.88,77.64 237.88,79.88 C237.88,82.12 238.52,83.24 239.8,83.24 C246.6,84.04 251.76,85.1 255.28,86.42 C258.8,87.74 261.26,89.54 262.66,91.82 C264.06,94.1 264.76,98.04 264.76,103.64 L264.76,103.64 L264.76,216.56 C264.76,224 263.02,228.96 259.54,231.44 C256.06,233.92 249.48,235.72 239.8,236.84 C238.52,237 237.88,238.08 237.88,240.08 C237.88,242.32 238.52,243.44 239.8,243.44 Z M306.52,149.84 L289.24,149.84 L289.24,97.64 C289.24,89 294.28,84.68 304.36,84.68 L304.36,84.68 L309.16,84.68 C320.12,84.68 328.2,87.16 333.4,92.12 C338.6,97.08 341.2,104.84 341.2,115.4 C341.2,127.56 338.46,136.34 332.98,141.74 C327.5,147.14 318.68,149.84 306.52,149.84 L306.52,149.84 Z M316.84,235.52 C306.76,235.52 299.64,234.18 295.48,231.5 C291.32,228.82 289.24,223.84 289.24,216.56 L289.24,216.56 L289.24,157.52 L315.4,157.52 C327,157.52 336.08,160.8 342.64,167.36 C349.2,173.92 352.48,182.96 352.48,194.48 C352.48,206.72 349.16,216.62 342.52,224.18 C335.88,231.74 327.32,235.52 316.84,235.52 Z M489.4,247.28 C496.76,247.28 508.12,245.88 523.48,243.08 C535.48,240.92 543.76,239.84 548.32,239.84 C551.04,225.44 553.84,211.84 556.72,199.04 C556.72,197.76 555.6,197.12 553.36,197.12 C551.76,197.12 550.68,197.76 550.12,199.04 C538.2,226.08 517.96,239.6 489.4,239.6 C471.16,239.6 455.72,231.94 443.08,216.62 C430.44,201.3 424.12,182.72 424.12,160.88 C424.12,138.4 430.5,119.4 443.26,103.88 C456.02,88.36 471.8,80.6 490.6,80.6 C503,80.6 513.96,84.12 523.48,91.16 C533,98.2 539.2,107.16 542.08,118.04 C542.4,119.32 543.36,119.96 544.96,119.96 C547.52,119.96 548.8,119.32 548.8,118.04 C546.16,102.04 544.32,88.44 543.28,77.24 C538.8,77.24 531.64,76.6 521.8,75.32 C509.16,73.72 499.08,72.92 491.56,72.92 C473.72,72.92 457.68,76.72 443.44,84.32 C429.2,91.92 418.02,102.54 409.9,116.18 C401.78,129.82 397.72,144.72 397.72,160.88 C397.72,177.28 401.56,192.18 409.24,205.58 C416.92,218.98 427.64,229.28 441.4,236.48 C455.16,243.68 471.16,247.28 489.4,247.28 Z" id="ABC" fill="#C9C9D6" fill-rule="nonzero"></path>
        <path d="M823.2,241.96 C824.64,241.96 825.12,239.32 822.96,238.84 C817.2,237.4 808.8,236.68 805.68,235 C799.2,231.16 792.96,215.8 740.64,67.24 C740.16,66.04 734.4,65.56 733.68,67.24 C700.32,158.92 677.52,220.12 670.32,229.96 C666.72,235 663.84,237.4 651.6,238.84 C649.68,239.08 650.16,241.96 651.36,241.96 C657.84,241.24 663.36,241 676.08,241 C689.04,241 691.44,241.24 698.16,241.96 C699.36,241.96 699.84,239.08 697.68,238.84 C684,236.68 682.08,234.52 682.08,230.2 C682.08,225.4 690.24,201.16 701.52,170.44 C707.52,170.2 718.32,169.96 738.72,169.96 L757.92,169.96 L757.92,169.96 C762,181.48 766.08,193 769.92,203.56 C779.76,231.64 777.84,234.28 774.72,236.2 C771.6,237.88 763.44,237.4 757.68,238.84 C755.76,239.32 756,241.96 757.44,241.96 C763.92,241.24 781.92,241 794.88,241 C807.6,241 816.72,241.24 823.2,241.96 Z M755.76,164.68 L730.877058,164.679107 C717.54582,164.674239 709.156056,164.642817 703.68,164.44 C711.36,142.84 720.48,118.84 729.12,96.04 C729.36,95.32 730.32,95.08 730.56,96.04 C738.24,116.44 747.12,140.68 755.76,164.68 Z M898.8,241.96 C935.52,241.96 962.88,223.48 962.88,193.72 C962.88,173.56 946.8,154.6 911.76,149.8 C910.56,149.56 910.56,147.88 911.52,147.64 C935.28,142.6 951.12,129.4 951.12,110.68 C951.12,85.96 926.88,70.36 894,70.36 C887.28,70.36 882,71.56 869.28,71.56 C856.32,71.56 837.84,71.08 831.12,70.36 C829.92,70.36 829.44,73 831.36,73.48 C837.36,74.92 844.32,74.92 847.44,76.6 C849.36,77.8 850.56,84.04 850.56,156.28 C850.56,228.28 849.36,234.52 847.44,235.72 C844.32,237.64 837.36,237.4 831.36,238.84 C829.44,239.32 829.92,241.96 831.12,241.96 C837.84,241.24 858.24,241 870.96,241 C883.68,241 893.04,241.96 898.8,241.96 Z M889.92,147.64 L886.027316,147.639255 C875.638379,147.632637 874.988764,147.567191 872.4,146.92 C870.72,146.44 870.48,145.24 870.48,143.56 C870.48,83.56 871.92,80.44 873.84,79.24 C876.72,77.56 876.72,76.12 889.44,76.12 C915.36,76.12 928.56,89.08 928.56,111.64 C928.56,130.84 913.44,147.64 889.92,147.64 Z M900.96,236.2 C883.92,236.2 879.84,235.24 875.28,231.4 C871.44,228.04 870.48,216.28 870.48,157.24 C870.48,155.56 870.72,154.36 872.4,153.88 C875.28,153.16 875.76,153.16 889.92,153.16 C924.24,153.16 940.32,172.12 940.32,197.8 C940.32,220.84 924.72,236.2 900.96,236.2 Z M1076.16,245.8 C1093.92,245.8 1114.32,241.96 1128.96,237.16 C1131.36,236.44 1137.12,209.32 1138.08,200.92 C1138.32,199 1135.68,199 1135.44,200.2 C1124.4,226.12 1103.76,240.04 1073.76,240.04 C1038.96,240.04 1006.8,205.72 1006.8,155.56 C1006.8,104.92 1035.36,72.76 1071.6,72.76 C1101.6,72.76 1118.64,83.32 1129.68,109 C1129.92,110.2 1132.56,110.2 1132.32,108.52 C1132.08,99.88 1130.64,75.88 1128.24,75.16 C1112.16,69.88 1092.72,67 1073.76,67 C1026,67 984,107.8 984,154.84 C984,202.6 1017.36,245.8 1076.16,245.8 Z" id="ABC" fill="#2E3138" fill-rule="nonzero"></path>
    </g>
</svg>