<?xml version="1.0" encoding="UTF-8"?>
<svg width="1200px" height="328px" viewBox="0 0 1200 328" version="1.1" xmlns="http://www.w3.org/2000/svg" xmlns:xlink="http://www.w3.org/1999/xlink">
    <!-- Generator: Sketch 60.1 (88133) - https://sketch.com -->
    <title>unicase</title>
    <desc>Created with Sketch.</desc>
    <g id="unicase" stroke="none" stroke-width="1" fill="none" fill-rule="evenodd">
        <rect fill="#F9F9FB" x="0" y="0" width="1200" height="328"></rect>
        <line x1="0" y1="86" x2="1200.5" y2="86.5" id="ascender-height" stroke="#DEDEE6" stroke-width="2" stroke-linecap="square"></line>
        <line x1="0" y1="128.5" x2="1200.5" y2="129" id="ascender-height" stroke="#DEDEE6" stroke-width="2" stroke-linecap="square"></line>
        <line x1="0" y1="242" x2="1200.5" y2="242.5" id="ascender-height" stroke="#DEDEE6" stroke-width="2" stroke-linecap="square"></line>
        <path d="M696.899066,91.1660947 C712.264086,97.7929033 720.079356,110.898173 721.99071,127.501306 C722.398751,131.053821 721.135579,132.595848 717.529582,132.636838 C713.30469,132.687588 709.08175,133.044792 705.446468,133.238033 C704.206724,133.238033 703.544876,133.16386 702.906457,133.249745 C695.016998,134.30574 688.587899,133.763103 686.731211,123.683327 C685.844842,118.881575 681.442286,115.358338 676.557498,113.892437 C665.331467,110.521451 654.097627,110.193526 643.472921,116.029802 C635.112944,120.62465 634.728331,130.083711 642.734931,135.328552 C651.32919,140.957924 661.430666,142.622921 671.14948,145.170192 C681.053768,147.768214 690.96196,150.294013 700.335208,154.545321 C718.552616,162.807848 727.215207,177.468808 726.697833,196.892482 C726.17265,216.571858 716.883354,231.511944 698.103668,239.02493 C680.212303,246.184616 661.639567,246.266597 642.965309,242.308079 C617.840476,236.983209 605.320034,219.191351 601.235712,196.484528 C600.470389,192.227365 601.42509,190.212971 606.23764,190.050961 C613.201684,189.818681 620.163776,189.032052 627.084868,188.155635 C630.509295,187.722306 632.135606,188.774397 633.033688,192.104393 C639.029365,214.319329 661.625901,224.207816 682.369654,213.804019 C686.397358,211.78377 689.665598,208.906622 691.967422,205.039845 C696.94397,196.675817 693.89049,187.616902 684.458672,183.256286 C676.151409,179.412932 667.127632,177.826012 658.349852,175.475886 C648.30109,172.784172 638.215234,170.209574 629.002079,165.150166 C613.826437,156.815418 605.7476,144.055639 606.292306,126.675638 C606.846775,108.940386 616.038454,96.3055312 632.293746,89.9637047 C653.763774,81.5918692 675.811699,82.0720444 696.899066,91.1660947 Z M815.148024,84.6817772 C834.031184,85.5133002 850.27281,92.4250908 862.297353,107.558418 C872.197736,120.015647 876.733053,134.670751 879.091496,150.126147 C880.120386,156.881783 880.22386,163.703785 880.403477,170.533594 C880.524523,175.142105 879.155923,176.797344 874.372658,176.719266 C858.595692,176.465515 842.812868,176.625574 827.031997,176.625574 C811.415124,176.627526 795.794346,176.760257 780.181378,176.537737 C776.106817,176.479179 775.292685,177.802589 775.646061,181.603 C778.221215,209.302864 807.365944,225.494139 829.870719,211.64323 C835.669208,208.075099 839.386489,202.828306 841.930405,196.726568 C843.136959,193.829901 844.468464,192.807088 847.795274,193.562486 C855.386023,195.289946 863.062676,196.746087 870.774471,197.80989 C875.120409,198.409133 875.766638,200.048755 874.530799,203.958475 C868.009939,224.580635 853.800712,236.778257 833.226814,242.083607 C817.738796,246.079212 802.241017,245.821557 787.092708,240.762149 C765.339589,233.499011 751.714116,217.905028 745.464633,196.3557 C737.856313,170.1354 737.68841,143.717955 750.652035,119.039681 C764.097892,93.4439992 787.000947,83.4462044 815.148024,84.6817772 Z M966.789249,86.8769197 C976.224972,86.9296219 985.611886,87.8411741 994.897278,89.5940088 C1011.1389,92.6624457 1024.21186,107.76259 1025.47894,125.095745 C1026.56249,139.885532 1023.51682,153.287496 1011.60552,163.363368 C1005.7836,168.28614 998.934745,171.188663 991.498231,172.740449 C990.387342,172.970777 988.987505,172.982488 988.563844,174.138032 C988.044518,175.557086 989.549783,176.029454 990.422485,176.593562 C1000.81877,183.298448 1007.90386,192.995645 1014.41105,203.176921 C1021.58595,214.406385 1028.63004,225.721734 1035.68389,237.029275 C1038.34104,241.28839 1038.05795,241.774421 1032.92521,241.799796 C1023.81944,241.848595 1014.7039,241.596795 1005.60789,241.911056 C1001.36738,242.059403 998.821508,240.691099 996.47478,237.119064 C986.92582,222.583028 976.800916,208.423714 967.374955,193.813504 C959.819348,182.101914 949.669064,176.782899 935.737071,178.059463 C932.109599,178.393243 931.043614,179.414103 931.070947,182.949052 C931.209564,200.508631 930.96552,218.070161 931.236897,235.625836 C931.314991,240.568127 929.860488,242.225317 924.895654,241.91496 C918.417746,241.508958 911.892982,241.821268 905.387741,241.81346 C898.601361,241.807604 898.577933,241.799796 898.575981,235.186651 C898.566219,211.613171 898.572076,188.037738 898.572076,164.462306 C898.572076,140.724863 898.560362,116.98742 898.579885,93.2480252 C898.585742,87.1131035 898.853215,86.8320253 904.83132,86.8261695 C925.483312,86.8105541 946.137257,86.7578519 966.789249,86.8769197 Z M931.0688,118.560287 C931.256226,128.31409 931.236702,138.073749 931.084419,147.827552 C931.033657,151.120461 932.380781,151.994927 935.432309,151.955888 C946.330345,151.819253 957.22838,151.830965 968.126416,151.871955 C971.738269,151.885619 975.254457,151.368357 978.745265,150.540738 C987.046671,148.569286 992.138408,142.303585 992.400023,133.765836 C992.669448,124.872834 987.940849,118.201131 979.655062,115.821726 C971.507892,113.48136 963.147915,115.263474 956.297108,114.578346 C948.407648,114.578346 941.898503,114.701317 935.397167,114.525644 C932.357353,114.443662 931.004372,115.195156 931.0688,118.560287 Z M804.120547,112.836637 C788.837526,115.559582 775.858282,131.483442 775.575191,147.502946 C775.51662,150.87198 777.340118,150.729489 779.552134,150.727537 C789.798084,150.717778 800.044033,150.723634 810.291935,150.717778 C820.537885,150.711922 830.785787,150.647508 841.031737,150.749009 C844.276548,150.78024 845.594386,149.583705 844.762684,146.370826 C843.868506,142.915906 843.110993,139.412189 842.004008,136.025587 C836.461278,119.063299 821.23878,109.787719 804.120547,112.836637 Z" id="Combined-Shape" fill="#2E3138"></path>
        <path d="M161,190.940742 L191.917274,187.932516 C193.778045,198.318109 197.553207,205.946034 203.242873,210.816518 C208.932539,215.687003 216.608105,218.122209 226.269801,218.122209 C236.504043,218.122209 244.215392,215.955592 249.404081,211.622293 C254.59277,207.288994 257.187075,202.221617 257.187075,196.42001 C257.187075,192.695522 256.095678,189.526173 253.91285,186.911868 C251.730022,184.297564 247.919077,182.023511 242.4799,180.089642 C238.758357,178.800396 230.277662,176.508438 217.03756,173.213698 C200.004346,168.987836 188.052649,163.795118 181.18211,157.635387 C171.520413,148.968789 166.689637,138.404293 166.689637,125.941581 C166.689637,117.919606 168.961891,110.417023 173.506467,103.433608 C178.051043,96.4501917 184.599428,91.1321317 193.151818,87.4792681 C201.704209,83.8264044 212.027756,82 224.122768,82 C243.87557,82 258.743624,86.333234 268.727377,94.9998321 C278.71113,103.66643 283.953417,115.233658 284.454394,129.701863 L252.678306,131.09854 C251.318512,123.00494 248.402155,117.185514 243.929147,113.640087 C239.456139,110.094661 232.746729,108.321974 223.800713,108.321974 C214.568425,108.321974 207.340154,110.220002 202.115681,114.016115 C198.751979,116.451358 197.070153,119.710236 197.070153,123.792849 C197.070153,127.517337 198.644628,130.704592 201.793626,133.354709 C205.801441,136.721073 215.534559,140.230635 230.993274,143.883498 C246.451988,147.536362 257.884824,151.314512 265.292125,155.218063 C272.699425,159.121613 278.496356,164.457579 282.683091,171.226121 C286.869827,177.994662 288.963163,186.356729 288.963163,196.312573 C288.963163,205.337295 286.458316,213.788892 281.448548,221.667618 C276.438779,229.546343 269.353641,235.401581 260.192921,239.233507 C251.032202,243.065432 239.617258,244.981366 225.947746,244.981366 C206.051808,244.981366 190.772243,240.379544 180.108593,231.17576 C169.444943,221.971976 163.075476,208.560437 161,190.940742 Z M381.500282,205.874433 L411.558743,210.923955 C407.694065,221.954171 401.592974,230.35205 393.255287,236.117845 C384.917601,241.883639 374.486704,244.766493 361.962282,244.766493 C342.137913,244.766493 327.466668,238.284548 317.948107,225.320463 C310.433455,214.934871 306.676184,201.827733 306.676184,185.998657 C306.676184,167.089716 311.614311,152.281515 321.490712,141.573611 C331.367113,130.865707 343.855563,125.511835 358.956436,125.511835 C375.918081,125.511835 389.301119,131.11639 399.105952,142.325667 C408.910785,153.534945 413.598427,170.706728 413.169018,193.841531 L337.593459,193.841531 C337.808163,202.794628 340.241443,209.760033 344.893371,214.737955 C349.545299,219.715877 355.34223,222.204801 362.284337,222.204801 C367.007833,222.204801 370.979805,220.915574 374.20037,218.337082 C377.420936,215.75859 379.854215,211.604416 381.500282,205.874433 Z M383.217908,175.362431 C383.003204,166.624208 380.748842,159.981109 376.454755,155.432936 C372.160667,150.884763 366.936273,148.61071 360.781414,148.61071 C354.197147,148.61071 348.758051,151.010104 344.463964,155.808964 C340.169877,160.607824 338.058649,167.125581 338.130217,175.362431 L383.217908,175.362431 Z M466.630138,242.188014 L436.464325,242.188014 L436.464325,128.090314 L464.483105,128.090314 L464.483105,144.313245 C469.278169,136.649394 473.590084,131.599923 477.418978,129.16468 C481.247873,126.729438 485.595571,125.511835 490.462203,125.511835 C497.332743,125.511835 503.952695,127.409863 510.322258,131.205976 L500.982665,157.52795 C495.901328,154.233211 491.177903,152.585865 486.812247,152.585865 C482.589728,152.585865 479.011376,153.749751 476.077083,156.077556 C473.14279,158.405361 470.834752,162.613254 469.152902,168.70136 C467.471051,174.789466 466.630138,187.538485 466.630138,206.9488 L466.630138,242.188014 Z" id="Server" fill="#C9C9D6" fill-rule="nonzero"></path>
    </g>
</svg>