<?xml version="1.0" encoding="UTF-8"?>
<svg width="512px" height="512px" viewBox="0 0 512 512" version="1.1" xmlns="http://www.w3.org/2000/svg">
  <g stroke="none" stroke-width="1" fill="none" fill-rule="evenodd">
    <rect fill="#2E3138" x="0" y="0" width="512" height="512"></rect>
    <path
      d="M186.76567,140.002091 L197.345819,151.871508 C197.433953,151.861083 197.520358,151.85058 197.605,151.84 C197.065,159.67 196.795,181.27 196.795,191.8 L196.795,280.9 C196.795,326.8 181.405,347.86 138.745,347.86 C126.606881,347.86 108.540372,344.895806 96.3906591,340.044251 L96.2858939,340.124534 L85.3801814,328.052846 L97.1461814,326.461785 L98.515,303.04 C109.045,307.09 120.115,310.33 130.915,310.33 C147.115,310.33 153.055,300.88 153.055,284.68 L153.054215,217.095646 C153.030872,199.459575 152.48533,165.865165 151.165,153.19 C158.177157,153.19 172.018529,153.07618 183.229851,152.700738 L186.76567,140.002091 Z M398.069137,139.764785 L409.33063,151.781694 L409.210597,151.880333 C409.328209,151.867016 409.443033,151.853572 409.555,151.84 C408.745,159.67 408.475,181.27 408.475,191.8 L408.475,304.12 C408.475,314.38 408.745,335.44 409.555,343 L363.449181,342.999785 L363.285894,343.124534 L363.173181,342.999785 L363.115,343 L363.120181,342.940785 L352.380181,331.052846 L364.01376,329.48127 C364.699928,314.450286 364.995739,293.963808 365.004786,280.9709 L365.005,262 L285.625,262 L285.625,304.12 C285.625,314.38 285.895,335.44 286.435,343 L240.449181,342.999785 L240.285894,343.124534 L229.380181,331.052846 L241.146406,329.46288 C241.83495,313.946385 242.136977,292.313541 242.154215,279.111382 L242.154215,217.095646 C242.130872,199.459575 241.58533,165.865165 240.265,153.19 C246.5425,153.19 258.673428,153.094042 269.278258,152.787715 L275.069137,139.764785 L286.33063,151.781694 L286.229973,151.865067 C286.299416,151.85676 286.367764,151.848405 286.435,151.84 C285.895,159.67 285.625,181.27 285.625,191.8 L285.625,228.79 L365.005,228.79 L365.004215,217.095646 C364.980872,199.459575 364.43533,165.865165 363.115,153.19 C369.410917,153.19 381.59466,153.093478 392.279268,152.785014 L398.069137,139.764785 Z"
      fill="#E6644C" fill-rule="nonzero"></path>
    <path
      d="M142.055,206.26 C142.055,188.98 141.515,154.15 140.165,141.19 C150.965,141.19 177.965,140.92 186.605,139.84 C186.065,147.67 185.795,169.27 185.795,179.8 L185.795,268.9 C185.795,314.8 170.405,335.86 127.745,335.86 C115.595,335.86 97.505,332.89 85.355,328.03 L87.515,291.04 C98.045,295.09 109.115,298.33 119.915,298.33 C136.115,298.33 142.055,288.88 142.055,272.68 L142.055,206.26 Z M398.555,331 L352.115,331 C353.465,318.04 354.005,285.91 354.005,268.36 L354.005,250 L274.625,250 L274.625,292.12 C274.625,302.38 274.895,323.44 275.435,331 L229.265,331 C230.615,318.04 231.155,283.48 231.155,265.93 L231.155,206.26 C231.155,188.98 230.615,154.15 229.265,141.19 C239.795,141.19 266.795,140.92 275.435,139.84 C274.895,147.67 274.625,169.27 274.625,179.8 L274.625,216.79 L354.005,216.79 L354.005,206.26 C354.005,188.98 353.465,154.15 352.115,141.19 C362.645,141.19 389.645,140.92 398.555,139.84 C397.745,147.67 397.475,169.27 397.475,179.8 L397.475,292.12 C397.475,302.38 397.745,323.44 398.555,331 Z"
      fill="#FFFFFF" fill-rule="nonzero"></path>
  </g>
</svg>
